<?xml version="1.0" encoding="utf-8"?>
<!-- Generator: Adobe Illustrator 27.5.0, SVG Export Plug-In . SVG Version: 6.00 Build 0)  -->
<svg version="1.1" id="Capa_1" xmlns="http://www.w3.org/2000/svg" xmlns:xlink="http://www.w3.org/1999/xlink" x="0px" y="0px"
	 viewBox="0 0 290.8 125.8" style="enable-background:new 0 0 290.8 125.8;" xml:space="preserve">
<style type="text/css">
	.st0{fill:#FFFFFF;}
	.st1{fill:none;}
	.st2{fill:#223974;}
	.st3{fill:#CF172C;}
</style>
<g>
	<path class="st0" d="M104.1,89.7c-6.4,6.3-15.2,10.2-25,10.2c-9.7,0-18.6-4-25-10.4c-1.3-1.3-2.5-2.8-3.6-4.3l-6.6,6.3
		c1.1,1.5,2.4,2.9,3.7,4.2c8.1,8.1,19.1,13,31.4,13c12.3,0,23.4-4.9,31.4-13c1.2-1.2,2.4-2.5,3.4-3.9l-6.3-6.2
		C106.5,87.1,105.4,88.5,104.1,89.7z M72.5,102.9h-0.2c0.1-0.4,0.1-0.6,0.1-0.8c0-0.1-0.1-0.4-0.2-0.5c-0.1-0.2-0.4-0.4-0.5-0.4
		c-0.3-0.2-0.5-0.3-0.8-0.3c-0.5-0.1-1.1-0.1-1.5,0c-0.4,0.1-0.9,0.4-1.2,0.7c-0.4,0.4-0.5,0.7-0.6,1.1c-0.1,0.4-0.1,0.6,0,1
		c0.1,0.3,0.2,0.7,0.4,1c0.2,0.3,0.4,0.5,0.8,0.8c0.4,0.3,0.7,0.4,1.1,0.4c0.4,0.1,0.8,0.1,1.2,0.1c0.4-0.1,0.7-0.2,1-0.3l0.1,0.2
		c-0.4,0.2-0.7,0.3-1.2,0.3c-0.4,0-0.9,0-1.2-0.1c-0.6-0.2-1.1-0.4-1.5-0.7c-0.4-0.4-0.8-0.8-1-1.2c-0.2-0.4-0.3-1-0.2-1.4
		c0.1-0.4,0.3-0.7,0.5-1c0.3-0.3,0.6-0.5,1-0.7c0.4-0.2,0.8-0.3,1.2-0.4c0.4,0,0.9,0,1.3,0.1c0.7,0.1,1.2,0.4,1.7,0.7l0.1-0.4H73
		L72.5,102.9z M78.2,102l-0.5-0.1l-0.4,4.5c0,0.2,0,0.3,0.1,0.4c0.1,0.1,0.2,0.1,0.4,0.2c0,0,0.1,0,0.2,0v0.2l-1.7-0.1V107h0.5
		l0.3-3.5l-1.9-0.2l-0.3,3c0,0.2,0,0.4,0.2,0.4c0.1,0,0.2,0.1,0.4,0.1v0.2l-1.7-0.1v-0.2h0.5l0.4-4.5c0-0.3-0.2-0.4-0.4-0.4h-0.1
		v-0.2l1.7,0.1v0.2h-0.6l-0.1,1.2l1.9,0.2l0.1-0.9c0-0.1,0-0.2-0.1-0.3c-0.1-0.1-0.2-0.1-0.4-0.1h-0.2v-0.2l1.7,0.1V102z
		 M81.4,107.2h-1.6l0.1-0.2h0.5l-0.1-4.5c0-0.2-0.1-0.3-0.2-0.3c-0.1-0.1-0.3-0.1-0.4-0.1v-0.2h1.7v0.2h-0.5l0.1,4.4
		c0,0.2,0,0.2,0,0.3s0.1,0.2,0.1,0.2c0.1,0,0.3,0,0.4,0V107.2z M86,107.1v-0.4l-2.8,0.4v-0.2l0.5-0.1l-0.5-4.5
		c0-0.2-0.1-0.3-0.2-0.3c-0.1,0-0.3,0-0.4,0v-0.2l1.6-0.2v0.2l-0.5,0.1l0.6,4.9c0.3,0,0.5-0.1,0.8-0.2c0.3-0.1,0.4-0.2,0.6-0.3
		c0.2-0.2,0.2-0.4,0.2-0.5l-0.2-1.2h0.2l0.3,2.5H86z M90.9,105.9l-0.1-0.3l-2.8,0.6v-0.2l0.5-0.1l-1-4.4c0-0.2-0.1-0.3-0.2-0.3
		c-0.1,0-0.3,0-0.4,0v-0.2l2.8-0.6l-0.1-0.4h0.2l0.4,1.7H90l-0.1-0.3c-0.1-0.4-0.3-0.6-0.5-0.7c-0.3-0.1-0.6,0-1.2,0.1l-0.3,0.1
		l0.3,1.2L89,102l-0.2-0.8H89l0.4,1.9h-0.2c-0.1-0.3-0.1-0.4-0.2-0.5c-0.1-0.2-0.2-0.3-0.4-0.3c-0.1,0-0.2,0-0.4,0.1l0.8,3.4
		c0.4-0.1,0.7-0.2,1.1-0.3c0.3-0.2,0.4-0.3,0.4-0.4c0.1-0.2,0.1-0.4,0-0.6l-0.1-0.4h0.2l0.4,1.9H90.9z"/>
	<path class="st0" d="M43.7,64.5c0-9.7,4-18.6,10.4-25c6.5-6.2,15.3-10.2,25-10.2s18.6,4,25,10.4c6.4,6.4,10.4,15.2,10.4,25
		c0,7.6-2.4,14.6-6.5,20.4l6.3,6.3c5.7-7.5,9-16.8,9-26.9c0-12.3-4.9-23.4-12.9-31.4C102.5,25,91.4,20,79.1,20
		c-12.3,0-23.4,4.9-31.4,13C39.6,41,34.5,52.1,34.5,64.4c0,10,3.2,19.1,8.8,26.5l6.7-6.3C46,78.9,43.7,72,43.7,64.5z M120.7,61.2
		l-4.1,1.9c-0.2,0.1-0.3,0.1-0.4,0.2c-0.2,0.1-0.3,0.2-0.4,0.3c-0.1,0.1-0.2,0.3-0.1,0.4h-0.2l-0.1-1.5h0.2l-0.1,0.6l3.1-1.4
		l-0.1-0.8l-2.3-0.5c-0.2-0.1-0.4-0.1-0.5-0.1c-0.1,0-0.2,0.1-0.3,0.1c-0.1,0.1-0.1,0.2-0.1,0.4c0,0.1,0,0.3,0,0.4h-0.2l-0.1-1.6
		h0.2v0.4l5.3,1.1V61.2z M119.4,53.7l0.2,0.9l-3.7,3.1l3.5-0.6c0.2,0,0.3-0.1,0.4-0.3c0.1-0.2,0.1-0.3,0.1-0.4h0.2l0.3,1.3h-0.2
		l-0.1-0.4l-5.1,0.9v-0.2l3.8-3.1l-3.2,0.5c-0.3,0.1-0.4,0.2-0.4,0.3s0,0.3,0,0.5h-0.2l-0.2-0.9l-0.1,0l-0.1-0.4l0.1-0.1l0.1,0.5
		l4-0.7c0.3,0,0.4-0.1,0.4-0.2c0.2-0.1,0.2-0.4,0.1-0.6H119.4z M117.8,49.4c0-0.1,0-0.3-0.1-0.4l0.2-0.1l0.9,2.8l0.3-0.1l0.1,0.2
		l-1.6,0.5l-0.1-0.2l0.3-0.1c0.4-0.1,0.6-0.4,0.6-0.6c0-0.3,0-0.6-0.3-1.2L118,50l-1.2,0.4l0.3,0.8l0.7-0.3l0.1,0.2l-1.8,0.6
		l-0.1-0.2c0.2-0.1,0.4-0.2,0.5-0.3c0.2-0.1,0.2-0.3,0.2-0.4c0-0.1,0-0.2-0.1-0.4l-3.2,1.1c0.1,0.4,0.3,0.7,0.4,1.1
		c0.2,0.2,0.4,0.4,0.5,0.4c0.2,0,0.4,0,0.6-0.1l0.4-0.1l0.1,0.2l-1.8,0.6l-0.1-0.2l0.2-0.2l-0.9-2.8h0.2l0.2,0.5l4.2-1.4
		C117.7,49.6,117.7,49.6,117.8,49.4z M114.7,42.4L114.7,42.4v-0.2l0.5,1l-0.4,0.2c0.6,0.4,1,0.8,1.3,1.3c0.2,0.4,0.4,0.8,0.4,1.2
		c0,0.4-0.1,0.9-0.3,1.2c-0.2,0.4-0.4,0.6-0.8,0.8s-0.7,0.3-1.2,0.2s-0.8-0.3-1.2-0.5c-0.4-0.3-0.6-0.6-0.9-1.1c0,0.1,0,0.4,0.1,0.8
		c0,0.4,0.1,0.7,0.1,1c0.1,0.3,0.2,0.5,0.3,0.7c0.1,0.2,0.2,0.3,0.3,0.4v0.2c-0.2-0.1-0.4-0.3-0.4-0.5c-0.1-0.2-0.2-0.4-0.3-0.7
		s-0.1-0.4-0.2-0.6c0-0.2-0.1-0.5-0.2-0.9c-0.1-0.8-0.1-1.4-0.1-1.9l-0.6,0.4c-0.1,0.1-0.2,0.1-0.2,0.2s0,0.1,0,0.2
		c0,0.1,0.1,0.2,0.1,0.4c0,0.1,0.1,0.2,0.2,0.3l-0.1,0.1l-0.8-1.6l0.1-0.1l0.3,0.4l4-2C114.8,42.9,114.9,42.8,114.7,42.4z M111.7,39
		c0.1-0.1,0.2-0.2,0.2-0.3s-0.1-0.3-0.2-0.4l0.1-0.1l1.7,2.4l0.3-0.2l0.1,0.2l-1.4,1l-0.1-0.2l0.3-0.2c0.4-0.3,0.5-0.5,0.4-0.8
		c0-0.3-0.3-0.6-0.5-1.1l-0.2-0.2l-1.1,0.7l0.4,0.6l0.6-0.4l0.1,0.1l-1.5,1.1l-0.1-0.1c0.2-0.1,0.4-0.3,0.4-0.4
		c0.1-0.1,0.1-0.3,0.1-0.4c0-0.1-0.1-0.2-0.2-0.4l-2.8,1.9c0.2,0.4,0.4,0.6,0.7,0.9c0.2,0.2,0.4,0.3,0.6,0.3s0.4-0.1,0.6-0.3
		l0.4-0.3l0.1,0.2l-1.5,1.1l-0.1-0.2l0.1-0.1l-1.7-2.3l0.1-0.1l0.4,0.4L111.7,39z M104.9,35.9c0.2-0.2,0.4-0.3,0.7-0.4
		c0.3-0.1,0.5,0,0.8,0.1c0.1,0,0.2,0.1,0.3,0.1c0,0,0,0,0.1,0c0.1,0.1,0.3,0.2,0.5,0.4c0.1,0.1,0.2,0.2,0.2,0.3c0,0,0.1,0,0.1,0.1
		c0.1,0.2,0.1,0.4,0.1,0.5c0,0.2-0.1,0.4-0.2,0.4c-0.1,0.1-0.3,0.2-0.4,0.2s-0.4-0.1-0.4-0.3c0,0-0.1-0.1-0.1-0.2l0.2-0.1
		c0.3,0.2,0.4,0.2,0.6,0c0.1-0.1,0.1-0.2,0.2-0.3c0-0.1,0-0.3,0-0.4c0,0,0-0.1,0-0.1c-0.1-0.1-0.2-0.2-0.3-0.4
		c-0.1-0.1-0.3-0.2-0.5-0.3c-0.2,0-0.4,0-0.6,0c-0.2,0.1-0.4,0.2-0.5,0.3c-0.2,0.2-0.4,0.4-0.4,0.7c-0.1,0.3-0.1,0.6,0,0.9
		c0.1,0.4,0.3,0.6,0.5,0.9c0.3,0.3,0.5,0.4,0.8,0.5c0.3,0.1,0.6,0.2,0.9,0.2c0.3,0,0.5-0.1,0.7-0.4c0.2-0.2,0.3-0.4,0.3-0.5
		c0-0.2,0-0.4-0.1-0.7c-0.1-0.3-0.2-0.5-0.3-0.9c-0.1-0.3-0.2-0.5-0.3-0.8c-0.1-0.2-0.1-0.4,0-0.6c0-0.2,0.1-0.4,0.3-0.5
		s0.4-0.3,0.8-0.2c0.3,0.1,0.6,0.3,0.9,0.4c0.1,0.1,0.3,0.3,0.4,0.5l0.3-0.2l-0.1,0.5l-1.4,1.3l-0.1-0.1l0.4-0.4
		c0.3-0.3,0.4-0.4,0.5-0.7c0.1-0.2,0-0.4-0.2-0.7c-0.1-0.1-0.3-0.2-0.4-0.3c-0.2-0.1-0.3-0.1-0.4-0.1s-0.3,0.1-0.4,0.2
		c-0.2,0.1-0.2,0.3-0.3,0.4c0,0.2,0,0.4,0.1,0.5c0.1,0.2,0.2,0.4,0.3,0.8c0.1,0.4,0.2,0.6,0.3,0.9c0.1,0.3,0.1,0.5,0,0.8
		c0,0.3-0.2,0.4-0.4,0.6s-0.4,0.3-0.6,0.4c-0.3,0.1-0.5,0.1-0.8,0s-0.5-0.2-0.8-0.4s-0.5-0.4-0.7-0.6c-0.3-0.3-0.5-0.6-0.6-1
		c-0.2-0.4-0.2-0.7-0.2-1C104.5,36.3,104.7,36,104.9,35.9z M102,28.8l0.2,0.1l-1,4.4c0,0.2-0.1,0.3-0.1,0.4c0,0.2,0,0.4,0,0.4
		c0,0.2,0.1,0.3,0.3,0.4l-0.1,0.1l-0.8-0.5l0,0l0,0l-0.3-0.2l0.1-0.1l0.3,0.3l0,0l0.7-3.3l-0.6-0.4l-1.8,1.5
		c-0.2,0.2-0.3,0.3-0.4,0.4c-0.1,0.1-0.1,0.2-0.1,0.3c0,0.1,0.1,0.2,0.2,0.3c0.1,0.1,0.2,0.2,0.4,0.3l-0.1,0.1l-1.4-0.9l0.1-0.1
		l0.4,0.2L102,28.8z M94,30.5l0.4,0.3l2-4c0.1-0.1,0.1-0.3,0-0.4c-0.1-0.1-0.2-0.2-0.4-0.3l0.1-0.1l1.5,0.6l-0.1,0.1l-0.4-0.3
		l-2.2,4.4c0.3,0.2,0.5,0.3,0.7,0.4c0.2,0.1,0.4,0.1,0.6,0.1c0.2,0,0.4-0.2,0.4-0.4l0.5-1.2l0.2,0.1l-1.2,2.2L96.1,32l0.2-0.3
		L94,30.5L94,30.5z M87.4,28.1l0.5,0.2l1.2-4.2c0-0.2,0-0.3-0.1-0.4c-0.1-0.1-0.2-0.2-0.4-0.2v-0.2l2.8,0.8l0.1-0.4l0.2,0.1
		l-0.4,1.7h-0.1l0.1-0.3c0.1-0.4,0.1-0.7-0.1-0.9c-0.1-0.2-0.5-0.4-1.1-0.5h-0.4L89.4,25l0.8,0.3l0.2-0.7h0.2L90,26.3h-0.2
		c0.1-0.2,0.1-0.4,0.1-0.5c0-0.2-0.1-0.3-0.3-0.4c-0.1-0.1-0.2-0.1-0.4-0.2l-0.9,3.3c0.4,0.1,0.7,0.2,1.1,0.3c0.3,0,0.4-0.1,0.6-0.2
		c0.2-0.1,0.3-0.3,0.3-0.5l0.1-0.4l0.2,0.1l-0.4,1.4l0,0l-0.1,0.2l-0.1,0.2L90,29.6l0.1-0.3l0.1-0.2l-2.7-0.8V28.1z M80.7,27.1
		l0.5,0.1l0.5-4.4c0-0.3-0.1-0.4-0.4-0.4h-0.1v-0.2l2.6,0.4c0.5,0.1,0.9,0.2,1.2,0.4c0.3,0.2,0.6,0.4,0.9,0.6
		c0.2,0.2,0.3,0.4,0.4,0.5c0.1,0.2,0.2,0.4,0.3,0.6c0.1,0.3,0.1,0.4,0,0.7c-0.1,0.6-0.4,1.2-1,1.6c-0.3,0.2-0.4,0.3-0.7,0.4
		c-0.3,0.1-0.5,0.2-1,0.3c-0.4,0-0.8,0-1.3,0l-2-0.3L80.7,27.1z M70.7,22.9l2.6-0.4c0.5-0.1,0.9-0.1,1.3,0c0.4,0.1,0.7,0.2,1,0.4
		c0.2,0.1,0.4,0.3,0.5,0.4c0.2,0.2,0.3,0.4,0.4,0.5c0.1,0.2,0.2,0.4,0.2,0.6c0.1,0.6-0.1,1.2-0.5,1.8c-0.2,0.3-0.4,0.4-0.6,0.6
		c-0.2,0.2-0.5,0.4-0.9,0.4c-0.4,0.1-0.8,0.3-1.2,0.3l-2.1,0.4v-0.3h-0.1l0.5-0.1l-0.5-4.4c0-0.3-0.2-0.4-0.5-0.3h-0.1V22.9z
		 M66.2,29.2l0.4-0.1v-5.4l0.2-0.1l2.6,3.6c0.1,0.1,0.2,0.3,0.3,0.4c0.1,0.2,0.2,0.3,0.4,0.4c0.1,0.1,0.3,0.1,0.4,0v0.2l-1.4,0.4
		v-0.2l0.4-0.2l-2-2.8l-0.7,0.2v2.4c0,0.2,0,0.4,0.1,0.5c0,0.1,0.1,0.2,0.2,0.2c0.1,0,0.2,0,0.4,0c0.1,0,0.2-0.1,0.4-0.1V29
		l-1.6,0.4V29.2z M60.1,26.9c0.4-0.3,0.9-0.4,1.2-0.4c0.4-0.1,0.7-0.1,1.1,0c0.3,0.1,0.4,0.1,0.6,0.3c0.2,0.1,0.4,0.3,0.5,0.4
		c0.2,0.2,0.3,0.4,0.4,0.5c0.3,0.6,0.4,1.2,0.1,1.9c-0.1,0.3-0.2,0.5-0.4,0.8c-0.2,0.3-0.4,0.4-0.6,0.7s-0.6,0.4-1.1,0.7l-1.8,0.9
		l-0.1-0.2l0.5-0.3l-2-4c-0.1-0.3-0.4-0.3-0.6-0.1l-0.1,0.1l-0.1-0.1L60.1,26.9z M56.4,29L56.4,29l-0.4,0.4l2.5,3.5
		c0.1,0.1,0.1,0.2,0.2,0.2c0.1,0.1,0.2,0.1,0.2,0.1c0.1,0,0.2-0.1,0.4-0.3l0.1,0.1l-1.3,1H58l0.4-0.4l-2.6-3.6
		c-0.1-0.1-0.2-0.2-0.3-0.2c-0.1,0-0.3,0.1-0.4,0.2L56.4,29z M52.3,31.5c0.1-0.1,0.2-0.2,0.5-0.3l0,0l-0.2,0.1l0.1-0.2l0.1,0.1
		l0.2-0.1c-0.1,0-0.1,0.1-0.2,0.1l1.3,1.4L54,32.7l-0.4-0.4c-0.2-0.3-0.4-0.4-0.6-0.5s-0.4,0-0.7,0.2c-0.1,0.1-0.2,0.3-0.3,0.4
		C52,32.4,52,32.6,52,32.8c0,0.1,0.1,0.3,0.2,0.4c0.1,0.2,0.3,0.3,0.4,0.3c0.2,0,0.4,0,0.5,0c0.2-0.1,0.4-0.1,0.8-0.3
		c0.4-0.1,0.7-0.2,0.9-0.3c0.3-0.1,0.5-0.1,0.8,0c0.3,0.1,0.4,0.2,0.6,0.4s0.3,0.4,0.4,0.6c0,0.3,0,0.5-0.1,0.8
		c-0.1,0.3-0.2,0.5-0.4,0.8c-0.2,0.3-0.4,0.5-0.6,0.7c-0.4,0.3-0.6,0.4-1,0.6c-0.4,0.1-0.7,0.2-1,0.1c-0.4-0.1-0.6-0.2-0.8-0.4
		c-0.2-0.2-0.3-0.4-0.4-0.7c0-0.3,0-0.5,0.1-0.8c0.1-0.3,0.3-0.5,0.5-0.7c0,0,0,0,0,0c0,0,0-0.1,0.1-0.1c0.1-0.1,0.2-0.2,0.4-0.2
		c0.1,0,0.3,0,0.4,0c0,0,0,0,0,0c0,0,0.1,0,0.1,0c0.2,0,0.4,0.1,0.4,0.2c0.1,0.1,0.2,0.3,0.2,0.4c0,0.2-0.1,0.4-0.3,0.4
		c0,0-0.1,0.1-0.2,0.1l-0.1-0.3c0.2-0.2,0.2-0.4,0-0.6C54.1,34,54,34,53.9,33.9c-0.1,0-0.2,0-0.4,0.1c-0.2,0-0.3,0.2-0.5,0.2
		c-0.1,0.2-0.2,0.3-0.3,0.4c-0.1,0.2-0.1,0.4,0,0.6c0,0.2,0.1,0.4,0.3,0.5c0.2,0.2,0.4,0.4,0.7,0.4c0.3,0.1,0.6,0.1,0.9,0
		c0.4-0.1,0.6-0.3,0.9-0.4c0.3-0.3,0.4-0.4,0.6-0.8c0.2-0.3,0.2-0.6,0.2-0.9s-0.1-0.5-0.3-0.7s-0.4-0.3-0.5-0.3c-0.2,0-0.4,0-0.7,0
		c-0.3,0.1-0.5,0.1-0.9,0.2c-0.3,0.1-0.5,0.2-0.8,0.2c-0.2,0-0.4,0-0.6,0c-0.2-0.1-0.4-0.2-0.5-0.4c-0.2-0.2-0.3-0.4-0.2-0.8
		C51.9,32,52.1,31.7,52.3,31.5z M46.1,38.4l0.4,0.4c0.2-0.7,0.4-1.2,0.8-1.7c0.3-0.4,0.6-0.6,1.1-0.8c0.4-0.1,0.8-0.3,1.2-0.3
		c0.4,0,0.7,0.2,1.1,0.4c0.3,0.3,0.5,0.6,0.6,1c0.1,0.4,0.1,0.8-0.1,1.2c-0.1,0.4-0.4,0.8-0.6,1.2c0.1-0.1,0.4-0.2,0.7-0.4
		c0.4-0.2,0.6-0.4,0.9-0.4c0.3-0.2,0.4-0.4,0.6-0.5c0.1-0.2,0.2-0.3,0.3-0.4h0.1c0,0.2-0.1,0.4-0.3,0.6c-0.2,0.2-0.4,0.4-0.5,0.5
		c-0.2,0.2-0.4,0.3-0.5,0.4c-0.3,0.1-0.5,0.2-0.9,0.4c-0.7,0.4-1.3,0.6-1.8,0.9l0.5,0.4c0.1,0.1,0.2,0.1,0.2,0.1
		c0.1,0,0.1,0,0.2-0.1c0.1-0.1,0.2-0.2,0.3-0.3c0-0.1,0.1-0.1,0.2-0.2l0.1,0.1l-1.2,1.4l-0.1-0.1l0.4-0.4L46.3,39
		c-0.2-0.2-0.4-0.1-0.6,0.2l-0.1,0.1h-0.2L46.1,38.4z M44,41.2L44,41l1.5,0.9l-0.1,0.2l-0.3-0.2c-0.4-0.2-0.6-0.3-0.9-0.1
		c-0.2,0.2-0.4,0.4-0.7,1l-0.1,0.2l1.1,0.6l0,0l0,0c0.1-0.2,0.2-0.3,0.3-0.4c0,0,0,0,0,0l0.2-0.2l-0.8-0.4l0.1-0.1l1.6,1h-0.1
		c-0.2-0.1-0.4-0.2-0.5-0.3c-0.2,0-0.3,0-0.4,0.1l-0.3,0.4l2.9,1.6c0.2-0.4,0.4-0.6,0.5-1c0.1-0.3,0.1-0.4,0-0.6
		c-0.1-0.2-0.3-0.4-0.4-0.4l-0.4-0.2l0.1-0.2l1.6,0.9l-0.1,0.2l-0.3-0.1l-1.4,2.5l-0.1-0.1l0.3-0.4l-3.8-2.2c-0.1-0.1-0.3-0.1-0.4,0
		c-0.1,0.1-0.2,0.2-0.3,0.4l-0.1-0.1l1.4-2.5L44,41.2z M41,47.5L41,47.5l-0.2,0.7l4.5,0.4l-2.9-2.5c-0.1-0.1-0.2-0.1-0.2-0.2
		c-0.2-0.1-0.3-0.1-0.4,0c-0.1,0.1-0.2,0.2-0.3,0.4v0.1l-0.1-0.1l0.7-1.5l0.1,0.1L42,45.3l4.2,3.5L46.1,49l-4.7-0.3
		c-0.3,0-0.4,0-0.6,0s-0.3,0.1-0.3,0.1c-0.1,0.1-0.1,0.2-0.2,0.3l-0.1,0.2l-0.1-0.1L41,47.5z M39.4,51.1h0.2l-0.2,0.5l4.2,1.2
		c0.1,0,0.2,0.1,0.3,0.1s0.2,0,0.2-0.1c0.1-0.1,0.1-0.2,0.2-0.4h0.2L44,53.9h-0.1l0.2-0.5l-4.4-1.2c-0.2,0-0.3,0-0.4,0.1
		c-0.1,0.1-0.2,0.3-0.2,0.4H39L39.4,51.1z M42.7,62.3c-0.1,0.3-0.2,0.4-0.3,0.5c-0.3,0.3-0.5,0.4-0.9,0.4L38,62.9
		c-0.3,0-0.4,0.2-0.4,0.5h-0.2l0.1-1.6h0.2v0.5l4,0.3c0.3,0,0.5-0.1,0.7-0.3c0.2-0.2,0.3-0.4,0.4-0.8c0-0.3-0.1-0.5-0.2-0.7
		c-0.2-0.2-0.4-0.4-0.6-0.4l-3.6-0.3c-0.3,0-0.4,0.1-0.4,0.4h-0.1h-0.2l0.1-1.3h0.2v0.4l4.1,0.4c0.2,0,0.4,0.1,0.5,0.3
		c0.2,0.2,0.3,0.3,0.4,0.5c0.1,0.2,0.1,0.4,0.1,0.6C42.9,61.8,42.8,62,42.7,62.3z M43,58.6L43,58.6v-0.4l-4.1-0.8
		c-0.2,0-0.4,0-0.5,0c-0.2,0.1-0.3,0.3-0.4,0.5h-0.2L38,57l4.6-1.6l-3.5-0.6c-0.2,0-0.3,0-0.4,0.1c-0.1,0.1-0.2,0.3-0.3,0.4h-0.2
		l0.3-1.3h0.3l-0.1,0.4l5.1,0.9v0.2l-4.7,1.7l3.2,0.5c0.3,0,0.4,0,0.5-0.1s0.1-0.3,0.2-0.4h0.2L43,58.6z"/>
	<path class="st1" d="M227.2,44h-2v9.5c0,0.1,2,0.1,2,0.1c2.8,0,4.6-1.7,4.6-4.8C231.8,45.8,230,44,227.2,44z"/>
	<path class="st1" d="M178.2,62.5c0,0-0.3,1.2-0.5,1.8l-1.9,4.9h4.7l-1.8-4.9C178.6,63.7,178.4,62.5,178.2,62.5z"/>
	<path class="st1" d="M220.5,65.1c0-1.2-0.4-1.9-1.2-2.4c-0.4-0.2-0.9-0.4-1.9-0.4h-2.8v5.5h3.1C219.4,67.9,220.5,66.8,220.5,65.1z"
		/>
	<path class="st1" d="M143.3,68c0-3.6-2.3-5.6-5.6-5.6h-2.9v11.3h2.9C141.1,73.6,143.3,71.7,143.3,68z"/>
	<path class="st1" d="M241.6,44.3c0,0-0.4,1.3-0.6,2.1l-1.2,3.7h3.6l-1.2-3.7C241.9,45.8,241.6,44.3,241.6,44.3z"/>
	<path class="st1" d="M197.3,44.1h-1.9v4.4h2.2c1.3,0,2.2-0.8,2.2-2.2C199.9,44.9,199.4,44.1,197.3,44.1z"/>
	<path class="st1" d="M258.8,48.8c0-3.1-1.9-4.8-4.6-4.8h-2v9.5c0,0.1,2,0.1,2,0.1C257,53.6,258.8,52,258.8,48.8z"/>
	<path class="st1" d="M255.1,62.5c0,0-0.3,1.2-0.5,1.8l-1.9,4.9h4.7l-1.8-4.9C255.5,63.7,255.1,62.5,255.1,62.5z"/>
	<path class="st2" d="M144.8,67.9c0-4.3-2.8-6.8-6.9-6.8h-4.4v13.6h4.4C142.1,74.7,144.8,72.3,144.8,67.9z M134.8,73.6V62.3h2.9
		c3.3,0,5.6,2,5.6,5.6c0,3.7-2.2,5.6-5.6,5.6H134.8z"/>
	<polygon class="st2" points="155.9,73.6 149.2,73.6 149.2,68.5 154.4,68.5 154.4,67.3 149.2,67.3 149.2,62.3 155.6,62.3 
		155.6,61.1 147.9,61.1 147.9,74.8 155.9,74.8 	"/>
	<polygon class="st2" points="165.5,61.1 164.2,61.1 164.2,74.8 171.9,74.8 171.9,73.6 165.5,73.6 	"/>
	<path class="st2" d="M177.7,61.1l-5.1,13.7h1.3l1.6-4.4h5.5l1.7,4.4h1.4l-5.1-13.7H177.7z M175.9,69.3l1.9-4.9
		c0.3-0.6,0.5-1.8,0.5-1.8c0.1,0,0.4,1.2,0.5,1.8l1.8,4.9H175.9z"/>
	<path class="st2" d="M192,64.7c0-1.2,1.2-2.4,2.9-2.4s3,1.2,3,1.2l0.6-1.2c0,0-1.3-1.3-3.6-1.3c-2.4,0-4.2,1.8-4.2,3.7
		c0,4.2,6.8,3.3,6.8,6.8c0,1.5-1.2,2.4-2.8,2.4c-2.1,0-3.5-1.5-3.5-1.5l-1,1.1c0,0,1.5,1.8,4.4,1.8c2.6,0,4.2-1.7,4.2-3.7
		C198.8,67,192,67.9,192,64.7z"/>
	<polygon class="st2" points="203.3,68.5 208.5,68.5 208.5,67.3 203.3,67.3 203.3,62.3 209.7,62.3 209.7,61.1 202,61.1 201.9,61.1 
		201.9,74.8 210,74.8 210,73.6 203.3,73.6 	"/>
	<path class="st2" d="M219.3,68.8c1.5-0.4,2.6-1.9,2.6-3.7c0-1.7-0.7-3-2-3.5c-0.5-0.2-1.2-0.4-2.6-0.4h-4v13.6h1.3V69h3.5l3.1,5.8
		h1.5l-3-5.5C219.5,68.9,219.3,68.8,219.3,68.8z M217.7,67.9h-3.1v-5.5h2.8c1,0,1.5,0.2,1.9,0.4c0.8,0.4,1.2,1.2,1.2,2.4
		C220.5,66.8,219.4,67.9,217.7,67.9z"/>
	<polygon class="st2" points="226.6,68.5 231.9,68.5 231.9,67.3 226.6,67.3 226.6,62.3 233,62.3 233,61.1 225.4,61.1 225.3,61.1 
		225.3,74.8 233.4,74.8 233.4,73.6 226.6,73.6 	"/>
	<path class="st2" d="M245.8,70.9c0,0.7,0.1,1.9,0.1,1.9s-0.7-1.2-1.2-1.9l-7-9.8h-1.3v13.7h1.3V65c0-0.7-0.1-1.9-0.1-1.9
		s0.7,1.2,1.2,1.9l7,9.8h1.3V61.1h-1.3V70.9z"/>
	<path class="st2" d="M254.4,61.1l-5.1,13.7h1.4l1.6-4.4h5.5l1.6,4.4h1.4l-5.1-13.7H254.4z M252.7,69.3l1.9-4.9
		c0.3-0.6,0.5-1.8,0.5-1.8c0.1,0,0.4,1.2,0.5,1.8l1.8,4.9H252.7z"/>
	<path class="st2" d="M136.9,86.5c-1.6,0-2.8-1.3-2.8-2.9c0-1.6,1.2-2.8,2.8-2.8c1.3,0,2,0.8,2,0.8l0.4-0.5c0,0-0.9-0.9-2.5-0.9
		c-1.9,0-3.3,1.5-3.3,3.5c0,1.9,1.4,3.5,3.5,3.5c1.7,0,2.6-1.1,2.6-1.1l-0.4-0.4C139.1,85.6,138.2,86.5,136.9,86.5z"/>
	<polygon class="st2" points="145.6,83.2 141.6,83.2 141.6,80.1 140.9,80.1 140.9,86.9 141.6,86.9 141.6,83.9 145.6,83.9 
		145.6,86.9 146.3,86.9 146.3,80.1 145.6,80.1 	"/>
	<rect x="148.1" y="80.1" class="st2" width="0.7" height="6.8"/>
	<polygon class="st2" points="151.5,80.1 150.8,80.1 150.8,80.2 151,80.2 151,87 154.7,87 154.7,86.4 151.5,86.4 	"/>
	<polygon class="st2" points="156.4,83.9 159,83.9 159,83.3 156.4,83.3 156.4,80.8 159.6,80.8 159.6,80.1 155.8,80.1 155.8,87.1 
		159.8,87.1 159.8,86.4 156.4,86.4 	"/>
	<path class="st2" d="M139.2,56.3c3.3,0,5.6-2.2,5.6-5.3v-9h-2.6v8.8c0,1.9-1.2,2.9-3.1,2.9s-3.1-1.1-3.1-2.9v-9h-2.5V51
		C133.5,54.2,135.8,56.3,139.2,56.3z"/>
	<path class="st2" d="M150.5,47.7c0-0.8-0.2-2.1-0.2-2.1s0.6,1.3,1.2,2.1l5.3,8.1h2.5V41.9h-2.5V50c0,0.8,0.2,2.1,0.2,2.1
		s-0.6-1.3-1.2-2.1l-5.3-8.1h-2.6v13.9h2.6V47.7z"/>
	<rect x="162.9" y="41.9" class="st2" width="2.6" height="13.9"/>
	<path class="st2" d="M179.8,41.9h-2.8l-3.1,9c-0.3,0.8-0.5,2-0.5,2s-0.3-1.3-0.5-2l-3.1-9h-2.8l5.1,13.9h2.5L179.8,41.9z"/>
	<polygon class="st2" points="184,50.1 188.7,50.1 188.7,47.8 184,47.8 184,44.2 189.8,44.2 189.8,41.9 181.5,41.9 181.4,41.9 
		181.4,56 190.1,56 190.1,53.8 184,53.8 	"/>
	<path class="st2" d="M200.6,50.6c-0.3-0.5-0.4-0.7-0.4-0.7c1.5-0.6,2.4-2.1,2.4-3.8c0-1.9-0.9-3.1-2.3-3.8
		c-0.6-0.3-1.3-0.4-2.8-0.4h-4.5l0.1,13.9h2.6v-5.3h2.4l2.8,5.3h2.8L200.6,50.6z M197.6,48.5h-2.2v-4.4h1.9c2,0,2.6,0.8,2.6,2.1
		C199.9,47.7,199,48.5,197.6,48.5z"/>
	<path class="st2" d="M207.6,45.8c0-1,1-1.7,2.1-1.7c1.7,0,3.1,1.2,3.1,1.2l1.1-2c0,0-1.4-1.5-4.2-1.5c-2.6,0-4.7,1.8-4.7,4.1
		c0,4.2,6.5,3.8,6.5,6.3c0,1.2-1,1.7-2,1.7c-1.9,0-3.5-1.5-3.5-1.5l-1.3,2c0,0,1.7,1.9,4.8,1.9c2.9,0,4.6-1.9,4.6-4.1
		C214.1,47.7,207.6,48.3,207.6,45.8z"/>
	<rect x="216.6" y="41.9" class="st2" width="2.6" height="13.9"/>
	<path class="st2" d="M227.4,41.9h-4.8v13.9h4.8c4.3,0,7.1-2.6,7.1-7C234.5,44.5,231.6,41.9,227.4,41.9z M227.2,53.6c0,0-2,0-2-0.1
		V44h2c2.8,0,4.6,1.7,4.6,4.8C231.8,52,230,53.6,227.2,53.6z"/>
	<path class="st2" d="M240.3,41.9l-4.9,13.9h2.6l1.2-3.5h4.9l1.2,3.5h2.6l-4.9-13.9H240.3z M239.7,50.1l1.2-3.7
		c0.3-0.8,0.6-2.1,0.6-2.1c0.1,0,0.3,1.5,0.6,2.1l1.2,3.7H239.7z"/>
	<path class="st2" d="M261.5,48.8c0-4.4-2.9-6.9-7.1-6.9h-4.8v13.9h4.8C258.7,55.8,261.5,53.2,261.5,48.8z M252.1,53.6V44h2
		c2.8,0,4.6,1.7,4.6,4.8c0,3.1-1.8,4.8-4.6,4.8C254.2,53.6,252.1,53.6,252.1,53.6z"/>
	<path class="st0" d="M112,44.7h0.2c-0.1,0.8,0,1.3,0.3,1.8c0.2,0.4,0.4,0.6,0.7,0.8c0.3,0.1,0.6,0.4,1,0.4c0.3,0,0.6,0,1-0.2
		c0.3-0.2,0.5-0.4,0.7-0.8c0.2-0.4,0.3-0.7,0.3-1.1c0-0.4-0.1-0.8-0.3-1.2c-0.3-0.3-0.8-0.8-1.3-1L112,44.7z"/>
	<polygon class="st0" points="119.8,61.1 118.7,60.9 118.9,61.5 	"/>
	<polygon class="st3" points="77.3,37.4 70.7,41.3 62.5,41.4 62.5,45.6 70.7,45.6 77.3,41.7 	"/>
	<polygon class="st0" points="101.6,29.5 100.8,30.2 101.3,30.6 	"/>
	<path class="st0" d="M73.7,27.6c0.5-0.1,0.9-0.3,1.3-0.5c0.4-0.3,0.7-0.6,0.9-1.1c0.1-0.4,0.1-0.8,0.1-1.2
		c-0.1-0.4-0.3-0.8-0.5-1.1c-0.3-0.4-0.7-0.5-1.2-0.7c-0.4-0.2-0.9-0.2-1.4-0.2c-0.5,0.1-1,0.2-1.2,0.4l0.5,4.4
		C72.6,27.6,73,27.6,73.7,27.6z"/>
	<path class="st0" d="M84.6,27.3c0.4-0.2,0.8-0.4,1.1-0.8c0.3-0.4,0.4-0.8,0.5-1.3c0-0.4-0.1-0.8-0.3-1.2s-0.5-0.7-0.9-1
		s-0.8-0.4-1.3-0.4c-0.5-0.1-1-0.1-1.3,0l-0.5,4.4c0.4,0.2,0.8,0.3,1.3,0.4C83.7,27.6,84.1,27.5,84.6,27.3z"/>
	<polygon class="st3" points="89.9,67.2 89.9,80 81.7,84.6 81.7,91.5 96.8,83 96.8,62 98.4,62 98.4,55 96.8,55 89.9,55 89.9,62 
		89.9,65.6 80.1,60.1 80.1,56 79.4,55.6 78.7,55.9 78.7,60.6 89.6,66.8 	"/>
	<polygon class="st3" points="96.4,45.5 96.4,41.3 88.1,41.3 81.6,37.4 81.6,41.6 88.1,45.5 	"/>
	<polygon class="st0" points="66.7,24.6 66.7,25.7 67.3,25.5 	"/>
	<path class="st2" d="M50.9,84.8c1.1,1.5,2.3,3,3.6,4.4c6.3,6.3,14.9,10.1,24.5,10.1s18.1-3.9,24.5-10.1
		c6.3-6.3,10.1-14.9,10.1-24.5c0-9.6-3.9-18.2-10.1-24.5C97.2,34,88.7,30.1,79,30.1S60.9,34,54.6,40.3c-6.3,6.3-10.1,14.9-10.1,24.5
		c0,7.3,2.3,14,6.1,19.6l0.5,0.4L50.9,84.8z M80.1,34.8l8.4,5.1l9.6,0.1v7H87.7l-7.6-4.5V34.8z M98,49.7h-9.9l-7.9-4.5v-1.4l8,4.5
		h9.9C98.1,48.2,98.1,49.6,98,49.7z M98.1,51.1c0,0,0,1.4,0,1.4h-9.9L80.2,48v-1.4l7.9,4.5H98.1z M79.4,54l2.2,1.2h-0.1v4.1l6.9,3.9
		v-9.5H100v9.7h-1.7v20.4L80.5,93.9V83.7l8.1-4.5V67.8l-11.3-6.3v-6.4L79.4,54z M60.8,40l9.5-0.1l8.4-5.1v7.6L71.1,47H60.8V40z
		 M60.8,48.2h9.9l7.9-4.5v1.3l-7.9,4.5h-9.9V48.2z M60.8,51.1h9.9l7.9-4.5V48l-7.9,4.5h-9.9V51.1z M59.4,53.6h11.3v10.4l10.8,6.1
		v6.4l-2.1,1.2l-2.1-1.2v-4.1l-6.5-3.6v10.4l8.1,4.5v10.2L61.1,83.8V63.4h-1.7V53.6z"/>
	<polygon class="st3" points="62.5,83 77.5,91.5 77.5,84.6 69.4,80.1 69.4,66.4 78.7,71.6 78.7,75.7 79.4,76.1 80.1,75.7 80.1,71.1 
		69.3,65 69.3,62 69.3,55 62.4,55 60.7,55 60.7,62 60.8,62 62.5,62 	"/>
	<path class="st0" d="M62.3,31.3c0.4-0.3,0.8-0.5,1.1-0.9c0.3-0.4,0.4-0.8,0.4-1.2c0-0.6-0.1-1-0.3-1.4c-0.2-0.4-0.5-0.6-0.9-0.8
		c-0.4-0.2-0.8-0.3-1.3-0.3c-0.4,0-0.9,0.1-1.3,0.4c-0.5,0.3-0.9,0.5-1.1,0.7l2,4C61.3,31.7,61.7,31.6,62.3,31.3z"/>
	<path class="st0" d="M48.8,40.6c0.7-0.3,1.2-0.5,1.6-0.9c0.3-0.3,0.4-0.6,0.5-1c0.1-0.4,0.1-0.7,0-1.1c-0.1-0.4-0.3-0.6-0.5-0.8
		c-0.3-0.3-0.6-0.4-1-0.4c-0.4,0-0.7,0-1.2,0.2c-0.4,0.2-0.7,0.4-1,0.7c-0.4,0.4-0.7,0.9-0.6,1.5l2.1,1.9V40.6z"/>
	<path class="st2" d="M79.1,99.9c9.8,0,18.6-4,25-10.2c1.2-1.2,2.4-2.6,3.4-4l-0.5-0.4l0.5-0.7l0.4,0.4c4.1-5.8,6.5-12.8,6.5-20.4
		c0-9.8-4-18.6-10.4-25c-6.5-6.4-15.3-10.4-25-10.4s-18.6,4-25,10.2c-6.4,6.5-10.4,15.3-10.4,25c0,7.5,2.3,14.4,6.3,20.1l0.5-0.4
		l0.2,0.1c-3.8-5.6-6.1-12.3-6.1-19.6c0-9.6,3.8-18.2,10.1-24.5C60.9,34,69.4,30.1,79,30.1s18.2,3.8,24.5,10.1
		c6.2,6.2,10.1,14.9,10.1,24.5c0,9.6-3.8,18.2-10.1,24.5C97.2,95.4,88.7,99.3,79,99.3s-18.2-3.8-24.5-10.1c-1.3-1.4-2.5-2.8-3.6-4.4
		l-0.5,0.5c1.1,1.5,2.3,2.9,3.6,4.3C60.5,96,69.4,99.9,79.1,99.9z"/>
	<path class="st2" d="M115.4,59.5h-0.2l0.1,1.6h0.2c0-0.2,0-0.4,0-0.4c0-0.2,0-0.3,0.1-0.4c0.1,0,0.2-0.1,0.3-0.1
		c0.1,0,0.3,0,0.5,0.1l2.3,0.5l0.1,0.8l-3.1,1.4l0.1-0.6h-0.2l0.1,1.5h0.2c-0.1-0.2,0-0.4,0.1-0.4c0.1-0.1,0.2-0.2,0.4-0.3
		c0.2-0.1,0.3-0.1,0.4-0.2l4.1-1.9V61l-5.3-1.1V59.5z M119.8,61.1l-1,0.4l-0.1-0.6L119.8,61.1z"/>
	<path class="st2" d="M52.5,33.5c0.2,0,0.4,0,0.6,0c0.3,0,0.5-0.1,0.8-0.2c0.4-0.1,0.6-0.1,0.9-0.2c0.3,0,0.5,0,0.7,0
		c0.1,0,0.3,0.1,0.5,0.3s0.3,0.4,0.3,0.7s0,0.6-0.2,0.9c-0.2,0.3-0.4,0.5-0.6,0.8c-0.3,0.2-0.5,0.4-0.9,0.4c-0.3,0.1-0.6,0.1-0.9,0
		c-0.3-0.1-0.5-0.3-0.7-0.4c-0.2-0.1-0.3-0.3-0.3-0.5c-0.1-0.2-0.1-0.4,0-0.6c0.1-0.1,0.2-0.3,0.3-0.4c0,0,0,0,0,0
		c-0.3,0.2-0.4,0.4-0.5,0.7c-0.1,0.3-0.1,0.5-0.1,0.8c0.1,0.3,0.2,0.5,0.4,0.7c0.1,0.3,0.4,0.4,0.8,0.4c0.3,0.1,0.6,0,1-0.1
		c0.3-0.2,0.6-0.4,1-0.6c0.3-0.2,0.4-0.4,0.6-0.7c0.2-0.3,0.3-0.5,0.4-0.8c0.1-0.3,0.1-0.5,0.1-0.8c-0.1-0.2-0.2-0.4-0.4-0.6
		s-0.4-0.3-0.6-0.4c-0.3-0.1-0.5-0.1-0.8,0c-0.2,0.1-0.5,0.2-0.9,0.3c-0.3,0.2-0.6,0.2-0.8,0.3c-0.1,0-0.3,0-0.5,0
		c-0.2,0-0.4-0.1-0.4-0.3C52,33,52,32.9,52,32.8c0-0.1,0-0.3,0.1-0.4c0.1-0.1,0.2-0.3,0.3-0.4c0.3-0.2,0.5-0.3,0.7-0.2
		s0.4,0.3,0.6,0.5l0.4,0.4l0.1-0.1l-1.3-1.4c-0.3,0.1-0.4,0.2-0.5,0.3c-0.3,0.3-0.4,0.5-0.5,0.9c-0.1,0.3,0,0.6,0.2,0.8
		C52.2,33.3,52.3,33.5,52.5,33.5z"/>
	<path class="st2" d="M114.6,43l-4,2l-0.3-0.4l-0.1,0.1l0.8,1.6l0.1-0.1c-0.1-0.1-0.2-0.2-0.2-0.3c0-0.2-0.1-0.3-0.1-0.4
		c0-0.1,0-0.1,0-0.2s0.1-0.1,0.2-0.2l0.6-0.4c0,0.5,0,1.2,0.1,1.9c0.1,0.4,0.2,0.7,0.2,0.9c0.1,0.2,0.1,0.4,0.2,0.6s0.2,0.5,0.3,0.7
		c0.1,0.3,0.3,0.4,0.4,0.5v-0.2c-0.1-0.1-0.2-0.2-0.3-0.4c-0.1-0.2-0.2-0.4-0.3-0.7c0-0.3-0.1-0.5-0.1-1c-0.1-0.4-0.1-0.7-0.1-0.8
		c0.3,0.4,0.5,0.8,0.9,1.1c0.4,0.3,0.7,0.4,1.2,0.5s0.8-0.1,1.2-0.2s0.6-0.4,0.8-0.8c0.2-0.3,0.3-0.8,0.3-1.2c0-0.4-0.2-0.8-0.4-1.2
		c-0.4-0.6-0.7-1-1.3-1.3l0.4-0.2l-0.5-1v0.1v0.1C114.9,42.8,114.8,42.9,114.6,43z M115.8,44.5c0.2,0.4,0.3,0.7,0.3,1.2
		c0,0.4-0.1,0.7-0.3,1.1c-0.2,0.3-0.4,0.6-0.7,0.8c-0.3,0.2-0.6,0.2-1,0.2c-0.3,0-0.7-0.3-1-0.4c-0.3-0.1-0.5-0.4-0.7-0.8
		c-0.3-0.4-0.3-1-0.3-1.8H112l2.5-1.2C115,43.7,115.5,44.2,115.8,44.5z"/>
	<path class="st2" d="M53.9,33.9C53.9,33.9,53.9,33.9,53.9,33.9c-0.1,0-0.3,0-0.4,0c-0.2,0-0.3,0.1-0.4,0.2c0,0-0.1,0.1-0.1,0.1
		c0.2-0.1,0.2-0.2,0.5-0.2C53.6,33.9,53.8,33.9,53.9,33.9z"/>
	<path class="st2" d="M119.1,54.3c-0.1,0.1-0.2,0.2-0.4,0.2l-4,0.7l0.2,0.9h0.2c0-0.3,0-0.4,0-0.5s0.2-0.2,0.4-0.3l3.2-0.5l-3.8,3.1
		v0.2l5.1-0.9l0.1,0.4h0.2l-0.3-1.3h-0.2c0,0.2,0,0.3-0.1,0.4c-0.1,0.2-0.2,0.3-0.4,0.3l-3.5,0.6l3.7-3.1l-0.2-0.9h-0.2
		C119.3,54,119.3,54.3,119.1,54.3z"/>
	<path class="st2" d="M113.2,50.6H113l0.9,2.8l-0.2,0.2l0.1,0.2l1.8-0.6l-0.1-0.2l-0.4,0.1c-0.3,0.1-0.4,0.1-0.6,0.1
		c-0.1,0-0.3-0.2-0.5-0.4c-0.2-0.4-0.4-0.7-0.4-1.1l3.2-1.1c0.1,0.3,0.1,0.4,0.1,0.4c0,0.2,0,0.4-0.2,0.4c-0.1,0.1-0.3,0.2-0.5,0.3
		l0.1,0.2l1.8-0.6l-0.1-0.2l-0.7,0.3l-0.3-0.8L118,50l0.1,0.3c0.3,0.5,0.3,0.9,0.3,1.2c0,0.3-0.2,0.6-0.6,0.6l-0.3,0.1l0.1,0.2
		l1.6-0.5l-0.1-0.2l-0.3,0.1l-0.9-2.8l-0.2,0.1c0.1,0.2,0.1,0.4,0.1,0.4c-0.1,0.2-0.1,0.2-0.3,0.3l-4.2,1.4L113.2,50.6z"/>
	<polygon class="st2" points="114.5,54.8 114.6,55.2 114.7,55.2 114.6,54.7 	"/>
	<path class="st2" d="M42.4,60.4c-0.1-0.2-0.3-0.3-0.5-0.3l-4.1-0.4v-0.4h-0.2l-0.1,1.3h0.2h0.1c0-0.4,0.1-0.4,0.4-0.4l3.6,0.3
		c0.3,0,0.4,0.2,0.6,0.4c0.1,0.2,0.2,0.4,0.2,0.7c-0.1,0.3-0.2,0.6-0.4,0.8c-0.2,0.2-0.4,0.3-0.7,0.3l-4-0.3v-0.5h-0.2l-0.1,1.6h0.2
		c0.1-0.3,0.2-0.5,0.4-0.5l3.5,0.3c0.4,0,0.6-0.1,0.9-0.4c0.1-0.1,0.2-0.3,0.3-0.5c0.1-0.3,0.2-0.5,0.2-0.7c0-0.2,0-0.4-0.1-0.6
		C42.7,60.7,42.6,60.6,42.4,60.4z"/>
	<path class="st2" d="M39.3,52.2c0.1-0.1,0.2-0.1,0.4-0.1l4.4,1.2l-0.2,0.5H44l0.4-1.6h-0.2c-0.1,0.3-0.1,0.4-0.2,0.4
		c0,0.1-0.1,0.1-0.2,0.1s-0.2-0.1-0.3-0.1l-4.2-1.2l0.2-0.5h-0.2L39,52.7h0.2C39.2,52.5,39.3,52.3,39.3,52.2z"/>
	<path class="st2" d="M40.4,49c0.1-0.1,0.1-0.2,0.2-0.3c0,0,0.1-0.1,0.3-0.1s0.4,0,0.6,0l4.7,0.3l0.1-0.2L42,45.3l0.2-0.4l-0.1-0.1
		l-0.7,1.5l0.1,0.1v-0.1c0.1-0.2,0.2-0.3,0.3-0.4c0.1-0.1,0.2-0.1,0.4,0c0,0.1,0.1,0.1,0.2,0.2l2.9,2.5l-4.5-0.4l0.3-0.6L41,47.5
		l-0.8,1.7l0.1,0.1L40.4,49z"/>
	<path class="st2" d="M42.9,57.6c-0.1,0.1-0.3,0.1-0.5,0.1l-3.2-0.5l4.7-1.7v-0.2l-5.1-0.9l0.1-0.4h-0.3l-0.3,1.3h0.2
		c0.1-0.2,0.2-0.4,0.3-0.4c0.1-0.1,0.2-0.1,0.4-0.1l3.5,0.6L38,57l-0.2,0.9H38c0.1-0.3,0.2-0.4,0.4-0.5c0.1,0,0.3,0,0.5,0l4.1,0.8
		l-0.1,0.4l0.1-0.1l0.3-1.4h-0.2C42.9,57.4,42.9,57.5,42.9,57.6z"/>
	<path class="st2" d="M45.6,39.2c0.3-0.3,0.4-0.4,0.6-0.2l3.4,2.9l-0.4,0.4l0.1,0.1l1.2-1.4L50.5,41c-0.1,0.1-0.2,0.1-0.2,0.2
		c-0.1,0.1-0.2,0.2-0.3,0.3c-0.1,0.1-0.1,0.1-0.2,0.1c0,0-0.1,0-0.2-0.1L49.1,41c0.4-0.3,1.1-0.5,1.8-0.9c0.4-0.2,0.6-0.3,0.9-0.4
		c0.1-0.1,0.3-0.2,0.5-0.4c0.1-0.1,0.3-0.3,0.5-0.5c0.2-0.2,0.3-0.4,0.3-0.6h-0.1c-0.1,0.1-0.2,0.2-0.3,0.4
		c-0.2,0.1-0.4,0.3-0.6,0.5c-0.3,0.1-0.5,0.3-0.9,0.4c-0.3,0.2-0.6,0.3-0.7,0.4c0.3-0.4,0.6-0.8,0.6-1.2c0.1-0.4,0.1-0.8,0.1-1.2
		c-0.1-0.3-0.4-0.7-0.6-1c-0.4-0.2-0.6-0.4-1.1-0.4c-0.4,0-0.8,0.1-1.2,0.3c-0.4,0.1-0.8,0.4-1.1,0.8c-0.4,0.4-0.6,1-0.8,1.7
		l-0.4-0.4l-0.7,0.9L45.6,39.2L45.6,39.2z M47.4,37.4c0.3-0.3,0.6-0.5,1-0.7c0.4-0.2,0.8-0.2,1.2-0.2c0.3,0,0.7,0.1,1,0.4
		c0.3,0.1,0.4,0.4,0.5,0.8c0.1,0.4,0.1,0.7,0,1.1c-0.1,0.3-0.3,0.7-0.5,1c-0.4,0.4-0.9,0.6-1.6,0.9v0.2l-2.1-1.9
		C46.6,38.3,46.9,37.8,47.4,37.4z"/>
	<path class="st2" d="M42.9,43.9c0.1-0.2,0.2-0.3,0.3-0.4c0.1-0.1,0.3-0.1,0.4,0l3.8,2.2l-0.3,0.4l0.1,0.1l1.4-2.5l0.3,0.1l0.1-0.2
		l-1.6-0.9l-0.1,0.2l0.4,0.2c0.2,0.1,0.4,0.3,0.4,0.4c0.1,0.2,0.1,0.4,0,0.6c-0.1,0.3-0.3,0.6-0.5,1l-2.9-1.6l0,0l-1.1-0.6l0.1-0.2
		c0.3-0.5,0.5-0.8,0.7-1c0.3-0.2,0.5-0.1,0.9,0.1l0.3,0.2l0.1-0.2L44,41L44,41.2l0.3,0.2L42.9,43.9L42.9,43.9z"/>
	<path class="st2" d="M44.9,43.1c-0.1,0.1-0.2,0.2-0.3,0.4l0,0L44.9,43.1C44.9,43.1,44.9,43.1,44.9,43.1z"/>
	<path class="st2" d="M45.8,43.3h0.1l-1.6-1l-0.1,0.1l0.8,0.4l-0.2,0.2c0.2-0.1,0.2-0.1,0.4-0.1C45.4,43.1,45.6,43.3,45.8,43.3z"/>
	<polygon class="st0" points="90.1,29.5 90.1,29.3 90,29.6 	"/>
	<path class="st2" d="M96.1,32l0.2,0.1l1.2-2.2l-0.2-0.1l-0.5,1.2c-0.1,0.2-0.3,0.4-0.4,0.4c-0.2,0-0.4,0-0.6-0.1
		c-0.2-0.1-0.4-0.2-0.7-0.4l2.2-4.4l0.4,0.3l0.1-0.1L96.1,26l-0.1,0.1c0.2,0.1,0.3,0.2,0.4,0.3c0.1,0.1,0.1,0.3,0,0.4l-2,4L94,30.5
		l-0.1,0.1l2.4,1.2L96.1,32z"/>
	<path class="st2" d="M57.9,28.1c0.3-0.2,0.6-0.2,0.6,0.1l2,4l-0.5,0.3l0.1,0.2l1.8-0.9c0.4-0.3,0.8-0.4,1.1-0.7s0.4-0.4,0.6-0.7
		c0.2-0.3,0.3-0.5,0.4-0.8c0.3-0.6,0.2-1.2-0.1-1.9c-0.2-0.1-0.3-0.3-0.4-0.5c-0.1-0.1-0.3-0.3-0.5-0.4c-0.2-0.2-0.4-0.2-0.6-0.3
		c-0.4-0.1-0.7-0.1-1.1,0c-0.3,0.1-0.8,0.2-1.2,0.4l-2.3,1.2H57.9L57.9,28.1z M60,27.1c0.4-0.3,0.9-0.4,1.3-0.4c0.6,0,1,0.1,1.3,0.3
		c0.4,0.1,0.7,0.4,0.9,0.8c0.1,0.4,0.3,0.8,0.3,1.4c0,0.4-0.2,0.8-0.4,1.2c-0.3,0.4-0.6,0.6-1.1,0.9c-0.6,0.3-1,0.4-1.3,0.5l-2-4
		C59.1,27.6,59.5,27.4,60,27.1z"/>
	<path class="st0" d="M52.8,31.2L52.8,31.2c0.1,0,0.1-0.1,0.2-0.1L52.8,31.2z"/>
	<path class="st2" d="M107.7,41.2L107.7,41.2l1.6,2.4l-0.1,0.1l0.1,0.2l1.5-1.1l-0.1-0.2l-0.4,0.3c-0.3,0.2-0.4,0.3-0.6,0.3
		s-0.4-0.1-0.6-0.3c-0.3-0.3-0.5-0.5-0.7-0.9l2.8-1.9c0.1,0.2,0.2,0.3,0.2,0.4c0,0.2,0,0.4-0.1,0.4c-0.1,0.1-0.3,0.3-0.4,0.4
		l0.1,0.1l1.5-1.1l-0.1-0.1l-0.6,0.4l-0.4-0.6l1.1-0.7l0.2,0.2c0.3,0.4,0.5,0.8,0.5,1.1c0.1,0.3-0.1,0.5-0.4,0.8l-0.3,0.2l0.1,0.2
		l1.4-1l-0.1-0.2l-0.3,0.2l-1.7-2.4l-0.1,0.1c0.1,0.2,0.2,0.4,0.2,0.4s-0.1,0.2-0.2,0.3l-3.6,2.6L107.7,41.2z"/>
	<path class="st2" d="M90.6,27.7l-0.2-0.1L90.3,28c0,0.3-0.1,0.4-0.3,0.5c-0.2,0.1-0.4,0.2-0.6,0.2c-0.4-0.1-0.7-0.2-1.1-0.3
		l0.9-3.3c0.2,0.1,0.3,0.1,0.4,0.2c0.2,0.1,0.3,0.2,0.3,0.4c0,0.1,0,0.3-0.1,0.5H90l0.5-1.8h-0.2l-0.2,0.7L89.4,25l0.4-1.2h0.4
		c0.6,0.1,1,0.3,1.1,0.5c0.1,0.2,0.1,0.4,0.1,0.9l-0.1,0.3h0.1l0.4-1.7l-0.2-0.1l-0.1,0.4l-2.8-0.8v0.2c0.3,0,0.4,0.1,0.4,0.2
		c0.1,0.1,0.1,0.2,0.1,0.4l-1.2,4.2l-0.5-0.2v0.2l2.7,0.8L90.6,27.7z"/>
	<polygon class="st0" points="90.2,29.1 90.2,29.1 90.1,29.3 	"/>
	<path class="st2" d="M67.8,28.9c-0.3,0-0.4,0.1-0.4,0.1c-0.2,0-0.3,0-0.4,0c-0.1,0-0.2-0.1-0.2-0.2c-0.1-0.1-0.1-0.3-0.1-0.5v-2.4
		l0.7-0.2l2,2.8l-0.4,0.2v0.2l1.4-0.4v-0.2c-0.2,0.1-0.4,0.1-0.4,0c-0.2-0.1-0.3-0.2-0.4-0.4c-0.1-0.1-0.2-0.3-0.3-0.4l-2.6-3.6
		l-0.2,0.1v5.4l-0.4,0.1v0.2l1.6-0.4V28.9z M66.7,24.6l0.6,0.9l-0.6,0.2V24.6z"/>
	<path class="st2" d="M55.8,29.9l2.6,3.6L58,34h0.1l1.3-1L59.4,33c-0.3,0.2-0.4,0.3-0.4,0.3c0,0-0.1,0-0.2-0.1
		c-0.1,0-0.1-0.1-0.2-0.2l-2.5-3.5l0.4-0.4L56.4,29l-1.3,1c0.2-0.1,0.4-0.2,0.4-0.2C55.6,29.8,55.7,29.9,55.8,29.9z"/>
	<polygon class="st0" points="52.6,31.3 52.8,31.2 52.7,31.1 	"/>
	<path class="st2" d="M71.2,23.4l0.5,4.4l-0.5,0.1h0.1v0.3l2.1-0.4c0.4,0,0.8-0.2,1.2-0.3c0.4-0.1,0.7-0.3,0.9-0.4
		c0.3-0.2,0.4-0.4,0.6-0.6c0.4-0.6,0.6-1.2,0.5-1.8c0-0.2-0.1-0.4-0.2-0.6c-0.2-0.1-0.3-0.3-0.4-0.5c-0.1-0.2-0.3-0.4-0.5-0.4
		c-0.3-0.2-0.6-0.3-1-0.4c-0.4-0.1-0.8-0.1-1.3,0l-2.6,0.4v0.2h0.1C71,23,71.2,23.1,71.2,23.4z M73,22.8c0.5,0,1,0,1.4,0.2
		c0.4,0.2,0.9,0.3,1.2,0.7c0.3,0.3,0.4,0.6,0.5,1.1c0,0.4,0,0.8-0.1,1.2c-0.2,0.4-0.5,0.8-0.9,1.1c-0.4,0.3-0.8,0.4-1.3,0.5
		c-0.6,0.1-1,0.1-1.4,0l-0.5-4.4C72,23,72.5,22.8,73,22.8z"/>
	<path class="st2" d="M84,27.6c0.4-0.1,0.7-0.2,1-0.3c0.3-0.2,0.4-0.3,0.7-0.4c0.5-0.4,0.9-1,1-1.6c0.1-0.3,0.1-0.4,0-0.7
		c-0.1-0.2-0.2-0.4-0.3-0.6c-0.2-0.1-0.3-0.3-0.4-0.5c-0.3-0.3-0.6-0.4-0.9-0.6c-0.3-0.2-0.7-0.3-1.2-0.4l-2.6-0.4v0.2h0.1
		c0.4,0.1,0.4,0.2,0.4,0.4l-0.5,4.4l-0.5-0.1l-0.1,0.3l2,0.3C83.2,27.6,83.6,27.6,84,27.6z M82.3,22.7c0.4-0.1,0.8-0.1,1.3,0
		c0.6,0,1,0.2,1.3,0.4s0.7,0.6,0.9,1s0.3,0.7,0.3,1.2c-0.1,0.4-0.3,0.8-0.5,1.3c-0.3,0.3-0.6,0.6-1.1,0.8c-0.4,0.2-0.9,0.3-1.4,0.2
		c-0.6-0.1-1-0.2-1.3-0.4L82.3,22.7z"/>
	<polygon class="st0" points="100.1,33.9 100.5,34.1 100.2,33.8 	"/>
	<polygon class="st0" points="100.5,34.1 100.5,34.1 100.5,34.1 	"/>
	<path class="st2" d="M97.4,32.3l1.4,0.9l0.1-0.1c-0.2-0.1-0.3-0.2-0.4-0.3c-0.1-0.1-0.2-0.2-0.2-0.3c0-0.1,0-0.2,0.1-0.3
		c0.1-0.2,0.2-0.3,0.4-0.4l1.8-1.5l0.6,0.4l-0.7,3.3l0.8,0.5l0.1-0.1c-0.2-0.1-0.3-0.2-0.3-0.4c0-0.1,0-0.3,0-0.4
		c0-0.2,0.1-0.3,0.1-0.4l1-4.4l-0.2-0.1l-4.1,3.6L97.4,32.3L97.4,32.3z M101.6,29.5l-0.3,1.1l-0.5-0.4L101.6,29.5z"/>
	<path class="st2" d="M54.1,34.8l0.1,0.3c0.1,0,0.2-0.1,0.2-0.1c0.2-0.1,0.3-0.3,0.3-0.4c0-0.2-0.1-0.4-0.2-0.4
		c-0.1-0.1-0.3-0.2-0.4-0.2c0,0-0.1,0-0.1,0c0.1,0.1,0.2,0.1,0.3,0.2C54.3,34.3,54.3,34.6,54.1,34.8z"/>
	<path class="st0" d="M107.4,36.9c-0.1,0.1-0.1,0.2-0.2,0.3c-0.2,0.2-0.4,0.2-0.6,0l-0.2,0.1c0,0.1,0.1,0.2,0.1,0.2
		c0.1,0.2,0.3,0.3,0.4,0.3s0.4-0.1,0.4-0.2c0.1-0.1,0.2-0.3,0.2-0.4c0-0.1,0-0.3-0.1-0.5c0,0-0.1-0.1-0.1-0.1c0,0,0,0,0,0.1
		C107.4,36.6,107.4,36.8,107.4,36.9z"/>
	<path class="st2" d="M105.3,38.6c0.2,0.3,0.4,0.4,0.7,0.6s0.5,0.3,0.8,0.4s0.5,0.1,0.8,0c0.2-0.1,0.4-0.2,0.6-0.4s0.4-0.4,0.4-0.6
		c0.1-0.3,0.1-0.5,0-0.8c-0.1-0.3-0.2-0.5-0.3-0.9c-0.1-0.3-0.2-0.6-0.3-0.8c-0.1-0.1-0.1-0.3-0.1-0.5c0.1-0.2,0.1-0.4,0.3-0.4
		c0.1-0.1,0.3-0.2,0.4-0.2s0.2,0,0.4,0.1c0.1,0.1,0.3,0.2,0.4,0.3c0.2,0.3,0.3,0.5,0.2,0.7c-0.1,0.3-0.3,0.4-0.5,0.7l-0.4,0.4
		l0.1,0.1l1.4-1.3l0.1-0.5l-0.3,0.2c-0.1-0.3-0.3-0.4-0.4-0.5c-0.3-0.2-0.6-0.4-0.9-0.4c-0.3-0.1-0.6,0.1-0.8,0.2s-0.3,0.3-0.3,0.5
		c-0.1,0.2-0.1,0.4,0,0.6c0.1,0.3,0.2,0.5,0.3,0.8c0.1,0.4,0.2,0.6,0.3,0.9c0.1,0.3,0.1,0.5,0.1,0.7c0,0.1-0.1,0.3-0.3,0.5
		c-0.2,0.3-0.4,0.4-0.7,0.4c-0.3,0-0.6-0.1-0.9-0.2c-0.3-0.1-0.5-0.3-0.8-0.5c-0.3-0.3-0.4-0.5-0.5-0.9c-0.1-0.3-0.1-0.6,0-0.9
		c0.1-0.3,0.3-0.5,0.4-0.7c0.1-0.1,0.3-0.2,0.5-0.3c0.2-0.1,0.4-0.1,0.6,0c-0.1,0-0.2-0.1-0.3-0.1c-0.3-0.1-0.5-0.1-0.8-0.1
		c-0.3,0.1-0.5,0.2-0.7,0.4c-0.3,0.1-0.4,0.4-0.4,0.8c0,0.3,0,0.6,0.2,1C104.8,38,105,38.3,105.3,38.6z"/>
	<path class="st0" d="M107.4,36.4c0-0.1-0.1-0.2-0.2-0.3c-0.2-0.2-0.4-0.3-0.5-0.4c0,0,0,0-0.1,0c0.2,0.1,0.3,0.2,0.5,0.3
		C107.1,36.2,107.3,36.3,107.4,36.4z"/>
	<path class="st2" d="M72.7,101.5c-0.4-0.3-1-0.6-1.7-0.7c-0.4-0.1-0.9-0.1-1.3-0.1c-0.4,0.1-0.8,0.2-1.2,0.4
		c-0.3,0.2-0.7,0.4-1,0.7c-0.3,0.3-0.4,0.6-0.5,1c-0.1,0.4,0,1,0.2,1.4c0.2,0.4,0.5,0.8,1,1.2c0.4,0.3,0.9,0.5,1.5,0.7
		c0.3,0.1,0.8,0.1,1.2,0.1c0.4,0,0.8-0.1,1.2-0.3l-0.1-0.2c-0.3,0.1-0.6,0.2-1,0.3c-0.4,0-0.7,0-1.2-0.1c-0.4-0.1-0.7-0.2-1.1-0.4
		c-0.3-0.3-0.6-0.5-0.8-0.8c-0.3-0.3-0.4-0.6-0.4-1c-0.1-0.3-0.1-0.6,0-1c0.1-0.4,0.3-0.7,0.6-1.1c0.3-0.3,0.7-0.6,1.2-0.7
		c0.4-0.1,1-0.1,1.5,0c0.3,0,0.5,0.1,0.8,0.3c0.1,0.1,0.4,0.3,0.5,0.4c0.1,0.1,0.2,0.4,0.2,0.5c0,0.1,0,0.4-0.1,0.8h0.2L73,101h-0.2
		L72.7,101.5z"/>
	<path class="st2" d="M76.6,102h0.2c0.2,0,0.3,0,0.4,0.1c0.1,0.1,0.1,0.2,0.1,0.3l-0.1,0.9l-1.9-0.2l0.1-1.2h0.6v-0.2l-1.7-0.1v0.2
		h0.1c0.3,0.1,0.4,0.2,0.4,0.4l-0.4,4.5h-0.5v0.2l1.7,0.1v-0.2c-0.3,0-0.4-0.1-0.4-0.1c-0.2,0-0.2-0.2-0.2-0.4l0.3-3l1.9,0.2
		l-0.3,3.5h-0.5v0.2l1.7,0.1V107c-0.1,0-0.2,0-0.2,0c-0.2-0.1-0.3-0.1-0.4-0.2c-0.1-0.1-0.1-0.2-0.1-0.4l0.4-4.5l0.5,0.1v-0.2
		l-1.7-0.1V102z"/>
	<path class="st2" d="M85.7,104.6l0.2,1.2c0,0.1,0,0.3-0.2,0.5c-0.2,0.1-0.4,0.2-0.6,0.3c-0.3,0.1-0.5,0.2-0.8,0.2l-0.6-4.9l0.5-0.1
		v-0.2l-1.6,0.2v0.2c0.2,0,0.4,0,0.4,0c0.1,0,0.2,0.1,0.2,0.3l0.5,4.5l-0.5,0.1v0.2l2.8-0.4v0.4h0.2l-0.3-2.5H85.7z"/>
	<path class="st2" d="M90.4,104l0.1,0.4c0.1,0.3,0.1,0.4,0,0.6c-0.1,0.2-0.2,0.3-0.4,0.4c-0.4,0.1-0.7,0.2-1.1,0.3l-0.8-3.4
		c0.3-0.1,0.4-0.1,0.4-0.1c0.2,0,0.3,0.1,0.4,0.3c0.1,0.1,0.1,0.3,0.2,0.5h0.2l-0.4-1.9h-0.2L89,102l-0.8,0.2l-0.3-1.2l0.3-0.1
		c0.6-0.1,1-0.1,1.2-0.1c0.3,0.1,0.4,0.3,0.5,0.7l0.1,0.3h0.2l-0.4-1.7h-0.2l0.1,0.4l-2.8,0.6v0.2c0.2,0,0.4,0,0.4,0
		c0.1,0,0.2,0.1,0.2,0.3l1,4.4l-0.5,0.1v0.2l2.8-0.6l0.1,0.3h0.2l-0.4-1.9H90.4z"/>
	<path class="st2" d="M80.8,106.8c0-0.1,0-0.1,0-0.3l-0.1-4.4h0.5v-0.2h-1.7v0.2c0.2,0,0.4,0,0.4,0.1c0.1,0,0.2,0.1,0.2,0.3l0.1,4.5
		h-0.5l-0.1,0.2h1.6V107c-0.2,0-0.4,0-0.4,0C80.9,107,80.8,106.8,80.8,106.8z"/>
	<path class="st2" d="M79.1,19.2c-12.5,0-23.8,5.1-32,13.3c-8.2,8.1-13.3,19.5-13.3,32c0,10.1,3.4,19.5,9,27l0.5-0.5
		c-5.5-7.4-8.8-16.6-8.8-26.5c0-12.3,5.1-23.4,13.1-31.4c8.1-8.1,19.1-13,31.4-13c12.3,0,23.4,5,31.4,13.1
		c7.9,8,12.9,19.1,12.9,31.4c0,10.1-3.3,19.4-9,26.9l0.3,0.3l-0.6,0.6l-0.2-0.2c-1.1,1.4-2.2,2.6-3.4,3.9c-8.1,8.1-19.1,13-31.4,13
		c-12.3,0-23.4-4.9-31.4-13c-1.3-1.3-2.6-2.7-3.7-4.2l-0.5,0.5c1.2,1.5,2.4,2.9,3.7,4.3c8.2,8.2,19.5,13.3,32,13.3
		c12.5,0,23.8-5,32-13.3c8.2-8.1,13.3-19.5,13.3-32c0-12.5-5-23.8-13.3-32C102.9,24.3,91.6,19.2,79.1,19.2z"/>
	<path class="st2" d="M107.5,85.7l6.3,6.2c0.2-0.2,0.4-0.5,0.5-0.7l-6.3-6.3C107.9,85.2,107.7,85.5,107.5,85.7z"/>
	<path class="st2" d="M107.1,85.3l0.5,0.4c0.2-0.2,0.3-0.5,0.5-0.7l-0.4-0.4L107.1,85.3z"/>
	<path class="st2" d="M114.1,92.2l0.6-0.6l-0.3-0.3c-0.2,0.2-0.4,0.5-0.5,0.7L114.1,92.2z"/>
	<path class="st2" d="M51.1,84.7l-0.5-0.4c0.1,0.2,0.2,0.3,0.4,0.5L51.1,84.7z"/>
	<path class="st2" d="M50.4,85.3c-0.2-0.2-0.3-0.4-0.5-0.7l-6.7,6.3c0.2,0.2,0.4,0.5,0.5,0.7L50.4,85.3z"/>
	<path class="st2" d="M50.6,84.3l-0.2-0.1L50,84.6c0.2,0.2,0.3,0.4,0.5,0.7l0.5-0.5C50.8,84.6,50.7,84.5,50.6,84.3z"/>
	<path class="st2" d="M43.3,90.9l-0.5,0.5c0.2,0.2,0.4,0.5,0.5,0.7l0.5-0.5C43.7,91.4,43.5,91.2,43.3,90.9z"/>
	<path class="st0" d="M77.3,61.5l11.3,6.3v11.3l-8.1,4.5v10.2l17.9-10.1V63.4h1.7v-9.7H88.5v9.5l-6.9-3.9v-4.1h0.1L79.4,54l-2.1,1.2
		V61.5z M78.7,55.9l0.7-0.4l0.8,0.4v4.1l9.7,5.5V62V55h6.9h1.7V62h-1.7v21l-15,8.5v-6.9l8.1-4.5V67.2l-0.3-0.4l-10.9-6.2V55.9z"/>
	<polygon class="st0" points="78.7,45.1 78.7,43.7 70.7,48.2 60.8,48.2 60.8,49.6 70.7,49.6 	"/>
	<polygon class="st0" points="78.7,48 78.7,46.6 70.7,51.1 60.8,51.1 60.8,52.6 70.7,52.6 	"/>
	<path class="st0" d="M61.1,83.8l17.9,10.1V83.7l-8.1-4.5V68.8l6.5,3.6v4.1l2.1,1.2l2.1-1.2v-6.4l-10.8-6.1V53.6H59.4v9.7h1.7V83.8z
		 M60.8,62L60.8,62L60.7,55h1.7h6.9v7v3l10.8,6v4.7l-0.7,0.4l-0.7-0.4v-4.1l-9.3-5.3v13.7l8.1,4.5v6.9l-15-8.5V62H60.8z"/>
	<path class="st0" d="M88.1,48.2l-8-4.5v1.4l7.9,4.5H98c0.1-0.1,0.1-1.5,0.1-1.5H88.1z"/>
	<path class="st0" d="M78.7,42.4v-7.6l-8.4,5.1L60.8,40v7h10.3L78.7,42.4z M62.5,45.6v-4.2l8.3-0.1l6.5-3.9v4.2l-6.5,3.9H62.5z"/>
	<path class="st0" d="M98.1,47v-7l-9.6-0.1l-8.4-5.1v7.6l7.6,4.5H98.1z M81.6,37.4l6.5,3.9l8.3,0.1v4.2h-8.3l-6.5-3.9V37.4z"/>
	<polygon class="st0" points="80.2,46.6 80.2,48 88.1,52.6 98.1,52.6 98.1,51.1 88.1,51.1 	"/>
</g>
</svg>
