<?xml version="1.0" encoding="utf-8"?>
<!-- Generator: Adobe Illustrator 27.5.0, SVG Export Plug-In . SVG Version: 6.00 Build 0)  -->
<svg version="1.1" id="Capa_1" xmlns="http://www.w3.org/2000/svg" xmlns:xlink="http://www.w3.org/1999/xlink" x="0px" y="0px"
	 viewBox="0 0 349.4 125.8" style="enable-background:new 0 0 349.4 125.8;" xml:space="preserve">
<style type="text/css">
	.st0{fill:#223974;}
	.st1{fill:#FFFFFF;}
	.st2{fill:#CF172C;}
</style>
<g>
	<g>
		<g>
			<path class="st0" d="M112.8,85.9h2v7c0,1.5,1,2.3,2.4,2.3c1.5,0,2.4-0.8,2.4-2.3v-7h2v7c0,2.4-1.8,4.1-4.4,4.1s-4.4-1.7-4.4-4.1
				V85.9z"/>
		</g>
		<g>
			<path class="st0" d="M124.3,85.9h2l4.1,6.3c0.4,0.6,0.9,1.7,0.9,1.7l0,0c0,0-0.1-1-0.1-1.7v-6.3h2v10.9h-2l-4.1-6.3
				c-0.4-0.6-0.9-1.7-0.9-1.7l0,0c0,0,0.1,1,0.1,1.7v6.3h-2V85.9z"/>
		</g>
		<g>
			<rect x="136" y="85.9" class="st0" width="2" height="10.9"/>
		</g>
		<g>
			<path class="st0" d="M139.3,85.9h2.1l2.4,7.1c0.2,0.6,0.4,1.6,0.4,1.6l0,0c0,0,0.2-1,0.4-1.6l2.4-7.1h2.1l-4,10.9h-2L139.3,85.9z
				"/>
		</g>
		<g>
			<polygon class="st0" points="150.7,85.9 157.2,85.9 157.2,87.6 152.6,87.6 152.6,90.5 156.3,90.5 156.3,92.2 152.6,92.2 
				152.6,95.1 157.4,95.1 157.4,96.8 150.7,96.8 			"/>
		</g>
		<g>
			<path class="st0" d="M159.5,85.9h3.5c1.2,0,1.7,0.1,2.2,0.3c1.1,0.5,1.8,1.5,1.8,3c0,1.3-0.7,2.5-1.8,3l0,0c0,0,0.2,0.2,0.4,0.5
				l2.2,4.1h-2.2l-2.2-4.1h-1.9v4.1h-2V85.9z M163.3,91c1.1,0,1.7-0.6,1.7-1.7c0-1-0.4-1.7-2-1.7h-1.5V91
				C161.5,91,163.3,91,163.3,91z"/>
		</g>
		<g>
			<path class="st0" d="M169.9,94c0,0,1.2,1.2,2.7,1.2c0.8,0,1.6-0.4,1.6-1.3c0-2-5.2-1.6-5.2-5c0-1.8,1.6-3.2,3.7-3.2
				c2.2,0,3.3,1.2,3.3,1.2l-0.9,1.6c0,0-1-1-2.4-1c-0.9,0-1.6,0.5-1.6,1.3c0,1.9,5.1,1.5,5.1,5c0,1.7-1.3,3.2-3.6,3.2
				c-2.4,0-3.8-1.5-3.8-1.5L169.9,94z"/>
		</g>
		<g>
			<rect x="178.2" y="85.9" class="st0" width="2" height="10.9"/>
		</g>
		<g>
			<path class="st0" d="M182.9,85.9h3.7c3.4,0,5.6,2,5.6,5.5c0,3.4-2.2,5.5-5.6,5.5h-3.7V85.9z M186.6,95.1c2.2,0,3.6-1.3,3.6-3.8
				c0-2.4-1.4-3.7-3.6-3.7H185v7.5H186.6z"/>
		</g>
		<g>
			<path class="st0" d="M199.8,94H196l-0.9,2.8h-2l3.8-10.9h2.1l3.8,10.9h-2L199.8,94z M197.8,87.8c0,0-0.2,1.1-0.5,1.7l-1,2.9h2.9
				l-1-2.9C198.1,88.9,197.9,87.8,197.8,87.8L197.8,87.8z"/>
		</g>
		<g>
			<path class="st0" d="M204.1,85.9h3.7c3.4,0,5.6,2,5.6,5.5c0,3.4-2.2,5.5-5.6,5.5h-3.7V85.9z M207.7,95.1c2.2,0,3.6-1.3,3.6-3.8
				c0-2.4-1.4-3.7-3.6-3.7h-1.6v7.5H207.7z"/>
		</g>
		<g>
			<path class="st0" d="M218.3,86h3.5c3.3,0,5.4,2,5.4,5.4s-2.2,5.4-5.4,5.4h-3.5V86z M221.7,95.9c2.7,0,4.4-1.6,4.4-4.5
				c0-2.9-1.8-4.5-4.4-4.5h-2.3v8.9h2.3V95.9z"/>
		</g>
		<g>
			<polygon class="st0" points="229.7,86 235.8,86 235.8,86.9 230.8,86.9 230.8,90.9 234.9,90.9 234.9,91.8 230.8,91.8 230.8,95.9 
				236.1,95.9 236.1,96.8 229.7,96.8 			"/>
		</g>
		<g>
			<polygon class="st0" points="242.6,86 243.7,86 243.7,95.9 248.7,95.9 248.7,96.8 242.6,96.8 			"/>
		</g>
		<g>
			<path class="st0" d="M256,93.4h-4.4l-1.2,3.4h-1.1l4-10.8h1.1l4,10.8h-1.1L256,93.4z M253.8,87.1c0,0-0.2,0.9-0.4,1.4l-1.4,3.9
				h3.7l-1.4-3.9C254,88,253.8,87.1,253.8,87.1L253.8,87.1z"/>
		</g>
		<g>
			<path class="st0" d="M264.1,94.8c0,0,1.1,1.2,2.8,1.2c1.2,0,2.2-0.7,2.2-1.9c0-2.7-5.4-2-5.4-5.4c0-1.6,1.4-2.9,3.4-2.9
				c1.9,0,2.9,1,2.9,1l-0.5,0.9c0,0-1-0.9-2.4-0.9s-2.3,0.9-2.3,1.9c0,2.6,5.4,1.8,5.4,5.4c0,1.6-1.2,2.9-3.3,2.9
				c-2.2,0-3.4-1.4-3.4-1.4L264.1,94.8z"/>
		</g>
		<g>
			<polygon class="st0" points="272.5,86 278.6,86 278.6,86.9 273.6,86.9 273.6,90.9 277.7,90.9 277.7,91.8 273.6,91.8 273.6,95.9 
				278.9,95.9 278.9,96.8 272.5,96.8 			"/>
		</g>
		<g>
			<path class="st0" d="M281.3,86h3.2c1.1,0,1.6,0.1,2,0.3c1,0.4,1.6,1.5,1.6,2.8c0,1.5-0.8,2.6-2,2.9l0,0c0,0,0.1,0.1,0.3,0.4
				l2.4,4.4h-1.2l-2.4-4.6h-2.7v4.6h-1.1L281.3,86L281.3,86z M285,91.3c1.3,0,2.1-0.8,2.1-2.2c0-0.9-0.4-1.6-1-1.9
				c-0.3-0.2-0.7-0.3-1.5-0.3h-2.2v4.4H285z"/>
		</g>
		<g>
			<polygon class="st0" points="291,86 297.1,86 297.1,86.9 292.1,86.9 292.1,90.9 296.2,90.9 296.2,91.8 292.1,91.8 292.1,95.9 
				297.4,95.9 297.4,96.8 291,96.8 			"/>
		</g>
		<g>
			<path class="st0" d="M299.8,86h1l5.5,7.8c0.4,0.5,0.9,1.5,0.9,1.5l0,0c0,0-0.1-0.9-0.1-1.5V86h1.1v10.8h-1l-5.5-7.8
				c-0.4-0.5-0.9-1.5-0.9-1.5l0,0c0,0,0.1,0.9,0.1,1.5v7.8h-1.1V86z"/>
		</g>
		<g>
			<path class="st0" d="M316.7,93.4h-4.4l-1.2,3.4H310l4-10.8h1.1l4,10.8H318L316.7,93.4z M314.6,87.1c0,0-0.2,0.9-0.4,1.4l-1.4,3.9
				h3.7l-1.4-3.9C314.8,88,314.6,87.1,314.6,87.1L314.6,87.1z"/>
		</g>
		<g>
			<path class="st0" d="M115.5,103.3c1.3,0,1.9,0.7,1.9,0.7l-0.3,0.4c0,0-0.6-0.6-1.6-0.6c-1.3,0-2.2,1-2.2,2.3s0.9,2.3,2.2,2.3
				c1.1,0,1.8-0.7,1.8-0.7l0.3,0.4c0,0-0.7,0.8-2.1,0.8c-1.6,0-2.7-1.3-2.7-2.8C112.8,104.5,114,103.3,115.5,103.3"/>
		</g>
		<g>
			<polygon class="st0" points="118.8,103.4 119.3,103.4 119.3,105.8 122.5,105.8 122.5,103.4 123,103.4 123,108.8 122.5,108.8 
				122.5,106.3 119.3,106.3 119.3,108.8 118.8,108.8 			"/>
		</g>
		<g>
			<rect x="124.6" y="103.4" class="st0" width="0.5" height="5.4"/>
		</g>
		<g>
			<polygon class="st0" points="126.7,103.4 127.2,103.4 127.2,108.3 129.7,108.3 129.7,108.8 126.7,108.8 			"/>
		</g>
		<g>
			<polygon class="st0" points="130.7,103.4 133.7,103.4 133.7,103.9 131.2,103.9 131.2,105.8 133.2,105.8 133.2,106.3 131.2,106.3 
				131.2,108.3 133.8,108.3 133.8,108.8 130.7,108.8 			"/>
		</g>
		<g>
			<line class="st0" x1="112.8" y1="77.1" x2="321" y2="77.1"/>
			<rect x="112.8" y="76.2" class="st0" width="208.1" height="1.8"/>
		</g>
		<g>
			<path class="st0" d="M114.7,20.4h6.9v1.1H116v4.9h4.8v1.2H116v5.9h-1.3V20.4z"/>
		</g>
		<g>
			<path class="st0" d="M128.6,27.7h0.5v-0.2c0-1.8-1-2.4-2.3-2.4c-1.5,0-2.6,0.9-2.6,0.9l-0.6-1c0,0,1.2-1.1,3.3-1.1
				c2.2,0,3.5,1.2,3.5,3.6v6h-1.3v-1c0-0.5,0-0.8,0-0.8l0,0c0,0-0.8,2-3.1,2c-1.6,0-3.2-0.9-3.2-2.8
				C122.8,27.8,126.9,27.7,128.6,27.7z M126.2,32.6c1.8,0,2.9-1.9,2.9-3.5v-0.4h-0.5c-1.5,0-4.4,0.1-4.4,2.1
				C124.1,31.7,124.8,32.6,126.2,32.6z"/>
			<path class="st0" d="M137.5,23.9c2.3,0,3.4,1.3,3.4,1.3l-0.7,0.9c0,0-1-1.1-2.7-1.1c-2,0-3.6,1.5-3.6,3.8c0,2.2,1.6,3.8,3.7,3.8
				c1.9,0,3-1.3,3-1.3l0.6,1c0,0-1.3,1.5-3.6,1.5c-2.8,0-4.9-2-4.9-4.9C132.6,25.9,134.7,23.9,137.5,23.9z"/>
			<path class="st0" d="M143.3,24.1h1.3v5.6c0,1.5,0.2,2.8,2,2.8c2.1,0,3.5-1.9,3.5-3.9v-4.5h1.3v9.3h-1.3V32c0-0.4,0-0.7,0-0.7l0,0
				c-0.4,0.9-1.6,2.4-3.7,2.4c-2.2,0-3.1-1.2-3.1-3.6V24.1z"/>
			<path class="st0" d="M154.3,20.4h1.3V31c0,1.2,0.6,1.4,1,1.4c0.2,0,0.3,0,0.3,0v1.1c0,0-0.2,0-0.5,0c-0.8,0-2.2-0.2-2.2-2.3
				L154.3,20.4L154.3,20.4z"/>
			<path class="st0" d="M159.3,25.3h-1.2v-1.1h1.2v-2.7h1.2v2.7h2.3v1.1h-2.3v4.6c0,2.2,1.4,2.5,2.1,2.5c0.3,0,0.4,0,0.4,0v1.1
				c0,0-0.2,0-0.5,0c-1.1,0-3.2-0.4-3.2-3.5V25.3z"/>
			<path class="st0" d="M170.1,27.7h0.5v-0.2c0-1.8-1-2.4-2.3-2.4c-1.5,0-2.6,0.9-2.6,0.9l-0.6-1c0,0,1.2-1.1,3.3-1.1
				c2.2,0,3.5,1.2,3.5,3.6v6h-1.2v-1c0-0.5,0-0.8,0-0.8l0,0c0,0-0.8,2-3.1,2c-1.6,0-3.2-0.9-3.2-2.8
				C164.4,27.8,168.5,27.7,170.1,27.7z M167.8,32.6c1.8,0,2.9-1.9,2.9-3.5v-0.4h-0.6c-1.5,0-4.4,0.1-4.4,2.1
				C165.7,31.7,166.4,32.6,167.8,32.6z"/>
			<path class="st0" d="M178.4,23.9c2.3,0,3,1.8,3,1.8l0,0c0,0,0-0.3,0-0.7v-4.5h1.3v13.1h-1.2v-1c0-0.4,0-0.7,0-0.7l0,0
				c0,0-0.8,1.9-3.2,1.9c-2.5,0-4.1-2-4.1-4.9C174.2,25.8,175.9,23.9,178.4,23.9z M178.4,32.5c1.6,0,3-1.1,3-3.8c0-1.9-1-3.8-3-3.8
				c-1.7,0-3,1.4-3,3.8C175.5,31.1,176.7,32.5,178.4,32.5z"/>
		</g>
		<g>
			<path class="st0" d="M117.8,41.8c2.1,0,2.7,1.2,2.7,1.2l0,0c0,0,0-0.2,0-0.5v-4.2h2.4v13.2h-2.2v-0.8c0-0.4,0-0.6,0-0.6l0,0
				c0,0-0.8,1.6-3,1.6c-2.6,0-4.2-2-4.2-5C113.5,43.7,115.2,41.8,117.8,41.8z M118.2,49.7c1.2,0,2.4-0.9,2.4-3
				c0-1.5-0.8-2.9-2.4-2.9c-1.3,0-2.4,1.1-2.4,2.9C115.8,48.6,116.8,49.7,118.2,49.7z"/>
			<path class="st0" d="M129.6,41.8c2.7,0,4.2,2,4.2,4.5c0,0.3-0.1,0.9-0.1,0.9h-6.5c0.1,1.7,1.4,2.5,2.8,2.5c1.5,0,2.7-1,2.7-1
				l0.9,1.7c0,0-1.4,1.4-3.8,1.4c-3.1,0-5.1-2.3-5.1-5C124.8,43.8,126.8,41.8,129.6,41.8z M131.4,45.6c0-1.3-0.8-2-1.9-2
				c-1.2,0-2,0.7-2.3,2H131.4z"/>
			<path class="st0" d="M146.5,38.1c3.2,0,4.9,1.8,4.9,1.8l-1.2,1.8c0,0-1.5-1.4-3.6-1.4c-2.8,0-4.4,2.1-4.4,4.5
				c0,2.5,1.7,4.7,4.4,4.7c2.3,0,3.8-1.7,3.8-1.7l1.3,1.7c0,0-1.8,2.1-5.2,2.1c-4,0-6.8-3-6.8-6.9C139.7,41,142.6,38.1,146.5,38.1z"
				/>
			<path class="st0" d="M153.5,38.3h2.3v2.1h-2.3V38.3z M153.5,42h2.4v9.5h-2.4V42z"/>
			<path class="st0" d="M162.6,41.8c2.7,0,4.2,2,4.2,4.5c0,0.3-0.1,0.9-0.1,0.9h-6.5c0.1,1.7,1.4,2.5,2.8,2.5c1.5,0,2.7-1,2.7-1
				l0.9,1.7c0,0-1.4,1.4-3.8,1.4c-3.1,0-5.1-2.3-5.1-5C157.8,43.8,159.8,41.8,162.6,41.8z M164.4,45.6c0-1.3-0.8-2-1.9-2
				c-1.2,0-2,0.7-2.3,2H164.4z"/>
			<path class="st0" d="M168.8,42h2.3v1.1c0,0.4,0,0.6,0,0.6l0,0c0.4-0.8,1.4-2,3.4-2c2.1,0,3.3,1.1,3.3,3.6v6.1h-2.3v-5.6
				c0-1.2-0.3-1.9-1.5-1.9c-1.3,0-2.2,0.8-2.5,1.9c-0.1,0.4-0.2,0.8-0.2,1.3v4.3h-2.4V42H168.8z"/>
			<path class="st0" d="M184.6,41.8c2.5,0,3.6,1.4,3.6,1.4l-1,1.6c0,0-1-1-2.5-1c-1.7,0-2.9,1.3-2.9,2.9s1.2,3,3,3
				c1.6,0,2.8-1.2,2.8-1.2l0.9,1.7c0,0-1.4,1.5-3.9,1.5c-3.1,0-5.1-2.2-5.1-5C179.5,44.1,181.5,41.8,184.6,41.8z"/>
			<path class="st0" d="M190.3,38.3h2.3v2.1h-2.3V38.3z M190.3,42h2.4v9.5h-2.4V42z"/>
			<path class="st0" d="M200,45.6h0.3v-0.1c0-1.2-0.8-1.7-1.8-1.7c-1.4,0-2.6,0.9-2.6,0.9L195,43c0,0,1.5-1.2,3.7-1.2
				c2.5,0,3.9,1.4,3.9,3.8v5.9h-2.2v-0.8c0-0.4,0-0.7,0-0.7l0,0c0,0-0.7,1.7-2.9,1.7c-1.7,0-3.2-1.1-3.2-3
				C194.4,45.8,198.5,45.6,200,45.6z M198.2,49.9c1.2,0,2.1-1.3,2.1-2.5v-0.2h-0.4c-1.2,0-3.2,0.2-3.2,1.5
				C196.8,49.3,197.3,49.9,198.2,49.9z"/>
			<path class="st0" d="M205.4,48.7c0,0,1,1,2.6,1c0.7,0,1.2-0.3,1.2-0.9c0-1.4-4.6-1.2-4.6-4.3c0-1.8,1.6-2.8,3.6-2.8
				c2.1,0,3.2,1.1,3.2,1.1l-0.9,1.7c0,0-0.9-0.8-2.3-0.8c-0.6,0-1.2,0.3-1.2,0.9c0,1.3,4.6,1.2,4.6,4.2c0,1.6-1.4,2.8-3.6,2.8
				c-2.4,0-3.7-1.4-3.7-1.4L205.4,48.7z"/>
			<path class="st0" d="M218.7,48.1c0,0,1.4,1.4,3.3,1.4c1,0,1.9-0.5,1.9-1.6c0-2.4-6.2-2-6.2-6c0-2.2,1.9-3.8,4.4-3.8
				c2.6,0,3.9,1.4,3.9,1.4l-1,2c0,0-1.3-1.1-2.9-1.1c-1.1,0-2,0.6-2,1.6c0,2.3,6.2,1.8,6.2,6c0,2.1-1.6,3.9-4.3,3.9
				c-2.9,0-4.5-1.8-4.5-1.8L218.7,48.1z"/>
			<path class="st0" d="M232.8,41.8c2.9,0,5.2,2.1,5.2,5s-2.3,5-5.2,5s-5.2-2-5.2-5C227.6,43.9,229.9,41.8,232.8,41.8z M232.8,49.7
				c1.5,0,2.8-1.2,2.8-3c0-1.7-1.3-3-2.8-3s-2.8,1.2-2.8,3S231.3,49.7,232.8,49.7z"/>
			<path class="st0" d="M244.4,41.8c2.5,0,3.6,1.4,3.6,1.4l-1,1.6c0,0-1-1-2.5-1c-1.7,0-2.9,1.3-2.9,2.9s1.1,3,3,3
				c1.6,0,2.8-1.2,2.8-1.2l0.9,1.7c0,0-1.4,1.5-3.9,1.5c-3.1,0-5.1-2.2-5.1-5C239.2,44.1,241.2,41.8,244.4,41.8z"/>
			<path class="st0" d="M250,38.3h2.3v2.1H250V38.3z M250,42h2.4v9.5H250V42z"/>
			<path class="st0" d="M259.8,45.6h0.3v-0.1c0-1.2-0.8-1.7-1.8-1.7c-1.4,0-2.6,0.9-2.6,0.9l-0.9-1.7c0,0,1.5-1.2,3.7-1.2
				c2.5,0,3.9,1.4,3.9,3.8v5.9h-2.2v-0.8c0-0.4,0-0.7,0-0.7l0,0c0,0-0.7,1.7-2.9,1.7c-1.7,0-3.2-1.1-3.2-3
				C254.2,45.8,258.2,45.6,259.8,45.6z M258,49.9c1.2,0,2.1-1.3,2.1-2.5v-0.2h-0.4c-1.2,0-3.2,0.2-3.2,1.5
				C256.5,49.3,257,49.9,258,49.9z"/>
			<path class="st0" d="M264.7,38.3h2.3v9.9c0,1,0.4,1.3,1,1.3c0.2,0,0.4,0,0.4,0v2.1c0,0-0.4,0.1-0.7,0.1c-1.3,0-2.9-0.3-2.9-3
				L264.7,38.3L264.7,38.3z"/>
			<path class="st0" d="M274.3,41.8c2.7,0,4.2,2,4.2,4.5c0,0.3-0.1,0.9-0.1,0.9h-6.5c0.1,1.7,1.4,2.5,2.8,2.5c1.5,0,2.7-1,2.7-1
				l0.9,1.7c0,0-1.4,1.4-3.8,1.4c-3.1,0-5.1-2.3-5.1-5C269.5,43.8,271.5,41.8,274.3,41.8z M276.1,45.6c0-1.3-0.8-2-1.9-2
				c-1.2,0-2,0.7-2.3,2H276.1z"/>
			<path class="st0" d="M280.7,48.7c0,0,1,1,2.6,1c0.7,0,1.2-0.3,1.2-0.9c0-1.4-4.6-1.2-4.6-4.3c0-1.8,1.6-2.8,3.6-2.8
				c2.1,0,3.2,1.1,3.2,1.1l-0.9,1.7c0,0-0.9-0.8-2.3-0.8c-0.6,0-1.2,0.3-1.2,0.9c0,1.3,4.6,1.2,4.6,4.2c0,1.6-1.4,2.8-3.6,2.8
				c-2.4,0-3.7-1.4-3.7-1.4L280.7,48.7z"/>
			<path class="st0" d="M289.1,49.1h2.3l-1.8,4.3h-1.8L289.1,49.1z"/>
		</g>
		<g>
			<path class="st0" d="M114.5,56.3h7.9v2.1h-5.5v3.5h4.4V64h-4.4v3.5h5.8v2.1h-8.2C114.5,69.6,114.5,56.3,114.5,56.3z"/>
			<path class="st0" d="M124.8,60.1h2.3v1.1c0,0.4,0,0.7,0,0.7l0,0c0.5-0.9,1.6-2,3.1-2c1.4,0,2.4,0.7,2.8,2l0,0c0.5-1,1.7-2,3.2-2
				c2,0,3.1,1.1,3.1,3.6v6.1h-2.4V64c0-1.1-0.2-1.9-1.3-1.9c-1.2,0-2,1-2.3,2.2c-0.1,0.4-0.1,0.8-0.1,1.2v4.2h-2.4v-5.6
				c0-1-0.2-1.9-1.3-1.9c-1.2,0-2,1-2.3,2.2c-0.1,0.4-0.1,0.8-0.1,1.2v4.2h-2.4L124.8,60.1L124.8,60.1z"/>
			<path class="st0" d="M141.7,60.1h2.2v0.6c0,0.4,0,0.6,0,0.6l0,0c0,0,0.8-1.6,3-1.6c2.6,0,4.2,2,4.2,5c0,3-1.8,5-4.3,5
				c-1.9,0-2.7-1.3-2.7-1.3l0,0c0,0,0,0.3,0,0.8v4h-2.4V60.1z M146.4,67.8c1.3,0,2.4-1.1,2.4-2.9c0-1.8-1-3-2.4-3
				c-1.2,0-2.4,0.9-2.4,3C144,66.3,144.8,67.8,146.4,67.8z"/>
			<path class="st0" d="M153.1,60.1h2.3v1.6c0,0.4,0,0.7,0,0.7l0,0c0.4-1.4,1.6-2.4,3-2.4c0.2,0,0.4,0,0.4,0v2.3c0,0-0.2,0-0.6,0
				c-1,0-2.1,0.6-2.6,2c-0.1,0.5-0.2,1-0.2,1.5v3.8h-2.3V60.1z"/>
			<path class="st0" d="M164.5,59.8c2.7,0,4.2,2,4.2,4.5c0,0.3-0.1,0.9-0.1,0.9h-6.5c0.1,1.7,1.4,2.5,2.8,2.5c1.5,0,2.7-1,2.7-1
				l0.9,1.7c0,0-1.4,1.4-3.8,1.4c-3.1,0-5.1-2.3-5.1-5C159.7,61.9,161.7,59.8,164.5,59.8z M166.3,63.6c0-1.3-0.8-2-1.9-2
				c-1.2,0-2,0.7-2.3,2H166.3z"/>
			<path class="st0" d="M170.9,66.7c0,0,1,1,2.6,1c0.7,0,1.2-0.3,1.2-0.9c0-1.4-4.6-1.2-4.6-4.3c0-1.8,1.6-2.8,3.6-2.8
				c2.1,0,3.2,1.1,3.2,1.1l-0.8,1.9c0,0-0.9-0.8-2.3-0.8c-0.6,0-1.2,0.3-1.2,0.9c0,1.3,4.6,1.2,4.6,4.2c0,1.6-1.4,2.8-3.6,2.8
				c-2.4,0-3.7-1.4-3.7-1.4L170.9,66.7z"/>
			<path class="st0" d="M183.8,63.6h0.3v-0.1c0-1.2-0.8-1.7-1.8-1.7c-1.4,0-2.6,0.9-2.6,0.9l-0.9-1.7c0,0,1.5-1.2,3.7-1.2
				c2.5,0,3.9,1.4,3.9,3.8v5.9h-2.2v-0.8c0-0.4,0-0.7,0-0.7l0,0c0,0-0.7,1.7-2.9,1.7c-1.7,0-3.2-1.1-3.2-3
				C178.2,63.8,182.3,63.6,183.8,63.6z M182,67.9c1.2,0,2.1-1.3,2.1-2.5v-0.2h-0.4c-1.2,0-3.2,0.2-3.2,1.5
				C180.6,67.3,181.1,67.9,182,67.9z"/>
			<path class="st0" d="M188.9,60.1h2.3v1.6c0,0.4,0,0.7,0,0.7l0,0c0.4-1.4,1.6-2.4,3-2.4c0.2,0,0.4,0,0.4,0v2.3c0,0-0.2,0-0.6,0
				c-1,0-2.1,0.6-2.6,2c-0.1,0.5-0.2,1-0.2,1.5v3.8h-2.4v-9.5H188.9z"/>
			<path class="st0" d="M196.2,56.3h2.3v2.1h-2.3V56.3z M196.2,60.1h2.4v9.5h-2.4V60.1z"/>
			<path class="st0" d="M206,63.6h0.3v-0.1c0-1.2-0.8-1.7-1.8-1.7c-1.4,0-2.6,0.9-2.6,0.9L201,61c0,0,1.5-1.2,3.7-1.2
				c2.5,0,3.9,1.4,3.9,3.8v5.9h-2.2v-0.8c0-0.4,0-0.7,0-0.7l0,0c0,0-0.7,1.7-2.9,1.7c-1.7,0-3.2-1.1-3.2-3
				C200.4,63.8,204.5,63.6,206,63.6z M204.2,67.9c1.2,0,2.1-1.3,2.1-2.5v-0.2h-0.4c-1.2,0-3.2,0.2-3.2,1.5
				C202.8,67.3,203.2,67.9,204.2,67.9z"/>
			<path class="st0" d="M211,56.3h2.3v9.9c0,1,0.4,1.3,1,1.3c0.2,0,0.4,0,0.4,0v2.1c0,0-0.4,0.1-0.7,0.1c-1.3,0-2.9-0.3-2.9-3V56.3
				H211z"/>
			<path class="st0" d="M220.5,59.8c2.7,0,4.2,2,4.2,4.5c0,0.3-0.1,0.9-0.1,0.9h-6.5c0.1,1.7,1.4,2.5,2.8,2.5c1.5,0,2.7-1,2.7-1
				l0.9,1.7c0,0-1.4,1.4-3.8,1.4c-3.1,0-5.1-2.3-5.1-5C215.7,61.9,217.7,59.8,220.5,59.8z M222.3,63.6c0-1.3-0.8-2-1.9-2
				c-1.2,0-2,0.7-2.3,2H222.3z"/>
			<path class="st0" d="M226.9,66.7c0,0,1,1,2.6,1c0.7,0,1.2-0.3,1.2-0.9c0-1.4-4.6-1.2-4.6-4.3c0-1.8,1.6-2.8,3.6-2.8
				c2.1,0,3.2,1.1,3.2,1.1l-0.8,1.9c0,0-0.9-0.8-2.3-0.8c-0.6,0-1.2,0.3-1.2,0.9c0,1.3,4.6,1.2,4.6,4.2c0,1.6-1.4,2.8-3.6,2.8
				c-2.4,0-3.7-1.4-3.7-1.4L226.9,66.7z"/>
			<path class="st0" d="M239,71.1c0,0,0.5,0.4,1.1,0.4s1.3-0.4,1.6-1.2l0.4-0.8l-4-9.3h2.7l2,5.5c0.2,0.5,0.4,1.3,0.4,1.3l0,0
				c0,0,0.1-0.7,0.3-1.2l1.9-5.5h2.6l-4.2,10.9c-0.7,1.7-2,2.5-3.4,2.5c-1.1,0-2-0.6-2-0.6L239,71.1z"/>
			<path class="st0" d="M252.9,64.9h2.4v0.6c0,1.6,0.9,2.1,1.7,2.1s1.7-0.5,1.7-2v-7.2h-3.4v-2.1h5.8v9.3c0,2.9-2.1,4.1-4.1,4.1
				c-2,0-4.1-1.3-4.1-4.1V64.9z"/>
			<path class="st0" d="M263.7,60.1h2.4v5.6c0,1.2,0.3,1.9,1.5,1.9c1.7,0,2.7-1.5,2.7-3.2v-4.3h2.4v9.5h-2.3v-1.1c0-0.4,0-0.7,0-0.7
				l0,0c-0.5,1-1.7,2-3.3,2c-2,0-3.3-1-3.3-3.6v-6.1H263.7z"/>
			<path class="st0" d="M275.2,60.1h2.3v1.6c0,0.4,0,0.7,0,0.7l0,0c0.4-1.4,1.6-2.4,3-2.4c0.2,0,0.4,0,0.4,0v2.3c0,0-0.2,0-0.6,0
				c-1,0-2.1,0.6-2.6,2c-0.1,0.5-0.2,1-0.2,1.5v3.8h-2.4v-9.5H275.2z"/>
			<path class="st0" d="M282.5,60.1h2.4v9.5h-2.4V60.1z M284,56.4h2.4l-2,2.5h-1.9L284,56.4z"/>
			<path class="st0" d="M291.1,59.8c2.1,0,2.7,1.2,2.7,1.2l0,0c0,0,0-0.2,0-0.5v-4.2h2.4v13.2H294v-0.8c0-0.4,0-0.6,0-0.6l0,0
				c0,0-0.8,1.6-3,1.6c-2.6,0-4.2-2-4.2-5C286.8,61.8,288.6,59.8,291.1,59.8z M291.5,67.8c1.2,0,2.4-0.9,2.4-3
				c0-1.5-0.8-2.9-2.4-2.9c-1.3,0-2.4,1.1-2.4,2.9C289.1,66.6,290.1,67.8,291.5,67.8z"/>
			<path class="st0" d="M298.8,56.3h2.3v2.1h-2.3V56.3z M298.8,60.1h2.4v9.5h-2.4V60.1z"/>
			<path class="st0" d="M308.2,59.8c2.5,0,3.6,1.4,3.6,1.4l-1,1.6c0,0-1-1-2.5-1c-1.7,0-2.9,1.3-2.9,2.9c0,1.6,1.1,3,3,3
				c1.6,0,2.8-1.2,2.8-1.2l0.9,1.7c0,0-1.4,1.5-3.9,1.5c-3.1,0-5.1-2.2-5.1-5C303,62.1,305,59.8,308.2,59.8z"/>
			<path class="st0" d="M318.6,63.6h0.3v-0.1c0-1.2-0.8-1.7-1.8-1.7c-1.4,0-2.6,0.9-2.6,0.9l-0.9-1.7c0,0,1.5-1.2,3.7-1.2
				c2.5,0,3.9,1.4,3.9,3.8v5.9h-2.1v-0.8c0-0.4,0-0.7,0-0.7l0,0c0,0-0.7,1.7-2.9,1.7c-1.7,0-3.2-1.1-3.2-3
				C313,63.8,317.1,63.6,318.6,63.6z M316.8,67.9c1.2,0,2.1-1.3,2.1-2.5v-0.2h-0.4c-1.2,0-3.2,0.2-3.2,1.5
				C315.4,67.3,315.9,67.9,316.8,67.9z"/>
			<path class="st0" d="M324,66.7c0,0,1,1,2.6,1c0.7,0,1.2-0.3,1.2-0.9c0-1.4-4.6-1.2-4.6-4.3c0-1.8,1.6-2.8,3.6-2.8
				c2.1,0,3.2,1.1,3.2,1.1l-0.9,1.7c0,0-0.9-0.8-2.3-0.8c-0.6,0-1.2,0.3-1.2,0.9c0,1.3,4.6,1.2,4.6,4.2c0,1.6-1.4,2.8-3.6,2.8
				c-2.4,0-3.7-1.4-3.7-1.4L324,66.7z"/>
		</g>
	</g>
	<g>
		<path class="st1" d="M39.7,31.2c0.4-0.2,0.8-0.5,1.1-0.9s0.4-0.8,0.5-1.3c0.1-0.5,0-0.9-0.2-1.3c-0.2-0.4-0.5-0.6-0.9-0.8
			c-0.4-0.2-0.8-0.3-1.3-0.3S38,26.7,37.5,27s-0.9,0.5-1.1,0.7l2,4C38.7,31.6,39.2,31.5,39.7,31.2z"/>
		<path class="st1" d="M26.3,40.4c0.7-0.2,1.2-0.5,1.6-0.9c0.2-0.3,0.4-0.6,0.5-1c0.1-0.4,0.1-0.7,0-1c-0.1-0.3-0.3-0.6-0.5-0.8
			c-0.3-0.2-0.6-0.4-1-0.4c-0.4,0-0.7,0-1.1,0.2c-0.4,0.1-0.7,0.4-1,0.7c-0.4,0.5-0.6,1-0.6,1.6l2.1,1.8V40.4z"/>
		<path class="st1" d="M21.2,64.5c0-9.8,4-18.6,10.4-25c6.4-6.4,15.3-10.4,25-10.4c9.8,0,18.6,4,25,10.4C88,45.9,92,54.7,92,64.5
			c0,7.6-2.4,14.6-6.5,20.4l6.4,6.3c5.7-7.4,9.1-16.8,9.1-26.9c0-12.3-4.9-23.4-13-31.4c-8-8-19.2-13-31.4-13
			c-12.3,0-23.4,5-31.4,13s-13,19.1-13,31.4c0,9.9,3.3,19.1,8.7,26.5l6.5-6.3C23.5,78.8,21.2,71.9,21.2,64.5z M98.1,61L94,62.9
			c-0.1,0.1-0.3,0.1-0.4,0.2c-0.2,0.1-0.3,0.2-0.4,0.3c-0.1,0.1-0.1,0.3-0.1,0.4H93l-0.1-1.5H93l0.1,0.5l3.1-1.4l-0.1-0.7l-2.3-0.5
			c-0.2-0.1-0.4-0.1-0.6-0.1c-0.1,0-0.2,0-0.2,0.1c0,0.1-0.1,0.2-0.1,0.3c0,0.1,0,0.2,0,0.4h-0.1l-0.1-1.6h0.1v0.4l5.3,1.1V61z
			 M96.8,53.7L96.8,53.7l0.3,0.9l-3.8,3.1l3.5-0.6c0.1,0,0.3-0.1,0.3-0.2c0-0.1,0.1-0.3,0.1-0.5h0.1l0.2,1.3h-0.1l-0.1-0.4l-5.1,0.9
			V58l3.8-3.1l-3.2,0.6c-0.2,0-0.4,0.1-0.5,0.3c0,0.1,0,0.3,0,0.5h-0.1l-0.3-1.6h0.2l0.1,0.5l4-0.7c0.2,0,0.4-0.1,0.5-0.2
			C96.8,54.2,96.9,54,96.8,53.7z M95.1,49.1L95.1,49.1l0.5,1.2l0,0c0,0,0,0,0,0l0.5,1.5l0.3-0.1l0.1,0.2l-1.6,0.5l-0.1-0.2l0.3-0.1
			c0.4-0.1,0.6-0.3,0.7-0.6c0-0.2,0-0.6-0.2-1.2l0,0l-0.1-0.2l-1.2,0.4l0.3,0.8l0.7-0.2v0.1l-1.8,0.6v-0.1c0.2-0.1,0.4-0.1,0.5-0.3
			c0.1-0.1,0.2-0.2,0.2-0.4c0-0.1,0-0.2-0.1-0.4l-3.2,1.1c0.1,0.4,0.3,0.7,0.4,1c0.2,0.2,0.3,0.3,0.5,0.4c0.2,0,0.4,0,0.6-0.1
			l0.4-0.1l0.1,0.2l-1.8,0.6v-0.3l0.3-0.1l-0.9-2.7h0.1l0.2,0.5l4.2-1.4c0.1,0,0.2-0.1,0.2-0.2C95.2,49.4,95.2,49.2,95.1,49.1z
			 M92.3,42.1v0.1c0,0.1,0,0.1,0.1,0.2l0.3,0.7l-0.4,0.2c0.6,0.4,1,0.8,1.3,1.3c0.2,0.4,0.3,0.8,0.3,1.3s-0.1,0.9-0.2,1.2
			c-0.2,0.4-0.4,0.6-0.8,0.8c-0.4,0.2-0.7,0.2-1.1,0.2c-0.4-0.1-0.8-0.2-1.1-0.5c-0.4-0.3-0.7-0.6-0.9-1.1c0,0.1,0,0.4,0.1,0.8
			c0,0.4,0.1,0.7,0.1,1s0.1,0.5,0.3,0.8c0.1,0.2,0.2,0.3,0.3,0.3v0.1c-0.2-0.1-0.3-0.3-0.5-0.5c-0.1-0.2-0.2-0.4-0.3-0.7
			c-0.1-0.3-0.1-0.5-0.2-0.6c0-0.2-0.1-0.5-0.1-0.9c-0.1-0.8-0.1-1.5-0.1-2l-0.6,0.3c-0.1,0-0.2,0.1-0.2,0.1s0,0.1,0,0.2
			c0,0.1,0.1,0.2,0.1,0.3c0,0.1,0.1,0.1,0.1,0.2L88.7,46l-0.8-1.6l0.1-0.1l0.2,0.5l4-2c0.1-0.1,0.2-0.2,0.2-0.4l-0.2-0.3H92.3z
			 M89.1,38.8c0.1-0.1,0.2-0.2,0.2-0.3c0-0.1-0.1-0.2-0.2-0.4l0.1-0.1l1.7,2.4l0.3-0.2l0.1,0.1l-1.4,1l-0.1-0.1L90,41
			c0.3-0.2,0.5-0.5,0.5-0.8c0-0.2-0.2-0.6-0.6-1.1l-0.1-0.2l-1,0.7l0.5,0.7l0.6-0.4L90,40l-1.5,1.1L88.4,41c0.2-0.1,0.3-0.3,0.4-0.4
			c0.1-0.1,0.1-0.3,0.1-0.4c0-0.1-0.1-0.2-0.2-0.4l-2.8,2c0.2,0.3,0.4,0.6,0.7,0.9c0.2,0.2,0.4,0.2,0.6,0.2c0.2,0,0.4-0.1,0.6-0.2
			l0.3-0.2l0.1,0.1l-1.6,1.1l-0.1-0.1l0.3-0.2L85.1,41l0.1-0.1l0.3,0.5L89.1,38.8z M82.6,36.1c0.2-0.2,0.4-0.3,0.7-0.3
			c0,0,0.1,0,0.1,0c0,0,0,0,0,0c0.2,0,0.4,0,0.6,0c0.2,0,0.3,0.1,0.5,0.3c0,0,0,0,0,0.1c0.1,0.1,0.2,0.2,0.3,0.2
			c0.1,0.1,0.2,0.3,0.3,0.5c0,0,0-0.1,0-0.1c0,0,0,0,0,0.1c0,0.1,0,0.1,0,0.2c0,0.2-0.1,0.3-0.2,0.4c-0.1,0.1-0.3,0.2-0.4,0.2
			c-0.2,0-0.3-0.1-0.5-0.2c0,0-0.1-0.1-0.1-0.2l0.1-0.1c0.2,0.2,0.4,0.2,0.6,0c0.1-0.1,0.1-0.2,0.1-0.3c0-0.1,0-0.3,0-0.4
			c0-0.1-0.1-0.2-0.2-0.3c-0.1-0.1-0.3-0.2-0.4-0.3c-0.3-0.1-0.5-0.1-0.7-0.1c-0.2,0.1-0.4,0.1-0.5,0.3c-0.2,0.2-0.3,0.4-0.4,0.7
			c-0.1,0.3-0.1,0.6,0,0.9c0.1,0.3,0.3,0.6,0.5,0.9c0.2,0.2,0.5,0.4,0.8,0.6c0.3,0.1,0.6,0.2,0.9,0.2c0.3,0,0.5-0.1,0.7-0.3
			c0.1-0.1,0.2-0.3,0.3-0.5c0-0.2,0-0.4-0.1-0.7c-0.1-0.2-0.1-0.5-0.3-0.9c-0.1-0.3-0.2-0.6-0.2-0.8c0-0.2-0.1-0.4,0-0.6
			c0-0.2,0.1-0.4,0.3-0.5c0.2-0.2,0.5-0.3,0.8-0.2c0.3,0.1,0.6,0.2,0.9,0.5c0.1,0.1,0.2,0.3,0.4,0.5l0.2-0.2l0,0.1L87.5,36
			c0,0,0,0,0-0.1l-1.2,1.2L86.2,37l0.3-0.3c0.2-0.2,0.4-0.4,0.5-0.7c0.1-0.2,0-0.5-0.2-0.7c-0.1-0.1-0.2-0.2-0.4-0.2
			c-0.1,0-0.3-0.1-0.4,0c-0.1,0-0.2,0.1-0.3,0.2c-0.1,0.1-0.2,0.3-0.2,0.5s0,0.4,0.1,0.6c0.1,0.2,0.1,0.5,0.3,0.8
			c0.1,0.4,0.2,0.7,0.3,0.9c0.1,0.3,0.1,0.5,0,0.8c0,0.2-0.1,0.5-0.3,0.6c-0.2,0.2-0.4,0.3-0.6,0.3c-0.2,0.1-0.5,0-0.8,0
			c-0.3-0.1-0.5-0.2-0.8-0.3c-0.3-0.2-0.5-0.4-0.7-0.6c-0.3-0.3-0.5-0.6-0.6-1c-0.1-0.3-0.2-0.7-0.2-1
			C82.2,36.6,82.4,36.3,82.6,36.1z M79.5,28.7l-0.9,4.4c0,0.2-0.1,0.3-0.1,0.5s0,0.3,0,0.5c0,0.1,0.1,0.3,0.3,0.4l-0.1,0.1l-1.3-0.8
			l0.1-0.1l0.6,0.3l0.7-3.3l-0.6-0.4l-1.8,1.5c-0.2,0.1-0.3,0.3-0.4,0.4c-0.1,0.1-0.1,0.2-0.1,0.3c0,0.1,0.1,0.2,0.2,0.2
			c0.1,0.1,0.2,0.1,0.3,0.2L76.3,33l-1.4-0.9L75,32l0.3,0.2l4.1-3.6L79.5,28.7z M71.6,30.3l0.5,0.2l2-4c0.1-0.1,0.1-0.2,0-0.3
			c-0.1-0.1-0.2-0.2-0.4-0.3l0.1-0.1l1.5,0.8l-0.1,0.1l-0.5-0.3l-2.2,4.3c0.3,0.1,0.5,0.2,0.7,0.3c0.2,0.1,0.4,0.1,0.6,0.1
			s0.4-0.1,0.5-0.3l0.6-1.1l0.2,0.1L74,32l-0.2-0.1l0.1-0.3L71.6,30.3L71.6,30.3z M65,28.1l0.5,0.1l1.2-4.3c0-0.1,0-0.3-0.1-0.3
			c-0.1-0.1-0.2-0.1-0.4-0.2v-0.1l2.8,0.8l0.1-0.3h0.2l-0.5,1.7h-0.2l0.1-0.3c0.1-0.4,0.1-0.7-0.1-0.9s-0.5-0.3-1.1-0.5l-0.2-0.1
			L67,24.9l0.8,0.2l0.2-0.7h0.1l-0.5,1.8h-0.1c0.1-0.2,0.1-0.4,0.1-0.6s-0.1-0.3-0.2-0.4c-0.1-0.1-0.2-0.1-0.4-0.2l-0.9,3.3
			c0.4,0.1,0.7,0.2,1.1,0.2c0.3,0,0.5-0.1,0.6-0.2c0.1-0.1,0.2-0.3,0.3-0.5l0.1-0.4h0.2l-0.5,1.8h-0.2V29L65,28.2V28.1z M58.3,27
			l0.5,0.1l0.6-4.4c0-0.2-0.1-0.4-0.4-0.4h-0.1v-0.1l2.5,0.3c0.5,0.1,0.9,0.2,1.3,0.3c0.3,0.1,0.6,0.4,0.9,0.6
			c0.2,0.2,0.3,0.4,0.4,0.6c0.1,0.2,0.2,0.4,0.2,0.6s0.1,0.4,0,0.7c-0.1,0.7-0.4,1.2-1,1.6c-0.2,0.2-0.5,0.3-0.7,0.4
			c-0.3,0.1-0.6,0.2-0.9,0.2c-0.4,0-0.8,0-1.3,0l-2-0.3V27z M48,22.8l2.5-0.3c0.5-0.1,0.9-0.1,1.3,0c0.4,0.1,0.7,0.2,1,0.4
			c0.2,0.1,0.4,0.3,0.5,0.4c0.2,0.2,0.3,0.4,0.4,0.6c0.1,0.2,0.2,0.4,0.2,0.6c0.1,0.7-0.1,1.2-0.5,1.8c-0.2,0.2-0.4,0.4-0.6,0.6
			c-0.2,0.2-0.5,0.3-0.9,0.4c-0.3,0.1-0.8,0.2-1.3,0.3l-2,0.3l0.1-0.2l0.5-0.1l-0.6-4.4C48.6,23,48.4,22.8,48,22.8L48,22.8L48,22.8z
			 M43.7,29.3l0.4-0.1v-5.4h0.2l2.7,3.6c0.1,0.1,0.2,0.3,0.3,0.4c0.1,0.1,0.2,0.2,0.3,0.3c0.1,0.1,0.3,0.1,0.4,0v0.1l-1.5,0.4v-0.1
			l0.5-0.2l-2-2.7l-0.7,0.2v2.4c0,0.2,0,0.4,0.1,0.6c0,0.1,0.1,0.2,0.2,0.2s0.2,0,0.3,0c0.1,0,0.2,0,0.4-0.1V29L43.7,29.3L43.7,29.3
			z M37.6,26.7c0.4-0.2,0.9-0.4,1.2-0.4c0.4-0.1,0.7-0.1,1.1,0c0.2,0,0.4,0.1,0.7,0.2c0.2,0.1,0.4,0.2,0.6,0.4
			c0.2,0.2,0.3,0.3,0.4,0.5c0.3,0.6,0.3,1.2,0.1,1.9c-0.1,0.3-0.2,0.5-0.4,0.8c-0.1,0.2-0.4,0.5-0.7,0.7s-0.6,0.5-1.1,0.7l-1.8,0.9
			l-0.1-0.2l0.5-0.3l-2-3.9c-0.1-0.2-0.3-0.3-0.6-0.1L35.4,28l-0.1-0.1L37.6,26.7z M33.8,28.8L33.8,28.8l-0.3,0.4l2.5,3.5
			c0.1,0.1,0.1,0.2,0.2,0.2c0.1,0.1,0.1,0.1,0.2,0.1c0.1,0,0.2-0.1,0.4-0.2l0.1,0.1l-1.3,1l-0.2-0.1l0.4-0.3l-2.6-3.6
			c0-0.1-0.1-0.2-0.2-0.2c-0.1,0-0.3,0.1-0.4,0.2l-0.1-0.1L33.8,28.8z M29.8,31.7c0.1-0.1,0.3-0.2,0.6-0.3l-0.2-0.2l0.1-0.1l1.3,1.5
			l-0.1,0.1l-0.4-0.4c-0.2-0.2-0.4-0.4-0.6-0.5c-0.2-0.1-0.4,0-0.7,0.2c-0.1,0.1-0.2,0.2-0.3,0.4c-0.1,0.1-0.1,0.3-0.1,0.4
			s0.1,0.2,0.1,0.3c0.1,0.1,0.3,0.2,0.5,0.2s0.4,0,0.6,0s0.5-0.1,0.8-0.2c0.4-0.1,0.7-0.2,0.9-0.2c0.3,0,0.5-0.1,0.8,0
			c0.2,0,0.4,0.2,0.6,0.4c0.2,0.2,0.3,0.4,0.3,0.7c0,0.2,0,0.5,0,0.8c-0.1,0.3-0.2,0.5-0.4,0.8c-0.2,0.3-0.4,0.5-0.6,0.7
			c-0.3,0.3-0.7,0.5-1,0.6c-0.4,0.1-0.7,0.2-1,0.1c-0.3-0.1-0.6-0.2-0.8-0.5c-0.2-0.2-0.3-0.4-0.3-0.7c0-0.2,0-0.4,0-0.5
			c0-0.1,0-0.2,0.1-0.4c0.1-0.2,0.2-0.3,0.4-0.5c0,0,0,0,0,0c0,0,0.1-0.1,0.1-0.1c0.1-0.1,0.3-0.2,0.5-0.3c0.2-0.1,0.4-0.1,0.6-0.1
			s0.3,0.1,0.4,0.2c0.1,0.1,0.1,0.3,0.1,0.4c0,0.2-0.1,0.3-0.3,0.5c0,0-0.1,0.1-0.2,0.1L31.5,35c0.2-0.2,0.2-0.4,0-0.6
			c-0.1-0.1-0.2-0.1-0.3-0.2c-0.1,0-0.3,0-0.4,0c-0.1,0-0.3,0.1-0.4,0.2c-0.2,0.2-0.3,0.4-0.4,0.6c0,0.1,0,0.2-0.1,0.3
			c0,0.1,0,0.2,0.1,0.2c0,0.2,0.1,0.4,0.2,0.5c0.2,0.2,0.4,0.4,0.7,0.4c0.3,0.1,0.6,0.1,0.9,0c0.3-0.1,0.6-0.2,0.9-0.5
			c0.3-0.2,0.5-0.5,0.6-0.8c0.1-0.3,0.2-0.6,0.2-0.9c0-0.3-0.1-0.5-0.3-0.7c-0.1-0.2-0.3-0.3-0.5-0.3c-0.2,0-0.4,0-0.7,0
			c-0.2,0-0.5,0.1-0.9,0.2c0,0.2-0.3,0.3-0.5,0.3s-0.4,0-0.6,0c-0.2,0-0.4-0.1-0.5-0.3c-0.2-0.2-0.2-0.5-0.2-0.8
			C29.4,32.3,29.6,32,29.8,31.7z M22.9,39.1l0.7-0.8l0.4,0.3c0.1-0.7,0.4-1.2,0.8-1.7c0.3-0.3,0.6-0.6,1.1-0.8
			c0.4-0.2,0.8-0.3,1.2-0.3s0.8,0.1,1,0.4c0.3,0.3,0.5,0.6,0.6,1c0.1,0.4,0.1,0.8-0.1,1.2c-0.1,0.4-0.3,0.8-0.6,1.2
			c0.1-0.1,0.3-0.2,0.7-0.4c0.4-0.2,0.7-0.3,0.9-0.5c0.2-0.1,0.4-0.3,0.6-0.5c0.1-0.1,0.2-0.3,0.2-0.4h0.1c0,0.2-0.1,0.4-0.3,0.6
			c-0.2,0.2-0.3,0.3-0.5,0.5c-0.2,0.1-0.4,0.3-0.5,0.4c-0.2,0.1-0.4,0.3-0.8,0.5c-0.7,0.4-1.3,0.7-1.8,0.9l0.5,0.5
			c0.1,0.1,0.2,0.1,0.2,0.1c0.1,0,0.1,0,0.2,0c0.1-0.1,0.2-0.1,0.2-0.2s0.1-0.1,0.2-0.2L28,41l-1.2,1.4l-0.1-0.1l0.3-0.4L23.6,39
			c-0.2-0.1-0.4-0.1-0.6,0.2l-0.1,0.1V39.1z M20.9,42.7l0.1-0.2c0.1-0.1,0.2-0.3,0.2-0.4l0.6-1l-0.3-0.2l0.1-0.2l1.5,0.9L23,41.7
			h-0.4c-0.4-0.2-0.7-0.2-0.9-0.1c-0.1,0.1-0.3,0.3-0.5,0.5L20.9,42.7l1.1,0.6l0.4-0.7l-0.7-0.4l0.1-0.1l1.6,0.9l-0.1,0.1
			c-0.2-0.1-0.4-0.2-0.5-0.2c-0.2,0-0.3,0-0.4,0.1c-0.1,0.1-0.1,0.2-0.2,0.3l2.9,1.7c0.2-0.3,0.4-0.7,0.5-1s0-0.5,0-0.6
			c-0.1-0.2-0.2-0.3-0.5-0.4l-0.3-0.2l0.1-0.1l1.6,0.9l-0.1,0.1h-0.3l-1.4,2.5l-0.1-0.1l0.3-0.5l-3.8-2.2c-0.1-0.1-0.2-0.1-0.3,0
			c-0.1,0.1-0.2,0.2-0.3,0.3l-0.1-0.1L20.9,42.7L20.9,42.7z M18.4,47.5l0.1,0.1l-0.3,0.6l4.6,0.3L19.9,46c-0.1-0.1-0.2-0.1-0.2-0.1
			c-0.1-0.1-0.3-0.1-0.3,0c-0.1,0.1-0.2,0.2-0.2,0.3v0.1l-0.1-0.1l0.7-1.5l0.1,0.1l-0.2,0.5l4.1,3.5L23.7,49l-4.8-0.3
			c-0.3,0-0.5,0-0.6,0c-0.1,0-0.2,0.1-0.3,0.1c-0.1,0.1-0.1,0.1-0.2,0.3l-0.1,0.2l-0.1-0.1L18.4,47.5z M17,51L17,51v0.5l4.2,1.2
			c0.1,0,0.2,0.1,0.3,0.1c0.1,0,0.2,0,0.2-0.1c0-0.1,0.1-0.2,0.2-0.4H22l-0.5,1.6l-0.1-0.1l0.1-0.5l-4.3-1.2c-0.1,0-0.3,0-0.3,0.1
			c-0.1,0.1-0.1,0.2-0.2,0.4h-0.1L17,51z M20.3,62c-0.1,0.2-0.2,0.4-0.3,0.5c-0.2,0.3-0.5,0.4-0.9,0.3l-3.6-0.1
			c-0.2,0-0.4,0.2-0.4,0.6H15l0.1-1.6h0.1v0.5l4,0.3c0.3,0,0.5-0.1,0.7-0.3c0.2-0.2,0.3-0.5,0.3-0.8c0-0.3-0.1-0.5-0.2-0.7
			c-0.2-0.2-0.4-0.3-0.6-0.3l-3.6-0.3c-0.2,0-0.4,0.1-0.4,0.4l-0.1,0.1h-0.1l0.1-1.4h0.1v0.5l4.1,0.3c0.2,0,0.4,0.1,0.5,0.2
			c0.1,0.1,0.2,0.3,0.3,0.5c0.1,0.2,0.1,0.4,0.1,0.6S20.3,61.7,20.3,62z M20.5,58.4l-0.1,0.1l0.1-0.5l-4-0.7c-0.2,0-0.4,0-0.5,0
			c-0.2,0.1-0.3,0.2-0.3,0.6h-0.1l0.1-0.9l4.6-1.6l-3.5-0.6c-0.1,0-0.3,0-0.4,0.1c-0.1,0.1-0.2,0.2-0.2,0.4h-0.1l0.2-1.3h0.1
			l-0.1,0.4l5.1,0.9v0.1L16.8,57l3.2,0.6c0.3,0,0.4,0,0.5-0.1c0.1-0.1,0.1-0.2,0.2-0.5h0.1L20.5,58.4z"/>
		<polygon class="st1" points="96.4,60.8 96.4,61.4 97.4,61 		"/>
		<polygon class="st0" points="44.3,24.5 44.3,25.5 44.9,25.4 		"/>
		<path class="st1" d="M89.5,44.7h0.2c-0.1,0.8,0,1.4,0.3,1.8c0.2,0.3,0.4,0.6,0.7,0.8c0.3,0.2,0.6,0.3,1,0.4c0.3,0,0.7,0,0.9-0.2
			c0.3-0.2,0.5-0.4,0.7-0.8c0.2-0.3,0.3-0.7,0.3-1.1c0-0.4-0.1-0.8-0.3-1.2c-0.3-0.4-0.7-0.8-1.3-1L89.5,44.7z"/>
		<path class="st1" d="M51.1,27.4c0.5-0.1,0.9-0.2,1.3-0.5c0.4-0.3,0.7-0.6,0.9-1c0.2-0.4,0.3-0.8,0.2-1.3c-0.1-0.4-0.3-0.8-0.6-1.1
			c-0.3-0.3-0.7-0.5-1.1-0.7s-0.9-0.2-1.4-0.1c-0.6,0.1-1,0.2-1.3,0.3l0.6,4.4C50,27.5,50.5,27.5,51.1,27.4z"/>
		<polygon class="st1" points="79.1,29.5 78.3,30.2 78.9,30.5 		"/>
		<path class="st1" d="M62.1,27c0.4-0.2,0.8-0.4,1.1-0.8c0.3-0.2,0.4-0.6,0.5-1c0-0.4-0.1-0.8-0.3-1.2c-0.2-0.4-0.5-0.7-0.9-1
			c-0.4-0.3-0.8-0.4-1.3-0.5c-0.6-0.1-1-0.1-1.3,0l-0.6,4.4c0.3,0.1,0.8,0.3,1.4,0.3C61.2,27.3,61.7,27.2,62.1,27z"/>
		<polygon class="st2" points="54.8,37.2 48.2,41.1 40,41.3 40,45.4 48.2,45.4 54.8,41.5 		"/>
		<polygon class="st2" points="57.6,55.9 56.9,55.5 56.2,55.9 56.2,60.6 67.2,66.8 67.4,67.1 67.4,80 59.3,84.5 59.3,91.4 
			74.3,82.9 74.3,61.9 75.9,61.9 75.9,55 74.3,55 67.4,55 67.4,61.9 67.4,65.5 57.6,60 		"/>
		<path class="st0" d="M81.1,40.1C74.8,33.9,66.2,30,56.7,30s-18.2,3.9-24.4,10.1C26,46.4,22.1,55,22.1,64.5S26,82.7,32.2,88.9
			C38.4,95.1,47.1,99,56.6,99S74.8,95.1,81,88.9c6.2-6.2,10.1-14.9,10.1-24.4S87.3,46.4,81.1,40.1z M65.7,49.5l-8-4.5v-1.4l8,4.5
			h9.9v1.4H65.7z M75.6,51v1.4h-9.9l-8-4.5v-1.4l8,4.5H75.6z M57.6,34.8l8.4,5l9.5,0.1v7H65.2l-7.6-4.5V34.8z M38.3,39.9l9.5-0.1
			l8.4-5v7.6l-7.6,4.5H38.3V39.9z M38.3,48.1h9.9l8-4.5V45l-8,4.5h-9.9V48.1z M38.3,51h9.9l8-4.5v1.4l-8,4.5h-9.9V51z M54.8,76.4
			v-4.1l-6.5-3.6v10.4l8.1,4.5v10.2L38.5,83.7V63.3h-1.6v-9.8h11.3v10.4L59,70v6.4l-2.1,1.1L54.8,76.4z M77.4,63.2h-1.6v20.5
			L58,93.8V83.6l8.1-4.5V67.7l-11.2-6.3V55l2.1-1.1l2.1,1.1v4.1l6.9,3.8v-9.5h11.4V63.2z"/>
		<path class="st1" d="M81.6,89.5c-6.4,6.4-15.3,10.4-25,10.4c-9.8,0-18.6-4-25-10.4c-1.3-1.3-2.6-2.8-3.7-4.3l-6.4,6.3
			c1.2,1.5,2.4,2.9,3.7,4.3c8,8,19.2,13,31.4,13c12.3,0,23.4-5,31.4-13c1.2-1.2,2.3-2.5,3.4-3.8L85,85.6
			C83.9,87,82.8,88.3,81.6,89.5z M50,103h-0.2c0.1-0.4,0.1-0.6,0.1-0.8c0-0.2-0.1-0.4-0.2-0.5c-0.1-0.2-0.3-0.3-0.6-0.4
			c-0.2-0.1-0.4-0.1-0.6-0.2c0,0,0,0,0,0c-0.4-0.1-0.9-0.1-1.3-0.1c-0.3,0-0.6,0.1-0.9,0.2c-0.3,0.1-0.5,0.3-0.7,0.5
			c-0.3,0.3-0.5,0.7-0.6,1.1c-0.1,0.3-0.1,0.7,0,1c0.1,0.3,0.2,0.7,0.4,1s0.5,0.6,0.8,0.8c0.3,0.2,0.7,0.4,1.1,0.5
			c0.4,0.1,0.8,0.1,1.2,0.1c0.4-0.1,0.7-0.2,1-0.3l0.1,0.2c-0.4,0.2-0.7,0.3-1.2,0.3c-0.4,0-0.8,0-1.3-0.1c-0.6-0.1-1.1-0.4-1.5-0.7
			c-0.4-0.4-0.8-0.8-1-1.2c-0.2-0.5-0.2-0.9-0.1-1.4c0.1-0.4,0.3-0.7,0.5-1c0.3-0.3,0.6-0.5,1-0.7c0.1,0,0.2-0.1,0.3-0.1
			c0.2-0.1,0.3-0.2,0.5-0.2c0.4-0.1,1-0.1,1.5,0c0.1,0,0.2,0.1,0.2,0.1c0.8-0.3,1.3-0.1,1.7,0.3l0.1-0.4h0.2L50,103z M55.9,102
			l-0.7-0.1l-0.3,4.5c0,0.1,0,0.3,0.1,0.3c0.1,0.1,0.2,0.1,0.4,0.1c0,0,0.1,0,0.2,0v0.1l-1.7-0.1v-0.1h0.5l0.3-3.4l-2-0.1l-0.2,3
			c0,0.2,0,0.3,0.1,0.4c0.1,0,0.2,0.1,0.5,0.1v0.1l-1.7-0.1v-0.1h0.5l0.3-4.5c0-0.2-0.1-0.4-0.5-0.4h-0.1v-0.1l1.7,0.1v0.1h-0.5
			l-0.1,1.3l2,0.1l0.1-0.9c0-0.1,0-0.2-0.1-0.3c-0.1-0.1-0.2-0.1-0.4-0.1h-0.1v-0.1L55.9,102L55.9,102z M58.9,106.9h-1.7l0.1-0.1
			h0.5l-0.1-4.5c0-0.2-0.1-0.2-0.2-0.3c-0.1,0-0.3-0.1-0.5-0.1v-0.1h1.7v0.1h-0.5l0.1,4.4c0,0.1,0,0.2,0,0.3c0,0.1,0.1,0.1,0.1,0.2
			C58.5,106.8,58.6,106.8,58.9,106.9L58.9,106.9z M63.4,106.8v-0.3l-2.7,0.3v-0.1l0.5-0.1l-0.6-4.5c0-0.1-0.1-0.2-0.2-0.3
			c-0.1,0-0.3,0-0.4,0v-0.1l1.6-0.1v0.1l-0.5,0.1l0.6,4.8c0.3,0,0.6-0.1,0.8-0.1c0.2-0.1,0.4-0.2,0.6-0.3c0.2-0.1,0.2-0.3,0.2-0.6
			l-0.2-1.3h0.2l0.3,2.5H63.4z M68.4,105.8l-0.1-0.2l-2.8,0.6v-0.1L66,106l-1-4.4c0-0.1-0.1-0.2-0.2-0.3c-0.1,0-0.3,0-0.5,0v-0.1
			l2.9-0.7l-0.1-0.3h0.2l0.4,1.7h-0.2l-0.1-0.3c-0.1-0.4-0.3-0.7-0.5-0.7c-0.2-0.1-0.7,0-1.2,0.1l-0.2,0.1l0.3,1.2l0.8-0.2l-0.2-0.8
			h0.1l0.4,1.9h-0.1c-0.1-0.2-0.1-0.4-0.2-0.6c-0.1-0.1-0.2-0.2-0.4-0.2c-0.1,0-0.2,0-0.4,0l0.8,3.4c0.4-0.1,0.7-0.2,1.1-0.3
			c0.2-0.1,0.4-0.3,0.4-0.5c0.1-0.2,0.1-0.4,0-0.6L68,104h0.2l0.4,1.8H68.4z"/>
		<polygon class="st2" points="74,45.5 74,41.4 65.6,41.2 59.1,37.3 59.1,41.6 65.7,45.5 		"/>
		<polygon class="st2" points="46.7,61.9 46.7,55 39.8,55 38.2,55 38.2,61.8 38.3,61.8 39.9,61.8 39.9,82.8 54.9,91.3 54.9,84.4 
			46.8,79.9 46.8,66.3 56.1,71.6 56.1,75.7 56.8,76.1 57.5,75.7 57.5,71 46.7,64.9 		"/>
		<path class="st0" d="M81.6,39.5c-6.4-6.4-15.2-10.4-25-10.4c-9.7,0-18.6,4-25,10.4c-6.4,6.4-10.4,15.2-10.4,25
			c0,7.4,2.3,14.3,6.2,20l0.5-0.5l0.6,0.6l-0.6,0.6c1.1,1.5,2.3,3,3.7,4.3c6.4,6.4,15.2,10.4,25,10.4c9.7,0,18.6-4,25-10.4
			c1.2-1.2,2.4-2.5,3.4-3.9l-0.4-0.4l0.5-0.7l0.4,0.4c4.1-5.8,6.5-12.8,6.5-20.4C92,54.7,88,45.9,81.6,39.5z M81,88.9
			C74.8,95.1,66.1,99,56.6,99s-18.2-3.9-24.4-10.1C26,82.7,22.1,74,22.1,64.5S26,46.4,32.3,40.1C38.5,33.9,47.2,30,56.7,30
			s18.1,3.9,24.4,10.1c6.2,6.3,10,14.9,10,24.4S87.2,82.7,81,88.9z"/>
		<path class="st0" d="M92.3,42.2v-0.1h-0.1l0.2,0.3C92.3,42.3,92.3,42.3,92.3,42.2z"/>
		<path class="st0" d="M67.7,29.2h0.2l0.5-1.8h-0.2l-0.1,0.4c-0.1,0.2-0.2,0.4-0.3,0.5c-0.1,0.1-0.3,0.2-0.6,0.2
			c-0.4,0-0.7-0.1-1.1-0.2L67,25c0.2,0.1,0.3,0.1,0.4,0.2c0.1,0.1,0.2,0.2,0.2,0.4s0,0.4-0.1,0.6h0.1l0.5-1.8H68l-0.2,0.7L67,24.9
			l0.3-1.2l0.2,0.1c0.6,0.2,0.9,0.3,1.1,0.5s0.2,0.5,0.1,0.9l-0.1,0.3h0.2l0.5-1.7h-0.2L69,24.1l-2.8-0.8v0.1
			c0.2,0.1,0.3,0.1,0.4,0.2c0.1,0,0.1,0.2,0.1,0.3l-1.2,4.3L65,28.1v0.1l2.7,0.8V29.2z"/>
		<path class="st0" d="M61.6,27.5c0.3,0,0.6-0.1,0.9-0.2c0.2-0.1,0.5-0.2,0.7-0.4c0.6-0.4,0.9-0.9,1-1.6c0.1-0.3,0-0.5,0-0.7
			S64.1,24.2,64,24c-0.1-0.2-0.2-0.4-0.4-0.6c-0.3-0.2-0.6-0.5-0.9-0.6c-0.4-0.1-0.8-0.2-1.3-0.3l-2.5-0.3v0.1H59
			c0.3,0,0.4,0.2,0.4,0.4l-0.6,4.4L58.3,27v0.2l2,0.3C60.8,27.5,61.2,27.5,61.6,27.5z M59.9,22.5c0.3-0.1,0.7-0.1,1.3,0
			c0.5,0.1,0.9,0.2,1.3,0.5c0.4,0.3,0.7,0.6,0.9,1c0.2,0.4,0.3,0.8,0.3,1.2c-0.1,0.4-0.2,0.8-0.5,1c-0.3,0.4-0.7,0.6-1.1,0.8
			s-0.9,0.3-1.4,0.2c-0.6,0-1.1-0.2-1.4-0.3L59.9,22.5z"/>
		<path class="st0" d="M95,49.7l-4.2,1.4l-0.2-0.5h-0.1l0.9,2.7l-0.3,0.1v0.3l1.8-0.6l-0.1-0.2L92.4,53c-0.2,0.1-0.4,0.1-0.6,0.1
			c-0.2-0.1-0.3-0.2-0.5-0.4c-0.1-0.3-0.3-0.6-0.4-1l3.2-1.1c0.1,0.2,0.1,0.3,0.1,0.4c0,0.2-0.1,0.3-0.2,0.4
			c-0.1,0.2-0.3,0.2-0.5,0.3v0.1l1.8-0.6v-0.1l-0.7,0.2l-0.3-0.8l1.2-0.4l0.1,0.2l-0.4-1.2h-0.1c0.1,0.1,0.1,0.3,0.1,0.4
			C95.2,49.6,95.1,49.7,95,49.7z"/>
		<path class="st0" d="M84.7,36.9c0,0.1,0,0.2-0.1,0.3c-0.2,0.2-0.4,0.2-0.6,0l-0.1,0.1c0,0.1,0.1,0.2,0.1,0.2
			c0.2,0.1,0.3,0.2,0.5,0.2c0.1,0,0.3-0.1,0.4-0.2c0.1-0.1,0.2-0.2,0.2-0.4c0-0.1,0-0.1,0-0.2c-0.1-0.2-0.2-0.4-0.3-0.5
			c-0.1-0.1-0.2-0.2-0.3-0.2c0.1,0.1,0.2,0.3,0.2,0.3C84.7,36.6,84.7,36.8,84.7,36.9z"/>
		<path class="st0" d="M48.6,23.2l0.6,4.4l-0.5,0.1l-0.1,0.2l2-0.3c0.5-0.1,1-0.2,1.3-0.3c0.4-0.1,0.7-0.2,0.9-0.4
			c0.2-0.2,0.4-0.4,0.6-0.6c0.4-0.6,0.6-1.1,0.5-1.8c0-0.2-0.1-0.4-0.2-0.6c-0.1-0.2-0.2-0.4-0.4-0.6c-0.1-0.1-0.3-0.3-0.5-0.4
			c-0.3-0.2-0.6-0.3-1-0.4c-0.4-0.1-0.8-0.1-1.3,0L48,22.8v0.1h0.1C48.4,22.8,48.6,23,48.6,23.2z M50.4,22.7c0.5-0.1,1-0.1,1.4,0.1
			s0.8,0.4,1.1,0.7c0.3,0.3,0.5,0.7,0.6,1.1c0.1,0.5,0,0.9-0.2,1.3c-0.2,0.4-0.5,0.7-0.9,1c-0.4,0.3-0.8,0.4-1.3,0.5
			c-0.6,0.1-1.1,0.1-1.4,0L49.1,23C49.4,22.9,49.8,22.8,50.4,22.7z"/>
		<path class="st0" d="M73.8,31.9L74,32l1.1-2.2l-0.2-0.1l-0.6,1.1c-0.1,0.2-0.3,0.3-0.5,0.3s-0.4,0-0.6-0.1
			c-0.2-0.1-0.4-0.2-0.7-0.3l2.2-4.3l0.5,0.3l0.1-0.1l-1.5-0.8l-0.1,0.1c0.2,0.1,0.3,0.2,0.4,0.3c0.1,0.1,0.1,0.2,0,0.3l-2,4
			l-0.5-0.2l-0.1,0.1l2.4,1.2L73.8,31.9z"/>
		<path class="st0" d="M75,32l-0.1,0.1l1.4,0.9l0.1-0.1c-0.1-0.1-0.2-0.1-0.3-0.2c-0.1,0-0.2-0.1-0.2-0.2c0-0.1,0-0.2,0.1-0.3
			c0.1-0.1,0.2-0.3,0.4-0.4l1.8-1.5l0.6,0.4L78.1,34l-0.6-0.3l-0.1,0.1l1.3,0.8l0.1-0.1c-0.2-0.1-0.3-0.3-0.3-0.4c0-0.2,0-0.3,0-0.5
			s0.1-0.3,0.1-0.5l0.9-4.4l-0.1-0.1l-4.1,3.6L75,32z M79.1,29.5l-0.2,1l-0.6-0.3L79.1,29.5z"/>
		<path class="st0" d="M84.5,36.2C84.5,36.1,84.5,36.1,84.5,36.2c-0.2-0.3-0.3-0.4-0.5-0.4c-0.2,0-0.4,0-0.6,0c0,0,0,0,0,0
			c0.2,0,0.4,0,0.7,0.1C84.3,36,84.4,36.1,84.5,36.2z"/>
		<path class="st0" d="M83,38.9c0.2,0.2,0.4,0.4,0.7,0.6c0.3,0.1,0.5,0.2,0.8,0.3c0.3,0,0.6,0.1,0.8,0c0.2,0,0.4-0.1,0.6-0.3
			c0.2-0.1,0.3-0.4,0.3-0.6c0.1-0.3,0.1-0.5,0-0.8c-0.1-0.2-0.2-0.5-0.3-0.9c-0.2-0.3-0.2-0.6-0.3-0.8c-0.1-0.2-0.1-0.4-0.1-0.6
			s0.1-0.4,0.2-0.5c0.1-0.1,0.2-0.2,0.3-0.2c0.1-0.1,0.3,0,0.4,0c0.2,0,0.3,0.1,0.4,0.2c0.2,0.2,0.3,0.5,0.2,0.7
			c-0.1,0.3-0.3,0.5-0.5,0.7L86.2,37l0.1,0.1l1.2-1.2c-0.2-0.3-0.3-0.4-0.4-0.5c-0.3-0.3-0.6-0.4-0.9-0.5c-0.3-0.1-0.6,0-0.8,0.2
			c-0.2,0.1-0.3,0.3-0.3,0.5c-0.1,0.2,0,0.4,0,0.6c0,0.2,0.1,0.5,0.2,0.8c0.2,0.4,0.2,0.7,0.3,0.9c0.1,0.3,0.1,0.5,0.1,0.7
			c-0.1,0.2-0.2,0.4-0.3,0.5c-0.2,0.2-0.4,0.3-0.7,0.3c-0.3,0-0.6-0.1-0.9-0.2c-0.3-0.2-0.6-0.4-0.8-0.6c-0.2-0.3-0.4-0.6-0.5-0.9
			c-0.1-0.3-0.1-0.6,0-0.9c0.1-0.3,0.2-0.5,0.4-0.7c0.1-0.2,0.3-0.2,0.5-0.3c0,0-0.1,0-0.1,0c-0.3,0-0.5,0.1-0.7,0.3
			c-0.2,0.2-0.4,0.5-0.4,0.8c0,0.3,0.1,0.7,0.2,1C82.5,38.3,82.7,38.6,83,38.9z"/>
		<path class="st0" d="M87.7,35.8L87.7,35.8l-0.2,0.1c0,0,0,0,0,0.1L87.7,35.8z"/>
		<path class="st0" d="M92.2,42.8l-4,2L88,44.3l-0.1,0.1l0.8,1.6l0.1-0.1c0-0.1-0.1-0.1-0.1-0.2c0-0.1-0.1-0.2-0.1-0.3
			c0-0.1,0-0.2,0-0.2s0.1-0.1,0.2-0.1l0.6-0.3c0,0.5,0,1.2,0.1,2c0,0.4,0.1,0.7,0.1,0.9c0.1,0.1,0.1,0.3,0.2,0.6
			c0.1,0.3,0.2,0.5,0.3,0.7c0.2,0.2,0.3,0.4,0.5,0.5v-0.1c-0.1,0-0.2-0.1-0.3-0.3c-0.2-0.3-0.3-0.5-0.3-0.8s-0.1-0.6-0.1-1
			c-0.1-0.4-0.1-0.7-0.1-0.8c0.2,0.5,0.5,0.8,0.9,1.1c0.3,0.3,0.7,0.4,1.1,0.5c0.4,0,0.7,0,1.1-0.2c0.4-0.2,0.6-0.4,0.8-0.8
			c0.1-0.3,0.2-0.7,0.2-1.2s-0.1-0.9-0.3-1.3c-0.3-0.5-0.7-0.9-1.3-1.3l0.4-0.2l-0.3-0.7C92.4,42.6,92.3,42.7,92.2,42.8z M93.3,44.4
			c0.2,0.4,0.3,0.8,0.3,1.2c0,0.4-0.1,0.8-0.3,1.1c-0.2,0.4-0.4,0.6-0.7,0.8c-0.2,0.2-0.6,0.2-0.9,0.2c-0.4-0.1-0.7-0.2-1-0.4
			c-0.3-0.2-0.5-0.5-0.7-0.8c-0.3-0.4-0.4-1-0.3-1.8h-0.2l2.5-1.3C92.6,43.6,93,44,93.3,44.4z"/>
		<path class="st0" d="M92.8,59.3L92.8,59.3v1.6h0.1c0-0.2,0-0.3,0-0.4c0-0.1,0.1-0.2,0.1-0.3c0-0.1,0.1-0.1,0.2-0.1
			c0.2,0,0.4,0,0.6,0.1l2.3,0.5l0.1,0.7l-3.1,1.4L93,62.3h-0.1l0.1,1.5h0.1c0-0.1,0-0.3,0.1-0.4c0.1-0.1,0.2-0.2,0.4-0.3
			c0.1-0.1,0.3-0.1,0.4-0.2l4.1-1.9v-0.2l-5.3-1.1V59.3z M96.4,60.8l1,0.2l-1,0.4V60.8z"/>
		<path class="st0" d="M85.2,40.9L85.1,41l1.7,2.4l-0.3,0.2l0.1,0.1l1.6-1.1l-0.1-0.1l-0.3,0.2c-0.2,0.1-0.4,0.2-0.6,0.2
			c-0.2,0-0.4,0-0.6-0.2c-0.3-0.3-0.5-0.6-0.7-0.9l2.8-2c0.1,0.2,0.2,0.3,0.2,0.4c0,0.1,0,0.3-0.1,0.4c-0.1,0.1-0.2,0.3-0.4,0.4
			l0.1,0.1L90,40l-0.1-0.1l-0.6,0.4l-0.5-0.7l1-0.7l0.1,0.2c0.4,0.5,0.6,0.9,0.6,1.1c0,0.3-0.2,0.6-0.5,0.8l-0.2,0.2l0.1,0.1l1.4-1
			l-0.1-0.1l-0.3,0.2L89.2,38l-0.1,0.1c0.1,0.2,0.2,0.3,0.2,0.4c0,0.1-0.1,0.2-0.2,0.3l-3.6,2.6L85.2,40.9z"/>
		<path class="st0" d="M16.9,52.2c0-0.1,0.2-0.1,0.3-0.1l4.3,1.2l-0.1,0.5l0.1,0.1l0.5-1.6h-0.1c-0.1,0.2-0.2,0.3-0.2,0.4
			c0,0.1-0.1,0.1-0.2,0.1c-0.1,0-0.2-0.1-0.3-0.1L17,51.5l0.1-0.5H17l-0.4,1.6h0.1C16.8,52.4,16.8,52.3,16.9,52.2z"/>
		<path class="st0" d="M20,60.2c-0.1-0.1-0.3-0.2-0.5-0.2l-4.1-0.3v-0.5h-0.1l-0.1,1.4h0.1l0.1-0.1c0-0.3,0.2-0.4,0.4-0.4l3.6,0.3
			c0.2,0,0.4,0.1,0.6,0.3c0.1,0.2,0.2,0.4,0.2,0.7c0,0.3-0.1,0.6-0.3,0.8c-0.2,0.2-0.4,0.3-0.7,0.3l-4-0.3v-0.5h-0.1L15,63.3h0.1
			c0-0.4,0.2-0.6,0.4-0.6l3.6,0.1c0.4,0.1,0.7,0,0.9-0.3c0.1-0.1,0.2-0.3,0.3-0.5c0-0.3,0.1-0.5,0.1-0.7s0-0.4-0.1-0.6
			C20.2,60.5,20.1,60.3,20,60.2z"/>
		<path class="st0" d="M21.7,41.6c0.2-0.1,0.5-0.1,0.9,0.1H23l0.1-0.1l-1.5-0.9l-0.1,0.2l0.3,0.2l-0.6,1
			C21.4,41.9,21.6,41.7,21.7,41.6z"/>
		<path class="st0" d="M20.5,43.7c0.1-0.1,0.2-0.2,0.3-0.3c0.1-0.1,0.2-0.1,0.3,0l3.8,2.2l-0.3,0.5l0.1,0.1l1.4-2.5h0.3l0.1-0.1
			l-1.6-0.9l-0.1,0.1l0.3,0.2c0.3,0.1,0.4,0.2,0.5,0.4c0,0.1,0.1,0.3,0,0.6s-0.3,0.7-0.5,1l-2.9-1.7c0.1-0.1,0.1-0.2,0.2-0.3
			c0.1-0.1,0.2-0.1,0.4-0.1c0.1,0,0.3,0.1,0.5,0.2l0.1-0.1l-1.6-0.9l-0.1,0.1l0.7,0.4L22,43.3l-1.1-0.6l-0.5,0.9L20.5,43.7z"/>
		<path class="st0" d="M17.8,49.1c0.1-0.2,0.1-0.2,0.2-0.3c0.1,0,0.2-0.1,0.3-0.1c0.1,0,0.3,0,0.6,0l4.8,0.3l0.1-0.2l-4.1-3.5
			l0.2-0.5l-0.1-0.1l-0.7,1.5l0.1,0.1v-0.1c0-0.1,0.1-0.2,0.2-0.3c0-0.1,0.2-0.1,0.3,0c0,0,0.1,0,0.2,0.1l2.9,2.5l-4.6-0.3l0.3-0.6
			l-0.1-0.1l-0.8,1.7l0.1,0.1L17.8,49.1z"/>
		<path class="st0" d="M96.2,54.5l-4,0.7l-0.1-0.5h-0.2l0.3,1.6h0.1c0-0.2,0-0.4,0-0.5c0.1-0.2,0.3-0.3,0.5-0.3l3.2-0.6L92.2,58v0.2
			l5.1-0.9l0.1,0.4h0.1l-0.2-1.3h-0.1c0,0.2-0.1,0.4-0.1,0.5c0,0.1-0.2,0.2-0.3,0.2l-3.5,0.6l3.8-3.1l-0.2-0.9h-0.1
			c0.1,0.3,0,0.5-0.1,0.6C96.6,54.4,96.4,54.5,96.2,54.5z"/>
		<path class="st0" d="M20.5,57.5c-0.1,0.1-0.2,0.1-0.5,0.1L16.8,57l4.6-1.6v-0.1l-5.1-0.9l0.1-0.4h-0.1l-0.2,1.3h0.1
			c0-0.2,0.1-0.3,0.2-0.4c0.1-0.1,0.3-0.1,0.4-0.1l3.5,0.6L15.7,57l-0.1,0.9h0.1c0-0.4,0.1-0.5,0.3-0.6c0.1,0,0.3,0,0.5,0l4,0.7
			l-0.1,0.5l0.1-0.1l0.3-1.4h-0.1C20.6,57.3,20.6,57.4,20.5,57.5z"/>
		<polygon class="st0" points="95.6,50.3 95.6,50.3 95.6,50.3 		"/>
		<path class="st0" d="M30,33.7c0.2,0,0.4,0,0.6,0s0.5-0.1,0.5-0.3c0.4-0.1,0.7-0.2,0.9-0.2c0.3,0,0.5,0,0.7,0
			c0.2,0,0.4,0.1,0.5,0.3c0.2,0.2,0.3,0.4,0.3,0.7c0,0.3-0.1,0.6-0.2,0.9c-0.1,0.3-0.3,0.6-0.6,0.8c-0.3,0.3-0.6,0.4-0.9,0.5
			c-0.3,0.1-0.6,0.1-0.9,0c-0.3,0-0.5-0.2-0.7-0.4c-0.1-0.1-0.2-0.3-0.2-0.5c0-0.1,0-0.2-0.1-0.2c0,0.2,0,0.3,0,0.5
			c0,0.3,0.1,0.5,0.3,0.7c0.2,0.3,0.5,0.4,0.8,0.5c0.3,0.1,0.6,0,1-0.1c0.3-0.1,0.7-0.3,1-0.6c0.2-0.2,0.4-0.4,0.6-0.7
			c0.2-0.3,0.3-0.5,0.4-0.8c0-0.3,0-0.6,0-0.8c0-0.3-0.1-0.5-0.3-0.7c-0.2-0.2-0.4-0.4-0.6-0.4c-0.3-0.1-0.5,0-0.8,0
			c-0.2,0-0.5,0.1-0.9,0.2c-0.3,0.1-0.6,0.2-0.8,0.2s-0.4,0-0.6,0s-0.4-0.1-0.5-0.2c0-0.1-0.1-0.2-0.1-0.3s0-0.3,0.1-0.4
			c0.1-0.2,0.2-0.3,0.3-0.4c0.3-0.2,0.5-0.3,0.7-0.2c0.2,0.1,0.4,0.3,0.6,0.5l0.4,0.4l0.1-0.1l-1.3-1.5l-0.1,0.1l0.2,0.2
			c-0.3,0.1-0.5,0.2-0.6,0.3c-0.2,0.3-0.4,0.6-0.5,0.9c0,0.3,0,0.6,0.2,0.8C29.6,33.6,29.8,33.7,30,33.7z"/>
		<path class="st0" d="M35.5,27.9c0.3-0.2,0.5-0.1,0.6,0.1l2,3.9l-0.5,0.3l0.1,0.2l1.8-0.9c0.5-0.2,0.8-0.5,1.1-0.7s0.6-0.5,0.7-0.7
			c0.2-0.3,0.3-0.5,0.4-0.8c0.2-0.7,0.2-1.3-0.1-1.9c-0.1-0.2-0.2-0.3-0.4-0.5c-0.2-0.2-0.4-0.3-0.6-0.4c-0.3-0.1-0.5-0.2-0.7-0.2
			c-0.4-0.1-0.7-0.1-1.1,0c-0.3,0-0.8,0.2-1.2,0.4l-2.3,1.2l0.1,0.1L35.5,27.9z M37.5,27c0.5-0.3,0.9-0.4,1.4-0.4s0.9,0.1,1.3,0.3
			c0.4,0.2,0.7,0.4,0.9,0.8c0.2,0.4,0.3,0.8,0.2,1.3c-0.1,0.5-0.2,0.9-0.5,1.3s-0.7,0.7-1.1,0.9c-0.5,0.3-1,0.4-1.3,0.5l-2-4
			C36.6,27.5,37,27.3,37.5,27z"/>
		<path class="st0" d="M33,29.7c0.1,0,0.2,0.1,0.2,0.2l2.6,3.6l-0.4,0.3l0.2,0.1l1.3-1l-0.1-0.1c-0.2,0.1-0.3,0.2-0.4,0.2
			c-0.1,0-0.1,0-0.2-0.1c-0.1,0-0.1-0.1-0.2-0.2l-2.5-3.5l0.4-0.3l-0.1-0.1l-1.3,1l0.1,0.1C32.7,29.8,32.9,29.7,33,29.7z"/>
		<path class="st0" d="M31.2,34.2c0.1,0.1,0.2,0.1,0.3,0.2c0.2,0.2,0.2,0.4,0,0.6l0.1,0.1c0.1,0,0.2-0.1,0.2-0.1
			c0.2-0.2,0.3-0.3,0.3-0.5c0-0.1,0-0.3-0.1-0.4c-0.1-0.1-0.2-0.2-0.4-0.2s-0.4,0-0.6,0.1c-0.2,0.1-0.4,0.2-0.5,0.3
			c0,0-0.1,0.1-0.1,0.1c0.1-0.1,0.3-0.2,0.4-0.2C30.9,34.2,31.1,34.2,31.2,34.2z"/>
		<path class="st0" d="M95.1,52.1l-0.3,0.1l0.1,0.2l1.6-0.5l-0.1-0.2l-0.3,0.1l-0.5-1.5c0.2,0.6,0.2,1,0.2,1.2
			C95.7,51.8,95.5,52,95.1,52.1z"/>
		<path class="st0" d="M21,42.5l-0.1,0.2l0,0l0.3-0.6C21.2,42.2,21.1,42.4,21,42.5z"/>
		<path class="st0" d="M23.6,39l3.4,2.9l-0.3,0.4l0.1,0.1L28,41l-0.1-0.1c-0.1,0.1-0.2,0.1-0.2,0.2s-0.1,0.1-0.2,0.2
			c-0.1,0-0.1,0-0.2,0c0,0-0.1,0-0.2-0.1l-0.5-0.5c0.5-0.2,1.1-0.5,1.8-0.9c0.4-0.2,0.6-0.4,0.8-0.5c0.1-0.1,0.3-0.3,0.5-0.4
			c0.2-0.2,0.3-0.3,0.5-0.5c0.2-0.2,0.3-0.4,0.3-0.6h-0.1c0,0.1-0.1,0.3-0.2,0.4c-0.2,0.2-0.4,0.4-0.6,0.5c-0.2,0.2-0.5,0.3-0.9,0.5
			c-0.4,0.2-0.6,0.3-0.7,0.4c0.3-0.4,0.5-0.8,0.6-1.2c0.2-0.4,0.2-0.8,0.1-1.2c-0.1-0.4-0.3-0.7-0.6-1c-0.2-0.3-0.6-0.4-1-0.4
			s-0.8,0.1-1.2,0.3c-0.5,0.2-0.8,0.5-1.1,0.8c-0.4,0.5-0.7,1-0.8,1.7l-0.4-0.3l-0.7,0.8v0.2l0.1-0.1C23.2,38.9,23.4,38.9,23.6,39z
			 M24.8,37.2c0.3-0.3,0.6-0.6,1-0.7c0.4-0.2,0.7-0.2,1.1-0.2c0.4,0,0.7,0.2,1,0.4c0.2,0.2,0.4,0.5,0.5,0.8c0.1,0.3,0.1,0.6,0,1
			c-0.1,0.4-0.3,0.7-0.5,1c-0.4,0.4-0.9,0.7-1.6,0.9v0.2l-2.1-1.8C24.2,38.2,24.4,37.7,24.8,37.2z"/>
		<path class="st0" d="M30.4,34.4C30.4,34.4,30.4,34.4,30.4,34.4c-0.2,0.2-0.3,0.3-0.4,0.5c-0.1,0.1-0.1,0.2-0.1,0.4
			c0-0.1,0-0.2,0.1-0.3C30.1,34.7,30.2,34.6,30.4,34.4z"/>
		<path class="st0" d="M45.3,28.9C45.1,29,45,29,44.9,29c-0.1,0-0.2,0-0.3,0s-0.2-0.1-0.2-0.2c-0.1-0.2-0.1-0.4-0.1-0.6v-2.4
			l0.7-0.2l2,2.7l-0.5,0.2v0.1l1.5-0.4v-0.1c-0.1,0.1-0.3,0.1-0.4,0c-0.1-0.1-0.2-0.2-0.3-0.3c-0.1-0.1-0.2-0.3-0.3-0.4l-2.7-3.6
			h-0.2v5.4l-0.4,0.1v0.1l1.6-0.4V28.9z M44.3,24.5l0.6,0.9l-0.6,0.1V24.5z"/>
		<path class="st0" d="M63.1,104.3l0.2,1.3c0,0.3,0,0.5-0.2,0.6c-0.2,0.1-0.4,0.2-0.6,0.3c-0.2,0-0.5,0.1-0.8,0.1l-0.6-4.8l0.5-0.1
			v-0.1l-1.6,0.1v0.1c0.1,0,0.3,0,0.4,0c0.1,0.1,0.2,0.2,0.2,0.3l0.6,4.5l-0.5,0.1v0.1l2.7-0.3v0.3h0.2l-0.3-2.5H63.1z"/>
		<path class="st0" d="M58.3,106.6c0-0.1,0-0.2,0-0.3l-0.1-4.4h0.5v-0.1H57v0.1c0.2,0,0.4,0.1,0.5,0.1c0.1,0.1,0.2,0.1,0.2,0.3
			l0.1,4.5h-0.5l-0.1,0.1h1.7v-0.1c-0.3,0-0.4,0-0.5,0C58.4,106.7,58.3,106.7,58.3,106.6z"/>
		<path class="st0" d="M54.2,101.9h0.1c0.2,0,0.3,0,0.4,0.1c0.1,0.1,0.1,0.2,0.1,0.3l-0.1,0.9l-2-0.1l0.1-1.3h0.5v-0.1l-1.7-0.1v0.1
			h0.1c0.4,0,0.5,0.2,0.5,0.4l-0.3,4.5h-0.5v0.1l1.7,0.1v-0.1c-0.3,0-0.4-0.1-0.5-0.1c-0.1-0.1-0.1-0.2-0.1-0.4l0.2-3l2,0.1
			l-0.3,3.4h-0.5v0.1l1.7,0.1v-0.1c-0.1,0-0.2,0-0.2,0c-0.2,0-0.3,0-0.4-0.1c-0.1,0-0.1-0.2-0.1-0.3l0.3-4.5l0.7,0.1v-0.1l-1.7-0.1
			V101.9z"/>
		<path class="st0" d="M68,104l0.1,0.4c0.1,0.2,0.1,0.4,0,0.6c0,0.2-0.2,0.4-0.4,0.5c-0.4,0.1-0.7,0.2-1.1,0.3l-0.8-3.4
			c0.2,0,0.3,0,0.4,0c0.2,0,0.3,0.1,0.4,0.2c0.1,0.2,0.1,0.4,0.2,0.6h0.1l-0.4-1.9h-0.1l0.2,0.8l-0.8,0.2l-0.3-1.2l0.2-0.1
			c0.5-0.1,1-0.2,1.2-0.1c0.2,0,0.4,0.3,0.5,0.7l0.1,0.3h0.2l-0.4-1.7h-0.2l0.1,0.3l-2.9,0.7v0.1c0.2,0,0.4,0,0.5,0
			c0.1,0.1,0.2,0.2,0.2,0.3l1,4.4l-0.5,0.1v0.1l2.8-0.6l0.1,0.2h0.2l-0.4-1.8H68z"/>
		<path class="st0" d="M46.8,101c-0.2,0-0.4,0.1-0.5,0.2c0.3-0.1,0.6-0.2,0.9-0.2c0.4,0,0.9,0,1.3,0.1c0,0,0,0,0,0
			c-0.1,0-0.2-0.1-0.2-0.1C47.8,100.9,47.2,100.9,46.8,101z"/>
		<path class="st0" d="M45,102c-0.2,0.3-0.4,0.6-0.5,1c-0.1,0.5-0.1,0.9,0.1,1.4c0.2,0.4,0.6,0.8,1,1.2c0.4,0.3,0.9,0.6,1.5,0.7
			c0.5,0.1,0.9,0.1,1.3,0.1c0.5,0,0.8-0.1,1.2-0.3l-0.1-0.2c-0.3,0.1-0.6,0.2-1,0.3c-0.4,0-0.8,0-1.2-0.1c-0.4-0.1-0.8-0.3-1.1-0.5
			c-0.3-0.2-0.6-0.5-0.8-0.8s-0.3-0.7-0.4-1c-0.1-0.3-0.1-0.7,0-1c0.1-0.4,0.3-0.8,0.6-1.1c0.2-0.2,0.4-0.4,0.7-0.5
			c-0.1,0-0.2,0.1-0.3,0.1C45.6,101.5,45.3,101.7,45,102z"/>
		<path class="st0" d="M50.2,101.4c-0.4-0.4-0.9-0.6-1.7-0.3c0.2,0.1,0.3,0.1,0.6,0.2c0.3,0.1,0.5,0.2,0.6,0.4
			c0.1,0.1,0.2,0.3,0.2,0.5c0,0.2,0,0.4-0.1,0.8H50l0.5-2h-0.2L50.2,101.4z"/>
		<path class="st0" d="M88.6,32.4c-8.2-8.2-19.5-13.3-32-13.3s-23.8,5-32,13.3c-8.2,8.2-13.3,19.5-13.3,32s5.1,23.8,13.3,32
			c8.2,8.2,19.5,13.3,32,13.3s23.8-5.1,32-13.3c8.2-8.2,13.3-19.5,13.3-32S96.8,40.6,88.6,32.4z M91.6,92.1l-0.2-0.2
			c-1.1,1.3-2.2,2.6-3.4,3.8c-8,8-19.1,13-31.4,13c-12.2,0-23.4-5-31.4-13c-1.3-1.3-2.6-2.8-3.7-4.3L20.9,92l-0.6-0.6l0.6-0.6
			c-5.5-7.4-8.7-16.5-8.7-26.5c0-12.3,5-23.4,13-31.4s19.1-13,31.4-13c12.2,0,23.4,5,31.4,13c8.1,8,13,19.1,13,31.4
			c0,10.1-3.4,19.5-9.1,26.9l0.3,0.3L91.6,92.1z"/>
		<path class="st0" d="M85.5,84.9c-0.2,0.2-0.3,0.5-0.5,0.7l6.4,6.3c0.2-0.2,0.4-0.4,0.5-0.7L85.5,84.9z"/>
		<path class="st0" d="M84.6,85.2l0.4,0.4c0.2-0.2,0.3-0.5,0.5-0.7l-0.4-0.4L84.6,85.2z"/>
		<path class="st0" d="M91.4,91.9l0.2,0.2l0.6-0.6l-0.3-0.3C91.7,91.4,91.6,91.7,91.4,91.9z"/>
		<path class="st0" d="M27.4,84.5l-6.5,6.3c0.2,0.2,0.3,0.5,0.5,0.7l6.4-6.3C27.7,84.9,27.6,84.7,27.4,84.5z"/>
		<path class="st0" d="M27.9,84l-0.5,0.5c0.2,0.2,0.3,0.5,0.5,0.7l0.6-0.6L27.9,84z"/>
		<path class="st0" d="M20.3,91.4l0.6,0.6l0.6-0.6c-0.2-0.2-0.4-0.4-0.5-0.7L20.3,91.4z"/>
		<polygon class="st1" points="75.6,48.1 65.7,48.1 57.7,43.6 57.7,45 65.7,49.5 75.6,49.5 		"/>
		<polygon class="st1" points="57.7,46.5 57.7,47.9 65.7,52.4 75.6,52.4 75.6,51 65.7,51 		"/>
		<path class="st1" d="M75.5,46.9v-7L66,39.8l-8.4-5v7.6l7.6,4.5H75.5z M59.1,37.3l6.5,3.9l8.4,0.2v4.1h-8.3l-6.6-3.9V37.3z"/>
		<path class="st1" d="M59,70l-10.8-6.1V53.5H36.9v9.8h1.6v20.4l17.9,10.1V83.6l-8.1-4.5V68.7l6.5,3.6v4.1l2.1,1.1l2.1-1.1V70z
			 M57.5,75.7l-0.7,0.4l-0.7-0.4v-4.1l-9.3-5.3v13.6l8.1,4.5v6.9l-15-8.5v-21h-1.6h-0.1V55h1.6h6.9v6.9v3L57.5,71V75.7z"/>
		<path class="st1" d="M56.2,42.4v-7.6l-8.4,5l-9.5,0.1v7h10.3L56.2,42.4z M40,45.4v-4.1l8.2-0.2l6.6-3.9v4.3l-6.6,3.9H40z"/>
		<path class="st1" d="M66,62.9l-6.9-3.8V55L57,53.9L54.9,55v6.4l11.2,6.3v11.4L58,83.6v10.2l17.8-10.1V63.2h1.6v-9.8H66V62.9z
			 M67.4,61.9V55h6.9h1.6v6.9h-1.6v21l-15,8.5v-6.9l8.1-4.5V67.1l-0.2-0.3l-11-6.2v-4.7l0.7-0.4l0.7,0.4V60l9.8,5.5V61.9z"/>
		<polygon class="st1" points="56.2,47.9 56.2,46.5 48.2,51 38.3,51 38.3,52.4 48.2,52.4 		"/>
		<polygon class="st1" points="56.2,45 56.2,43.6 48.2,48.1 38.3,48.1 38.3,49.5 48.2,49.5 		"/>
	</g>
</g>
</svg>
