<?xml version="1.0" encoding="utf-8"?>
<!-- Generator: Adobe Illustrator 27.5.0, SVG Export Plug-In . SVG Version: 6.00 Build 0)  -->
<svg version="1.1" id="Capa_1" xmlns="http://www.w3.org/2000/svg" xmlns:xlink="http://www.w3.org/1999/xlink" x="0px" y="0px"
	 viewBox="0 0 290.8 125.8" style="enable-background:new 0 0 290.8 125.8;" xml:space="preserve">
<style type="text/css">
	.st0{fill:#702473;}
	.st1{fill:#93BC21;}
	.st2{fill:#FFFFFF;}
</style>
<g>
	<g>
		<g>
			<path class="st0" d="M159.4,79.4c-0.4-0.9-0.9-1.7-1.3-2.6c0-0.1-0.1-0.3-0.1-0.4c-1.2-2.8-1.8-5.6-1.8-8.6
				c0-8.4,3.3-15.2,9.9-20.3c0.8-0.6,1.6-1.1,2.4-1.6c0.9-0.4,1.8-0.9,2.7-1.3c0.3-0.1,0.6-0.2,0.9-0.3c4.9-1.8,9.8-2.2,14.9-0.8
				c8,2.2,13.6,7.2,16.7,14.9c1.5,3.7,2,7.6,1.5,11.6c-1.3,9.6-6.4,16.4-15.4,20.1c-4.6,1.9-9.3,2.1-14.1,1
				c-6-1.4-10.8-4.4-14.5-9.3C160.4,80.9,159.9,80.2,159.4,79.4z"/>
		</g>
	</g>
	<g>
		<path class="st1" d="M205.9,78.6c-7.4,13.7-15.8,14.8-22.6,16c-5.9,1-11.5-0.7-16.1-3.5s-8.1-6.7-10.4-11.9
			c-2.3-5.2-3.5-11.3-3.5-18.3c0-8.5,1.2-15.7,3.7-21.4c2.4-5.7,5.8-9.9,10.1-12.5s9-3.9,14.3-3.9c6.3,0,9.5,1.6,14,5.1
			s5.7,7.5,8.1,15.4h1.8l-0.1-22.2h-2.1c-0.4,1.8-1.9,3-2.9,3c-0.7,0-2.8,0-4.4-0.8c-5.6-2.8-9.7-4.6-15.4-4.6
			c-4.5,0-8.8,0.7-12.9,2l-64.3-0.3l0,0H69.1v2.1h2.8c1.9,0,3.7,0.5,5.4,1.4c1.2,0.7,2,1.5,2.4,2.5c0.5,1.3,0.8,3.9,0.8,7.8v50.2
			c0,4.7-0.5,7.6-1.4,8.8c-1.5,1.9-3.9,2.8-7.2,2.8h-2.8v2.1h34.7h61.9c3.9,1.2,8.2,1.8,12.8,1.8c7.3,0,13-3.1,18.3-6.3
			s7.4-7,11.4-13.9L205.9,78.6z M115.2,84.7c0,4.7-0.5,7.6-1.4,8.8c-1.5,1.9-3.9,2.8-7.2,2.8h-2.8h-3.5c-1.9,0-3.7-0.5-5.3-1.4
			c-1.3-0.7-2.1-1.5-2.5-2.5c-0.5-1.3-0.8-3.9-0.8-7.8V34.5c0-4.7,0.5-7.6,1.5-8.8c1.5-1.9,3.8-2.8,7.1-2.8h1.4h1.5h3.5
			c1.9,0,3.7,0.5,5.4,1.4c1.2,0.7,2,1.5,2.4,2.5c0.5,1.3,0.8,3.9,0.8,7.8v50.1H115.2z M135.1,96.4c-1.9,0-3.7-0.5-5.3-1.4
			c-1.3-0.7-2.1-1.5-2.5-2.5c-0.5-1.3-0.8-3.9-0.8-7.8V34.5c0-4.7,0.5-7.6,1.5-8.8c1.5-1.9,3.8-2.8,7.1-2.8h27.7
			c-0.9,0.5-1.9,0.9-2.8,1.5c-6.2,3.6-11.1,8.6-14.7,15.1c-3.6,6.5-5.3,13.6-5.3,21.4c0,9.6,2.7,18,8.1,25.1
			c3.5,4.6,7.6,8.1,12.4,10.4H135.1z"/>
		<g>
			<g>
				<path class="st2" d="M159.4,79.4c-0.4-0.9-0.9-1.7-1.3-2.6c0-0.1-0.1-0.3-0.1-0.4c-1.2-2.8-1.8-5.6-1.8-8.6
					c0-8.4,3.3-15.2,9.9-20.3c0.8-0.6,1.6-1.1,2.4-1.6c0.9-0.4,1.8-0.9,2.7-1.3c0.3-0.1,0.6-0.2,0.9-0.3c4.9-1.8,9.8-2.2,14.9-0.8
					c8,2.2,13.6,7.2,16.7,14.9c1.5,3.7,2,7.6,1.5,11.6c-1.3,9.6-6.4,16.4-15.4,20.1c-4.6,1.9-9.3,2.1-14.1,1
					c-6-1.4-10.8-4.4-14.5-9.3C160.4,80.9,159.9,80.2,159.4,79.4z M186.6,75.5c0.1,0,0.2-0.1,0.2-0.1c2-1,4.1-2.1,6.1-3.1
					c0.3-0.1,0.3-0.3,0.3-0.5c-0.2-1.9-0.5-3.8-1.1-5.6c-0.3-0.9-0.7-1.8-1-2.8c-2.8,1.4-5.6,2.8-8.4,4.2
					C184,70.3,185.3,72.9,186.6,75.5z M171.7,73.2c1,2,3.8,5.5,5.5,6.8c0.1,0.1,0.4,0.1,0.5,0c2-1,4.1-2,6.1-3.1
					c0.1,0,0.1-0.1,0.2-0.1c-1.3-2.6-2.6-5.2-4-7.8C177.3,70.4,174.5,71.8,171.7,73.2z M189.7,60.9
					C189.7,60.8,189.7,60.8,189.7,60.9c-1.5-2.5-3.2-4.7-5.3-6.6c-0.2-0.2-0.4-0.2-0.6,0c-2,1-4,2-6,3c-0.1,0-0.2,0.1-0.3,0.2
					c1.3,2.6,2.6,5.1,3.9,7.6C184.2,63.6,186.9,62.2,189.7,60.9z M170.4,70.6c2.8-1.4,5.6-2.8,8.3-4.2c-1.3-2.6-2.6-5.1-3.9-7.7
					c-2.1,1.1-4.2,2.1-6.3,3.2c-0.1,0.1-0.2,0.3-0.2,0.4C168.6,65.1,169.3,67.9,170.4,70.6z M174.7,81.5c-2.2-2.1-4.1-4.5-5.5-7
					c-2.4,1.2-4.7,2.4-7.1,3.6c0,0.1,0,0.1,0,0.1c1.5,2.6,3.5,4.7,5.9,6.5c0.1,0.1,0.3,0.1,0.4,0C170.5,83.7,172.6,82.6,174.7,81.5z
					 M165.5,63.4c-0.1,0-0.2,0-0.2,0.1c-2,1-4,2-6.1,3.1c-0.1,0.1-0.2,0.3-0.2,0.5c0,1.7,0.1,3.4,0.6,5.1c0.3,1.1,0.7,2.2,1,3.4
					c2.5-1.2,4.8-2.4,7.2-3.6C166.7,69.2,165.9,66.4,165.5,63.4z M196,70.8c2.1-1.1,4.1-2.1,6.1-3.1c0.1-0.1,0.2-0.3,0.2-0.5
					c0-1.9-0.2-3.7-0.7-5.5c-0.3-1.1-0.7-2.1-1-3.2c-2.4,1.2-4.7,2.4-7,3.5C194.8,64.9,195.6,67.8,196,70.8z M199.3,56
					c-1.5-2.6-3.5-4.7-5.9-6.4c-0.1-0.1-0.4-0.1-0.5,0c-1.9,0.9-3.8,1.9-5.6,2.8c-0.1,0.1-0.2,0.1-0.3,0.2c2.2,2,3.9,4.3,5.4,6.9
					C194.6,58.4,196.9,57.2,199.3,56z M159.4,63.3c2-1,3.9-1.9,5.7-2.9c0.1-0.1,0.2-0.3,0.2-0.5c0-3.1,0.5-6.1,1.5-9.1
					c0-0.1,0-0.2,0.1-0.4C162.9,53.9,160.4,58.1,159.4,63.3z M185.9,88.1c-0.1,0-0.1-0.1-0.2-0.1c-3-1-5.8-2.4-8.4-4.3
					c-0.2-0.2-0.4-0.1-0.6,0c-1.7,0.9-3.4,1.7-5.2,2.6c-0.1,0.1-0.2,0.1-0.3,0.2C176,88.9,181.7,89.3,185.9,88.1z M175.6,46.1
					C175.7,46.2,175.7,46.2,175.6,46.1c3.2,1.1,6,2.5,8.6,4.4c0.1,0.1,0.4,0.1,0.6,0c1.7-0.8,3.4-1.7,5.1-2.5
					c0.1-0.1,0.2-0.1,0.4-0.2C185.5,45.5,180.7,44.9,175.6,46.1z M202,71c-1.8,0.9-3.5,1.8-5.3,2.6c-0.4,0.2-0.5,0.4-0.5,0.8
					c0,2.2-0.3,4.3-0.8,6.4c-0.2,0.9-0.5,1.9-0.8,2.9C198.6,80.3,201,76.1,202,71z M170.4,49.7c-1.2,2.9-1.9,5.9-2.1,9.1
					c1.8-0.9,3.6-1.8,5.3-2.7C172.5,54,171.5,51.9,170.4,49.7z M181.5,52.1c-2.7-1.8-5.5-3-8.5-3.7c1.1,2.2,2.2,4.3,3.2,6.4
					C178,53.9,179.7,53,181.5,52.1z M188.6,85.8c-1.1-2.2-2.2-4.3-3.2-6.4c-1.8,0.9-3.5,1.8-5.3,2.7
					C182.7,83.9,185.5,85.1,188.6,85.8z M188,78.1c1.1,2.1,2.1,4.2,3.2,6.4c1.2-2.9,1.9-5.9,2.1-9.1C191.5,76.3,189.7,77.2,188,78.1
					z"/>
			</g>
		</g>
		<g>
			<path class="st0" d="M137.3,108.5h-2.6l-0.4,1.1H132l2.7-6.7h2.5l2.7,6.7h-2.4L137.3,108.5z M136.9,107l-0.8-2.4l-0.8,2.4H136.9z
				"/>
			<path class="st0" d="M140.5,102.9h2.1l2.7,3.7v-3.7h2.1v6.7h-2.1l-2.7-3.7v3.7h-2.1V102.9z"/>
			<path class="st0" d="M148.7,102.9h2.3v6.7h-2.3V102.9z"/>
			<path class="st0" d="M151.5,102.9h2.4l1.6,4.8l1.6-4.8h2.3l-2.7,6.7h-2.4L151.5,102.9z"/>
			<path class="st0" d="M159.8,102.9h6v1.4H162v1.1h3.5v1.4H162v1.3h3.9v1.5h-6.1L159.8,102.9L159.8,102.9z"/>
			<path class="st0" d="M166.9,109.6v-6.7h3.7c0.7,0,1.2,0.1,1.6,0.2s0.7,0.3,0.9,0.6s0.3,0.7,0.3,1.1c0,0.4-0.1,0.7-0.3,1
				s-0.4,0.5-0.7,0.7c-0.2,0.1-0.5,0.2-0.8,0.3c0.3,0.1,0.5,0.2,0.6,0.2c0.1,0.1,0.2,0.2,0.4,0.4s0.3,0.3,0.3,0.4l1.1,1.9h-2.5
				l-1.2-2c-0.2-0.3-0.3-0.4-0.4-0.5c-0.2-0.1-0.3-0.2-0.6-0.2h-0.2v2.7L166.9,109.6L166.9,109.6z M169.2,105.6h0.9
				c0.1,0,0.3,0,0.6-0.1c0.1,0,0.3-0.1,0.4-0.2c0.1-0.1,0.1-0.2,0.1-0.4s-0.1-0.4-0.2-0.5c-0.1-0.1-0.4-0.2-0.8-0.2h-1V105.6z"/>
			<path class="st0" d="M174.1,107.4l2.1-0.1c0,0.3,0.1,0.6,0.3,0.7c0.2,0.3,0.6,0.4,1,0.4c0.3,0,0.6-0.1,0.7-0.2
				c0.2-0.1,0.3-0.3,0.3-0.5s-0.1-0.3-0.2-0.5c-0.2-0.1-0.5-0.3-1.2-0.4c-1-0.2-1.7-0.5-2.1-0.8c-0.4-0.3-0.6-0.8-0.6-1.3
				c0-0.3,0.1-0.7,0.3-1s0.5-0.5,1-0.7c0.4-0.2,1-0.3,1.8-0.3c0.9,0,1.6,0.2,2.1,0.5s0.8,0.8,0.9,1.5l-2.1,0.1
				c-0.1-0.3-0.2-0.5-0.4-0.7c-0.2-0.1-0.4-0.2-0.7-0.2s-0.5,0.1-0.6,0.2c-0.1,0.1-0.2,0.2-0.2,0.4c0,0.1,0.1,0.2,0.2,0.3
				c0.1,0.1,0.4,0.2,0.8,0.2c1,0.2,1.7,0.4,2.1,0.6c0.4,0.2,0.7,0.4,0.9,0.7s0.3,0.6,0.3,1s-0.1,0.8-0.4,1.2
				c-0.3,0.4-0.6,0.6-1.1,0.8s-1,0.3-1.8,0.3c-1.2,0-2.1-0.2-2.6-0.7C174.4,108.6,174.1,108,174.1,107.4z"/>
			<path class="st0" d="M186,108.5h-2.6l-0.4,1.1h-2.3l2.7-6.7h2.5l2.7,6.7h-2.4L186,108.5z M185.5,107l-0.8-2.4l-0.8,2.4H185.5z"/>
			<path class="st0" d="M189.1,109.6v-6.7h3.7c0.7,0,1.2,0.1,1.6,0.2s0.7,0.3,0.9,0.6s0.3,0.7,0.3,1.1c0,0.4-0.1,0.7-0.3,1
				s-0.4,0.5-0.7,0.7c-0.2,0.1-0.5,0.2-0.8,0.3c0.3,0.1,0.5,0.2,0.6,0.2c0.1,0.1,0.2,0.2,0.4,0.4s0.3,0.3,0.3,0.4l1.1,1.9h-2.5
				l-1.2-2c-0.2-0.3-0.3-0.4-0.4-0.5c-0.2-0.1-0.3-0.2-0.6-0.2h-0.2v2.7L189.1,109.6L189.1,109.6z M191.4,105.6h0.9
				c0.1,0,0.3,0,0.6-0.1c0.1,0,0.3-0.1,0.4-0.2c0.1-0.1,0.1-0.2,0.1-0.4s-0.1-0.4-0.2-0.5c-0.1-0.1-0.4-0.2-0.8-0.2h-1V105.6z"/>
			<path class="st0" d="M196.8,102.9h2.3v6.7h-2.3V102.9z"/>
			<path class="st0" d="M200,106.2c0-1.1,0.3-1.9,1-2.5s1.6-0.9,2.8-0.9s2.1,0.3,2.8,0.9c0.7,0.6,1,1.4,1,2.5c0,0.8-0.1,1.4-0.4,1.9
				c-0.3,0.5-0.7,0.9-1.2,1.2s-1.2,0.4-2,0.4s-1.5-0.1-2-0.4s-1-0.6-1.3-1.1C200.2,107.7,200,107,200,106.2z M202.3,106.3
				c0,0.7,0.1,1.2,0.4,1.5c0.3,0.3,0.6,0.4,1.1,0.4s0.9-0.1,1.1-0.4c0.3-0.3,0.4-0.8,0.4-1.6c0-0.6-0.1-1.1-0.4-1.4
				c-0.3-0.3-0.7-0.4-1.1-0.4c-0.5,0-0.8,0.1-1.1,0.4S202.3,105.6,202.3,106.3z"/>
		</g>
		<g>
			<path class="st0" d="M168.9,37c0,0,1.4,1.1,3.2,1.1c1.4,0,2.2-0.6,2.2-1.2c0-1-1.2-1.4-2.8-1.4h-1.1l-0.8-1.5l2-2
				c0.7-0.7,1.3-1.2,1.3-1.2l0,0c0,0-0.5,0.1-1.5,0.1h-3.7v-2.6h9.7v1.9l-3.1,2.9c2.3,0.4,3.7,1.8,3.7,3.6c0,2.1-1.8,4.2-5.7,4.2
				c-3.4,0-5.2-1.6-5.2-1.6L168.9,37z"/>
			<path class="st0" d="M181,37c0,0,1.4,1.1,3.1,1.1c1,0,2.1-0.5,2.1-1.5s-1.1-1.5-2.4-1.5c-1.2,0-2.1,0.4-2.1,0.4l-2-0.6l0.6-6.5
				h8.6V31h-5.3l-0.1,1.1c0,0.2-0.1,0.5-0.1,0.5l0,0c0,0,0.5-0.1,1.1-0.1c3.6,0,5.5,1.8,5.5,4.1c0,2.6-2.3,4.4-5.7,4.4
				s-5.2-1.6-5.2-1.6L181,37z"/>
		</g>
	</g>
</g>
</svg>
