<?xml version="1.0" encoding="utf-8"?>
<!-- Generator: Adobe Illustrator 27.5.0, SVG Export Plug-In . SVG Version: 6.00 Build 0)  -->
<svg version="1.1" id="Capa_1" xmlns="http://www.w3.org/2000/svg" xmlns:xlink="http://www.w3.org/1999/xlink" x="0px" y="0px"
	 viewBox="0 0 290.8 125.8" style="enable-background:new 0 0 290.8 125.8;" xml:space="preserve">
<style type="text/css">
	.st0{fill:#006FA5;}
</style>
<g>
	<g>
		<g>
			<g>
				<g>
					<path class="st0" d="M39.6,78.6v-0.2h0.1L39.6,78.6z M41.3,103.9L41.3,103.9L41.3,103.9c-0.1-0.1-0.2-0.2-0.2-0.2L41.3,103.9z
						 M39.6,88.4c0.1,0,0.2,0,0.3-0.1c0,0.2-0.2,0.5-0.4,0.6c0,0.3,0.2,0.7,0.1,1c-0.1,0.2-0.3,0.3-0.3,0.4c-0.1,0.2,0,0.3-0.1,0.5
						c-0.2-0.1-0.2-0.2-0.1-0.3l0,0L39.6,88.4z M38.6,87.1L38.6,87.1C38.5,87,38.5,87,38.6,87.1L38.6,87.1z M38.7,92
						c0.3,0.1,0.3,0,0.2,0.2l0,0l-0.7-0.6C38.4,91.7,38.5,91.9,38.7,92z M39,95.2c0.2,0.1,0.4,0.3,0.4,0.4c-0.1-0.1-0.3-0.1-0.5,0
						l-0.7-0.1c0-0.1-0.1-0.1-0.1-0.1c0-0.1-0.1-0.1-0.1-0.1L39,95.2z M38.9,101.1l-0.9-0.8c0.1-0.1,0.2-0.2,0.3-0.3l0.5,0.6h0.1
						L39,101l0.2,0.2C39,101.1,39,101.1,38.9,101.1z M37.5,94.8C37.5,94.7,37.5,94.7,37.5,94.8l0.5,0.5c-0.1-0.1-0.3-0.2-0.4-0.3
						C37.5,94.9,37.5,94.8,37.5,94.8L37.5,94.8L37.5,94.8z M37.4,97.8c0,0.1-0.1,0.1-0.1,0.1l-0.1-0.4
						C37.2,97.6,37.4,97.6,37.4,97.8z M39,98.7c0-0.1-0.1-0.3-0.2-0.4l0.1-0.2c0,0,0,0.1,0.1,0.1c0.5,0.5,0.5-1.1,0.7-1.2
						c0.4,0.1,0.1,0.5,0,0.8c-0.1,0.4-0.1,0.4-0.4,0.7c0,0,0,0,0.1,0L39,98.7z M39.5,99.1l-0.1-0.3c0.1,0,0.2,0.1,0.2,0.3
						C39.6,99.1,39.6,99.1,39.5,99.1z M39.7,99.6c-0.2,0-0.2-0.2-0.3-0.2l0.1-0.1C39.6,99.4,39.7,99.5,39.7,99.6z M39.4,98.7v-0.2
						c0.1,0,0.2,0,0.3,0C39.6,98.6,39.5,98.6,39.4,98.7z M40.1,103.1l-0.5-1h-0.2c0-0.1,0.1-0.3,0.1-0.3c0-0.1,0-0.3-0.1-0.4
						l0.5,0.5H40l-0.1,0.2l0.6,0.5l0.2,0.5c-0.1-0.1-0.3-0.1-0.3,0.1c0,0.1,0.5,0.5,0.5,0.5c-0.1,0-0.1,0.1-0.2,0.1L40.1,103.1z
						 M43,106.4l-0.2-0.2l-0.2,0.2l-0.4-0.4l-0.3,0.3c-0.1,0-0.2-0.1-0.3-0.1l-0.2-0.2v-0.2l-0.6-0.3l0,0c0.1,0,0.2,0,0.3-0.1
						c0.1,0.2,0.3,0.1,0.4-0.1l0.7,0.6c0.4,0.2,0.8,0.4,1.2,0.1l0.3,0.4C43.5,106.4,43.3,106.4,43,106.4z M43.6,106.8h-0.3v-0.1
						l-0.1-0.1c0.2,0,0.4,0.1,0.5,0.1c0.2,0,0.3,0.1,0.5,0.2l0.1,0.1L43.6,106.8z M44.2,103.2c-0.1,0.2-0.3,0.2-0.5,0.2l-0.3-0.7
						C43.8,102.7,44.3,103,44.2,103.2z M48.3,104.6c0.2-0.1,0.4-0.1,0.6-0.2l0,0l-0.6,0.7c0-0.1,0.1-0.2,0.2-0.3
						C48.3,104.7,48.3,104.6,48.3,104.6z M48.3,107.8h-0.2H48c-0.2,0-0.3-0.1-0.5-0.1l-0.1-0.4c0.3,0,0.7,0,0.8-0.1l0.1,0.3h0.4
						c0,0,0,0.1,0.1,0.1L48.3,107.8z M49.7,107.2C49.7,107.2,49.7,107.1,49.7,107.2L49.7,107.2L49.7,107.2z M50.1,107.5L50.1,107.5
						L50.1,107.5L50.1,107.5z M49.7,106.4l-0.7-0.2l0.3,0.4l0,0l-1.1-0.9c0-0.2,0-0.4,0.1-0.6l1.2,0.9c0.1,0.1,0.2,0.2,0.4,0.2
						c0.7,0,1.2-0.7,2-0.5c0,0.2-0.1,0.3-0.2,0.5l-0.6-0.1L49.7,106.4z M52.5,108.3l-0.1-0.2l-0.2,0.1c-0.2-0.1-0.3-0.1-0.5-0.1
						c-0.3,0-0.3,0.1-0.5,0.1l0.6-0.4c0.6,0.1,1.2,0.2,1.2,0.4C52.8,108.4,52.6,108.4,52.5,108.3z"/>
					<polygon class="st0" points="36.8,96.7 36.5,96.2 35.6,96.3 36.3,97 					"/>
				</g>
				<g>
					<path class="st0" d="M35.9,24.8c-0.1-0.6-0.5-1.1-0.6-1.7c-0.1-0.4-0.1-0.8-0.2-1.2c-0.1-0.4-0.3-0.8-0.3-1.3
						c1.1,0.1,1.3-0.9,0.9-1.7c0.1-0.1,0.3-0.1,0.5-0.1c0.1-0.2,0.2-0.3,0.3-0.3c0.1,0.2,0.3,0.3,0.5,0.4c0.1,0.2,0.1,0.5,0.3,0.7
						c0.1,0.1,0.3,0,0.3,0.1c0.1,0.1,0,0.2,0.1,0.4s0.2,0.4,0.3,0.6c0.2,0.4,0.3,0.9,0.6,1.3c0.2,0.3,1,0.5,1.1,0.7l0,0
						c-0.2,0.3-0.3,0.6-0.5,0.9c0.1,0.1,0.5,0.3,0.5,0.5c0,0.3-0.4,0.2-0.6,0.4c0.1,0.2,0.2,0.4,0.2,0.5c0.1,0.2,0.2,0.2,0.4,0.4
						c0.3,0.3,0.1,0.1,0.2,0.5c0.1,0.5,0.1,0.3,0.4,0.5c0.8,0.7,0.9,1.6,1.3,2.5c0.2,0.4,0.5,0.8,0.6,1.3c0.2,0.5,0.2,0.8,0.9,0.6
						c1.2-0.4,1.1,0.6,0.9,1.4c-0.1,0.3,0.1,0.9-0.1,1.2c-0.2,0.4-0.9,0.4-1.3,0.7c-0.4,0.4-0.9,0.8-1.2,1.3s0.2,0.5,0.5,0.9
						c-1,0.7,0.2,1.8,0.4,2.8c-0.7,0-0.3,0.7-0.1,1c0.3,0.3,0.7,0.5,0.6,1c-0.4-0.1-0.3,0.2-0.5,0.3c-0.2,0.1-0.5-0.1-0.7,0.1
						s0,0.5,0,0.7s-0.2,0.4-0.2,0.6c-0.1,0.7-0.3,1-0.7,1.6c-0.4,0.5-0.2,0.8-0.3,1.4c0,0.2-0.1,0.5-0.2,0.6
						c-0.1,0.2-0.3,0.3-0.4,0.5c-0.2,0.4,0.2,0.8,0.3,1.2c0.1,0.2,0.4,0.8,0.4,0.9c0.1,0.4-0.1,0.4-0.4,0.7
						c-0.3,0.2-0.4,0.4-0.4,0.8s0,0.7,0.1,1.1c-0.7,0.1-0.5,0.8-0.3,1.2c0.1,0.1,0.3,0.6,0.4,0.6c0.2,0.2,0.5-0.1,0.6,0.2
						c-0.9,0.3,0.1,1,0.3,1.4c0.2,0.3,0.3,0.6,0.3,0.9s-0.1,0.7,0.3,0.8c0-0.1,0-0.1,0-0.2c0.7,0,0.2,0.7,0.2,1c0,0.4,0.2,1,0.4,1.4
						c-0.1,0-0.3,0.1-0.4,0.1c0,0.1-0.3,1.4-0.3,1.5c0,0.2,0,0.5-0.1,0.7s-0.5,0.2-0.4,0.5c0.3,0.1,0.5,0.8,0.6,1.1
						c0.1,0.2,0.3,1.2-0.3,0.9c-0.1,0.2-0.1,0.5-0.2,0.6c-0.2,0.2-0.4,0.2-0.6,0.4c-0.2,0.3-0.2,1-0.2,1.3c0,0.5,0.2,0.9,0.3,1.4
						c0.1,0.3,0,0.4,0.1,0.7c0.1,0.3,0.3,0.3,0.4,0.6c0.1,0.3,0.4,0.7,0.4,1c0,0.4-0.4,0.4-0.7,0.7c-0.4,0.4-0.3,0.4-0.2,0.9
						c0.1,0.3,0.1,0.7,0,1.1c-0.4-0.1-0.7,0.1-0.5,0.6c0,0.1,0.3,0.1,0.3,0.3c0,0.1-0.1,0.3-0.1,0.5c-0.1,0-0.2,0-0.3,0
						c-0.1,0.4,0.3,0.4,0.5,0.6c-0.6,0.2-0.1,0.7-0.5,0.9c0,0.2,0.1,0.5,0.2,0.7c0.1,0.3,0.2,0.3,0.2,0.7c0,0.6,0.8,1.7,0.3,2.2
						c-0.2,0.3-0.4-0.1-0.5,0.4l0.2,0.2c0,0.1-0.1,0.2-0.1,0.3c0,0.6,0.1,0.9,0.6,1.2c0.3,0.2,0.5,0.1,0.5,0.4
						c0,0.2-0.5,0.2-0.3,0.5c0.1,0.1,0.7,0.2,0.8,0.4c-0.4,0.2,0.1,0.3,0,0.5c0,0.3-0.2,0.2-0.3,0.5c-0.3,0.7,0.4,0.6,0.9,0.6
						c0.6,0,1.1,0.1,0.6,0.7c-0.3,0.4-0.9,0.2-1.4,0.5c-0.1,0.1-0.6,0.1-0.3,0.3c0.1,0.1,0.6,0,0.7,0c0.4,0.1,0.7,0.3,1,0.7
						c-0.4,0.1-0.1,0.3-0.3,0.5s-0.5,0-0.6,0.4c-0.1,0.3,0.3,0.4,0.3,0.6c0.2,0.4-0.1,0.4-0.1,0.7c-0.1,0.5,0.5,0.9,0.4,1.4
						c-0.1,0.4-0.4,0.2-0.5,0.5c-0.2,0.3,0.1,0.5,0.1,0.7s0.3,0.5-0.3,0.4c0,0.1,0,0.3,0,0.4c-0.4,0.1-0.3,0.3-0.4,0.5
						c-0.1,0.3-0.5,0.4-0.3,0.7c0.1,0.2,0.4,0.3,0.5,0.6s0,0.6,0,0.9l-0.4-0.1c0,0.6,0.3,0.8-0.4,1.3c-0.2,0.1-0.4,0.4-0.6,0.5
						c-0.2,0.1-0.5,0.1-0.7,0.3c-0.4,0.3-0.1,0.2-0.1,0.5s0,0.4,0,0.6c0,0.3,0.1,0.4,0.1,0.7c0,0.2-0.1,0.6-0.1,0.7
						c0.2,0.4,1.4,0.6,1.4,1.1c0.5-0.4,1.2-0.6,1.9-0.6c-0.1,0.4,0.3,0.6,0.1,1c-0.1,0.1-0.4,0-0.4,0.3c0,0.2,0.3,0.2,0.5,0.2
						c0,0.4-0.3,0.7-0.2,1.1c0.4-0.1,1.2,0.3,1.2,0.7c1-0.3,2.3-0.3,3.4-0.5c1-0.2,2,0.1,3,0c-0.4,0.1-0.6,0.4-0.7,0.8
						c0-0.2,0.8,0.3,0.9,0.3c0.3,0.1,0.7-0.1,0.8-0.4c0.7,0.3,0.6,1.1,0.6,1.7c0,0.7,0.3,1.3,0.4,2c0.1,0.5,0.1,1.3,0.4,1.8
						c1.2-0.2,2.4-0.4,3.7-0.4c-0.2,0.3,0,0.9-0.6,1c-0.3,0.1-1-0.5-1,0.2c-0.4,0.1-0.6-0.2-1-0.1c0-0.3-0.2-0.5-0.5-0.4
						c-0.1,0.4-0.6,0.3-0.7,0.6c0.3,0,0.6-0.1,0.9-0.2c0,0.2-0.2,0.3-0.3,0.4c0.5-0.1,1,0.3,1.2,0.6c-0.2,0.1-0.4,0.1-0.5,0.1
						c-0.5-1-1.6,0.5-1.7-0.7c-0.3,0-0.7-0.3-0.9-0.2c-0.4,0.2,0.1,0.6,0.3,0.8c-0.2,0.1-1.6,0.1-1.3-0.3c-0.4,0-0.3-0.3-0.6-0.4
						c0.1,0,0.1-0.2,0.2-0.2c-0.1,0-0.3-0.1-0.4-0.1c0.3-0.2,0.8-0.3,1-0.5c-0.1,0-0.3-0.1-0.3-0.1c-0.4,0.9-2.5,0.2-3.2,0.2
						c-0.4,0-0.7,0.1-1,0.1c-0.2,0-0.3,0.2-0.4,0.2c-0.1,0-0.4-0.1-0.6,0c-0.3-0.5,0.6-0.5,0.9-0.6c0.2-0.1,0.3-0.2,0.6-0.2
						c0.2,0,0.5,0,0.7,0c0-0.3,0.2-0.3,0.5-0.3c-0.2-0.1-0.4-0.1-0.5-0.3c0.1,0,0.2-0.1,0.4-0.1c-0.2-0.2-0.5-0.4-0.4-0.7
						c0.2,0,0.4,0,0.6-0.1v-0.2h-0.1c0-0.2,0.1-0.5,0.4-0.4c0.1,0,0.2,0.4,0.3,0.6c0.1,0.2,0.4,0.3,0.5,0.5c0.2,0.2,0,0.4,0.3,0.5
						c0.2-0.4,0.3,0,0.5,0c0.3,0,0.3,0,0.6-0.1c0.4,0,0.9,0.4,1.3,0.1c-0.1-0.4-2-0.4-2.5-0.8c-0.8-0.7,1.4-0.9,1.4-1.8
						c-0.8-0.1-1.3,0.6-2,0.5c-0.6,0-0.6-0.7-0.6-1.1c0.3,0,0.4,0.4,0.6,0c0.3-0.4-0.1-0.4-0.4-0.3c0.1-0.1,0.1-0.2,0.1-0.3
						c-0.1,0-0.2,0-0.3,0v-0.1c0.4-0.1,0.7,0.1,1.1,0c0.3,0,0.7-0.4,0.4-0.7c-0.4-0.3-1.8,0.8-1.9,0.5c-0.2,0.1-0.4,0.1-0.6,0.2
						c0.1,0.1,0.1,0.1,0.2,0.2c-0.2,0.2-0.2,0.7-0.3,1c0,0.4,0.1,0.7,0.1,1.1c0.1,1-1.4,0.4-2,0.4c-0.3,0-1.2,0-1.3-0.5
						c-0.1-0.3,0.8-0.8,0.5-0.1c0.7,0.1,0.1-0.5,0.5-0.6c0.5-0.1,0.2,0.6,0.2,0.7c0.5,0,0.5-0.5,0.2-0.8c0.4-0.2,0.8-0.3,1-0.6
						c0.3-0.4,0.2-0.6-0.3-0.4c-0.4,0.1-0.7,0.3-1,0.6c-0.2,0.2-0.2,0.2-0.5,0.3c-0.2,0-0.4-0.1-0.6,0c0,0-0.1,0.1-0.2,0.1
						c0.1,0.1,0.1,0.2,0.2,0.2c-0.2,0.2-0.6,0.2-0.5,0.5c0,0.1,0.3,0,0.3,0.3c-0.1,0.2-0.2,0-0.3,0c-0.3-0.1-0.5-0.2-0.8-0.3
						c-0.2-0.1-0.7-0.1-0.7-0.2c0.4-0.1,0.7,0,1.1,0c0.1-0.2-0.4-0.2-0.5-0.5c-0.3,0.5-0.9,0.2-1.3,0c0.2,0,0.4,0.1,0.6,0
						c0-0.3-0.4-0.1-0.5-0.3c0.2,0,0.3,0,0.5,0c0-0.1,0-0.2-0.1-0.2c0.4,0,0.1-0.3,0.3-0.4c0.1-0.1,0.4-0.1,0.5-0.2
						c0,0.1-0.1,0.2-0.1,0.4c0.3-0.2,0.7-0.2,0.4,0.2c0.1,0,0.2,0,0.3,0c0,0,0,0.1-0.1,0.1c0.2,0,0.4-0.1,0.6-0.1
						c0-0.3,0.6-0.6,0.9-0.6c0.2,0,0.4,0.1,0.6,0c0.2-0.1,0.3-0.3,0.5-0.3v-0.1c-0.4,0-0.8,0.1-1.2,0.1c-0.2,0-0.4,0-0.6,0
						c-0.2,0-0.3,0.2-0.5,0.3c-0.4,0.1-0.7-0.2-1.1-0.2c-0.6,0-0.5,0.3-0.8,0.5l-0.2-0.1c-0.1,0-0.1,0.2-0.2,0.3
						c-0.1,0.1-0.2,0.2-0.4,0.2c0.6-0.2,0-1,0-1.3c0.3-0.2,0.5,0.2,0.8,0s-0.1-0.4,0.2-0.5c0.4,0.5,0.3,0.1,0.4-0.2
						c0.2-0.3,0.8-0.1,1-0.4c0.2-0.4-1.6-0.9-1.1-0.3c-0.2,0.1-0.4,0-0.6,0c0,0.2,0.2,0.3,0.2,0.5s-0.3,0.2-0.2,0.5
						c-0.4,0.3-0.8-0.3-0.9-0.5c0.1,0,0.2,0.1,0.3,0.1c-0.2-0.6-0.7-0.1-0.9-0.5c-0.1-0.1-0.3-0.4-0.3-0.5c0.2,0,0.4,0.1,0.6,0.1
						c0-0.2-0.2-0.5-0.3-0.7c-0.3,0.1-0.3,0.1-0.6,0.1c-0.1,0-0.4-0.3-0.3,0.1c-0.1,0-0.4-0.6-0.2-0.7c0.1-0.1,0.7-0.1,0.9,0
						c0.1-0.5-0.5-0.2-0.7-0.3s-0.6-0.5-0.6-0.7c0.2,0.1,0.3,0.3,0.5,0.2c0-0.1,0-0.3,0-0.4c-0.1,0-0.2,0-0.4,0
						c0-0.2-0.1-0.2-0.2-0.3c-0.1,0.5-0.6-0.1-0.8,0c0-0.2,0.3-0.4,0.5-0.5c0.4-0.1,0.3,0.2,0.6,0.3c-0.1-0.2-0.2-0.4-0.4-0.6
						c0.1,0,0.2,0,0.3,0c0-0.2-0.1-0.3-0.3-0.3c0-0.2,0.3-0.1,0.4-0.3c-0.2-0.1-0.3,0-0.5-0.1c0.3-0.3,0.3-0.4,0.4-0.7
						c0-0.2,0.3-0.7,0-0.8c-0.2,0.2-0.2,1.7-0.7,1.2c-0.2-0.2,0-0.6,0-0.9c0-0.3-0.5-1.1,0-1.2c-0.1-0.2-0.2-0.3,0-0.5
						c0.1-0.1,0.4-0.1,0.6,0c0.1-0.3-0.8-0.6-1-0.8c-0.1,0-0.1-0.2-0.2-0.2c-0.1,0-0.2,0-0.3,0c-0.1-0.1-0.1-0.5-0.2-0.6
						c0.3-0.1,0.5,0,0.7-0.3c0.1-0.2,0.1-0.5-0.3-0.5c-0.1-0.3,0.4-0.9,0.7-0.6c0.1-0.1,0.2-0.3,0.3-0.4c0.1-0.3,0.1-0.1-0.2-0.2
						c-0.3-0.2-0.5-0.5-0.9-0.5s-0.5,0.4-1,0.3c-0.4-0.1-0.4-0.4-0.3-0.7c-0.3,0-1.5,0.8-0.8,0.8c0.3,0.4-0.3,0.6-0.6,0.4l-0.2-0.5
						c0-0.2,0.2-0.2,0.3-0.3c0.3-0.2,0.5-0.5,0.8-0.7c0.2-0.2,0.8-0.4,0.9-0.7c0-0.1-0.1-0.3-0.1-0.4c0.2-0.4,0.4-0.1,0.6,0
						c0.3,0.1,0.5,0.1,0.2-0.1c-0.1-0.1-0.3,0-0.3-0.2c0-0.1,0.1-0.2,0.1-0.3c0-0.2-0.2-0.5,0.1-0.6c0.5,0.2,0.3,0.4,0.4,0.7
						c0.3,0.5,0.2-0.2,0.2-0.4c0-0.2-0.1-0.3-0.1-0.4s-0.1-0.1-0.1-0.2s0.1-0.2,0.1-0.2c-0.2-0.4-0.6-0.2-0.6-0.7c0-0.2,0-0.3,0-0.5
						c0-0.1-0.3-0.1-0.1-0.3c0-0.2-0.8-0.3-0.3-0.6c0.3-0.2,0.4,0.3,0.7,0.3c0.1,0,0.2-0.2,0.3-0.1c0.1,0,0.1,0.2,0.2,0.2
						c0.1,0,0.2-0.1,0.2-0.1c0.2,0,0.1-0.1,0.3,0.1c0.1,0.1,0.1,0.4,0.1,0.5c-0.2,0-0.3-0.3-0.5-0.2c-0.4,0.1,0,0.2,0,0.3
						c0,0.1,0,0.4,0,0.5c0.1,0.2,0.3,0.1,0.3,0.4c0,0.1-0.1,0.4-0.1,0.5s-0.1,0.4-0.1,0.5c-0.1,0.3-0.3,0.7-0.1,1.1
						c0,0.1,0,0.1,0.1,0.2h0.1c0.1-0.3,0-0.6,0-0.9c0.2-0.1,0.4,0.1,0.5,0.2c0.2,0.3,0,0.3,0,0.6c-0.1,0.2-0.1,0.4-0.1,0.7
						c0,0.2-0.3,0.3,0,0.5c0.1-0.2,0-0.3,0.1-0.5s0.3-0.2,0.3-0.4c0.1-0.3,0-0.7-0.1-1c0.2-0.1,0.4-0.4,0.4-0.6
						c-0.1,0-0.2,0-0.3,0.1c-0.1-0.2-0.1-0.5,0.1-0.6c0.1-0.1,0.5-0.1,0.4-0.4c-0.2,0-0.3,0-0.5,0.1c0,0,0.1-0.3,0.1-0.2l-0.1-0.3
						c0-0.1-0.2-0.4,0.2-0.3c0-0.1-0.9-1.2-0.1-0.9c0-0.2-0.1-0.3-0.1-0.5c0.2,0,0.4-0.1,0.4-0.4c-0.2,0-0.3-0.1-0.3-0.3
						c-0.3,0.1-0.4-0.6-0.1-0.6c0.3,0.4,0.3-0.4,0.3-0.4c0-0.1,0.3-0.1,0.2-0.3c0,0-0.3-0.1-0.4-0.1c-0.1-0.1-0.1-0.3-0.1-0.4
						c0-0.2,0.1-0.2,0.2-0.3c0.1-0.2,0-0.6,0.4-0.5c0-0.2-1-1.6,0-1.2c0-0.2-0.4-0.4-0.4-0.6c0.1-0.4,0.6,0,0.7,0.1
						c0.1-0.2-0.2-0.7-0.2-1c-0.2,0.2-0.9,0.4-0.8-0.1c0.1-0.4,0.8-0.5,0.1-0.8c-0.2-0.1-0.4-0.2-0.6-0.1c-0.3,0.2,0,0.3-0.1,0.5
						c-0.1,0.3-0.8,0.4-1.1,0.4c-0.4,0-0.2-0.1-0.3-0.2c0,0,0.1-0.2,0-0.3c-0.1-0.1-0.2,0-0.3-0.1c-0.2-0.2-0.1-0.3-0.2-0.5
						c-0.3-0.4-0.5-0.4-0.4-0.9c0-0.2,0.1-0.3,0.1-0.5c0-0.1,0-0.2,0-0.3c0-0.1,0.2-0.1,0.2-0.2c0.1-0.3,0-0.9,0-1.2
						c0-0.3-0.1-0.3,0.1-0.5c0.1-0.1,0.3-0.2,0.5-0.2c0-0.2,0-0.3,0-0.5s0.2-0.3,0.2-0.5c0.1-0.4,0-0.6-0.3-1s-0.5-0.9-0.7-1.3
						s0.2-0.9,0-1.2c-0.1-0.2-0.5-0.3-0.6-0.6c0-0.2,0.1-0.2,0.1-0.4c0-0.2-0.2-0.4-0.2-0.6c0-0.5,0.3-0.1,0.7-0.3
						c0.2-0.1,0.3-0.4,0.3-0.7c0.1-0.3-0.2-0.6-0.1-0.8c0.1,0.1,0.2,0.2,0.3,0.2c0.1-0.2,0-0.4,0-0.5s0.2-0.3,0.2-0.5
						c0-0.4-0.1-0.7,0.2-1.1c0.1-0.2,0.3-0.2,0.2-0.4c0-0.2-0.3-0.2-0.2-0.5c0-0.1,0.2-0.3,0.3-0.4c0.1-0.2,0.1-0.4,0.2-0.5
						c0.2-0.3,0.3-0.2,0.3-0.6c0.1-0.4,0.1-0.7,0.1-1.1c0-0.1-0.1-0.2-0.1-0.3c0-0.1,0.2-0.1,0.1-0.2c0-0.2-0.2-0.3-0.1-0.6
						c0-0.1,0.1-0.4,0.2-0.5c0.1-0.2,0.3-0.2,0.4-0.4c0.1-0.2-0.1-0.5-0.1-0.6c-0.1-0.3-0.5-1.1,0.1-1.1c0,0,0-1.1,0-1.2
						c0-0.3,0-0.3-0.1-0.6c-0.1-0.2-0.1-0.5-0.2-0.7c-0.1-0.3-0.2-0.6-0.3-0.9c-0.1-0.4-0.2-0.7-0.3-1.1c-0.2-0.6-0.6-1.5-0.4-2.2
						c0.4,0.1,0.5-0.4,0.6-0.6c0.2-0.5,0-0.8-0.2-1.2c-0.1-0.3-0.2-0.4-0.4-0.7c-0.4-0.6,0-0.8,0.1-1.4c0.1-0.3,0.1-0.6,0.1-0.8
						c0-0.6-0.4-1.5,0.4-1.8c0-0.4-0.3-0.8-0.4-1.2c0.1,0,0.2,0,0.3,0c0.2-0.2,0-0.3,0-0.5s0-0.3,0-0.5c0.1-0.4,0.1-0.8,0.1-1.1
						c0-0.1,0-0.5,0-0.6c-0.1-0.2-0.2-0.2-0.3-0.4c0-0.1,0-0.4,0.1-0.6c0-0.1-0.1-0.1,0-0.2c0-0.1,0.2,0,0.3-0.1
						c0.4-0.4,0-1-0.2-1.4c-0.3-0.6-0.3-1.3-0.4-2c0-0.4,0-0.6,0-1c0.1-0.3,0-0.8-0.4-0.4c-0.2-0.3-0.1-0.9-0.1-1.2
						c0.8,0.3,0.5-1.5,0.5-1.9s-0.1-0.8-0.1-1.2c0-0.4,0.1-0.8,0-1.2c-0.2-0.6-0.6-1.1-0.6-1.8C35.9,25.6,36,25.2,35.9,24.8z"/>
					<path class="st0" d="M36.9,78.6c-0.2-0.2-1-0.2-1.2-0.1s-0.1,0.3-0.1,0.5c-0.1,0.3-0.2,0.6-0.2,1c0,0.3,0.2,0.7,0.2,1
						s-0.4,0.6-0.4,0.9c0.2,0,0.3,0.2,0.5,0.2s0.4,0,0.6-0.1c0.6-0.1,0.5-0.2,0.3-0.7c0.2,0,0.5,0,0.5-0.2c0-0.1-0.4-0.3-0.5-0.4
						c0.4,0.2,0.5-0.1,0.2-0.3c-0.2-0.2-0.6-0.3-0.6-0.6l0.3,0.1c0.1-0.1-0.1-0.3,0-0.4c0.1-0.2,0.6-0.1,0.6-0.4
						c0-0.2-0.2-0.1-0.3-0.2C36.9,78.9,37,78.7,36.9,78.6z"/>
					<path class="st0" d="M36.3,93.9c-0.2-0.2,0-0.6-0.3-0.8c-0.1,0.1-0.2,0.2-0.3,0.3s-0.3-0.1-0.4,0.1c-0.1,0.2,0.2,0.6,0.3,0.8
						c0.4,0.6,0.4,1.2,0.7,1.7c-0.2,0.1-0.5,0.1-0.7,0.2c0.1,0.2,0.4,0.2,0.4,0.4c0,0.3-0.3,0.1-0.5,0c0,0.1-0.1,0.1-0.1,0.2
						c-0.8-0.1,0.1,0.6,0.1,0.7c-0.1,0-0.6,0-0.6,0.1c-0.1,0.2,0.4,0.2,0.2,0.5c0.1,0,0.3-0.1,0.3-0.1s0.3,0.1,0.2,0.1
						c0.2,0,0.3,0,0.5-0.1c0.3-0.2,0.2,0,0.2-0.4c0-0.2-0.2-0.4,0.1-0.5c0.2,0.1,0.1,0.4,0.2,0.5c0,0.1,0.2,0.1,0.2,0.2
						c0,0.1-0.1,0.2-0.1,0.3c0.2,0.3,0.7,0,0.8-0.3s-0.2-0.7-0.3-1c-0.1-0.4-0.2-0.8-0.3-1.2c-0.1-0.3,0.1-0.6,0-0.8
						c0-0.1-0.2-0.4-0.3-0.6C36.7,94.1,36.4,94,36.3,93.9z"/>
					<path class="st0" d="M36.6,99.3c0.1-0.2,0.4-0.3,0.3-0.5c-0.1-0.1-0.5-0.2-0.6-0.2c-0.2,0-0.5,0.1-0.7,0.1
						c0,0.3,0.5,0.1,0.6,0.4c-0.3,0-0.8,0-0.5,0.4c0.1-0.1,0.3-0.1,0.4-0.1c-0.1,0.3-0.6,0.4-0.2,0.6c-0.4,0.2-0.1,0.3,0.1,0.4
						c0.2,0,0.1,0.1,0.2,0l0.1-0.3C36.4,99.7,36.5,99.4,36.6,99.3z"/>
					<path class="st0" d="M37.9,101c0.2,0.3,0.3-0.3,0.3-0.4c0-0.3-0.2-0.7-0.6-0.7c0,0.1,0,0.2,0,0.3c-0.2,0-0.3-0.1-0.3-0.3
						c-0.3,0.1-0.4,0.1-0.6,0c-0.1,0.3,0.3,0.3,0.5,0.5c-0.1,0.1,0,0.1,0,0.2c0.5,0.1-0.3,0.4-0.1,0.8c-0.5,0-0.3,0.6-0.5,0.8
						c0.3,0.1,0.2-0.3,0.4-0.4c0.2-0.1,0.4,0.1,0.6,0c0.1,0,0.2-0.2,0.2-0.3c0.1-0.1,0.2,0,0.3-0.1C38,101.4,38,101.2,37.9,101z"/>
					<path class="st0" d="M38.2,102.9c0.1-0.2-0.1-0.4-0.4-0.3c0.3-0.7-0.6-0.3-0.5,0.1c-0.1-0.3-0.4,0.2-0.1,0.4
						c0,0,0.1,0.1,0.1,0.2c0.1,0.1,0.2-0.1,0.2,0c0.1,0.1-0.1,0.2,0,0.4c0.1,0.1,0.3,0.2,0.4,0.2c0.3-0.1,0-0.2,0-0.4
						C38.1,103.4,38.8,102.7,38.2,102.9z"/>
					<path class="st0" d="M39.9,102.8c-0.2-0.3-0.2-0.6-0.5-0.8c-0.1-0.1-0.5-0.3-0.5,0c0,0.1,0.5,0.5,0.5,0.5
						c-0.3,0.2-0.6-0.1-0.9-0.1c0,0.5,0.8,0.3,0.9,0.7c-0.2,0.1-0.5,0-0.6,0.1c-0.3,0.2-0.1,0.2,0,0.3c0,0,0.5,0.2,0.4,0.2
						c0.2,0.1,0.3,0,0.5-0.1c0.1,0.2-0.9,1.1,0,0.8c0.1,0.2,0.4,0,0.5-0.2c0.1-0.3-0.1-0.5-0.2-0.7c0-0.1,0-0.2,0-0.4
						C40.1,102.9,40,103,39.9,102.8z"/>
					<path class="st0" d="M40,105.5c0.3,0,0.9,0.1,1,0.4c0.2,0.5-0.9,0.3-0.4,0.6c0.1,0.1,0.4,0,0.5,0.1s0.2,0.2,0.3,0.3
						c0,0,0,0-0.1,0.1c0.3-0.2,0.3,0,0.5,0.1c0.2,0.2,0.3,0.2,0.5,0.3c0.1-0.2,0.1-0.3,0-0.5c0.2-0.1,0.5,0,0.7-0.1
						c0.1,0.4-0.4,0.5-0.4,0.8c0.3-0.1,0.6-0.2,0.9-0.2c0.1,0,0.1,0.1,0.3,0c0.1-0.1,0.1-0.3,0.2-0.4c0.1,0.1,0.2,0.4,0.4,0.5
						c0.4,0.3,0.6,0.4,1.1,0.2c0-0.1,0-0.2,0-0.3c0.2,0,0.3,0,0.5,0c0.1,0.3,0.8,0.2,1.1,0.1c0.5-0.3,0-0.6-0.3-0.7
						c-0.2,0-0.4-0.1-0.6-0.1c-0.2,0-0.4,0.1-0.5,0.1c-0.4,0-0.7-0.1-1.1-0.1c-0.1,0-0.2,0.1-0.3,0.1c0.1-0.1,0.1-0.2,0.1-0.3
						c-0.1,0-0.2,0-0.3-0.1l-0.3-0.2c-0.4-0.1-0.3,0.2-0.6,0.2c0-0.1-0.1-0.2-0.2-0.2c-0.2-0.1-0.1,0-0.3,0c-0.1,0-0.1,0.2-0.2,0.1
						c-0.1,0,0-0.2-0.1-0.3c-0.2-0.3-0.6-0.3-1-0.5s-0.6-0.4-1-0.4c-0.6,0-1.3-0.4-1.9-0.3C38.7,105.4,39.4,105.5,40,105.5z"/>
				</g>
			</g>
		</g>
		<g>
			<path class="st0" d="M68.6,56.4v0.7h-11v-0.7h0.9c1.1,0,1.8-0.3,2.3-0.9c0.3-0.4,0.5-1.4,0.5-2.9V36c0-1.3-0.1-2.2-0.2-2.6
				c-0.1-0.3-0.4-0.6-0.8-0.8c-0.6-0.3-1.1-0.5-1.7-0.5h-0.9v-0.7h11v0.7h-1.1c-1.1,0-1.8,0.3-2.3,0.9c-0.3,0.4-0.5,1.4-0.5,2.9
				v16.7c0,1.3,0.1,2.2,0.2,2.6c0.1,0.3,0.4,0.6,0.8,0.8c0.5,0.3,1.1,0.5,1.7,0.5L68.6,56.4L68.6,56.4z"/>
			<path class="st0" d="M91.7,30.8l0.6,8.7h-0.6c-0.8-2.6-1.9-4.5-3.4-5.7s-3.2-1.7-5.2-1.7c-1.7,0-3.3,0.4-4.6,1.3
				c-1.4,0.9-2.5,2.2-3.3,4.1S74,41.8,74,44.6c0,2.3,0.4,4.3,1.1,6.1c0.7,1.7,1.9,3,3.4,3.9s3.2,1.4,5.1,1.4c1.7,0,3.1-0.4,4.4-1.1
				c1.3-0.7,2.7-2.1,4.2-4.3l0.6,0.4c-1.3,2.3-2.8,4-4.5,5c-1.7,1.1-3.8,1.6-6.1,1.6c-4.3,0-7.6-1.6-9.9-4.7
				c-1.7-2.4-2.6-5.1-2.6-8.3c0-2.6,0.6-4.9,1.7-7.1c1.2-2.2,2.7-3.8,4.8-5c2-1.2,4.2-1.8,6.6-1.8c1.9,0,3.7,0.5,5.5,1.4
				c0.5,0.3,0.9,0.4,1.1,0.4c0.3,0,0.6-0.1,0.9-0.4c0.3-0.3,0.6-0.8,0.7-1.4L91.7,30.8L91.7,30.8z"/>
			<path class="st0" d="M99.3,30.2v12.7c1.4-1.5,2.5-2.5,3.3-3c0.8-0.4,1.6-0.7,2.5-0.7c1,0,1.8,0.3,2.5,0.8s1.2,1.4,1.6,2.6
				c0.2,0.8,0.4,2.3,0.4,4.4v6.1c0,1.1,0.1,1.9,0.3,2.3c0.1,0.3,0.3,0.5,0.6,0.7c0.3,0.2,0.9,0.3,1.7,0.3v0.7h-8.5v-0.7h0.4
				c0.8,0,1.4-0.1,1.7-0.4c0.3-0.2,0.5-0.6,0.7-1.1c0-0.2,0.1-0.8,0.1-1.8V47c0-1.9-0.1-3.1-0.3-3.7c-0.2-0.6-0.5-1-0.9-1.3
				s-0.9-0.4-1.6-0.4c-0.6,0-1.3,0.2-1.9,0.5c-0.7,0.3-1.5,1-2.4,2v9.2c0,1.2,0.1,1.9,0.2,2.2c0.1,0.3,0.4,0.5,0.7,0.7
				c0.4,0.2,1,0.3,1.9,0.3v0.7h-8.6v-0.7c0.8,0,1.4-0.1,1.8-0.4c0.3-0.1,0.5-0.4,0.6-0.7c0.2-0.4,0.2-1.1,0.2-2.2V37.5
				c0-2,0-3.2-0.1-3.7S96,33,95.8,32.9c-0.2-0.2-0.5-0.2-0.8-0.2s-0.7,0.1-1.3,0.3l-0.3-0.7l5.2-2.1L99.3,30.2L99.3,30.2z"/>
			<path class="st0" d="M134.6,30.8l0.6,8.7h-0.6c-0.8-2.6-1.9-4.5-3.4-5.7s-3.2-1.7-5.2-1.7c-1.7,0-3.3,0.4-4.6,1.3
				c-1.4,0.9-2.5,2.2-3.3,4.1s-1.2,4.3-1.2,7.1c0,2.3,0.4,4.3,1.1,6.1c0.7,1.7,1.9,3,3.4,3.9s3.2,1.4,5.1,1.4c1.7,0,3.1-0.4,4.4-1.1
				s2.7-2.1,4.2-4.3l0.6,0.4c-1.3,2.3-2.8,4-4.5,5c-1.7,1.1-3.8,1.6-6.1,1.6c-4.3,0-7.6-1.6-9.9-4.7c-1.7-2.4-2.6-5.1-2.6-8.3
				c0-2.6,0.6-4.9,1.7-7.1c1.2-2.2,2.7-3.8,4.8-5c2-1.2,4.2-1.8,6.6-1.8c1.9,0,3.7,0.5,5.5,1.4c0.5,0.3,0.9,0.4,1.1,0.4
				c0.3,0,0.6-0.1,0.9-0.4s0.6-0.8,0.7-1.4L134.6,30.8L134.6,30.8z"/>
		</g>
		<g>
			<path class="st0" d="M60.7,95.5v0.2h-3.8v-0.2h0.3c0.4,0,0.6-0.1,0.8-0.3c0.1-0.1,0.2-0.5,0.2-1v-5.7c0-0.4,0-0.7-0.1-0.9
				c0-0.1-0.1-0.2-0.3-0.3c-0.2-0.1-0.4-0.2-0.6-0.2h-0.3v-0.2h3.8v0.2h-0.3c-0.4,0-0.6,0.1-0.8,0.3c-0.1,0.1-0.2,0.5-0.2,1v5.7
				c0,0.4,0,0.7,0.1,0.9c0,0.1,0.1,0.2,0.3,0.3s0.4,0.2,0.6,0.2H60.7z"/>
			<path class="st0" d="M60.4,86.9h2.4l5.4,6.6v-5.1c0-0.5-0.1-0.9-0.2-1c-0.2-0.2-0.4-0.3-0.8-0.3h-0.3v-0.2H70v0.2h-0.3
				c-0.4,0-0.6,0.1-0.8,0.3c-0.1,0.1-0.1,0.5-0.1,0.9v7.4h-0.2l-5.8-7.1V94c0,0.5,0.1,0.9,0.2,1c0.2,0.2,0.4,0.3,0.8,0.3h0.3v0.2H61
				v-0.2h0.3c0.4,0,0.6-0.1,0.8-0.3c0.1-0.1,0.1-0.5,0.1-0.9V88c-0.3-0.3-0.5-0.5-0.6-0.6s-0.3-0.2-0.6-0.3c-0.1,0-0.3-0.1-0.6-0.1
				L60.4,86.9L60.4,86.9z"/>
			<path class="st0" d="M76,86.7v3h-0.2c-0.1-0.6-0.2-1-0.4-1.4c-0.2-0.3-0.5-0.6-0.9-0.8c-0.4-0.2-0.8-0.3-1.2-0.3
				c-0.5,0-0.8,0.1-1.1,0.4s-0.4,0.6-0.4,0.9s0.1,0.5,0.3,0.7c0.3,0.3,0.9,0.8,1.9,1.3c0.8,0.4,1.4,0.8,1.7,1s0.5,0.5,0.7,0.8
				s0.2,0.7,0.2,1c0,0.7-0.3,1.2-0.8,1.7s-1.2,0.7-2,0.7c-0.3,0-0.5,0-0.7-0.1c-0.1,0-0.4-0.1-0.8-0.2c-0.4-0.1-0.7-0.2-0.8-0.2
				s-0.2,0-0.3,0.1s-0.1,0.2-0.1,0.4h-0.2v-3h0.2c0.1,0.6,0.3,1.1,0.5,1.4c0.2,0.3,0.5,0.6,0.9,0.8s0.8,0.3,1.3,0.3s1-0.1,1.3-0.4
				c0.3-0.3,0.5-0.6,0.5-1c0-0.2-0.1-0.4-0.2-0.7c-0.1-0.2-0.3-0.4-0.6-0.6c-0.2-0.1-0.6-0.4-1.4-0.8c-0.8-0.4-1.3-0.8-1.6-1
				c-0.3-0.3-0.6-0.5-0.7-0.8c-0.2-0.3-0.2-0.6-0.2-1c0-0.6,0.2-1.2,0.7-1.6c0.5-0.5,1.1-0.7,1.9-0.7c0.5,0,1,0.1,1.5,0.3
				c0.2,0.1,0.4,0.2,0.5,0.2s0.2,0,0.3-0.1S75.9,86.8,76,86.7L76,86.7L76,86.7z"/>
			<path class="st0" d="M84.6,86.9l0.1,2.1h-0.2c0-0.4-0.1-0.6-0.2-0.8c-0.1-0.3-0.3-0.4-0.5-0.6c-0.2-0.1-0.5-0.2-0.9-0.2h-1.2v6.7
				c0,0.5,0.1,0.9,0.2,1c0.2,0.2,0.4,0.3,0.8,0.3H83v0.2h-3.7v-0.2h0.3c0.4,0,0.6-0.1,0.8-0.3c0.1-0.1,0.1-0.5,0.1-0.9v-6.7h-1.1
				c-0.4,0-0.7,0-0.9,0.1s-0.4,0.2-0.6,0.5c-0.2,0.2-0.3,0.5-0.3,0.9h-0.2l0.1-2.1C77.5,86.9,84.6,86.9,84.6,86.9z"/>
			<path class="st0" d="M88.7,95.5v0.2h-3.8v-0.2h0.3c0.4,0,0.6-0.1,0.8-0.3c0.1-0.1,0.2-0.5,0.2-1v-5.7c0-0.4,0-0.7-0.1-0.9
				c0-0.1-0.1-0.2-0.3-0.3c-0.2-0.1-0.4-0.2-0.6-0.2h-0.3v-0.2h3.8v0.2h-0.3c-0.4,0-0.6,0.1-0.8,0.3c-0.1,0.1-0.2,0.5-0.2,1v5.7
				c0,0.4,0,0.7,0.1,0.9c0,0.1,0.1,0.2,0.3,0.3s0.4,0.2,0.6,0.2H88.7z"/>
			<path class="st0" d="M96.4,86.9l0.1,2.1h-0.2c0-0.4-0.1-0.6-0.2-0.8c-0.1-0.3-0.3-0.4-0.5-0.6c-0.2-0.1-0.5-0.2-0.9-0.2h-1.2v6.7
				c0,0.5,0.1,0.9,0.2,1c0.2,0.2,0.4,0.3,0.8,0.3h0.3v0.2h-3.7v-0.2h0.3c0.4,0,0.6-0.1,0.8-0.3c0.1-0.1,0.1-0.5,0.1-0.9v-6.7h-1.1
				c-0.4,0-0.7,0-0.9,0.1s-0.4,0.2-0.6,0.5c-0.2,0.2-0.3,0.5-0.3,0.9h-0.2l0.1-2.1C89.3,86.9,96.4,86.9,96.4,86.9z"/>
			<path class="st0" d="M102.8,87.2V87h3.1v0.2h-0.3c-0.3,0-0.6,0.1-0.8,0.4c-0.1,0.1-0.1,0.4-0.1,0.9v3.6c0,0.9-0.1,1.6-0.3,2.1
				s-0.5,0.9-1,1.3c-0.5,0.3-1.2,0.5-2.1,0.5c-1,0-1.7-0.2-2.2-0.5s-0.9-0.8-1.1-1.3c-0.1-0.4-0.2-1.1-0.2-2.2v-3.4
				c0-0.5-0.1-0.9-0.2-1.1c-0.1-0.2-0.4-0.3-0.7-0.3h-0.3V87h3.8v0.2h-0.3c-0.4,0-0.6,0.1-0.8,0.3c-0.1,0.2-0.2,0.5-0.2,1v3.8
				c0,0.3,0,0.7,0.1,1.2c0.1,0.4,0.2,0.8,0.3,1c0.2,0.2,0.4,0.4,0.7,0.6c0.3,0.2,0.7,0.2,1.1,0.2c0.6,0,1.1-0.1,1.5-0.4
				c0.5-0.3,0.8-0.6,0.9-1c0.2-0.4,0.3-1.1,0.3-2v-3.6c0-0.5-0.1-0.9-0.2-1c-0.2-0.2-0.4-0.3-0.8-0.3h-0.2V87.2z"/>
			<path class="st0" d="M113.4,86.9l0.1,2.1h-0.2c0-0.4-0.1-0.6-0.2-0.8c-0.1-0.3-0.3-0.4-0.5-0.6c-0.2-0.1-0.5-0.2-0.9-0.2h-1.2
				v6.7c0,0.5,0.1,0.9,0.2,1c0.2,0.2,0.4,0.3,0.8,0.3h0.3v0.2h-3.7v-0.2h0.3c0.4,0,0.6-0.1,0.8-0.3c0.1-0.1,0.1-0.5,0.1-0.9v-6.7
				h-1.1c-0.4,0-0.7,0-0.9,0.1c-0.2,0.1-0.4,0.2-0.6,0.5c-0.2,0.2-0.3,0.5-0.3,0.9h-0.2l0.1-2.1C106.3,86.9,113.4,86.9,113.4,86.9z"
				/>
			<path class="st0" d="M118.1,86.7c1.1,0,2.1,0.4,3,1.3c0.8,0.9,1.3,1.9,1.3,3.2c0,1.3-0.4,2.4-1.3,3.3c-0.8,0.9-1.9,1.3-3.1,1.3
				s-2.2-0.4-3.1-1.3s-1.2-2-1.2-3.3c0-1.4,0.5-2.5,1.4-3.4C115.9,87.1,116.9,86.7,118.1,86.7z M117.9,87.2c-0.8,0-1.4,0.3-1.9,0.9
				c-0.6,0.7-0.9,1.8-0.9,3.2s0.3,2.5,0.9,3.3c0.5,0.6,1.1,0.9,1.9,0.9s1.5-0.3,2.1-1c0.5-0.6,0.8-1.7,0.8-3c0-1.5-0.3-2.6-0.9-3.4
				C119.4,87.5,118.8,87.2,117.9,87.2z"/>
			<path class="st0" d="M133.4,86.7l0.2,3h-0.2c-0.3-0.9-0.7-1.5-1.2-1.9s-1.1-0.6-1.8-0.6c-0.6,0-1.1,0.1-1.6,0.4s-0.8,0.8-1.1,1.4
				c-0.3,0.6-0.4,1.5-0.4,2.4c0,0.8,0.1,1.5,0.4,2.1s0.6,1,1.2,1.3c0.5,0.3,1.1,0.5,1.8,0.5c0.6,0,1.1-0.1,1.5-0.4
				c0.4-0.2,0.9-0.7,1.4-1.5l0.2,0.1c-0.4,0.8-1,1.4-1.5,1.7c-0.6,0.4-1.3,0.5-2.1,0.5c-1.5,0-2.6-0.5-3.4-1.6
				c-0.6-0.8-0.9-1.7-0.9-2.8c0-0.9,0.2-1.7,0.6-2.4c0.4-0.7,0.9-1.3,1.6-1.7c0.7-0.4,1.4-0.6,2.3-0.6c0.6,0,1.3,0.2,1.9,0.5
				c0.2,0.1,0.3,0.1,0.4,0.1s0.2,0,0.3-0.1c0.1-0.1,0.2-0.3,0.2-0.5L133.4,86.7L133.4,86.7z"/>
			<path class="st0" d="M136.6,91h4.1v-2.5c0-0.4,0-0.7-0.1-0.9c0-0.1-0.1-0.2-0.3-0.3c-0.2-0.1-0.4-0.2-0.6-0.2h-0.3v-0.2h3.8v0.2
				h-0.3c-0.2,0-0.4,0-0.6,0.1c-0.1,0.1-0.2,0.2-0.3,0.3c0,0.1-0.1,0.4-0.1,0.9v5.7c0,0.4,0,0.7,0.1,0.9c0,0.1,0.1,0.2,0.3,0.3
				c0.2,0.1,0.4,0.2,0.6,0.2h0.3v0.2h-3.8v-0.2h0.3c0.4,0,0.6-0.1,0.8-0.3c0.1-0.1,0.2-0.5,0.2-1v-2.7h-4.1v2.7c0,0.4,0,0.7,0.1,0.9
				c0,0.1,0.1,0.2,0.3,0.3c0.2,0.1,0.4,0.2,0.6,0.2h0.3v0.2h-3.8v-0.2h0.3c0.4,0,0.6-0.1,0.8-0.3c0.1-0.1,0.2-0.5,0.2-1v-5.7
				c0-0.4,0-0.7-0.1-0.9c0-0.1-0.1-0.2-0.3-0.3c-0.2-0.1-0.4-0.2-0.6-0.2h-0.3V87h3.8v0.2h-0.3c-0.2,0-0.4,0-0.6,0.1
				c-0.1,0.1-0.2,0.2-0.3,0.3c-0.1,0.1-0.1,0.4-0.1,0.9V91z"/>
			<path class="st0" d="M147.2,95.5v0.2h-3.8v-0.2h0.3c0.4,0,0.6-0.1,0.8-0.3c0.1-0.1,0.2-0.5,0.2-1v-5.7c0-0.4,0-0.7-0.1-0.9
				c0-0.1-0.1-0.2-0.3-0.3c-0.2-0.1-0.4-0.2-0.6-0.2h-0.3v-0.2h3.8v0.2h-0.3c-0.4,0-0.6,0.1-0.8,0.3c-0.1,0.1-0.2,0.5-0.2,1v5.7
				c0,0.4,0,0.7,0.1,0.9c0,0.1,0.1,0.2,0.3,0.3c0.2,0.1,0.4,0.2,0.6,0.2H147.2z"/>
			<path class="st0" d="M154.8,93.3h0.2l-0.8,2.4h-6.8v-0.2h0.3c0.4,0,0.6-0.1,0.8-0.4c0.1-0.1,0.1-0.5,0.1-1v-5.7
				c0-0.5-0.1-0.9-0.2-1c-0.2-0.2-0.4-0.3-0.8-0.3h-0.3v-0.2h4v0.2c-0.5,0-0.8,0-1,0.1s-0.3,0.2-0.4,0.3c-0.1,0.1-0.1,0.5-0.1,1V94
				c0,0.4,0,0.6,0.1,0.7c0.1,0.1,0.1,0.2,0.2,0.2s0.4,0.1,1,0.1h0.6c0.7,0,1.2,0,1.4-0.1c0.3-0.1,0.5-0.3,0.7-0.5
				C154.3,94.2,154.6,93.8,154.8,93.3z"/>
			<path class="st0" d="M157.7,87.4v3.5h1.9c0.5,0,0.8-0.1,1-0.2c0.2-0.2,0.4-0.5,0.4-1h0.2v3.1H161c-0.1-0.4-0.1-0.7-0.2-0.8
				c-0.1-0.2-0.2-0.3-0.4-0.4c-0.2-0.1-0.5-0.1-0.8-0.1h-1.9v2.9c0,0.4,0,0.6,0.1,0.7c0,0.1,0.1,0.2,0.2,0.2s0.3,0.1,0.5,0.1h1.5
				c0.5,0,0.9,0,1.1-0.1s0.4-0.2,0.7-0.4c0.3-0.3,0.5-0.7,0.8-1.2h0.3l-0.8,2.2h-6.8v-0.2h0.3c0.2,0,0.4,0,0.6-0.1
				c0.1-0.1,0.2-0.2,0.3-0.3c0-0.1,0.1-0.4,0.1-0.8v-5.7c0-0.6-0.1-0.9-0.2-1c-0.2-0.2-0.4-0.3-0.8-0.3h-0.3v-0.2h6.8l0.1,1.9h-0.3
				c-0.1-0.5-0.2-0.8-0.3-1c-0.1-0.2-0.3-0.3-0.5-0.4s-0.5-0.1-0.9-0.1h-2.5V87.4z"/>
			<path class="st0" d="M162.5,86.9h2.4l5.4,6.6v-5.1c0-0.5-0.1-0.9-0.2-1c-0.2-0.2-0.4-0.3-0.8-0.3H169v-0.2h3.1v0.2h-0.3
				c-0.4,0-0.6,0.1-0.8,0.3c-0.1,0.1-0.1,0.5-0.1,0.9v7.4h-0.2l-5.8-7.1V94c0,0.5,0.1,0.9,0.2,1c0.2,0.2,0.4,0.3,0.8,0.3h0.3v0.2
				h-3.1v-0.2h0.3c0.4,0,0.6-0.1,0.8-0.3c0.1-0.1,0.1-0.5,0.1-0.9V88c-0.3-0.3-0.4-0.5-0.6-0.6c-0.1-0.1-0.3-0.2-0.6-0.3
				c-0.1,0-0.3-0.1-0.6-0.1L162.5,86.9L162.5,86.9z"/>
			<path class="st0" d="M176.8,86.7c1.1,0,2.1,0.4,3,1.3c0.8,0.9,1.3,1.9,1.3,3.2c0,1.3-0.4,2.4-1.3,3.3c-0.8,0.9-1.9,1.3-3.1,1.3
				s-2.2-0.4-3.1-1.3c-0.8-0.9-1.2-2-1.2-3.3c0-1.4,0.5-2.5,1.4-3.4C174.6,87.1,175.6,86.7,176.8,86.7z M176.6,87.2
				c-0.8,0-1.4,0.3-1.9,0.9c-0.6,0.7-0.9,1.8-0.9,3.2s0.3,2.5,0.9,3.3c0.5,0.6,1.1,0.9,1.9,0.9s1.5-0.3,2.1-1c0.5-0.6,0.8-1.7,0.8-3
				c0-1.5-0.3-2.6-0.9-3.4C178.1,87.5,177.5,87.2,176.6,87.2z"/>
			<path class="st0" d="M184.3,95.7v-0.2h0.3c0.4,0,0.6-0.1,0.8-0.4c0.1-0.1,0.1-0.5,0.1-1v-5.7c0-0.5-0.1-0.9-0.2-1
				c-0.2-0.2-0.4-0.3-0.8-0.3h-0.3v-0.2h3.6c1.3,0,2.3,0.1,3,0.4s1.2,0.8,1.7,1.5c0.4,0.7,0.6,1.5,0.6,2.4c0,1.2-0.4,2.2-1.1,3.1
				c-0.8,0.9-2.1,1.4-3.8,1.4L184.3,95.7L184.3,95.7z M186.8,95.1c0.6,0.1,1,0.2,1.4,0.2c1,0,1.8-0.4,2.5-1.1c0.7-0.7,1-1.7,1-2.9
				c0-1.2-0.3-2.2-1-2.9c-0.7-0.7-1.5-1-2.6-1c-0.4,0-0.8,0.1-1.3,0.2V95.1z"/>
			<path class="st0" d="M196.1,87.4v3.5h1.9c0.5,0,0.8-0.1,1-0.2c0.2-0.2,0.4-0.5,0.4-1h0.2v3.1h-0.2c-0.1-0.4-0.1-0.7-0.2-0.8
				c-0.1-0.2-0.2-0.3-0.4-0.4c-0.2-0.1-0.5-0.1-0.8-0.1h-1.9v2.9c0,0.4,0,0.6,0.1,0.7c0,0.1,0.1,0.2,0.2,0.2s0.3,0.1,0.5,0.1h1.5
				c0.5,0,0.9,0,1.1-0.1s0.4-0.2,0.7-0.4c0.3-0.3,0.5-0.7,0.8-1.2h0.3l-0.8,2.2h-6.8v-0.2h0.3c0.2,0,0.4,0,0.6-0.1
				c0.1-0.1,0.2-0.2,0.3-0.3c0-0.1,0.1-0.4,0.1-0.8v-5.7c0-0.6-0.1-0.9-0.2-1c-0.2-0.2-0.4-0.3-0.8-0.3h-0.3v-0.2h6.8l0.1,1.9h-0.3
				c-0.1-0.5-0.2-0.8-0.3-1c-0.1-0.2-0.3-0.3-0.5-0.4s-0.5-0.1-0.9-0.1h-2.5V87.4z"/>
			<path class="st0" d="M212,86.7l0.2,3H212c-0.3-0.9-0.7-1.5-1.2-1.9s-1.1-0.6-1.8-0.6c-0.6,0-1.1,0.1-1.6,0.4s-0.8,0.8-1.1,1.4
				s-0.4,1.5-0.4,2.4c0,0.8,0.1,1.5,0.4,2.1s0.6,1,1.2,1.3c0.5,0.3,1.1,0.5,1.8,0.5c0.6,0,1.1-0.1,1.5-0.4c0.4-0.2,0.9-0.7,1.4-1.5
				l0.2,0.1c-0.4,0.8-1,1.4-1.5,1.7c-0.6,0.4-1.3,0.5-2.1,0.5c-1.5,0-2.6-0.5-3.4-1.6c-0.6-0.8-0.9-1.7-0.9-2.8
				c0-0.9,0.2-1.7,0.6-2.4c0.4-0.7,0.9-1.3,1.6-1.7c0.7-0.4,1.4-0.6,2.3-0.6c0.6,0,1.3,0.2,1.9,0.5c0.2,0.1,0.3,0.1,0.4,0.1
				s0.2,0,0.3-0.1c0.1-0.1,0.2-0.3,0.2-0.5L212,86.7L212,86.7z"/>
			<path class="st0" d="M217.4,86.7c1.1,0,2.1,0.4,3,1.3c0.8,0.9,1.3,1.9,1.3,3.2c0,1.3-0.4,2.4-1.3,3.3c-0.8,0.9-1.9,1.3-3.1,1.3
				s-2.2-0.4-3.1-1.3s-1.2-2-1.2-3.3c0-1.4,0.5-2.5,1.4-3.4C215.2,87.1,216.2,86.7,217.4,86.7z M217.3,87.2c-0.8,0-1.4,0.3-1.9,0.9
				c-0.6,0.7-0.9,1.8-0.9,3.2s0.3,2.5,0.9,3.3c0.5,0.6,1.1,0.9,1.9,0.9s1.5-0.3,2.1-1c0.5-0.6,0.8-1.7,0.8-3c0-1.5-0.3-2.6-0.9-3.4
				C218.8,87.5,218.1,87.2,217.3,87.2z"/>
			<path class="st0" d="M227.9,86.7v3h-0.2c-0.1-0.6-0.2-1-0.4-1.4c-0.2-0.3-0.5-0.6-0.9-0.8c-0.4-0.2-0.8-0.3-1.2-0.3
				c-0.5,0-0.8,0.1-1.1,0.4c-0.3,0.3-0.4,0.6-0.4,0.9s0.1,0.5,0.3,0.7c0.3,0.3,0.9,0.8,1.9,1.3c0.8,0.4,1.4,0.8,1.7,1
				c0.3,0.2,0.5,0.5,0.7,0.8s0.2,0.7,0.2,1c0,0.7-0.3,1.2-0.8,1.7s-1.2,0.7-2,0.7c-0.3,0-0.5,0-0.7-0.1c-0.1,0-0.4-0.1-0.8-0.2
				c-0.4-0.1-0.7-0.2-0.8-0.2c-0.1,0-0.2,0-0.3,0.1c-0.1,0.1-0.1,0.2-0.1,0.4h-0.2v-3h0.2c0.1,0.6,0.3,1.1,0.5,1.4
				c0.2,0.3,0.5,0.6,0.9,0.8s0.8,0.3,1.3,0.3s1-0.1,1.3-0.4c0.3-0.3,0.5-0.6,0.5-1c0-0.2-0.1-0.4-0.2-0.7c-0.1-0.2-0.3-0.4-0.6-0.6
				c-0.2-0.1-0.6-0.4-1.4-0.8s-1.3-0.8-1.6-1c-0.3-0.3-0.6-0.5-0.7-0.8c-0.2-0.3-0.2-0.6-0.2-1c0-0.6,0.2-1.2,0.7-1.6
				c0.5-0.5,1.1-0.7,1.9-0.7c0.5,0,1,0.1,1.5,0.3c0.2,0.1,0.4,0.2,0.5,0.2s0.2,0,0.3-0.1C227.8,86.9,227.8,86.8,227.9,86.7
				L227.9,86.7L227.9,86.7z"/>
			<path class="st0" d="M236.5,86.9l0.1,2.1h-0.2c0-0.4-0.1-0.6-0.2-0.8c-0.1-0.3-0.3-0.4-0.5-0.6c-0.2-0.1-0.5-0.2-0.9-0.2h-1.2
				v6.7c0,0.5,0.1,0.9,0.2,1c0.2,0.2,0.4,0.3,0.8,0.3h0.3v0.2h-3.7v-0.2h0.3c0.4,0,0.6-0.1,0.8-0.3c0.1-0.1,0.1-0.5,0.1-0.9v-6.7
				h-1.1c-0.4,0-0.7,0-0.9,0.1c-0.2,0.1-0.4,0.2-0.6,0.5c-0.2,0.2-0.3,0.5-0.3,0.9h-0.2l0.1-2.1C229.4,86.9,236.5,86.9,236.5,86.9z"
				/>
			<path class="st0" d="M241.2,86.7c1.1,0,2.1,0.4,3,1.3c0.8,0.9,1.3,1.9,1.3,3.2c0,1.3-0.4,2.4-1.3,3.3c-0.8,0.9-1.9,1.3-3.1,1.3
				s-2.2-0.4-3.1-1.3s-1.2-2-1.2-3.3c0-1.4,0.5-2.5,1.4-3.4C239,87.1,240,86.7,241.2,86.7z M241,87.2c-0.8,0-1.4,0.3-1.9,0.9
				c-0.6,0.7-0.9,1.8-0.9,3.2s0.3,2.5,0.9,3.3c0.5,0.6,1.1,0.9,1.9,0.9s1.5-0.3,2.1-1c0.5-0.6,0.8-1.7,0.8-3c0-1.5-0.3-2.6-0.9-3.4
				C242.5,87.5,241.9,87.2,241,87.2z"/>
			<path class="st0" d="M251.6,86.7v3h-0.2c-0.1-0.6-0.2-1-0.4-1.4c-0.2-0.3-0.5-0.6-0.9-0.8c-0.4-0.2-0.8-0.3-1.2-0.3
				c-0.5,0-0.8,0.1-1.1,0.4c-0.3,0.3-0.4,0.6-0.4,0.9s0.1,0.5,0.3,0.7c0.3,0.3,0.9,0.8,1.9,1.3c0.8,0.4,1.4,0.8,1.7,1
				c0.3,0.2,0.5,0.5,0.7,0.8s0.2,0.7,0.2,1c0,0.7-0.3,1.2-0.8,1.7s-1.2,0.7-2,0.7c-0.3,0-0.5,0-0.7-0.1c-0.1,0-0.4-0.1-0.8-0.2
				c-0.4-0.1-0.7-0.2-0.8-0.2c-0.1,0-0.2,0-0.3,0.1c-0.1,0.1-0.1,0.2-0.1,0.4h-0.2v-3h0.2c0.1,0.6,0.3,1.1,0.5,1.4
				c0.2,0.3,0.5,0.6,0.9,0.8s0.8,0.3,1.3,0.3s1-0.1,1.3-0.4c0.3-0.3,0.5-0.6,0.5-1c0-0.2-0.1-0.4-0.2-0.7c-0.1-0.2-0.3-0.4-0.6-0.6
				c-0.2-0.1-0.6-0.4-1.4-0.8s-1.3-0.8-1.6-1c-0.3-0.3-0.6-0.5-0.7-0.8c-0.2-0.3-0.2-0.6-0.2-1c0-0.6,0.2-1.2,0.7-1.6
				c0.5-0.5,1.1-0.7,1.9-0.7c0.5,0,1,0.1,1.5,0.3c0.2,0.1,0.4,0.2,0.5,0.2s0.2,0,0.3-0.1C251.5,86.9,251.5,86.8,251.6,86.7
				L251.6,86.7L251.6,86.7z"/>
		</g>
		<rect x="56.2" y="71.2" class="st0" width="216.2" height="2.2"/>
	</g>
</g>
</svg>
