<?xml version="1.0" encoding="utf-8"?>
<!-- Generator: Adobe Illustrator 27.5.0, SVG Export Plug-In . SVG Version: 6.00 Build 0)  -->
<svg version="1.1" id="Capa_1" xmlns="http://www.w3.org/2000/svg" xmlns:xlink="http://www.w3.org/1999/xlink" x="0px" y="0px"
	 viewBox="0 0 1355 200" style="enable-background:new 0 0 1355 200;" xml:space="preserve">
<style type="text/css">
	.st0{fill:url(#SVGID_1_);}
	.st1{fill-rule:evenodd;clip-rule:evenodd;fill:#FFFFFF;fill:url(#SVGID_1_);}
</style>
<g>
	<path class="st0" d="M881.3,151c-0.4-0.1-0.7-0.2-1.2-0.2c-3.2-0.6-5.5-3.4-5.5-6.6c0-0.2,0-0.3,0-0.5c0-28.9,0-57.8,0-86.7
		c0-0.9,0.1-1.9,0.4-2.7c1-2.7,3.6-4.5,6.5-4.5c1.9,0,3.8,0,5.6,0c0.2,0,0.3,0,0.5,0c0.1,0.5,0.2,3.5,0,4.5c-0.2,0-0.4,0-0.7,0
		c-1.7,0-3.4,0-5.1,0c-1.4,0-2.8,0.9-2.7,2.7c0,1,0,2,0,3.1c0,27.7,0,55.5,0,83.2c0,0.2,0,0.5,0,0.7c0,1.5,1,2.5,2.5,2.5
		c1.8,0,3.6,0,5.3,0c0.2,0,0.5,0,0.7,0c0,0.2,0,0.4,0,0.5c0,1.2,0,2.3,0,3.5c0,0.2-0.1,0.4-0.1,0.6C885.4,151,883.4,151,881.3,151z"
		/>
		 

		<radialGradient id="SVGID_1_" gradientUnits="userSpaceOnUse" x1="50%" y1="0%" x2="50%" y2="100%" >
		<stop offset="0%" stop-color="#93A5CF">
                <animate attributeName="stop-color" values="#93A5CF; #E4EFE9; #93A5CF" dur="6s" repeatCount="indefinite"></animate>
            </stop>

            <stop offset="100%" stop-color="#E4EFE9">
                <animate attributeName="stop-color" values="#E4EFE9; #93A5CF; #E4EFE9" dur="6s" repeatCount="indefinite"></animate>
            </stop>
	</radialGradient>
	<path class="st0" d="M1340.7,133.4c-0.2,0.7-0.5,1.2-1.2,1.5c-1.4,0.7-3.1,0.2-3.5-1.6c-0.6-3,1.6-4.9,3.7-5.1
		c0.1,0.1,0.2,0.3,0.3,0.4c0.1,0.1,0.2,0.3,0.3,0.5c-1.9,0.7-2.2,0.8-2.6,1.9c0.1,0,0.3-0.1,0.4-0.1c0.4,0,0.9-0.1,1.3,0
		c0.7,0.1,1.1,0.7,1.3,1.4C1340.7,132.7,1340.7,133.1,1340.7,133.4z M1337.4,132.7c0,0,0,0.1,0,0.2c0,0.4,0.2,0.8,0.7,1
		c0.3,0.1,0.6,0,0.8-0.2c0.3-0.4,0.3-0.8,0.2-1.3c0,0,0-0.1,0-0.1c-0.2-0.4-0.6-0.5-1.2-0.4C1337.5,132.1,1337.4,132.2,1337.4,132.7
		z"/>
	<path class="st0" d="M898.9,102.2c0.4-11,0.8-21.9,1.3-32.8c11.1,0,22.2,0,33.3,0c0.1,0.5,0,10.2-0.2,11.4c-7,0-14,0-21,0
		c-0.1,3.9-0.3,7.6-0.4,11.4c0.2,0,0.4,0,0.6,0c2.9-0.1,5.8,0,8.7,0.4c2.3,0.3,4.5,0.9,6.6,2c3.8,2,6.4,5,7.6,9.1
		c1.5,4.8,1.4,9.6-0.3,14.4c-1.9,5.2-5.6,8.8-10.7,10.9c-2.9,1.2-5.9,1.8-9.1,2c-4.3,0.2-8.5-0.1-12.6-1.2c-1.9-0.5-3.7-1.1-5.4-1.9
		c-0.1,0-0.3-0.1-0.5-0.2c0.4-3.9,0.9-7.6,1.3-11.6c0.2,0.1,0.4,0.2,0.6,0.3c3,2,6.4,3.2,10,3.6c2.5,0.3,5,0.1,7.4-0.7
		c3.5-1.3,5.5-4,5.6-7.7c0-0.8,0-1.8-0.2-2.6c-0.4-2-1.5-3.4-3.1-4.6c-1.7-1.2-3.6-1.8-5.5-2.1c-3.8-0.6-7.6-0.5-11.4-0.3
		C900.5,102.1,899.7,102.2,898.9,102.2z"/>
	<path class="st0" d="M788.6,97.9c5.2-11.7,10.5-23.4,15.7-35.1c2.9,0,5.9,0,8.8,0c3.6,7.9,7.1,15.9,10.6,23.8
		c-2.2,1.8-4.3,3.5-6.5,5.2c-2.8-6.4-5.7-12.7-8.6-19.2c-0.1,0.3-0.2,0.5-0.3,0.7c-3.6,7.9-7.1,15.9-10.6,23.8
		c0,0.1-0.1,0.3-0.2,0.5c-0.1,0.2-0.2,0.3-0.5,0.3c-2.7,0-5.5,0-8.2,0C788.7,98,788.7,98,788.6,97.9z"/>
	<path class="st0" d="M980.3,121c0-4.9,0-9.8,0-14.7c1.7,0,3.3,0,5,0c0,7.5,0,15.1,0,22.7c-0.2,0-0.3,0-0.5,0c-1.2,0-2.5,0-3.8,0
		c-0.3,0-0.5-0.1-0.7-0.4c-3.3-4.5-6.7-9-10-13.4c-0.3-0.4-0.5-0.8-0.7-1.3c0,5,0,10,0,15c-0.4,0.1-4,0.2-4.9,0c0-7.5,0-15,0-22.6
		c0.2,0,0.3,0,0.5,0c1.3,0,2.7,0,4,0c0.4,0,0.6,0.1,0.8,0.4c3.1,4.4,6.3,8.7,9.5,13.1C979.8,120.1,980,120.5,980.3,121z"/>
	<path class="st0" d="M988.9,117.9c0-2.2,0.4-4.3,1.4-6.2c1.6-3.2,4.2-5,7.6-5.7c1.9-0.4,3.8-0.3,5.6,0.2c3.3,0.9,5.6,3,6.8,6.2
		c1.2,3.4,1.2,6.9-0.1,10.3c-1.7,4.2-4.9,6.4-9.5,6.7c-1.7,0.1-3.4,0-5-0.7c-3.3-1.3-5.3-3.8-6.3-7.1
		C989,120.3,988.9,119.1,988.9,117.9z M994.5,117.9c0,0.3,0,0.8,0.1,1.3c0.2,1.4,0.6,2.7,1.4,3.8c1.9,2.5,5.5,2.7,7.7,0.3
		c0.6-0.7,1-1.5,1.3-2.3c0.7-2.3,0.6-4.7-0.2-7c-0.2-0.7-0.6-1.4-1.2-2c-1.2-1.4-2.8-1.9-4.6-1.6c-1.8,0.3-2.9,1.4-3.7,3
		C994.7,114.8,994.5,116.2,994.5,117.9z"/>
	<path class="st0" d="M947.8,106.2c2,0,4,0,6.1,0c2.7,7.5,5.3,15.1,8,22.7c-2,0-3.9,0-6,0c-0.6-1.8-1.2-3.7-1.8-5.5
		c-2.3,0-4.6,0-6.9,0c-0.6,1.9-1.2,3.7-1.7,5.5c-2,0-3.9,0-5.9,0C942.5,121.4,945.3,113.8,947.8,106.2z M953.1,119.6
		c-0.2-0.6-0.3-1.2-0.5-1.7c-0.7-2.3-1.5-4.5-2-6.8c-0.8,2.8-1.6,5.6-2.5,8.5C949.9,119.6,951.4,119.6,953.1,119.6z"/>
	<path class="st0" d="M1027.5,106.8c-0.3,1.5-0.5,3.1-0.8,4.7c-0.2-0.1-0.4-0.3-0.6-0.4c-1.4-0.8-2.9-1.3-4.6-1
		c-1.6,0.2-2.4,1.5-2.1,3c0.1,0.6,0.4,1.1,0.9,1.4c0.5,0.3,1.1,0.6,1.7,0.8c0.8,0.4,1.6,0.7,2.4,1c0.9,0.4,1.7,0.9,2.4,1.7
		c0.9,0.9,1.4,2,1.5,3.3c0.3,3.9-1.9,6.8-5.7,7.7c-3,0.7-5.9,0.3-8.8-1c-0.1,0-0.1-0.1-0.3-0.2c0.1-1.6,0.3-3.1,0.4-4.8
		c0.3,0.2,0.5,0.3,0.7,0.5c1.4,0.9,3,1.6,4.7,1.6c0.4,0,0.9,0,1.3-0.2c0.9-0.3,1.4-0.9,1.6-1.9c0.1-0.9-0.1-1.7-0.9-2.2
		c-0.7-0.4-1.3-0.7-2-1.1c-0.7-0.3-1.4-0.6-2-0.9c-0.6-0.3-1.1-0.7-1.6-1.1c-1.3-1-1.9-2.4-2-4c-0.2-3.9,2-6.9,5.9-7.7
		c2.6-0.6,5.2-0.2,7.6,0.6C1027.3,106.7,1027.3,106.8,1027.5,106.8z"/>
	<path class="st0" d="M1065.9,97.8c0-6.1,0-12.1,0-18.2c0.1,0,0.2-0.1,0.4-0.1c2.4,0,4.8,0,7.3,0c1.3,0,2.5,0.2,3.7,0.7
		c2.1,0.8,3.6,2.4,4.3,4.6c0.7,2.1,0.7,4.2,0.2,6.3c-0.8,3.1-2.8,5.1-5.9,6.1c-1.2,0.4-2.5,0.6-3.8,0.6c-1.9,0-3.8,0-5.7,0
		C1066.2,97.8,1066.1,97.8,1065.9,97.8z M1070.3,83.1c0,3.8,0,7.5,0,11.3c0.8,0,1.7,0,2.5,0c2.3-0.2,3.9-1.6,4.5-3.8
		c0.3-1.2,0.3-2.5,0-3.8c-0.5-2.2-1.8-3.4-4-3.7C1072.4,82.9,1071.4,83.1,1070.3,83.1z"/>
	<path class="st0" d="M1006.8,97.8c0-6.1,0-12.1,0-18.2c0.1,0,0.2,0,0.4,0c2.4,0,4.8,0,7.3,0c1.3,0,2.5,0.2,3.7,0.7
		c2.2,0.8,3.6,2.4,4.3,4.6c0.7,2.2,0.7,4.4,0,6.6c-0.9,2.9-2.9,4.8-5.9,5.8c-1.2,0.4-2.4,0.6-3.6,0.6c-2,0-3.9,0-5.9,0
		C1007.1,97.8,1007,97.8,1006.8,97.8z M1011.2,94.4c0.9,0,1.8,0,2.7,0c2-0.2,3.4-1.2,4.1-3.1c0.7-1.7,0.7-3.4,0.1-5.1
		c-0.5-1.5-1.6-2.5-3.1-2.9c-1.2-0.3-2.5-0.2-3.8-0.2C1011.2,86.8,1011.2,90.6,1011.2,94.4z"/>
	<path class="st0" d="M980.1,97.8c-1.5,0-2.9,0-4.4,0c0-6.1,0-12.1,0-18.3c0.5,0,0.9,0,1.3,0c2.2,0,4.5,0,6.7,0
		c0.6,0,1.3,0.1,1.9,0.3c2.2,0.6,3.4,2.1,3.5,4.4c0.1,2.5-0.9,4.4-3.2,5.5c-0.1,0-0.1,0.1-0.3,0.1c1.5,2.7,3.1,5.3,4.7,7.9
		c-0.5,0.1-3.9,0.2-5,0.1c-0.1-0.1-0.2-0.3-0.2-0.4c-1-2-2.1-3.9-3.1-5.9c-0.2-0.4-0.5-0.6-0.9-0.6c-0.2,0-0.5,0-0.8,0
		c-0.1,1.2,0,2.3,0,3.4C980,95.4,980.1,96.6,980.1,97.8z M980,87.6c0.7,0,1.5,0,2.1,0c0.5,0,0.9-0.2,1.4-0.5c0.9-0.6,1.2-1.5,1-2.6
		c-0.1-0.9-0.7-1.5-1.8-1.7c-0.9-0.2-1.8,0-2.7-0.1C980,84.4,980,86,980,87.6z"/>
	<path class="st0" d="M945.9,93.4c-0.5,1.5-0.9,2.9-1.4,4.4c-1.6,0-3.2,0-4.7,0c2.2-6.1,4.5-12.2,6.7-18.3c1.6,0,3.2,0,4.8,0
		c2.1,6.1,4.3,12.2,6.5,18.3c-1.6,0-3.2,0-4.8,0c-0.5-1.5-1-2.9-1.5-4.4C949.5,93.4,947.7,93.4,945.9,93.4z M950.5,90.2
		c-0.7-2.3-1.4-4.5-2-6.6c-0.6,2.1-1.3,4.4-2,6.6C947.9,90.2,949.2,90.2,950.5,90.2z"/>
	<path class="st0" d="M1094.1,93.4c-1.9,0-3.6,0-5.5,0c-0.5,1.4-0.9,2.9-1.4,4.4c-1.6,0-3.2,0-4.7,0c2.2-6.1,4.5-12.2,6.7-18.3
		c1.6,0,3.2,0,4.8,0c2.1,6.1,4.3,12.1,6.5,18.3c-1.6,0-3.2,0-4.8,0C1095.1,96.3,1094.6,94.8,1094.1,93.4z M1089.3,90.2
		c1.3,0,2.6,0,3.9,0c-0.7-2.3-1.4-4.5-2-6.6C1090.6,85.7,1090,88,1089.3,90.2z"/>
	<path class="st0" d="M1052.4,79.5c1.6,0,3.2,0,4.8,0c2.1,6.1,4.3,12.2,6.5,18.3c-1.6,0-3.2,0-4.8,0c-0.5-1.5-1-2.9-1.5-4.4
		c-1.9,0-3.7,0-5.5,0c-0.5,1.4-0.9,2.9-1.4,4.4c-1.6,0-3.1,0-4.7,0C1047.9,91.7,1050.2,85.6,1052.4,79.5z M1056.6,90.2
		c-0.7-2.3-1.4-4.5-2-6.7c-0.1,0.5-0.2,0.9-0.4,1.4c-0.5,1.6-0.9,3.2-1.4,4.8c0,0.1,0,0.3-0.1,0.5
		C1054,90.2,1055.2,90.2,1056.6,90.2z"/>
	<path class="st0" d="M992.5,97.8c0-6.1,0-12.1,0-18.1c0.4-0.1,9.5-0.2,10.7,0c0,1.2,0,2.3,0,3.5c-2.1,0-4.2,0-6.2,0
		c-0.1,0.5-0.1,3,0,4c2,0,3.9,0,5.9,0c0.1,0.5,0.1,2.4-0.1,3.2c-1.9,0-3.9,0-5.8,0c0,1.4,0,2.7,0,4.1c2.3,0,4.5,0,6.8-0.1
		c0,1.2-0.1,2.3-0.1,3.5C1000,97.8,996.3,97.8,992.5,97.8z"/>
	<path class="st0" d="M842.1,72.1c-4.4,8.5-8.8,17-13.3,25.6c-1.7-3.8-3.3-7.4-5-11.1c6.1-4.9,12.1-9.7,18.2-14.6
		C842,72.1,842,72.1,842.1,72.1z"/>
	<path class="st0" d="M972.4,93.5c0.1,1.3,0.3,2.5,0.4,3.8c-0.9,0.4-1.8,0.7-2.7,0.8c-1.9,0.3-3.8,0.3-5.7-0.2
		c-3.2-0.9-5.2-3-5.9-6.3c-0.5-2.2-0.4-4.5,0.5-6.6c1.2-2.7,3.2-4.5,6.1-5.3c2.6-0.7,5.1-0.5,7.7,0.3c-0.2,1.3-0.4,2.7-0.6,4
		c-0.2-0.1-0.4-0.2-0.6-0.3c-1.5-0.7-3-0.9-4.6-0.6c-2.1,0.4-3.4,1.7-4,3.8c-0.3,1.2-0.4,2.3-0.1,3.5c0.7,3.4,3.5,4.5,6,4.2
		c1.1-0.1,2.1-0.4,3-0.9C972.1,93.5,972.2,93.5,972.4,93.5z"/>
	<path class="st0" d="M1037.4,83.2c-1.6,0-3.2,0-4.8,0c0-1.2,0-2.4,0-3.6c0.5-0.1,13.4-0.2,14.3,0c0,1.2,0,2.4,0,3.6
		c-1.7,0-3.3,0-5.1,0c0,4.9,0,9.7,0,14.6c-1.5,0-2.9,0-4.4,0C1037.4,92.9,1037.4,88.1,1037.4,83.2z"/>
	<path class="st0" d="M1030.3,97.8c-1.5,0-2.9,0-4.4,0c0-6.1,0-12.1,0-18.2c1.5,0,2.9,0,4.4,0C1030.3,85.6,1030.3,91.6,1030.3,97.8z
		"/>
	<path class="st0" d="M1117.7,131.3c0-1.3,0-2.6,0-3.9c0-1.2,0.9-2,2.1-1.9c0.9,0.1,1.7,0.8,1.7,1.8c0,2.6,0,5.3,0,7.9
		c0,1.1-0.9,1.9-2,1.8c-1,0-1.8-0.8-1.8-2C1117.7,133.8,1117.7,132.5,1117.7,131.3L1117.7,131.3z"/>
	<path class="st0" d="M820,98c-3.5,0-6.8,0-10.4,0c2.6-2.1,5-4,7.6-6.1C818.3,93.9,819.1,95.9,820,98z"/>
	<path class="st0" d="M979.6,100.1c0.7,0.3,1.3,0.7,2,1c-0.8,1.2-1.5,2.3-2.8,2.9c-1.1,0.5-2.1,0.4-3.1-0.3
		c-0.3-0.3-0.6-0.6-0.9-0.8c-0.9-0.7-1.6-0.7-2.4,0.2c-0.3,0.3-0.6,0.7-0.9,1.2c-0.3-0.2-0.6-0.5-0.9-0.7c-0.3-0.2-0.6-0.5-0.9-0.8
		c0.7-0.9,1.5-1.9,2.6-2.5c1-0.5,2.6-0.6,3.7,0.5c0.3,0.2,0.5,0.5,0.8,0.7c0.6,0.5,1.3,0.4,1.9-0.1
		C978.9,100.9,979.2,100.5,979.6,100.1z"/>
	<path class="st0" d="M1217.9,132.6c0-0.8,0-1.5,0-2.2s0-1.3,0-2c0.5,0,0.9,0,1.5,0c0,2.2,0,4.4,0,6.6c-0.4,0-0.7,0-1.1,0
		c-0.3,0-0.4-0.2-0.5-0.3c-0.8-1.1-1.7-2.2-2.5-3.3c-0.1-0.1-0.2-0.3-0.5-0.6c0,1.5,0,2.8,0,4.2c-0.5,0-0.9,0-1.4,0
		c0-2.2,0-4.3,0-6.6c0.4-0.2,0.8-0.1,1.3,0c0.1,0,0.3,0.2,0.4,0.4c0.8,1.1,1.6,2.1,2.3,3.2C1217.6,132.1,1217.7,132.4,1217.9,132.6z
		"/>
	<path class="st0" d="M1233.3,135.1c0-2.2,0-4.4,0-6.6c0,0,0.1-0.1,0.1-0.1c1.1,0,2.1,0,3.2,0c1.5,0.1,2.3,1,2.5,2.5
		c0.3,2.3-1.1,4-3.4,4C1234.8,135.1,1234.1,135.1,1233.3,135.1z M1234.8,133.8c0.9,0.1,1.8,0,2.3-0.8c0.5-0.7,0.4-2-0.1-2.6
		c-0.6-0.7-1.4-0.7-2.2-0.6C1234.8,131.1,1234.8,132.4,1234.8,133.8z"/>
	<path class="st0" d="M793.5,133.1c-0.4,0-0.6,0-0.9,0c-0.1-0.4-0.2-6.7-0.1-8c0.1,0,0.3,0,0.4,0c0.5-0.1,0.7,0.1,1,0.5
		c0.8,1.3,1.7,2.5,2.5,3.8c0.3,0.5,0.7,0.9,0.9,1.4c0.1,0.1,0.2,0.2,0.4,0.3c0-2,0-4,0-6c0.4,0,0.7,0,1,0c0,2.7,0,5.3,0,8
		c-0.1,0-0.2,0-0.3,0c-0.2,0-0.5,0-0.7,0c-1.4-2-2.7-4-4.1-6.1c0,0-0.1,0-0.1,0C793.5,129.1,793.5,131.1,793.5,133.1z"/>
	<path class="st0" d="M819.2,108.5c0-2,0-3.9,0-6c0.4,0,0.6,0,0.9,0c0.1,0.4,0.2,7,0,7.9c-0.1,0-0.2,0-0.3,0
		c-0.5,0.1-0.8-0.1-1.2-0.6c-1.1-1.7-2.2-3.4-3.4-5c-0.1-0.2-0.2-0.3-0.5-0.4c0,2,0,4,0,6c-0.4,0-0.7,0-1,0c0-2.7,0-5.3,0-7.9
		c0.7-0.3,1-0.2,1.4,0.4c1.2,1.7,2.2,3.3,3.4,5c0.1,0.2,0.2,0.3,0.4,0.5C819.2,108.5,819.2,108.5,819.2,108.5z"/>
	<path class="st0" d="M1232.4,135.1c-0.6,0-1.2,0-1.8,0c-0.2-0.5-0.4-1-0.6-1.6c-0.7,0-1.3,0-2,0c-0.2,0.5-0.3,1-0.5,1.6
		c-0.6,0-1.1,0-1.7,0c0.8-2.2,1.6-4.4,2.4-6.6c0.6,0,1.2,0,1.8,0C1230.8,130.6,1231.6,132.8,1232.4,135.1z M1229.2,130.2
		c0,0-0.1,0-0.1,0c-0.2,0.7-0.5,1.4-0.6,2.1c0.5,0,0.9,0,1.4,0C1229.6,131.6,1229.4,130.9,1229.2,130.2z"/>
	<path class="st0" d="M1207.7,135.1c-0.6,0-1.1,0-1.7,0c0.8-2.2,1.6-4.4,2.4-6.6c0.6,0,1.2,0,1.8,0c0.7,2.2,1.6,4.4,2.3,6.6
		c-0.6,0-1.2,0-1.8,0c-0.2-0.5-0.4-1-0.6-1.6c-0.7,0-1.3,0-2,0C1208,134,1207.8,134.5,1207.7,135.1z M1209.9,132.3
		c-0.2-0.7-0.4-1.5-0.7-2.3c-0.3,0.8-0.5,1.5-0.7,2.3C1209,132.3,1209.4,132.3,1209.9,132.3z"/>
	<path class="st0" d="M1196.2,128.4c0.6,0,1.2,0,1.8,0c0.7,2.2,1.6,4.4,2.3,6.6c-0.6,0-1.2,0-1.8,0c-0.2-0.5-0.3-1-0.5-1.6
		c-0.7,0-1.3,0-2,0c-0.2,0.5-0.4,1-0.6,1.6c-0.6,0-1.1,0-1.7,0C1194.6,132.8,1195.4,130.6,1196.2,128.4z M1196.3,132.3
		c0.5,0,0.9,0,1.4,0c-0.2-0.7-0.5-1.5-0.7-2.3C1196.7,130.8,1196.5,131.5,1196.3,132.3z"/>
	<path class="st0" d="M1241.6,128.4c0.6,0,1.2,0,1.8,0c0.7,2.2,1.6,4.4,2.3,6.6c-0.6,0-1.2,0-1.8,0c-0.2-0.5-0.4-1-0.5-1.6
		c-0.7,0-1.3,0-2,0c-0.2,0.5-0.4,1-0.5,1.6c-0.6,0-1.1,0-1.7,0C1240.1,132.8,1240.8,130.6,1241.6,128.4z M1243.1,132.3
		c-0.2-0.7-0.5-1.5-0.7-2.4c-0.2,0.8-0.5,1.6-0.7,2.4C1242.2,132.3,1242.6,132.3,1243.1,132.3z"/>
	<path class="st0" d="M786.1,110.5c-0.3,0-0.6,0-0.9,0c0-0.2,0-0.3,0-0.5c0-0.9,0-1.9,0-2.8c0-0.2,0-0.4,0-0.6c0-0.7-0.3-1-0.8-1.2
		c-0.6-0.1-1.2,0.2-1.4,0.7c-0.1,0.3-0.1,0.6-0.2,0.9c0,0.9,0,1.8,0,2.7c0,0.2,0,0.4,0,0.7c-0.3,0-0.6,0-0.9,0c0-0.2,0-0.4,0-0.7
		c0-0.9,0-1.9,0-2.8c0-0.1,0-0.2,0-0.4c0-0.7-0.3-1.1-0.8-1.2c-0.6-0.1-1.3,0.3-1.5,0.8c-0.1,0.3-0.1,0.7-0.1,1.1c0,0.8,0,1.8,0,2.6
		c0,0.1,0,0.3,0,0.5c-0.3,0-0.6,0-0.9,0c0-1.9,0-3.8,0-5.8c0.1,0,0.2,0,0.3,0c0.1,0,0.3,0,0.5,0c0,0.2,0,0.4,0.1,0.6
		c1.6-1,2.5-1,3.4,0.2c0.1-0.1,0.2-0.2,0.3-0.3c0.6-0.6,1.3-0.7,2.1-0.5c0.5,0.1,0.9,0.5,1.1,1c0,0.1,0.1,0.3,0.1,0.5
		C786.1,107.5,786.1,109,786.1,110.5z"/>
	<path class="st0" d="M1324.7,131.8c0.1-0.7,0.2-1.3,0.4-2c0.5-1.4,1.8-1.8,3-1.4c0.6,0.1,1,0.6,1.2,1.2c0.2,0.6,0.3,1.2,0.3,1.9
		c0,0.7,0,1.5-0.3,2.2c-0.4,1-1.2,1.5-2.2,1.5c-1,0-1.7-0.6-2-1.6c-0.1-0.2-0.1-0.4-0.2-0.7C1324.8,132.6,1324.8,132.2,1324.7,131.8
		C1324.7,131.8,1324.7,131.8,1324.7,131.8z M1326.3,131.7L1326.3,131.7c0,0.3,0,0.7,0.1,0.9c0,0.3,0.1,0.6,0.2,0.9
		c0.1,0.3,0.3,0.5,0.6,0.4c0.3,0,0.5-0.2,0.6-0.5c0.1-0.2,0.1-0.4,0.1-0.6c0.1-0.8,0.1-1.7,0-2.6c0-0.2-0.1-0.5-0.2-0.7
		c-0.3-0.4-0.8-0.4-1.1,0c-0.1,0.1-0.2,0.3-0.2,0.5C1326.4,130.8,1326.4,131.3,1326.3,131.7z"/>
	<path class="st0" d="M1276.5,131.8c0-0.7,0.1-1.4,0.4-2.1c0.6-1.3,2-1.6,3-1.3c0.6,0.2,0.9,0.6,1.2,1.2c0.5,1.4,0.5,2.8,0,4.2
		c-0.4,0.9-1.2,1.4-2.2,1.4c-0.9,0-1.7-0.6-2-1.5c-0.1-0.2-0.1-0.5-0.2-0.7C1276.6,132.5,1276.6,132.1,1276.5,131.8z M1278.1,131.7
		L1278.1,131.7c0,0.3,0,0.7,0.1,0.9c0,0.3,0.1,0.7,0.3,1c0.3,0.5,0.8,0.5,1.1,0c0.1-0.1,0.2-0.3,0.2-0.5c0.2-0.9,0.2-1.9,0-2.8
		c0-0.1-0.1-0.3-0.1-0.4c-0.1-0.2-0.3-0.4-0.6-0.4c-0.3,0-0.5,0.1-0.6,0.4c-0.1,0.1-0.1,0.3-0.2,0.5
		C1278.2,130.8,1278.1,131.3,1278.1,131.7z"/>
	<path class="st0" d="M1220.1,135.1c1.2-1.8,2.2-3.5,3.3-5.3c-1-0.1-1.9,0-2.8,0c0-0.4,0-0.8,0-1.2c0.7-0.1,4.7-0.1,5.3,0
		c-1,1.7-2.1,3.4-3.2,5.2c1,0,2,0,3,0c0,0.5,0,0.8,0,1.3C1223.7,135.1,1222,135.1,1220.1,135.1z"/>
	<path class="st0" d="M802.8,125.1c0.4,0,0.7,0,1.2,0c1.1,2.7,2.1,5.3,3.3,8c-0.4,0-0.8,0-1.2,0c-0.3-0.7-0.6-1.6-0.9-2.4
		c-1.2,0-2.2,0-3.4,0c-0.3,0.8-0.6,1.6-0.9,2.4c-0.4,0-0.7,0-1.1,0C800.7,130.4,801.7,127.7,802.8,125.1z M803.3,126.1
		c-0.5,1.3-0.9,2.5-1.3,3.7c0.9,0,1.8,0,2.7,0C804.2,128.6,803.8,127.4,803.3,126.1z"/>
	<path class="st0" d="M794.1,121.8c-0.5,0-0.8,0-1.2,0c-0.3-0.8-0.6-1.6-0.9-2.4c-1.2,0-2.2,0-3.4,0c-0.3,0.7-0.6,1.6-0.9,2.4
		c-0.4,0-0.7,0-1.1,0c1-2.7,2-5.4,3.1-8c0.4,0,0.7,0,1.2,0C791.9,116.4,792.9,119.1,794.1,121.8z M788.9,118.5c0.9,0,1.8,0,2.7,0
		c-0.5-1.2-0.9-2.4-1.4-3.7C789.8,116,789.3,117.2,788.9,118.5z"/>
	<path class="st0" d="M1204,135.1c-0.6,0-1.2,0-1.7,0c-0.7-2.2-1.5-4.4-2.3-6.6c0.3,0,0.6,0,0.8,0c0.3,0,0.6,0,0.9,0
		c0.5,1.6,0.9,3.2,1.4,4.8c0,0,0,0,0.1,0c0.5-1.6,0.9-3.2,1.4-4.8c0.6,0,1,0,1.7,0C1205.5,130.7,1204.8,132.9,1204,135.1z"/>
	<path class="st0" d="M818.6,130.6c-0.3,1.5-1.4,2.6-3.2,2.7c-1.8,0-3-0.7-3.6-2.3c-0.4-1.2-0.4-2.3,0-3.5c0.8-2.5,3.6-2.9,5.1-2.1
		c0.8,0.4,1.3,1,1.6,2c-0.3,0.1-0.7,0.2-1,0.2c-0.1-0.1-0.1-0.2-0.2-0.4c-0.4-0.8-1-1.3-2-1.3c-0.9,0-1.8,0.3-2.2,1.2
		c-0.7,1.4-0.7,2.8,0,4.1c0.4,0.8,1.3,1.2,2.2,1.2c0.9,0,1.6-0.5,2-1.4c0.1-0.2,0.1-0.4,0.2-0.7
		C817.9,130.4,818.2,130.5,818.6,130.6z"/>
	<path class="st0" d="M790.1,130.3c0.3,0.1,0.6,0.1,0.9,0.2c0,1.2-1,2.3-2.3,2.6c-0.7,0.2-1.5,0.1-2.3,0c-0.9-0.2-1.5-0.8-2-1.7
		c-0.6-1.3-0.7-2.6-0.3-3.9c0.7-2.6,3.6-2.9,5.1-2.2c0.8,0.4,1.4,1.1,1.6,2c-0.3,0.1-0.6,0.1-0.9,0.2c-0.1-0.1-0.1-0.2-0.2-0.4
		c-0.4-0.8-1-1.3-2-1.3c-1,0-1.9,0.3-2.3,1.2c-0.6,1.3-0.6,2.7,0,4c0.4,0.9,1.3,1.2,2.2,1.2s1.7-0.5,2-1.4
		C789.9,130.7,790,130.6,790.1,130.3z"/>
	<path class="st0" d="M770.6,104.7c-0.3,0.1-0.6,0.1-0.9,0.2c-0.1-0.1-0.1-0.3-0.2-0.4c-0.4-0.8-1-1.3-2-1.3c-0.9,0-1.8,0.3-2.2,1.2
		c-0.7,1.3-0.7,2.7,0,4.1c0.5,0.9,1.3,1.2,2.3,1.2c0.9,0,1.6-0.5,2-1.4c0.1-0.2,0.1-0.4,0.2-0.7c0.3,0.1,0.7,0.2,0.9,0.3
		c-0.2,1.3-1.2,2.5-2.7,2.7c-0.7,0.1-1.3,0-1.9-0.1c-0.8-0.3-1.5-0.8-1.9-1.6c-0.7-1.3-0.8-2.7-0.3-4.1c0.7-2,3.1-3,5.1-2.1
		C769.8,103,770.3,103.7,770.6,104.7z"/>
	<path class="st0" d="M1231.5,112.5c-0.1,0.2-0.2,0.4-0.3,0.6c-0.6,1.3-1.2,2.6-1.7,3.9c0,0.1-0.1,0.3-0.2,0.4
		c-0.1,0.3-0.4,0.3-0.6,0c0-0.1-0.1-0.2-0.1-0.3c-0.6-1.4-1.2-2.8-1.9-4.2c0-0.1-0.1-0.2-0.2-0.3c0,0.8-0.1,1.6-0.1,2.4
		c0,0.8-0.1,1.7-0.1,2.6c-0.2,0-0.5,0-0.7,0c0.1-2.2,0.2-4.4,0.3-6.6c0.3,0,0.6,0,0.8,0c0.7,1.8,1.6,3.6,2.4,5.4
		c0.6-1.2,1.1-2.4,1.6-3.6c0.2-0.4,0.4-0.8,0.6-1.3c0.3-0.6,0.3-0.6,1.1-0.4c0.1,2.2,0.2,4.3,0.2,6.6c-0.2,0-0.5,0-0.8,0
		c0-1.7-0.1-3.3-0.2-5C1231.6,112.5,1231.6,112.5,1231.5,112.5z"/>
	<path class="st0" d="M776,116.6c0-1,0-1.9,0-2.7c0.3,0,0.6,0,0.8,0c0.1,0.5,0.2,7.3,0,8c-0.2,0-0.5,0-0.7,0c0-0.1-0.1-0.3-0.1-0.5
		c-0.1,0-0.1,0-0.2,0.1c-0.8,0.8-2.5,0.7-3.3-0.5c-0.7-1.1-0.8-3,0-4.1c0.8-1.2,2.4-1.2,3.1-0.5C775.7,116.3,775.8,116.4,776,116.6z
		 M772.8,118.8c0,0.7,0.1,1.2,0.4,1.6c0.3,0.5,0.7,0.7,1.3,0.7s1-0.3,1.3-0.8c0.4-0.9,0.4-1.9,0-2.8c-0.3-0.6-0.7-0.8-1.4-0.8
		c-0.6,0-1,0.4-1.2,1C773,118,772.9,118.4,772.8,118.8z"/>
	<path class="st0" d="M814.1,116.6c0-1,0-1.9,0-2.8c0.3,0,0.6,0,0.8,0c0.1,0.5,0.2,6.8,0,8c-0.2,0-0.5,0-0.8,0c0-0.1,0-0.3-0.1-0.5
		c-0.1,0-0.1,0-0.2,0.1c-0.7,0.8-2.4,0.8-3.3-0.4c-0.8-1.1-0.8-3.1,0-4.2c0.7-1,2.1-1.2,3.1-0.5
		C813.8,116.3,813.9,116.4,814.1,116.6z M811,119c0.1,0.4,0.2,0.9,0.4,1.4c0.2,0.5,0.7,0.8,1.3,0.7c0.6,0,1-0.4,1.3-0.9
		c0.3-0.9,0.3-1.8-0.1-2.7c-0.3-0.6-0.7-0.8-1.4-0.8c-0.6,0-1,0.4-1.2,0.9C811.1,118,811.1,118.5,811,119z"/>
	<path class="st0" d="M1321.3,133.8c0.9,0,1.7,0,2.6,0c0,0.5,0,0.8-0.1,1.3c-1.5,0-2.9,0-4.4,0c0-0.2,0-0.3-0.1-0.5
		c-0.1-0.3,0-0.5,0.2-0.7c0.6-0.6,1.2-1.2,1.8-1.9c0.3-0.3,0.5-0.6,0.7-1c0.2-0.3,0.2-0.7,0-1c-0.2-0.3-0.6-0.4-0.9-0.3
		c-0.4,0.1-0.8,0.3-1.2,0.5c0-0.4-0.1-0.7-0.2-1.2c0.9-0.6,1.8-0.7,2.8-0.5c1.1,0.2,1.7,1.4,1.2,2.5c-0.2,0.5-0.6,1-0.9,1.4
		C1322.3,132.8,1321.9,133.3,1321.3,133.8z"/>
	<path class="st0" d="M1330.9,130.2c0-0.4-0.1-0.7-0.2-1.2c0.7-0.7,2.4-0.9,3.2-0.4c0.7,0.4,1.2,1.4,0.7,2.3
		c-0.1,0.4-0.4,0.7-0.7,1.1c-0.3,0.4-0.7,0.8-1.2,1.2c-0.1,0.1-0.3,0.3-0.5,0.5c0.9,0,1.7,0,2.5,0c0,0.4,0,0.8,0,1.3
		c-1.5,0-2.9,0-4.4,0c-0.2-0.5-0.2-0.9,0.3-1.4c0.6-0.5,1.2-1.2,1.7-1.7c0.2-0.2,0.4-0.5,0.6-0.8c0.2-0.4,0.3-0.8,0-1.2
		s-0.7-0.4-1.2-0.3C1331.6,129.8,1331.3,130,1330.9,130.2z"/>
	<path class="st0" d="M1284.1,133.8c0.9,0,1.7,0,2.6,0c0,0.4,0,0.8,0,1.3c-1.5,0-2.9,0-4.3,0c-0.2-0.5-0.2-1,0.3-1.4
		c0.7-0.6,1.3-1.3,1.9-2c0.2-0.3,0.4-0.6,0.6-0.9c0.2-0.6-0.1-1.1-0.7-1.2c-0.3,0-0.7,0.1-1,0.2c-0.2,0-0.3,0.2-0.6,0.3
		c-0.1-0.5-0.1-0.8-0.2-1.3c0.8-0.5,1.8-0.7,2.7-0.5c1,0.2,1.6,1.2,1.4,2.2c-0.1,0.6-0.4,1-0.8,1.4
		C1285.3,132.6,1284.7,133.2,1284.1,133.8z"/>
	<path class="st0" d="M1271.6,130.1c0-0.4-0.1-0.7-0.2-1.2c1-0.6,2-0.8,3.1-0.4c0.9,0.3,1.3,1.5,0.9,2.4c-0.2,0.5-0.5,0.9-0.8,1.3
		c-0.4,0.5-0.9,0.9-1.4,1.4c0.8,0.2,1.6,0.1,2.4,0.1c0,0.4,0,0.8,0,1.2c-1.5,0-2.9,0-4.4,0c-0.2-0.5-0.2-0.9,0.3-1.4
		c0.6-0.6,1.2-1.2,1.8-1.8c0.2-0.3,0.5-0.6,0.6-0.9c0.3-0.7-0.1-1.4-0.9-1.3C1272.5,129.7,1272.1,129.9,1271.6,130.1z"/>
	<path class="st0" d="M826,118.1c0.1-1-0.2-1.4-1.1-1.5c-0.1,0-0.3,0-0.4,0c-0.7,0-1.2,0.4-1.3,1.1c-0.3,0-0.6,0-0.9-0.1
		c0.1-0.6,0.3-1.1,0.8-1.4c1-0.6,2.1-0.6,3.2-0.1c0.5,0.1,0.7,0.5,0.8,1c0,0.3,0,0.6,0.1,0.8c0,0.7,0,1.4,0,2c0,0.6,0.1,1.2,0.1,1.8
		c-0.2,0-0.5,0-0.8,0c-0.1-0.2-0.1-0.4-0.2-0.6c-0.2,0.1-0.4,0.2-0.6,0.3c-0.7,0.4-1.5,0.6-2.3,0.3c-0.7-0.2-1.1-0.7-1.2-1.4
		c-0.1-0.7,0.2-1.2,0.7-1.6c0.4-0.2,0.8-0.3,1.3-0.4C824.7,118.3,825.3,118.3,826,118.1z M826,119c-0.7,0.1-1.4,0.3-2.1,0.4
		c-0.1,0-0.2,0-0.4,0.1c-0.3,0.1-0.5,0.4-0.5,0.7c0,0.3,0.1,0.6,0.5,0.7c0.2,0.1,0.4,0.1,0.7,0.1C825.4,121.2,826.1,120.4,826,119z"
		/>
	<path class="st0" d="M852.5,106.9c0.1-1-0.2-1.4-1-1.5c-0.9-0.1-1.4,0.1-1.9,1.1c-0.3,0-0.6,0-0.8-0.1c0.1-0.7,0.4-1.2,1.1-1.5
		c0.8-0.4,1.8-0.4,2.7-0.1c0.7,0.2,1.1,0.7,1.2,1.5c0,0.8,0,1.6,0,2.4c0,0.6,0.1,1.3,0.1,2c-0.2,0-0.5,0-0.8,0
		c-0.1-0.1-0.1-0.3-0.2-0.6c-0.2,0.1-0.3,0.2-0.5,0.3c-0.7,0.4-1.6,0.6-2.4,0.3c-0.7-0.2-1-0.6-1.2-1.3c-0.1-0.7,0.1-1.3,0.8-1.6
		c0.4-0.2,0.9-0.3,1.3-0.4C851.3,107,851.9,107,852.5,106.9z M852.5,107.7c-0.7,0.1-1.4,0.3-2.1,0.4c-0.1,0-0.2,0-0.4,0.1
		c-0.3,0.1-0.4,0.4-0.5,0.7c0,0.3,0.1,0.6,0.5,0.7c0.2,0.1,0.4,0.1,0.6,0.1C851.9,110,852.7,109.1,852.5,107.7z"/>
	<path class="st0" d="M826.8,110.5c-0.2,0-0.5,0-0.8,0c-0.1-0.2-0.1-0.4-0.2-0.6c-0.2,0.1-0.4,0.2-0.6,0.3c-0.7,0.4-1.6,0.6-2.4,0.3
		c-0.6-0.2-1-0.6-1.1-1.3c-0.1-0.7,0.1-1.3,0.7-1.6c0.4-0.2,0.9-0.3,1.4-0.4c0.6-0.1,1.2-0.2,1.8-0.3c0.1-1-0.2-1.4-1-1.5
		c-0.9-0.1-1.4,0.1-1.9,1.1c-0.3,0-0.6,0-0.8-0.1c0.1-0.7,0.5-1.3,1.2-1.5c0.8-0.3,1.7-0.3,2.5-0.1c0.8,0.2,1.2,0.7,1.2,1.5
		c0,0.7,0,1.5,0,2.3C826.7,109.2,826.8,109.8,826.8,110.5z M825.7,107.7c-0.7,0.1-1.4,0.3-2.1,0.4c-0.1,0-0.2,0-0.4,0.1
		c-0.3,0.1-0.5,0.4-0.5,0.7s0.1,0.6,0.5,0.7c0.2,0.1,0.4,0.1,0.6,0.1C825,110,825.8,109.1,825.7,107.7z"/>
	<path class="st0" d="M836.1,130.5c-1.5,0-2.9,0-4.4,0c0,1,0.5,1.7,1.3,1.9c0.9,0.2,1.4-0.1,2-1.2c0.3,0,0.6,0.1,0.9,0.1
		c-0.2,0.9-0.7,1.5-1.6,1.7c-1.6,0.5-3.5-0.2-3.7-2.3c0-0.5,0-1.2,0.1-1.7c0.3-1.2,1.3-2,2.6-2c1.3,0,2.2,0.7,2.5,2.1
		C836.1,129.6,836.1,130,836.1,130.5z M835,129.6c-0.1-1.2-0.7-1.8-1.8-1.6c-0.8,0.1-1.4,0.8-1.3,1.6
		C832.9,129.6,833.9,129.6,835,129.6z"/>
	<path class="st0" d="M809.2,119.2c-0.8,0-1.6,0-2.2,0c-0.7,0-1.4,0-2,0c-0.1,0.9,0.3,1.6,1,1.9c0.8,0.3,1.5,0,2.2-1.1
		c0.1,0,0.3,0,0.4,0s0.3,0,0.5,0c-0.2,0.8-0.7,1.4-1.4,1.7c-1.9,0.7-3.7-0.3-3.9-2.3c0-0.6,0-1.2,0.1-1.8c0.3-1.2,1.3-1.8,2.6-1.8
		c1.2,0,2.1,0.7,2.4,2C809.2,118.2,809.2,118.6,809.2,119.2z M805,118.3c1,0,2.1,0,3.1,0c0-0.9-0.6-1.6-1.4-1.7
		C805.7,116.6,805.1,117.2,805,118.3z"/>
	<path class="st0" d="M783.6,119.2c-1.5,0-2.9,0-4.4,0c0,1,0.5,1.7,1.2,1.9c0.8,0.2,1.4,0,2-1.2c0.3,0,0.6,0.1,0.9,0.1
		c-0.2,0.8-0.6,1.3-1.3,1.6c-0.8,0.4-1.7,0.3-2.6,0c-0.2-0.1-0.4-0.3-0.6-0.4c-1.2-1.2-1.1-3.7,0.1-4.7c1.5-1.3,3.8-0.6,4.3,1.3
		C783.5,118.2,783.5,118.6,783.6,119.2z M782.5,118.3c-0.1-1.1-0.7-1.7-1.7-1.7c-0.7,0-1.6,0.8-1.5,1.7
		C780.4,118.3,781.4,118.3,782.5,118.3z"/>
	<path class="st0" d="M824.5,133.1c-0.3,0-0.6,0-0.9,0c0-0.2,0-0.4,0-0.7c0-0.9,0-1.8,0-2.7c0-0.2,0-0.3,0-0.5c0-0.7-0.4-1.2-1-1.2
		c-0.7-0.1-1.4,0.3-1.6,0.9c-0.1,0.3-0.1,0.7-0.1,1c0,0.9,0,1.9,0,2.8c0,0.1,0,0.1,0,0.3c-0.3,0-0.6,0-0.9,0c0-2.7,0-5.3,0-8
		c0.3,0,0.6,0,0.9,0c0.1,0.8,0,1.8,0,2.7c0.1-0.1,0.3-0.1,0.4-0.2c0.4-0.3,0.8-0.4,1.3-0.4c1.2,0,2,0.6,2,1.9c0,1.3,0,2.5,0,3.8
		C824.5,132.9,824.5,133,824.5,133.1z"/>
	<path class="st0" d="M1185.7,135.1c-0.3,0-0.5,0-0.7,0c0-2.2,0-4.4,0-6.6c0.4-0.1,0.7,0,0.9,0.3c1,1.4,2.1,2.8,3.2,4.2
		c0.1,0.1,0.3,0.3,0.5,0.6c0-1.8,0-3.5,0-5.2c0.3,0,0.5,0,0.7,0c0,2.2,0,4.4,0,6.6c-0.4,0.2-0.6,0-0.8-0.3c-1.1-1.4-2.2-2.8-3.3-4.3
		c-0.1-0.2-0.3-0.3-0.5-0.6c0,0.7,0,1.2,0,1.7c0,0.6,0,1.2,0,1.8C1185.7,133.9,1185.7,134.4,1185.7,135.1z"/>
	<path class="st0" d="M1209.8,117.5c-0.4,0.1-0.6,0-0.8-0.3c-1-1.4-2.1-2.7-3.2-4.1c-0.2-0.2-0.3-0.4-0.6-0.7c0,0.7,0,1.2,0,1.8
		c0,0.6,0,1.2,0,1.8c0,0.6,0,1.1,0,1.7c-0.2,0-0.5,0-0.7,0c0-2.2,0-4.4,0-6.6c0.4-0.2,0.7,0,0.9,0.3c1.1,1.4,2.2,2.8,3.3,4.3
		c0.1,0.1,0.2,0.3,0.5,0.6c0-1.8,0-3.5,0-5.2c0.3,0,0.5,0,0.7,0C1209.8,113.1,1209.8,115.3,1209.8,117.5z"/>
	<path class="st0" d="M1156.5,90.2c0-1.9,0-3.5,0-5.2c0.3,0,0.5,0,0.7,0c0,2.2,0,4.4,0,6.6c-0.4,0.2-0.6,0-0.8-0.3
		c-1.1-1.4-2.2-2.8-3.3-4.3c-0.1-0.1-0.3-0.3-0.5-0.6c0,1.8,0,3.5,0,5.2c-0.3,0-0.5,0-0.7,0c0-2.2,0-4.4,0-6.6
		c0.4-0.1,0.7,0,0.9,0.3c1.1,1.4,2.2,2.8,3.3,4.3C1156.1,89.8,1156.3,89.9,1156.5,90.2z"/>
	<path class="st0" d="M1297.3,128.4c0.4-0.1,0.7,0,0.9,0.3c1,1.4,2.1,2.8,3.2,4.2c0.1,0.1,0.2,0.3,0.5,0.6c0-1.8,0-3.5,0-5.2
		c0.3,0,0.5,0,0.7,0c0,2.2,0,4.4,0,6.6c-0.4,0.1-0.6,0-0.8-0.3c-1.1-1.4-2.2-2.8-3.3-4.3c-0.1-0.1-0.3-0.3-0.5-0.4c0,1.7,0,3.3,0,5
		c-0.3,0-0.5,0-0.7,0C1297.3,132.8,1297.3,130.6,1297.3,128.4z"/>
	<path class="st0" d="M1158.4,78.6c-0.3,0-0.5,0-0.7,0c0-2.2,0-4.4,0-6.6c0.4-0.2,0.7,0,0.9,0.3c1,1.4,2.1,2.8,3.2,4.2
		c0.1,0.1,0.2,0.3,0.5,0.6c0-1.8,0-3.5,0-5.1c0.3,0,0.5,0,0.7,0c0,2.2,0,4.4,0,6.6c-0.4,0.2-0.6,0-0.8-0.3c-1.1-1.4-2.2-2.8-3.3-4.3
		c-0.1-0.1-0.3-0.3-0.5-0.6C1158.4,75.3,1158.4,76.9,1158.4,78.6z"/>
	<path class="st0" d="M1221.5,72c0.3,0,0.5,0,0.7,0c0,2.2,0,4.4,0,6.6c-0.4,0.2-0.6,0-0.8-0.3c-1.1-1.4-2.2-2.8-3.3-4.3
		c-0.1-0.1-0.3-0.3-0.5-0.6c0,1.8,0,3.5,0,5.2c-0.3,0-0.5,0-0.7,0c0-2.2,0-4.4,0-6.6c0.4-0.1,0.7,0,0.9,0.3c1,1.4,2.1,2.8,3.2,4.2
		c0.1,0.1,0.2,0.3,0.5,0.6C1221.5,75.4,1221.5,73.7,1221.5,72z"/>
	<path class="st0" d="M1253.7,128.4c0.3,0,0.5,0,0.7,0c0,2.2,0,4.4,0,6.6c-0.4,0.2-0.6,0-0.8-0.3c-1.1-1.4-2.2-2.8-3.3-4.3
		c-0.1-0.1-0.3-0.3-0.5-0.5c-0.1,1.7,0,3.3,0,5c-0.2,0-0.5,0-0.7,0c0-2.2,0-4.4,0-6.6c0.4-0.1,0.7,0,0.9,0.3c1,1.4,2.1,2.7,3.1,4.1
		c0.1,0.2,0.3,0.4,0.5,0.7c0.2-0.6,0.1-1.2,0.1-1.7c0-0.6,0-1.2,0-1.8C1253.7,129.5,1253.7,129,1253.7,128.4z"/>
	<path class="st0" d="M1186.4,115.9c0-1.7,0-3.3,0-5c0.2,0,0.5,0,0.7,0c0,2.2,0,4.4,0,6.6c-0.4,0.2-0.6,0-0.8-0.3
		c-1.1-1.4-2.2-2.8-3.3-4.3c-0.1-0.1-0.3-0.3-0.5-0.6c-0.1,0.9,0,1.8,0,2.6c0,0.8,0,1.7,0,2.6c-0.2,0-0.4,0-0.7,0c0-2.2,0-4.4,0-6.6
		c0.5-0.1,0.5-0.1,0.8,0.3c1,1.3,2,2.7,3.1,4c0.2,0.2,0.4,0.5,0.5,0.7C1186.3,116,1186.4,115.9,1186.4,115.9z"/>
	<path class="st0" d="M1119.6,111.8c1.2,0,2.2,0.9,2.2,2.1c0,1.2-1,2.2-2.2,2.2s-2.1-1-2.1-2.2
		C1117.5,112.8,1118.4,111.8,1119.6,111.8z"/>
	<path class="st0" d="M1117.5,101.3c0-1.2,0.9-2.1,2.1-2.2c1.2,0,2.2,1,2.2,2.2c0,1.2-1,2.2-2.2,2.1
		C1118.4,103.4,1117.5,102.4,1117.5,101.3z"/>
	<path class="st0" d="M1119.7,90.8c-1.2,0-2.1-0.9-2.2-2.2c0-1.2,0.9-2.2,2.1-2.2s2.2,1,2.2,2.2
		C1121.9,89.8,1120.9,90.8,1119.7,90.8z"/>
	<path class="st0" d="M1117.5,75.6c0-1.2,0.9-2.2,2.1-2.2s2.2,0.9,2.2,2.2c0,1.2-1,2.2-2.2,2.2C1118.5,77.8,1117.5,76.8,1117.5,75.6
		z"/>
	<path class="st0" d="M1134.3,97.9c0.3,0,0.5,0,0.7,0c0,2.2,0,4.4,0,6.6c-0.4,0.2-0.6,0-0.8-0.3c-1.1-1.4-2.2-2.8-3.3-4.3
		c-0.1-0.2-0.3-0.3-0.5-0.6c0,1.8,0,3.5,0,5.2c-0.3,0-0.5,0-0.7,0c0-2.2,0-4.4,0-6.6c0.4-0.2,0.7,0,0.9,0.3c1,1.4,2.1,2.8,3.2,4.2
		c0.1,0.2,0.2,0.3,0.5,0.6C1134.3,101.3,1134.3,99.7,1134.3,97.9z"/>
	<path class="st0" d="M1192.8,103c0-1.7,0-3.4,0-5c0.3,0,0.5,0,0.7,0c0,2.2,0,4.4,0,6.6c-0.4,0.2-0.6,0-0.8-0.3
		c-1.1-1.4-2.2-2.8-3.3-4.2c-0.1-0.2-0.3-0.3-0.5-0.5c0,1.7,0,3.3,0,5c-0.3,0-0.5,0-0.7,0c0-2.2,0-4.4,0-6.6c0.4-0.2,0.7,0,0.9,0.3
		c1.1,1.4,2.2,2.8,3.3,4.3c0.1,0.1,0.2,0.3,0.3,0.4C1192.7,103,1192.8,103,1192.8,103z"/>
	<path class="st0" d="M1196.7,114.1c0-0.2,0-0.5,0.1-0.8c0.4-1.9,2-2.8,3.9-2.4c0.9,0.2,1.6,0.8,2,1.7c0.4,0.9,0.4,1.9,0.1,2.8
		c-0.4,1.5-1.7,2.4-3.3,2.3c-1.6-0.1-2.7-1.2-2.8-2.8C1196.8,114.6,1196.8,114.4,1196.7,114.1z M1202.3,114.2
		c-0.1-0.5-0.1-0.8-0.2-1.2c-0.3-0.9-1.1-1.5-2-1.6c-1,0-1.8,0.5-2.2,1.5c-0.3,0.9-0.3,1.9,0,2.7c0.4,0.8,1.1,1.4,2.1,1.3
		c1,0,1.7-0.5,2-1.4C1202.2,115.1,1202.2,114.6,1202.3,114.2z"/>
	<path class="st0" d="M841.8,118.8c0,0.2,0,0.4,0,0.6c-0.1,1.4-1.1,2.4-2.6,2.5c-1.4,0.1-2.5-0.7-2.7-2.1c-0.1-0.6-0.1-1.3,0-1.9
		c0.3-1.4,1.3-2.1,2.7-2c1.3,0,2.3,0.9,2.5,2.3C841.7,118.4,841.7,118.7,841.8,118.8z M840.8,118.9c-0.1-0.4-0.1-0.8-0.3-1.3
		c-0.3-0.7-0.8-1-1.5-1c-0.7,0-1.2,0.4-1.5,1c-0.3,0.7-0.3,1.6,0,2.4c0.2,0.7,0.8,1,1.6,1s1.2-0.4,1.5-1
		C840.7,119.8,840.7,119.3,840.8,118.9z"/>
	<path class="st0" d="M1215.5,75.2c0,0.4-0.1,0.8-0.2,1.3c-0.4,1.4-1.6,2.3-3.1,2.3c-1.4,0-2.6-0.9-2.9-2.4c-0.2-0.7-0.2-1.5,0-2.3
		c0.4-1.6,1.8-2.5,3.5-2.3c1.4,0.1,2.5,1.3,2.6,2.9c0,0.2,0,0.3,0,0.5C1215.5,75.2,1215.5,75.2,1215.5,75.2z M1210,75.4
		c0,0.1,0,0.4,0,0.7c0.2,1.2,1.1,2,2.2,2c1.1,0,2-0.6,2.3-1.7c0.2-0.8,0.2-1.7-0.1-2.5c-0.4-0.8-1-1.3-2-1.3c-0.9,0-1.6,0.3-2.1,1.2
		C1210.1,74.2,1210,74.7,1210,75.4z"/>
	<path class="st0" d="M1156.3,75.4c0,0.2,0,0.6-0.1,1c-0.4,1.6-1.6,2.4-3.2,2.4c-1.5,0-2.6-1-2.9-2.6c-0.1-0.7-0.1-1.5,0.1-2.2
		c0.5-1.5,1.8-2.3,3.4-2.1c1.4,0.1,2.5,1.2,2.7,2.7C1156.3,74.8,1156.3,75,1156.3,75.4z M1150.7,75.3c0.1,0.5,0.2,1,0.4,1.4
		c0.4,0.8,1.2,1.4,2.1,1.3c0.9,0,1.7-0.5,2-1.4s0.3-1.8,0-2.7s-1.2-1.5-2.1-1.4c-0.9,0-1.7,0.5-2,1.4
		C1150.9,74.3,1150.9,74.8,1150.7,75.3z"/>
	<path class="st0" d="M1180.5,128.3c1.8,0,3,1.2,3.1,3.2c0,0.5,0,1-0.1,1.5c-0.4,1.6-1.7,2.4-3.3,2.3c-1.5-0.1-2.6-1.2-2.7-2.7
		c0-0.6,0-1.2,0.1-1.7C1177.8,129.1,1178.9,128.3,1180.5,128.3z M1182.9,131.7c-0.1-0.4-0.1-0.9-0.3-1.3c-0.3-0.9-1.2-1.5-2.1-1.5
		c-0.9,0-1.8,0.5-2.1,1.4c-0.4,0.9-0.4,1.9,0,2.7c0.4,0.9,1.2,1.4,2.1,1.4c0.9,0,1.8-0.6,2-1.5
		C1182.7,132.6,1182.8,132.1,1182.9,131.7z"/>
	<path class="st0" d="M1230,88.3c0.1-0.6,0.2-1.2,0.4-1.7c0.5-1.3,1.8-1.9,3.3-1.8c1.2,0.1,2.2,1,2.5,2.3c0.2,0.8,0.1,1.6,0,2.3
		c-0.4,1.5-1.7,2.4-3.3,2.2c-1.5-0.1-2.6-1.2-2.7-2.7c0-0.2,0-0.4,0-0.6C1230.1,88.3,1230,88.3,1230,88.3z M1235.6,88.3
		c-0.1-0.4-0.1-0.9-0.3-1.3c-0.3-0.9-1.1-1.5-2-1.5c-0.9,0-1.8,0.5-2.1,1.4c-0.4,0.9-0.4,1.9,0,2.7c0.4,0.9,1.2,1.5,2.1,1.4
		c0.9,0,1.8-0.6,2-1.6C1235.5,89.1,1235.5,88.7,1235.6,88.3z"/>
	<path class="st0" d="M838.7,104.6c1.4,0,2.4,0.8,2.7,2.2c0.1,0.7,0.1,1.3-0.1,1.9c-0.3,1.2-1.3,2-2.7,1.9c-1.3,0-2.3-0.7-2.6-2
		c-0.1-0.7-0.1-1.4,0-2.1C836.4,105.3,837.4,104.6,838.7,104.6z M840.5,107.5c-0.1-0.4-0.1-0.8-0.3-1.2c-0.3-0.6-0.8-0.9-1.5-0.9
		c-0.7,0-1.2,0.4-1.4,1c-0.3,0.7-0.3,1.6,0,2.4c0.2,0.7,0.8,1,1.5,1c0.7,0,1.3-0.4,1.5-1.1C840.4,108.4,840.4,108,840.5,107.5z"/>
	<path class="st0" d="M777.1,107.5c0,0.2,0,0.4,0,0.6c-0.1,1.5-1.1,2.5-2.6,2.6c-1.5,0-2.6-0.7-2.8-2.2c-0.1-0.6,0-1.2,0-1.9
		c0.3-1.3,1.4-2,2.8-2c1.3,0,2.2,0.9,2.4,2.2C777,107,777,107.3,777.1,107.5z M772.6,107.6c0.1,0.4,0.1,0.8,0.3,1.3
		c0.3,0.6,0.8,0.9,1.5,0.9s1.2-0.3,1.4-0.9c0.4-0.8,0.4-1.7,0-2.6c-0.3-0.7-0.8-1-1.5-1c-0.7,0-1.2,0.4-1.5,1
		C772.7,106.8,772.7,107.2,772.6,107.6z"/>
	<path class="st0" d="M1183.7,97.8c1.5,0,2.6,0.8,2.9,2.3c0.2,0.8,0.2,1.6,0,2.4c-0.4,1.5-1.7,2.3-3.2,2.2c-1.5-0.1-2.6-1.1-2.8-2.6
		c-0.1-0.6-0.1-1.3,0-1.9C1180.9,98.6,1182,97.8,1183.7,97.8z M1185.9,101.3c-0.1-0.4-0.1-0.8-0.2-1.3c-0.3-0.9-1.1-1.5-2.1-1.5
		c-0.9,0-1.8,0.5-2.1,1.4c-0.3,0.8-0.3,1.8,0,2.6c0.4,0.9,1.2,1.5,2.1,1.5c1,0,1.8-0.6,2.1-1.6
		C1185.8,102.1,1185.9,101.6,1185.9,101.3z"/>
	<path class="st0" d="M803.3,107.5c0,0.2,0,0.4,0,0.5c-0.1,2.3-2.5,3-4,2.3c-0.7-0.3-1.1-0.8-1.3-1.5c-0.2-0.7-0.2-1.5,0-2.2
		c0.3-1.4,1.4-2.1,2.8-2c1.3,0.1,2.3,1,2.5,2.4C803.3,107.2,803.3,107.4,803.3,107.5z M798.8,107.6c0.1,0.4,0.1,0.8,0.3,1.2
		c0.2,0.7,0.8,1,1.5,1c0.7,0,1.2-0.3,1.5-0.9c0.3-0.8,0.3-1.7,0-2.5c-0.3-0.7-0.8-1-1.5-1c-0.7,0-1.3,0.4-1.5,1.1
		C798.9,106.8,798.9,107.2,798.8,107.6z"/>
	<path class="st0" d="M1133.3,88.4c0-0.5,0.1-0.8,0.2-1.2c0.5-2,2.5-2.9,4.3-2.2c0.7,0.3,1.3,0.9,1.6,1.7c0.4,1.1,0.4,2.1,0,3.2
		c-0.5,1.2-1.6,1.9-2.9,1.9c-1.3,0-2.4-0.7-2.8-2C1133.4,89.3,1133.3,88.8,1133.3,88.4z M1134,88.2c0.1,0.5,0.2,1,0.4,1.5
		c0.4,0.9,1,1.4,2,1.4c0.9,0,1.8-0.5,2.1-1.4c0.4-0.9,0.3-2-0.1-2.8c-0.4-0.8-1-1.2-2-1.2s-1.6,0.3-2,1.2
		C1134.3,87.1,1134.2,87.7,1134,88.2z"/>
	<path class="st0" d="M1310.4,131.6c0,0.4-0.1,0.7-0.2,1.2c-0.4,1.6-1.6,2.5-3.2,2.4c-1.5,0-2.6-1-2.9-2.6c-0.1-0.7-0.1-1.5,0.1-2.2
		c0.5-1.5,1.8-2.3,3.5-2.1c1.4,0.1,2.4,1.2,2.6,2.7C1310.3,131.2,1310.3,131.4,1310.4,131.6C1310.3,131.6,1310.3,131.6,1310.4,131.6
		z M1304.8,131.7c0.1,0.5,0.2,1,0.4,1.5c0.4,0.8,1.1,1.2,2,1.2c0.9,0,1.7-0.5,2-1.3c0.4-0.9,0.4-2,0-2.9c-0.4-0.8-1-1.3-2-1.3
		c-0.9,0-1.6,0.4-2,1.2C1305,130.6,1304.9,131.1,1304.8,131.7z"/>
	<path class="st0" d="M1254.6,114.1c0,0.3,0,0.6-0.1,0.9c-0.4,1.9-1.9,2.8-3.7,2.5c-1.4-0.2-2.4-1.3-2.5-2.9c0-0.6,0-1.2,0.1-1.7
		c0.4-1.6,1.8-2.4,3.4-2.2c1.5,0.1,2.5,1.2,2.7,2.8C1254.6,113.8,1254.6,114,1254.6,114.1C1254.6,114.1,1254.6,114.1,1254.6,114.1z
		 M1249.1,114c0,0.4,0,0.7,0.1,0.9c0.2,1.2,1,2,2.1,2c1.2,0,2-0.6,2.4-1.8c0.2-0.8,0.2-1.6-0.1-2.3c-0.3-0.9-1.1-1.5-2-1.5
		s-1.8,0.5-2.1,1.4C1249.2,113.2,1249.2,113.6,1249.1,114z"/>
	<path class="st0" d="M1180.4,114.1c0,0.4-0.1,0.7-0.2,1.2c-0.4,1.5-1.5,2.4-3.1,2.4c-1.5,0-2.6-0.9-3-2.4c-0.2-0.7-0.1-1.4,0-2.2
		c0.4-1.6,1.7-2.5,3.4-2.3c1.5,0.1,2.6,1.2,2.7,2.8c0,0.2,0,0.4,0,0.6C1180.3,114.1,1180.4,114.1,1180.4,114.1z M1174.9,114
		c0,0.4,0,0.7,0.1,0.9c0.2,1.2,1,2,2.1,2c1.2,0,2.1-0.6,2.4-1.8c0.2-0.8,0.2-1.6-0.1-2.3c-0.3-0.9-1.1-1.4-2-1.5
		c-1,0-1.8,0.5-2.2,1.4C1175,113.2,1174.9,113.6,1174.9,114z"/>
	<path class="st0" d="M1262.1,131.7c0,0.4-0.1,0.8-0.2,1.2c-0.4,1.5-1.6,2.4-3.2,2.3c-1.5,0-2.6-1.1-2.8-2.6
		c-0.1-0.7-0.1-1.5,0.1-2.3c0.5-1.5,1.8-2.2,3.5-2c1.4,0.1,2.4,1.2,2.6,2.7C1262.1,131.2,1262.1,131.4,1262.1,131.7
		C1262.1,131.7,1262.1,131.7,1262.1,131.7z M1261.3,131.7c-0.1-0.5-0.1-0.9-0.3-1.4c-0.3-0.9-1-1.4-2-1.4c-0.9,0-1.7,0.4-2.1,1.3
		c-0.4,0.9-0.4,1.9,0,2.8c0.4,0.9,1.2,1.4,2.1,1.4c1,0,1.8-0.6,2.1-1.5C1261.2,132.6,1261.2,132.1,1261.3,131.7z"/>
	<path class="st0" d="M1239.2,110.9c1.2,0,2.3-0.1,3.4,0.1c1.2,0.3,1.9,1.1,2,2.3c0,0.6,0,1.2,0,1.7c-0.3,1.3-1.2,2.1-2.6,2.3
		c-0.9,0.1-1.8,0.1-2.8,0.1C1239.2,115.3,1239.2,113.2,1239.2,110.9z M1240.1,116.8c0.6,0,1.2,0,1.7,0c1-0.1,1.8-0.7,2-1.8
		c0.2-0.6,0.1-1.2,0-1.9c-0.2-0.7-0.7-1.2-1.5-1.5c-0.7-0.2-1.5-0.2-2.3-0.1C1240.1,113.3,1240.1,115.1,1240.1,116.8z"/>
	<path class="st0" d="M1169.9,78.6c0-2.2,0-4.4,0-6.6c0.4-0.2,0.7,0,0.9,0.3c1.1,1.5,2.2,2.9,3.3,4.3c0.1,0.1,0.2,0.3,0.4,0.4
		c0.1-0.8,0-1.7,0.1-2.5c0-0.8,0-1.7,0-2.6c0.2,0,0.5,0,0.7,0c0,2.2,0,4.4,0,6.6c-0.3,0.2-0.6,0-0.8-0.2c-1.2-1.5-2.2-2.9-3.4-4.4
		c-0.1-0.1-0.2-0.3-0.4-0.4c-0.2,0.5-0.1,0.8-0.1,1.3s0,0.8,0,1.3s0,0.8,0,1.2s0,0.8,0,1.3C1170.4,78.6,1170.2,78.6,1169.9,78.6z"/>
	<path class="st0" d="M1141,117.5c-0.4,0.1-0.6,0-0.8-0.3c-1.1-1.4-2.2-2.8-3.3-4.3c-0.1-0.1-0.3-0.3-0.5-0.6c0,1,0,1.9,0,2.7
		s0,1.7,0,2.5c-0.3,0-0.5,0-0.7,0c0-2.2,0-4.4,0-6.6c0.4-0.1,0.6,0,0.9,0.3c1,1.4,2.1,2.8,3.2,4.2c0.1,0.2,0.3,0.3,0.5,0.5
		c0-1.7,0-3.3,0-5c0.3,0,0.5,0,0.7,0C1141,113.1,1141,115.3,1141,117.5z"/>
	<path class="st0" d="M1127,84.9c1.1,0,2.2,0,3.2,0.2c1.4,0.2,2.1,1.2,2.2,2.5c0,0.5,0,1,0,1.5c-0.3,1.5-1.5,2.4-3.1,2.5
		c-0.7,0-1.5,0-2.2,0C1127,89.4,1127,87.2,1127,84.9z M1127.8,90.9c0.7,0,1.5,0,2.2-0.2c0.8-0.3,1.4-0.8,1.6-1.7
		c0.1-0.6,0.1-1.2,0-1.8c-0.2-0.8-0.7-1.3-1.5-1.5c-0.7-0.2-1.5-0.2-2.3-0.1C1127.8,87.4,1127.8,89.1,1127.8,90.9z"/>
	<path class="st0" d="M1149.2,128.4c1.2,0,2.2-0.1,3.3,0.1c1.2,0.3,1.9,0.9,2.1,2.1c0.1,0.6,0.1,1.2,0,1.8c-0.2,1.3-1.1,2.1-2.4,2.5
		c-1,0.2-2,0.1-3,0.1C1149.2,132.8,1149.2,130.6,1149.2,128.4z M1150.1,129c0,1.9,0,3.6,0,5.4c0.7,0,1.5,0,2.2-0.2
		c0.8-0.3,1.4-0.8,1.6-1.7c0.1-0.4,0.1-0.9,0.1-1.4c-0.1-1.2-0.7-1.8-1.9-2C1151.4,129,1150.8,129,1150.1,129z"/>
	<path class="st0" d="M1223.7,84.9c1.1,0,2.2,0,3.2,0.2c1.2,0.2,2,1,2.1,2.2c0.1,0.5,0.1,1,0,1.5c-0.2,1.7-1.4,2.7-3.1,2.8
		c-0.7,0-1.5,0-2.3,0C1223.7,89.4,1223.7,87.2,1223.7,84.9z M1224.5,91c0.7,0,1.3,0,1.9-0.1c0.9-0.2,1.6-0.7,1.9-1.7
		c0.3-1,0.2-2-0.4-2.8c-0.1-0.1-0.2-0.2-0.4-0.3c-0.9-0.5-1.9-0.4-2.9-0.4C1224.5,87.4,1224.5,89.1,1224.5,91z"/>
	<path class="st0" d="M1176,91.6c0-2.2,0-4.4,0-6.6c1.2,0,2.4-0.2,3.5,0.1c1.1,0.3,1.7,1,2,2.2c0,0.1,0,0.2,0,0.2
		c0.3,2.5-1.2,4.1-3.7,4.1C1177.3,91.6,1176.7,91.6,1176,91.6z M1176.9,90.9c0.7,0.1,1.4,0,2-0.1c0.8-0.2,1.4-0.7,1.7-1.5
		c0.2-0.7,0.2-1.3,0-2c-0.2-0.7-0.7-1.3-1.5-1.5c-0.7-0.2-1.5-0.2-2.3-0.1C1176.9,87.4,1176.9,89.1,1176.9,90.9z"/>
	<path class="st0" d="M794.3,106.2c-0.3,0-0.6,0-0.8,0.1c-0.5-0.8-0.9-1-1.8-0.9c-0.2,0-0.4,0.1-0.6,0.2c-0.3,0.3-0.3,0.7,0,0.9
		c0.2,0.1,0.5,0.2,0.7,0.3c0.5,0.1,1.1,0.3,1.6,0.5c0.6,0.2,1,0.5,1,1.2c0.1,0.7-0.1,1.3-0.7,1.7c-1,0.6-2.1,0.6-3.1,0.1
		c-0.6-0.3-0.8-0.8-0.8-1.5c0,0,0,0,0.1,0c0.2,0,0.5-0.1,0.7-0.1c0,0,0.1,0.1,0.1,0.1c0.2,1.1,1.5,1.2,2.2,0.9
		c0.4-0.1,0.6-0.5,0.6-0.8c0-0.4-0.3-0.6-0.6-0.7c-0.4-0.1-0.9-0.2-1.4-0.4c-0.3-0.1-0.5-0.1-0.8-0.3c-0.5-0.2-0.8-0.7-0.9-1.2
		c0-0.6,0.2-1.2,0.7-1.4c1-0.5,2-0.5,3,0C794,105.2,794.2,105.6,794.3,106.2z"/>
	<path class="st0" d="M805.5,110.5c-0.4,0-0.6,0-0.9,0c0-1.9,0-3.8,0-5.8c0.2,0,0.5,0,0.8,0c0,0.1,0,0.3,0.1,0.5c0,0,0.1,0,0.2,0
		c0.6-0.6,1.3-0.7,2.1-0.6c0.8,0.1,1.4,0.7,1.5,1.5c0,1.4,0,2.8,0,4.3c-0.3,0-0.6,0-0.9,0c0-0.2,0-0.4,0-0.6c0-0.8,0-1.7,0-2.5
		c0-0.2,0-0.4,0-0.7c0-0.8-0.4-1.2-1.1-1.3c-0.7-0.1-1.4,0.3-1.6,1c-0.1,0.3-0.1,0.7-0.1,1C805.5,108.5,805.5,109.4,805.5,110.5z"/>
	<path class="st0" d="M843.8,116c0,0.2,0,0.4,0,0.6c0.1,0,0.1,0,0.2-0.1c0.6-0.6,1.3-0.7,2.1-0.6c0.8,0.1,1.4,0.7,1.5,1.5
		c0,1.4,0,2.9,0,4.4c-0.3,0-0.6,0-0.9,0c0-0.2,0-0.3,0-0.5c0-0.8,0-1.8,0-2.6c0-0.2,0-0.4,0-0.7c0-0.7-0.4-1.2-1-1.2
		c-0.7-0.1-1.4,0.3-1.6,1c-0.1,0.3-0.1,0.6-0.1,0.9c0,0.8,0,1.7,0,2.5c0,0.2,0,0.4,0,0.7c-0.3,0-0.6,0-0.9,0c0-1.9,0-3.8,0-5.8
		C843.2,116,843.5,116,843.8,116z"/>
	<path class="st0" d="M1164.7,98.2c0,0.2-0.1,0.4-0.1,0.7c-0.4-0.1-0.8-0.3-1.2-0.4c-1.6-0.3-2.9,0.7-3.1,2.3c0,0.3,0,0.6,0,0.9
		c0.2,1.9,2,2.8,3.8,2c0-0.6,0-1.2,0-1.9c-0.5,0-0.9,0-1.4,0c0-0.2,0-0.4,0-0.6c0.7,0,1.4,0,2.2,0c0,0.2,0,0.4,0,0.6
		c0,0.7,0,1.3,0,2c0,0.7,0,0.7-0.7,0.9c-0.7,0.2-1.3,0.3-2,0.2c-1.4-0.2-2.3-1-2.6-2.4c-0.2-0.7-0.1-1.5,0.1-2.3
		c0.4-1.2,1.5-2.1,2.8-2.2C1163.3,97.7,1164,97.8,1164.7,98.2z"/>
	<path class="st0" d="M1213,88.7c0,1,0,1.9,0,2.8c-0.3,0-0.5,0-0.8,0c0-2.2,0-4.4,0-6.6c0.3,0,0.6,0,0.9,0c0.4,0,0.8,0,1.3,0
		c0.9,0,1.5,0.4,1.7,1.2c0.2,0.8-0.1,1.7-0.8,2.2c-0.1,0.1-0.3,0.2-0.6,0.3c0.6,1,1.2,2,1.9,3c-0.2,0-0.4,0-0.5,0
		c-0.3,0-0.5-0.1-0.7-0.4c-0.4-0.7-0.8-1.5-1.3-2.2c0-0.1-0.1-0.2-0.2-0.3C1213.6,88.7,1213.3,88.7,1213,88.7z M1212.9,85.6
		c0,0.5,0,0.8,0,1.2s0,0.8,0,1.2c0.5,0,0.8,0,1.2,0c0.7,0,1.2-0.6,1.2-1.3c0-0.7-0.4-1.1-1.2-1.2
		C1213.8,85.5,1213.4,85.6,1212.9,85.6z"/>
	<path class="st0" d="M1210.6,85.3c0,0.3-0.1,0.5-0.2,0.7c-0.4-0.1-0.8-0.3-1.3-0.4c-1.6-0.3-2.8,0.6-3.1,2.2
		c-0.1,0.6,0,1.1,0.1,1.7c0.5,1.5,2.2,2.1,3.7,1.3c0-0.5,0-1,0-1.5c0-0.1,0-0.2,0-0.4c-0.5,0-0.9,0-1.4,0c0-0.2,0-0.4,0-0.6
		c0.7,0,1.4,0,2.2,0c0,1,0,2,0,3.1c-1.2,0.6-2.4,0.7-3.6,0.2c-0.8-0.3-1.3-1-1.6-1.8c-0.3-0.9-0.3-1.8,0-2.7c0.3-0.9,0.9-1.6,1.9-2
		C1208.4,84.6,1209.4,84.7,1210.6,85.3z"/>
	<path class="st0" d="M1131.8,72.3c0,0.2-0.1,0.5-0.2,0.7c-0.5-0.1-0.9-0.3-1.4-0.4c-1.7-0.2-2.9,0.8-3,2.5c0,0.2,0,0.5,0,0.7
		c0.2,1.9,2,2.7,3.7,1.9c0-0.6,0-1.2,0-1.9c-0.4,0-0.8,0-1.3,0c0-0.2,0-0.4,0-0.7c0.7,0,1.4,0,2.2,0c0,0.5,0,1,0,1.5
		c0,0.5,0,1,0,1.5c-2.1,1.5-5,0.3-5.3-2.2c0-0.6,0-1.2,0.1-1.7c0.3-1.4,1.6-2.4,3-2.4C1130.4,71.8,1131.1,71.9,1131.8,72.3z"/>
	<path class="st0" d="M1197,88.7c-0.3,0-0.6,0-0.9,0c0,0.9,0,1.9,0,2.8c-0.3,0-0.5,0-0.7,0c0-2.2,0-4.4,0-6.6c0.8,0,1.8,0,2.6,0
		c0.6,0,1.1,0.4,1.3,1c0.2,0.7,0.1,1.5-0.5,2c-0.2,0.2-0.5,0.3-0.8,0.6c0.6,0.9,1.2,1.9,1.9,2.9c-0.3,0-0.6,0-1,0
		C1198.2,90.7,1197.6,89.6,1197,88.7z M1196.1,88.1c0.5,0,0.8,0,1.3,0c0.6,0,1-0.6,1.1-1.2c0-0.6-0.2-1.1-0.7-1.2
		c-0.5-0.1-1-0.1-1.6,0C1196.1,86.4,1196.1,87.2,1196.1,88.1z"/>
	<path class="st0" d="M843.6,110.5c-0.3,0-0.6,0-0.9,0c0-1.9,0-3.8,0-5.8c0.1,0,0.2,0,0.3,0c0.1,0,0.2,0,0.4,0
		c0,0.2,0.1,0.4,0.1,0.6c0,0,0.1,0,0.1,0c0.6-0.6,1.3-0.7,2.1-0.6c0.8,0.1,1.3,0.7,1.4,1.5c0,0.3,0,0.6,0,0.9c0,0.9,0,1.9,0,2.7
		c0,0.2,0,0.4,0,0.7c-0.3,0-0.6,0-0.9,0c0-0.1,0-0.3,0-0.5c0-0.9,0-1.9,0-2.7c0-0.2,0-0.3,0-0.5c0-0.8-0.4-1.2-1.2-1.3
		c-0.7,0-1.4,0.4-1.6,1.2c-0.1,0.4-0.1,0.9-0.1,1.3C843.6,108.7,843.6,109.6,843.6,110.5z"/>
	<path class="st0" d="M1138.9,128.4c0.7,0,1.5,0,2.2,0c0.9,0,1.5,0.4,1.7,1.2c0.2,0.8,0,1.7-0.7,2.1c-0.2,0.1-0.4,0.2-0.6,0.3
		c0.6,1,1.2,2,1.9,2.9c-0.9,0.1-0.9,0.1-1.3-0.5c-0.3-0.6-0.7-1.1-1-1.7c-0.3-0.6-0.6-0.7-1.3-0.6c-0.1,0.9,0,1.9,0,2.8
		c-0.3,0-0.5,0-0.7,0C1138.9,132.8,1138.9,130.6,1138.9,128.4z M1139.7,131.4c0.5,0,0.9,0,1.3,0c0.7-0.1,1-0.7,1-1.3
		c0-0.7-0.4-1-1.1-1.1c-0.4,0-0.8,0-1.2,0C1139.7,129.8,1139.7,130.6,1139.7,131.4z"/>
	<path class="st0" d="M1288.1,129.8c0-0.2,0-0.3,0-0.5c0-0.2,0-0.4,0-0.7c1-0.1,2-0.2,2.9-0.4c0,2.3,0,4.6,0,6.8c-0.5,0-1,0-1.6,0
		c0-1.8,0-3.6,0-5.4C1288.9,129.7,1288.5,129.7,1288.1,129.8z"/>
	<path class="st0" d="M832.9,106.4c-0.3,0-0.5,0.1-0.8,0.1c0-0.1-0.1-0.2-0.1-0.3c-0.2-0.6-0.6-0.8-1.2-0.8s-1.2,0.2-1.4,0.7
		c-0.5,0.9-0.4,2,0,2.9c0.2,0.6,0.7,0.8,1.4,0.7c0.6,0,1-0.3,1.3-0.9c0-0.1,0.1-0.3,0.2-0.5c0.3,0,0.6,0,0.8,0.1
		c0,1.2-0.9,2-2.1,2.1c-1.4,0.1-2.5-0.7-2.8-2c-0.2-0.8-0.2-1.8,0.2-2.6c0.6-1.5,2.7-2,3.9-1C832.6,105.4,832.8,105.8,832.9,106.4z"
		/>
	<path class="st0" d="M799.5,119.8c0,1.2-0.9,2-2.2,2.1c-1.3,0.1-2.4-0.7-2.7-2c-0.2-0.8-0.2-1.8,0.1-2.6c0.6-1.5,2.7-2,3.9-1
		c0.4,0.3,0.7,0.7,0.7,1.4c-0.3,0-0.6,0.1-0.8,0.1c0-0.1-0.1-0.2-0.1-0.3c-0.2-0.6-0.6-0.8-1.2-0.8s-1.2,0.3-1.4,0.8
		c-0.4,0.9-0.4,1.9,0,2.7c0.2,0.6,0.8,0.9,1.5,0.8c0.7,0,1.1-0.4,1.3-1c0-0.1,0.1-0.2,0.1-0.4C798.9,119.7,799.2,119.8,799.5,119.8z
		"/>
	<path class="st0" d="M1169.6,102.4c-0.8,0-1.6,0-2.5,0c-0.3,0.7-0.5,1.4-0.8,2.1c-0.3,0-0.5,0-0.8,0c0.8-2.2,1.7-4.4,2.5-6.6
		c0.2,0,0.5,0,0.7,0c0.8,2.2,1.7,4.4,2.5,6.6c-0.3,0-0.6,0-0.9,0C1170.2,103.9,1169.9,103.2,1169.6,102.4z M1169.4,101.8
		c-0.3-0.9-0.6-1.9-1-2.8c-0.4,1-0.7,1.9-1,2.8C1168,101.8,1168.7,101.8,1169.4,101.8z"/>
	<path class="st0" d="M1224.9,76.6c-0.3,0.7-0.5,1.4-0.8,2.1c-0.3,0-0.5,0-0.8,0c0.8-2.2,1.7-4.4,2.6-6.6c0.2,0,0.5,0,0.7,0
		c0.8,2.2,1.7,4.4,2.5,6.6c-0.3,0-0.6,0-0.9,0c-0.2-0.7-0.5-1.3-0.8-2.1C1226.6,76.6,1225.7,76.6,1224.9,76.6z M1226.1,73
		c-0.4,1-0.7,1.9-1,2.8c0.7,0,1.3,0,2,0C1226.8,74.9,1226.5,74,1226.1,73z"/>
	<path class="st0" d="M1148.8,110.9c0.2,0,0.5,0,0.7,0c0,0.4,0,0.7,0,1.1c0,1.2,0,2.3,0,3.4c0.1,1.1,0.8,1.7,1.9,1.5
		c0.7-0.1,1.2-0.4,1.3-1.1c0.1-0.4,0.1-0.7,0.1-1.2c0-1.1,0-2.1,0-3.2c0-0.2,0-0.4,0-0.6c0.3,0,0.5,0,0.7,0c0,0.2,0,0.4,0,0.6
		c0,1.2,0,2.3,0,3.5v0c0,2.4-1.6,2.9-3.3,2.6c-0.8-0.2-1.3-0.8-1.5-1.6c0-0.2-0.1-0.4-0.1-0.6c0-1.4,0-2.8,0-4.2
		C1148.7,111,1148.7,111,1148.8,110.9z"/>
	<path class="st0" d="M1161.7,110.9c0.2,0,0.5,0,0.7,0c0.8,2.2,1.7,4.4,2.5,6.6c-0.3,0-0.6,0-0.9,0c-0.2-0.7-0.5-1.3-0.8-2
		c-0.8,0-1.6,0-2.5,0c-0.3,0.7-0.5,1.4-0.8,2c-0.3,0-0.5,0-0.8,0C1159.9,115.3,1160.8,113.1,1161.7,110.9z M1160.9,114.7
		c0.7,0,1.4,0,2,0c-0.3-0.9-0.7-1.9-1-2.8C1161.6,112.9,1161.3,113.8,1160.9,114.7z"/>
	<path class="st0" d="M1194.3,72c0.3,0,0.5,0,0.7,0c0,0.1,0,0.3,0,0.4c0,1.1,0,2.2,0,3.3c0,0.4,0,0.7,0.1,1.2
		c0.2,0.8,0.7,1.2,1.7,1.2c0.8,0,1.4-0.4,1.5-1.3c0.1-0.4,0.1-0.7,0.1-1.2c0-1.2,0-2.4,0-3.6c0.2,0,0.5,0,0.8,0c0,0.2,0,0.4,0,0.7
		c0,1,0,2.1,0,3.1c0,0.2,0,0.5,0,0.7c-0.2,1.9-1.5,2.4-2.9,2.2c-1-0.1-1.7-0.7-1.9-1.7c0-0.1-0.1-0.3-0.1-0.4
		C1194.3,75.1,1194.3,73.6,1194.3,72z"/>
	<path class="st0" d="M1219.4,84.9c0.3,0,0.5,0,0.7,0c0.8,2.2,1.7,4.4,2.5,6.6c-0.3,0-0.6,0-0.9,0c-0.3-0.7-0.5-1.4-0.8-2.1
		c-0.8,0-1.6,0-2.5,0c-0.3,0.7-0.5,1.4-0.8,2.1c-0.3,0-0.5,0-0.8,0C1217.7,89.4,1218.5,87.2,1219.4,84.9z M1219.8,86
		c-0.4,1-0.7,1.9-1,2.8c0.7,0,1.4,0,2,0C1220.4,87.8,1220.1,86.9,1219.8,86z"/>
	<path class="st0" d="M833.2,117.7c-0.3,0-0.6,0.1-0.8,0.1c0-0.1-0.1-0.2-0.2-0.4c-0.2-0.5-0.6-0.7-1.2-0.8c-0.6,0-1.2,0.2-1.4,0.7
		c-0.5,1-0.5,2,0,3c0.3,0.6,0.8,0.7,1.4,0.7c0.6,0,1-0.3,1.2-0.9c0-0.1,0.1-0.3,0.2-0.5c0.3,0,0.6,0.1,0.8,0.1c0,0.9-0.6,1.7-1.5,2
		c-1.4,0.5-3.1-0.1-3.4-2c-0.1-0.8-0.1-1.6,0.2-2.3c0.6-1.5,2.6-2.1,3.9-1.2C832.8,116.6,833,116.9,833.2,117.7z"/>
	<path class="st0" d="M1168.2,135c-0.3,0-0.6,0-0.8,0c-0.3-0.7-0.5-1.4-0.8-2.1c-0.8,0-1.6,0-2.5,0c-0.3,0.7-0.5,1.4-0.8,2.1
		c-0.2,0-0.5,0-0.8,0c0.8-2.2,1.7-4.4,2.5-6.6c0.1,0,0.2,0,0.4,0c0.1,0,0.2,0,0.4,0C1166.5,130.6,1167.3,132.8,1168.2,135z
		 M1166.3,132.2c-0.3-0.9-0.7-1.8-0.9-2.7c0,0-0.1,0-0.1,0c-0.3,0.8-0.6,1.8-0.9,2.7C1165,132.2,1165.6,132.2,1166.3,132.2z"/>
	<path class="st0" d="M1169.4,84.9c0.3,0,0.5,0,0.7,0c0.8,2.2,1.7,4.4,2.5,6.6c-0.3,0-0.6,0-0.9,0c-0.2-0.7-0.5-1.3-0.8-2
		c-0.8,0-1.6,0-2.5,0c-0.3,0.7-0.5,1.4-0.8,2.1c-0.3,0-0.5,0-0.8,0C1167.7,89.3,1168.5,87.1,1169.4,84.9z M1170.8,88.8
		c-0.4-0.9-0.6-1.9-1-2.8c-0.3,1-0.7,1.9-1,2.8C1169.4,88.8,1170,88.8,1170.8,88.8z"/>
	<path class="st0" d="M1130.3,132.9c-0.8,0-1.6,0-2.5,0c-0.3,0.7-0.5,1.4-0.8,2.1c-0.3,0-0.5,0-0.8,0c0.8-2.2,1.7-4.4,2.5-6.6
		c0.2,0,0.5,0,0.7,0c0.8,2.2,1.7,4.4,2.5,6.6c-0.3,0-0.6,0-0.9,0C1130.8,134.3,1130.5,133.6,1130.3,132.9z M1130,132.2
		c-0.3-0.9-0.7-1.8-1-2.7c0,0-0.1,0-0.1,0c-0.3,0.8-0.6,1.8-0.9,2.7C1128.7,132.2,1129.3,132.2,1130,132.2z"/>
	<path class="st0" d="M1234.4,110.9c1.1,0,2.2,0,3.3,0c0,0.2,0,0.4,0.1,0.7c-0.9,0-1.8,0-2.6,0c0,0.7,0,1.5,0,2.3c0.8,0,1.6,0,2.4,0
		c0,0.2,0,0.4,0,0.7c-0.8,0-1.6,0-2.4,0c0,0.8,0,1.5,0,2.3c0.9,0,1.8,0,2.7,0c0,0.2,0,0.4,0,0.7c-1.2,0-2.4,0-3.6,0
		C1234.4,115.3,1234.4,113.1,1234.4,110.9z"/>
	<path class="st0" d="M1214.8,114.5c0,0.8,0,1.6,0,2.3c0.9,0,1.8,0,2.7,0c0,0.2,0,0.4,0,0.7c-1.2,0-2.3,0-3.5,0c0-2.2,0-4.4,0-6.6
		c1.1,0,2.2,0,3.3,0c0,0.2,0,0.4,0,0.7c-0.8,0-1.7,0-2.6,0c0,0.7,0,1.5,0,2.3c0.8,0,1.6,0,2.4,0c0,0.2,0,0.4,0,0.7
		C1216.4,114.5,1215.6,114.5,1214.8,114.5z"/>
	<path class="st0" d="M1143.7,103.9c0.9,0,1.8,0,2.7,0c0,0.2,0,0.4,0,0.7c-1.2,0-2.3,0-3.5,0c0-2.2,0-4.4,0-6.6
		c0.4-0.1,2.3-0.2,3.4,0c0,0.2,0,0.4,0,0.6c-0.9,0-1.7,0-2.6,0c0,0.7,0,1.5,0,2.3c0.7,0,1.6,0,2.3,0c0,0.2,0,0.4,0,0.7
		c-0.8,0-1.6,0-2.4,0C1143.7,102.3,1143.7,103.1,1143.7,103.9z"/>
	<path class="st0" d="M1190,84.9c0.7,0,1.5,0,2.2,0c1,0,1.6,0.6,1.8,1.4c0.2,1-0.2,2-1.1,2.3c-0.3,0.1-0.7,0.2-1.2,0.2
		c-0.3,0-0.6,0-0.9,0c0,0.5,0,0.9,0,1.3c0,0.4,0,0.8,0,1.3c-0.3,0-0.5,0-0.8,0C1190,89.4,1190,87.2,1190,84.9z M1190.9,88.2
		c0.5,0,1,0.1,1.5-0.1c0.6-0.2,0.9-0.7,0.8-1.5c0-0.6-0.4-1-1.1-1.1c-0.4,0-0.8,0-1.3,0C1190.9,86.5,1190.9,87.3,1190.9,88.2z"/>
	<path class="st0" d="M1204.2,84.9c0,0.2,0,0.4,0,0.6c-0.8,0-1.7,0-2.5,0c0,0.8,0,1.5,0,2.3c0.8,0,1.6,0,2.3,0c0,0.2,0,0.4,0,0.7
		c-0.7,0-1.5,0-2.3,0c-0.1,0.8,0,1.6,0,2.4c0.9,0,1.8,0,2.7,0c0,0.2,0,0.4,0,0.7c-1.2,0-2.3,0-3.5,0c0-1.1,0-2.2,0-3.3
		c0-1.1,0-2.2,0-3.3C1201.2,84.9,1203,84.8,1204.2,84.9z"/>
	<path class="st0" d="M1139.2,104.6c-0.3,0-0.5,0-0.7,0c-0.8-2.2-1.7-4.4-2.5-6.6c0.1,0,0.2,0,0.3,0c0.2,0,0.3,0,0.6,0
		c0.7,1.9,1.3,3.7,2,5.6c0.7-2,1.4-3.8,2-5.5c0.3,0,0.5,0,0.8,0C1141,100.1,1140.1,102.4,1139.2,104.6z"/>
	<path class="st0" d="M1314,135.1c-0.2,0-0.5,0-0.7,0c-0.8-2.2-1.7-4.4-2.5-6.6c0.2,0,0.3,0,0.5,0c0.1,0,0.2,0,0.4,0
		c0.7,1.8,1.3,3.7,2,5.6c0.7-2,1.4-3.8,2-5.6c0.3,0,0.6,0,0.8,0C1315.7,130.6,1314.8,132.8,1314,135.1z"/>
	<path class="st0" d="M1126.1,110.9c0.3,0,0.6,0,0.9,0c0.7,1.8,1.3,3.6,2,5.5c0.7-2,1.4-3.8,2-5.5c0.3,0,0.5,0,0.8,0
		c-0.8,2.2-1.7,4.4-2.6,6.6c-0.2,0-0.5,0-0.7,0C1127.8,115.3,1126.9,113.2,1126.1,110.9z"/>
	<path class="st0" d="M1265.7,135.1c-0.2,0-0.5,0-0.7,0c-0.8-2.2-1.7-4.4-2.5-6.6c0.3,0,0.6,0,0.9,0c0.6,1.8,1.3,3.6,2,5.5
		c0.7-2,1.4-3.8,2-5.6c0.3,0,0.6,0,0.8,0C1267.4,130.6,1266.6,132.8,1265.7,135.1z"/>
	<path class="st0" d="M1133.4,78.6c0-2.2,0-4.4,0-6.6c0.5-0.1,2.6-0.1,3.4,0c0,0.2,0,0.3,0,0.6c-0.4,0-0.8,0-1.3,0
		c-0.4,0-0.8,0-1.2,0c0,0.8,0,1.5,0,2.3c0.8,0,1.6,0,2.4,0c0,0.2,0,0.4,0,0.7c-0.8,0-1.6,0-2.4,0c0,0.8,0,1.6,0,2.3
		c0.9,0,1.8,0,2.7,0c0,0.2,0,0.4,0,0.7C1135.8,78.6,1134.7,78.6,1133.4,78.6z"/>
	<path class="st0" d="M1147.8,88.5c0,0.8,0,1.6,0,2.4c0.9,0.1,1.8,0,2.7,0c0,0.2,0,0.4,0,0.7c-1.2,0-2.3,0-3.5,0c0-2.2,0-4.4,0-6.6
		c1.1,0,2.2,0,3.3,0c0,0.2,0,0.4,0,0.7c-0.8,0-1.7,0-2.6,0c0,0.7,0,1.5,0,2.3c0.8,0.1,1.6,0,2.4,0c0,0.2,0,0.4,0,0.6
		C1149.4,88.5,1148.7,88.5,1147.8,88.5z"/>
	<path class="st0" d="M1144.4,135c0-2.2,0-4.4,0-6.6c1.1,0,2.2,0,3.3,0c0,0.2,0,0.4,0,0.6c-0.8,0-1.7,0-2.6,0c0,0.8,0,1.5,0,2.3
		c0.7,0,1.5,0,2.3,0c0,0.2,0,0.4,0,0.7c-0.8,0-1.6,0-2.4,0c0,0.8,0,1.6,0,2.4c0.9,0,1.8,0,2.7,0c0,0.2,0,0.4,0,0.7
		C1146.7,135,1145.6,135,1144.4,135z"/>
	<path class="st0" d="M1186.3,85.6c-0.9,0-1.7,0-2.6,0c0,0.7,0,1.5,0,2.3c0.7,0,1.5,0,2.3,0c0,0.2,0,0.4,0,0.7c-0.8,0-1.6,0-2.4,0
		c0,0.8,0,1.6,0,2.4c0.9,0,1.8,0,2.7,0c0,0.2,0,0.4,0,0.7c-1.2,0-2.3,0-3.5,0c0-2.2,0-4.4,0-6.6c1.1,0,2.2,0,3.3,0
		C1186.3,85.1,1186.3,85.4,1186.3,85.6z"/>
	<path class="st0" d="M1205.6,72.9c-2-0.6-3.1-0.3-3.8,0.7c-0.7,1-0.7,2.6,0,3.6c1,1.3,2.3,1,3.7,0.5c0,0.2,0,0.4,0.1,0.7
		c-1.2,0.6-2.4,0.7-3.6,0c-1.2-0.6-1.6-1.7-1.6-2.9c0-0.8,0.1-1.5,0.6-2.2c0.8-1.3,2.1-1.6,3.6-1.4c0.3,0,0.7,0.1,1,0.2
		C1205.7,72.4,1205.7,72.6,1205.6,72.9z"/>
	<path class="st0" d="M1177,98.1c0,0.2,0,0.4-0.1,0.7c-0.2,0-0.3-0.1-0.5-0.1c-0.4-0.1-0.9-0.2-1.3-0.2c-1.1,0-2,0.7-2.3,1.7
		c-0.2,0.7-0.2,1.3,0,2c0.4,1.4,1.7,2.1,3.2,1.7c0.3-0.1,0.6-0.2,0.9-0.3c0,0.2,0,0.4,0,0.7c-1.2,0.5-2.4,0.7-3.6,0
		c-1.2-0.6-1.6-1.7-1.6-2.9C1171.7,98.5,1174.4,96.8,1177,98.1z"/>
	<path class="st0" d="M1145.7,85.1c0,0.1,0,0.2,0,0.3c0,0.1,0,0.2-0.1,0.4c-0.2,0-0.3-0.1-0.5-0.1c-0.6-0.2-1.2-0.3-1.9-0.1h0
		c-1.3,0.3-2,1.8-1.8,3.3c0.2,1.4,1.3,2.3,2.7,2.1c0.5,0,1-0.2,1.6-0.4c0,0.1,0,0.4,0.1,0.6c-1.3,0.6-2.5,0.7-3.7,0
		c-0.8-0.4-1.3-1.2-1.4-2c-0.1-0.6-0.1-1.2,0-1.9c0.3-1.6,1.6-2.6,3.2-2.6C1144.5,84.8,1145.1,84.9,1145.7,85.1z"/>
	<path class="st0" d="M1173.7,134c0,0.2,0,0.4,0.1,0.7c-1.3,0.5-2.6,0.7-3.8,0c-1.2-0.7-1.5-2-1.4-3.2c0.1-1.7,1.1-2.8,2.6-3.1
		c0.8-0.2,1.8-0.1,2.6,0.3c0,0.2-0.1,0.5-0.1,0.7c-1.9-0.6-3-0.4-3.7,0.6c-0.7,0.9-0.7,2.6,0,3.6
		C1170.7,134.5,1171.7,134.7,1173.7,134z"/>
	<path class="st0" d="M1196,111.1c0,0.2-0.1,0.4-0.1,0.7c-1.4-0.5-2.8-0.7-3.8,0.7c-0.7,0.9-0.6,2.6,0.1,3.5c0.4,0.6,1,0.9,1.8,0.9
		c0.7,0,1.3-0.2,2-0.3c0,0.1,0,0.3,0,0.6c-1.2,0.5-2.4,0.7-3.6,0c-1.2-0.6-1.6-1.7-1.6-2.9c0-1.7,0.9-3,2.4-3.5
		C1194.1,110.6,1195.1,110.7,1196,111.1z"/>
	<path class="st0" d="M1163.7,90.6c0,0.3,0,0.5,0,0.7c-2,1.4-4.9,0.1-5.1-2.3c0-0.6,0-1.2,0.1-1.7c0.3-1.4,1.6-2.3,3-2.4
		c0.7,0,1.4,0,2,0.3c0,0.2,0,0.4,0,0.7c-0.2,0-0.3-0.1-0.4-0.1c-0.5-0.1-0.9-0.2-1.4-0.2c-1.3,0-2.2,0.8-2.4,2.1c0,0.1,0,0.2,0,0.3
		c-0.2,2,1.1,3.8,3.7,2.9C1163.2,90.8,1163.4,90.7,1163.7,90.6z"/>
	<path class="st0" d="M1137.5,134c0,0.2,0,0.4,0.1,0.6c-2,1.4-4.7,0.2-5.1-2.1c-0.1-0.7-0.1-1.4,0.1-2.1c0.4-1.3,1.6-2.1,2.9-2.2
		c0.7,0,1.4,0,2.1,0.3c0,0.2-0.1,0.4-0.1,0.7c-1.5-0.6-2.8-0.7-3.8,0.7c-0.7,1-0.6,2.7,0.1,3.6
		C1134.6,134.6,1135.7,134.7,1137.5,134z"/>
	<path class="st0" d="M1141.4,72.2c0,0.2-0.1,0.4-0.1,0.6c-0.2-0.1-0.5-0.2-0.7-0.3c-0.4-0.1-0.8-0.2-1.2,0
		c-0.4,0.2-0.7,0.5-0.7,0.9c0,0.5,0,0.8,0.5,1.1c0.2,0.1,0.5,0.3,0.8,0.4c0.3,0.1,0.6,0.3,0.9,0.5c0.6,0.4,0.8,1,0.7,1.7
		c-0.1,0.7-0.5,1.2-1.1,1.4c-0.9,0.4-1.9,0.2-2.7-0.2c0-0.2,0.1-0.5,0.1-0.7c0.4,0.1,0.7,0.4,1.2,0.4c0.3,0,0.7,0,1,0
		c0.7-0.2,0.9-1.2,0.3-1.8c-0.2-0.2-0.5-0.4-0.8-0.5c-0.2-0.1-0.5-0.2-0.7-0.4c-0.8-0.5-1.1-1.1-1-1.9c0.1-0.8,0.7-1.4,1.5-1.6
		C1140,71.7,1140.8,71.9,1141.4,72.2z"/>
	<path class="st0" d="M1147.5,111.1c0,0.2,0,0.5-0.1,0.7c-1.5-0.6-2.9-0.7-3.9,0.8c-0.7,1.1-0.5,2.7,0.3,3.6c0.8,0.9,1.9,1,3.6,0.3
		c0,0.2,0.1,0.4,0.1,0.6c-1.9,1.4-4.8,0.2-5.1-2c-0.1-0.7-0.1-1.4,0.1-2c0.4-1.3,1.4-2.1,2.7-2.3
		C1146,110.7,1146.7,110.7,1147.5,111.1z"/>
	<path class="st0" d="M1170.6,111.1c0,0.2-0.1,0.5-0.1,0.7c-1.5-0.6-2.8-0.7-3.8,0.7c-0.7,1-0.6,2.7,0.1,3.6
		c0.7,0.9,1.8,1.1,3.6,0.4c0,0.1,0.1,0.2,0.1,0.3s0,0.2,0,0.4c-1.2,0.5-2.3,0.7-3.5,0.1c-1.1-0.5-1.6-1.5-1.6-2.7c0-0.4,0-0.8,0-1.3
		c0.3-1.5,1.5-2.5,3-2.6C1169.1,110.7,1169.9,110.7,1170.6,111.1z"/>
	<path class="st0" d="M1147.1,104.2c0-0.2,0-0.5,0-0.7c0.5,0.2,0.8,0.3,1.3,0.5c0.2,0,0.6,0,0.8,0c0.8-0.2,1-1.3,0.4-1.9
		c-0.2-0.2-0.5-0.3-0.7-0.5c-0.3-0.1-0.6-0.2-0.8-0.4c-0.8-0.5-1.1-1.2-0.9-2.1c0.1-0.7,0.8-1.3,1.7-1.4c0.7-0.1,1.2,0,1.9,0.3
		c0,0.2,0,0.4-0.1,0.7c-0.2-0.1-0.3-0.1-0.5-0.2c-0.4,0-0.7-0.1-1.2-0.1c-0.5,0-0.8,0.4-0.9,0.8c-0.1,0.5,0,0.9,0.4,1.2
		c0.2,0.2,0.5,0.3,0.8,0.4c0.3,0.1,0.6,0.3,0.9,0.5c0.6,0.4,0.8,0.9,0.7,1.6c-0.1,0.7-0.5,1.2-1.2,1.5
		C1148.9,104.8,1148,104.7,1147.1,104.2z"/>
	<path class="st0" d="M1180.4,72.1c0,0.2-0.1,0.5-0.1,0.6c-0.5-0.1-1-0.3-1.5-0.3c-0.7,0-1.2,0.6-1.2,1.3c0,0.3,0.2,0.6,0.5,0.8
		c0.3,0.1,0.6,0.3,0.8,0.4c0.3,0.1,0.5,0.3,0.8,0.4c0.7,0.4,0.8,1,0.7,1.8c-0.1,0.7-0.6,1.2-1.2,1.4c-0.8,0.3-1.7,0.2-2.6-0.3
		c0-0.2,0-0.5,0-0.7c0.2,0.1,0.3,0.2,0.5,0.2c0.4,0.1,0.8,0.3,1.3,0.3c0.6,0,0.9-0.3,1.1-0.8c0.1-0.5,0-0.9-0.5-1.2
		c-0.4-0.2-0.9-0.4-1.3-0.7c-0.8-0.5-1.1-1.1-0.9-1.9c0.1-0.8,0.7-1.4,1.5-1.6C1179,71.8,1179.7,71.8,1180.4,72.1z"/>
	<path class="st0" d="M820.3,114c0,0.7,0,1.3,0,2c0.3,0,0.6,0,0.9,0.1c0,0.2,0,0.4,0,0.7c-0.3,0-0.6,0-0.9,0.1c0,0.2,0,0.4,0,0.6
		c0,0.9,0,1.9,0,2.7c0,0.7,0,0.8,0.8,0.8c0,0,0.1,0,0.2,0c0,0.2,0,0.5,0.1,0.8c-0.2,0-0.4,0.1-0.6,0.1c-1,0.1-1.5-0.3-1.5-1.4
		c0-1,0-2,0-3c0-0.2,0-0.4,0-0.7c-0.2,0-0.5-0.1-0.7-0.1c0-0.2,0-0.4,0-0.6c0.2,0,0.4-0.1,0.7-0.1c0-0.4,0-0.9,0-1.4
		C819.6,114.4,819.9,114.2,820.3,114z"/>
	<path class="st0" d="M829.5,133.1c-0.3,0-0.6,0-0.9,0c0-2.7,0-5.3,0-8c0.3,0,0.6,0,0.8,0C829.6,125.5,829.6,132.3,829.5,133.1z"/>
	<path class="st0" d="M856,102.5c0,2.7,0,5.3,0,8c-0.3,0-0.6,0-0.9,0c0-2.7,0-5.3,0-8C855.5,102.5,855.7,102.5,856,102.5z"/>
	<path class="st0" d="M1180.8,72.7c0-0.3,0-0.5,0-0.7c1.6,0,3.2,0,4.8,0c0,0.2,0,0.4,0,0.7c-0.7,0-1.3,0-2,0c0,2,0,3.9,0,5.9
		c-0.3,0-0.5,0-0.8,0c0-2,0-3.9,0-5.9C1182.2,72.7,1181.6,72.7,1180.8,72.7z"/>
	<path class="st0" d="M1162.7,128.4c0,0.2,0,0.4,0,0.6c-0.7,0-1.3,0-2,0c-0.1,0.7,0,1.4,0,2s0,1.3,0,2s0,1.3,0,2c-0.3,0-0.5,0-0.8,0
		c0-2,0-3.9,0-5.9c-0.7,0-1.3,0-2,0c0-0.2,0-0.4,0-0.7C1159.5,128.4,1161.1,128.4,1162.7,128.4z"/>
	<path class="st0" d="M1144.7,78.6c-0.3,0-0.5,0-0.8,0c0-2,0-3.9,0-5.9c-0.7,0-1.3,0-2,0c0-0.2,0-0.4,0-0.7c1.6,0,3.2,0,4.8,0
		c0,0.1,0,0.3,0,0.6c-0.7,0.2-1.3,0-2.1,0.1C1144.6,74.7,1144.7,76.6,1144.7,78.6z"/>
	<path class="st0" d="M1188.4,72.7c0-0.3,0-0.5,0-0.7c1.6,0,3.2,0,4.8,0c0,0.2,0,0.4,0,0.7c-0.7,0-1.3,0-2,0c0,2,0,3.9,0,5.9
		c-0.3,0-0.5,0-0.8,0c0-2,0-3.9,0-6C1189.8,72.7,1189.2,72.7,1188.4,72.7z"/>
	<path class="st0" d="M1154.1,104.5c-0.3,0-0.5,0-0.8,0c0-2,0-3.9,0-5.9c-0.7,0-1.3,0-2,0c0-0.2,0-0.4,0-0.7c1.6,0,3.2,0,4.8,0
		c0,0.2,0,0.4,0,0.6c-0.7,0-1.3,0-2,0C1154.1,100.6,1154.1,102.5,1154.1,104.5z"/>
	<path class="st0" d="M1230.8,77.9c0.9,0,1.8,0,2.7,0c0,0.2,0,0.4,0,0.7c-1.2,0-2.3,0-3.5,0c0-2.2,0-4.4,0-6.6c0.3,0,0.5,0,0.8,0
		C1230.8,73.9,1230.8,75.9,1230.8,77.9z"/>
	<path class="st0" d="M801.2,116c0,0.2,0,0.4,0,0.5c0.3-0.2,0.7-0.5,1-0.6c0.4-0.1,0.8,0,1.2,0.3c-0.1,0.3-0.2,0.5-0.3,0.8
		c-0.2,0-0.4-0.1-0.6-0.1c-0.6,0-0.9,0.1-1.1,0.7c-0.1,0.4-0.2,0.9-0.2,1.3c0,0.7,0,1.5,0,2.2c0,0.2,0,0.4,0,0.7c-0.3,0-0.6,0-0.8,0
		c-0.1-0.4-0.2-4.8,0-5.8C800.7,116,801,116,801.2,116z"/>
	<path class="st0" d="M1218.8,110.9c0.2,0,0.5,0,0.7,0c0,2,0,3.9,0,5.9c0.9,0,1.8,0,2.7,0c0,0.3,0,0.5,0,0.7c-1.2,0-2.3,0-3.5,0
		C1218.8,115.3,1218.8,113.1,1218.8,110.9z"/>
	<path class="st0" d="M1156.2,116.8c0.9,0,1.8,0,2.7,0c0,0.2,0,0.4,0,0.7c-1.2,0-2.3,0-3.5,0c0-2.2,0-4.4,0-6.6c0.2,0,0.5,0,0.7,0
		C1156.2,112.8,1156.2,114.8,1156.2,116.8z"/>
	<path class="st0" d="M826.1,127.3c0.3,0,0.6,0,0.9,0c0,1.9,0,3.8,0,5.8c-0.3,0-0.6,0-0.8,0C826,132.6,826,128.2,826.1,127.3z"/>
	<path class="st0" d="M787.6,110.5c0-1.9,0-3.8,0-5.7c0.3,0,0.6,0,0.9,0c0,1.9,0,3.8,0,5.7C788.3,110.5,787.9,110.5,787.6,110.5z"/>
	<path class="st0" d="M795.7,104.7c0.3,0,0.6,0,0.9,0c0.1,0.5,0.2,4.5,0,5.8c-0.3,0-0.6,0-0.9,0
		C795.7,108.6,795.7,106.7,795.7,104.7z"/>
	<path class="st0" d="M835.2,121.8c-0.3,0-0.6,0-1,0c0-1.9,0-3.9,0-5.8c0.4,0,0.6,0,1,0C835.2,117.9,835.1,119.8,835.2,121.8z"/>
	<path class="st0" d="M817.6,121.8c-0.3,0-0.6,0-0.9,0c0-2,0-3.8,0-5.8c0.3,0,0.6,0,0.9,0C817.6,118,817.6,119.9,817.6,121.8z"/>
	<path class="st0" d="M1187.5,72c0,2.2,0,4.4,0,6.6c-0.3,0-0.5,0-0.8,0c0-2.2,0-4.4,0-6.6C1186.9,72,1187.1,72,1187.5,72z"/>
	<path class="st0" d="M1165.8,84.9c0,2.2,0,4.4,0,6.6c-0.3,0-0.5,0-0.8,0c0-2.2,0-4.4,0-6.6C1165.3,84.9,1165.6,84.9,1165.8,84.9z"
		/>
	<path class="st0" d="M1168,78.6c-0.3,0-0.5,0-0.7,0c0-2.2,0-4.4,0-6.6c0.2,0,0.5,0,0.7,0C1168,74.2,1168,76.4,1168,78.6z"/>
	<path class="st0" d="M1127.8,104.5c-0.2,0-0.5,0-0.7,0c0-2.2,0-4.4,0-6.6c0.2,0,0.5,0,0.7,0
		C1127.8,100.1,1127.8,102.3,1127.8,104.5z"/>
	<path class="st0" d="M1133.7,117.5c-0.2,0-0.5,0-0.7,0c0-2.2,0-4.4,0-6.6c0.2,0,0.5,0,0.7,0c0,1.1,0,2.2,0,3.3
		C1133.7,115.3,1133.7,116.3,1133.7,117.5z"/>
	<path class="st0" d="M1207,72c0.2,0,0.5,0,0.7,0c0,2.2,0,4.4,0,6.6c-0.2,0-0.5,0-0.7,0C1207,76.4,1207,74.2,1207,72z"/>
	<path class="st0" d="M1148.5,78.6c-0.3,0-0.5,0-0.7,0c0-2.2,0-4.4,0-6.6c0.2,0,0.5,0,0.7,0C1148.5,74.2,1148.5,76.4,1148.5,78.6z"
		/>
	<path class="st0" d="M1178.2,104.5c0-2.2,0-4.4,0-6.6c0.2,0,0.5,0,0.7,0c0,2.2,0,4.4,0,6.6C1178.7,104.5,1178.5,104.5,1178.2,104.5
		z"/>
	<path class="st0" d="M833.9,104.7c0.3,0,0.6,0,0.9,0c0,2,0,3.8,0,5.8c-0.3,0-0.6,0-0.9,0C833.9,108.6,833.9,106.7,833.9,104.7z"/>
	<path class="st0" d="M1172.6,117.5c-0.3,0-0.5,0-0.7,0c0-2.2,0-4.4,0-6.6c0.2,0,0.5,0,0.7,0
		C1172.6,113.1,1172.6,115.3,1172.6,117.5z"/>
	<path class="st0" d="M1246.9,117.5c-0.3,0-0.5,0-0.7,0c0-2.2,0-4.4,0-6.6c0.2,0,0.5,0,0.7,0
		C1246.9,113.1,1246.9,115.3,1246.9,117.5z"/>
	<path class="st0" d="M1157.2,97.9c0.2,0,0.5,0,0.7,0c0,2.2,0,4.4,0,6.6c-0.2,0-0.5,0-0.7,0C1157.2,102.3,1157.2,100.1,1157.2,97.9z
		"/>
	<path class="st0" d="M1296.4,128.2c-1.1,2.7-2.1,5.2-3.2,7.8c-0.2,0-0.4,0-0.6,0c0-0.1,0.1-0.3,0.1-0.4c0.9-2.3,1.9-4.7,2.8-7
		C1295.8,128.1,1295.8,128.1,1296.4,128.2z"/>
	<path class="st0" d="M1156.9,135c-0.2,0-0.5,0-0.7,0c0-2.2,0-4.4,0-6.6c0.1,0,0.2,0,0.4,0c0.1,0,0.2,0,0.4,0
		C1156.9,130.6,1156.9,132.8,1156.9,135z"/>
	<path class="st0" d="M1175.9,135c-0.2,0-0.5,0-0.7,0c0-2.2,0-4.4,0-6.6c0.2,0,0.4,0,0.7,0C1175.9,130.6,1175.9,132.8,1175.9,135z"
		/>
	<path class="st0" d="M810.5,129.7c0,0.3,0,0.6,0,0.9c-1,0-2,0-3,0c0-0.3,0-0.6,0-0.9C808.5,129.7,809.5,129.7,810.5,129.7z"/>
	<path class="st0" d="M801.8,102.4c-0.4,0.5-0.7,0.9-1,1.3c-0.2,0.3-0.6,0.1-1,0.2c0.3-0.6,0.5-1.1,0.7-1.6
		C800.9,102.4,801.2,102.4,801.8,102.4z"/>
	<path class="st0" d="M840.2,113.7c-0.3,0.4-0.6,0.7-0.8,1c-0.3,0.4-0.6,0.6-1.2,0.4c0.2-0.5,0.4-0.9,0.7-1.4
		C839.3,113.7,839.7,113.7,840.2,113.7z"/>
	<path class="st0" d="M826.1,125.1c0.3,0,0.6,0,0.9,0c0,0.3,0,0.7,0,1c-0.3,0-0.6,0-0.9,0C826.1,125.8,826.1,125.4,826.1,125.1z"/>
	<path class="st0" d="M816.7,113.8c0.3,0,0.6,0,0.9,0c0,0.3,0,0.7,0,1c-0.3,0-0.6,0-0.9,0C816.7,114.5,816.7,114.1,816.7,113.8z"/>
	<path class="st0" d="M835.1,113.8c0,0.3,0,0.7,0,1c-0.3,0-0.6,0-0.9,0c0-0.3,0-0.7,0-1C834.5,113.8,834.8,113.8,835.1,113.8z"/>
	<path class="st0" d="M795.8,103.5c0-0.3,0-0.7,0-1c0.3,0,0.6,0,0.9,0c0,0.3,0,0.7,0,1C796.4,103.5,796.1,103.5,795.8,103.5z"/>
	<path class="st0" d="M788.6,102.5c0,0.3,0,0.7,0,1c-0.3,0-0.6,0-0.9,0c0-0.3,0-0.6,0-1C787.9,102.5,788.2,102.5,788.6,102.5z"/>
	<path class="st0" d="M1181.4,126.5c0.2,0.1,0.3,0.1,0.5,0.2c0,0,0,0.1,0,0.1c-0.6,0.3-1,1.2-2,0.9
		C1180.4,127.3,1180.9,126.9,1181.4,126.5z"/>
	<path class="st0" d="M1176.5,110.3c0.5-0.5,0.9-0.8,1.4-1.2c0.3-0.2,0.5,0,0.8,0.1c-0.5,0.4-1,0.7-1.5,1
		C1177.1,110.3,1176.9,110.3,1176.5,110.3z"/>
	<path class="st0" d="M1185,96.3c-0.5,0.3-0.9,0.7-1.4,1c-0.1,0.1-0.3,0-0.5,0c0,0,0-0.1,0-0.1c0.4-0.4,0.8-0.7,1.3-1.1
		c0.1-0.1,0.4,0,0.6,0C1185,96.2,1185,96.2,1185,96.3z"/>
	<path class="st0" d="M834.8,103.6c-0.3,0-0.6,0-0.9,0c0-0.4,0-0.7,0-1c0.3,0,0.6,0,0.9,0C834.8,102.8,834.8,103.2,834.8,103.6z"/>
	<path class="st0" d="M1154,70.1c0.2,0.1,0.4,0.1,0.6,0.2c-0.5,0.4-0.9,0.7-1.4,1c-0.1,0.1-0.4,0-0.6-0.1
		C1153.1,70.9,1153.6,70.4,1154,70.1z"/>
</g>
<g>
	<g>
		<path class="st0" d="M169.9,95.2h6.9c6.4,0,10.8,3.9,10.8,10.6c0,6.8-4.3,10.6-10.8,10.6h-6.9V95.2z M176.5,114.7
			c5.3,0,8.7-3,8.7-8.8c0-5.7-3.6-8.8-8.7-8.8h-4.6v17.6h4.6V114.7z"/>
		<path class="st0" d="M192.4,95.2h12v1.9h-10v7.7h8.2v1.9h-8.2v7.9H205v1.9h-12.6V95.2z"/>
		<path class="st0" d="M217.8,95.2h2.1v19.5h10v1.9h-12V95.2z"/>
		<path class="st0" d="M244.2,109.7h-8.6l-2.5,6.8H231l7.9-21.4h2.2l7.9,21.4h-2.2L244.2,109.7z M239.8,97.4c0,0-0.4,1.8-0.8,2.8
			l-2.9,7.7h7.3l-2.8-7.7C240.4,99.2,240,97.4,239.8,97.4L239.8,97.4z"/>
		<path class="st0" d="M260.1,112.6c0,0,2.2,2.4,5.5,2.4c2.4,0,4.3-1.4,4.3-3.7c0-5.4-10.6-4-10.6-10.6c0-3,2.8-5.8,6.6-5.8
			c3.7,0,5.7,2.1,5.7,2.1l-1,1.8c0,0-1.9-1.8-4.7-1.8s-4.6,1.8-4.6,3.7c0,5.1,10.6,3.6,10.6,10.6c0,3.2-2.5,5.8-6.5,5.8
			c-4.4,0-6.8-2.8-6.8-2.8L260.1,112.6z"/>
		<path class="st0" d="M276.9,95.2h12v1.9h-10v7.7h8.2v1.9h-8.2v7.9h10.5v1.9h-12.6V95.2z"/>
		<path class="st0" d="M294.3,95.2h6.4c2.2,0,3.2,0.3,4,0.6c2.1,0.8,3.2,2.9,3.2,5.5c0,2.9-1.7,5.1-4,5.8l0,0c0,0,0.3,0.3,0.6,0.8
			l4.7,8.6h-2.4l-4.8-9h-5.4v9h-2.1V95.2H294.3z M301.5,105.7c2.6,0,4.3-1.7,4.3-4.3c0-1.8-0.7-3-1.9-3.7c-0.7-0.3-1.4-0.6-3-0.6
			h-4.3v8.6H301.5z"/>
		<path class="st0" d="M313.4,95.2h12v1.9h-10v7.7h8.2v1.9h-8.2v7.9h10.5v1.9h-12.6V95.2z"/>
		<path class="st0" d="M330.6,95.2h2.1l10.9,15.3c0.7,1.1,1.8,2.9,1.8,2.9l0,0c0,0-0.1-1.8-0.1-2.9V95.2h2.1v21.4h-2.1l-10.9-15.3
			c-0.7-1.1-1.8-2.9-1.8-2.9l0,0c0,0,0.1,1.8,0.1,2.9v15.3h-2.1V95.2z"/>
		<path class="st0" d="M364.1,109.7h-8.6l-2.5,6.8h-2.2l7.9-21.4h2.2l7.9,21.4h-2.2L364.1,109.7z M359.8,97.4c0,0-0.4,1.8-0.8,2.8
			l-2.9,7.7h7.3l-2.8-7.7C360.4,99.2,359.9,97.4,359.8,97.4L359.8,97.4z"/>
	</g>
	<g>
		<path class="st0" d="M175.1,124.8c2.5,0,3.9,1.4,3.9,1.4l-0.6,0.8c0,0-1.2-1.2-3.2-1.2c-2.5,0-4.3,1.9-4.3,4.4s1.8,4.6,4.3,4.6
			c2.1,0,3.5-1.4,3.5-1.4l0.6,0.7c0,0-1.4,1.7-4,1.7c-3.2,0-5.4-2.5-5.4-5.5C169.9,127.1,172.2,124.8,175.1,124.8z"/>
		<path class="st0" d="M181.5,124.9h1.1v4.8h6.2v-4.8h1.1v10.6h-1.1v-4.8h-6.2v4.8h-1.1V124.9z"/>
		<path class="st0" d="M192.8,124.9h1.1v10.6h-1.1V124.9z"/>
		<path class="st0" d="M197,124.9h1.1v9.7h5v1h-5.9v-10.6H197z"/>
		<path class="st0" d="M204.8,124.9h5.9v1h-5v3.9h4v1h-4v3.9h5.3v1h-6.2V124.9z"/>
	</g>
	<g>
		<path class="st0" d="M169.9,65.2h4v14c0,2.9,1.9,4.6,4.8,4.6s4.8-1.7,4.8-4.6V65.4h4v14c0,4.8-3.5,8.2-8.7,8.2s-8.8-3.3-8.8-8.2
			V65.2H169.9z"/>
		<path class="st0" d="M192.5,65.2h4l8.3,12.6c0.8,1.2,1.8,3.3,1.8,3.3l0,0c0,0-0.3-2.1-0.3-3.3V65.2h3.9v21.7h-3.9l-8.3-12.6
			c-0.8-1.2-1.8-3.3-1.8-3.3l0,0c0,0,0.3,2.1,0.3,3.3v12.6h-4V65.2z"/>
		<path class="st0" d="M215.9,65.2h4v21.7h-4V65.2z"/>
		<path class="st0" d="M222.5,65.2h4.3l4.8,14.1c0.4,1.2,0.8,3.2,0.8,3.2l0,0c0,0,0.4-1.9,0.8-3.2l4.8-14.1h4.3l-7.9,21.7h-3.9
			L222.5,65.2z"/>
		<path class="st0" d="M244.9,65.2h13v3.5h-9.1v5.7h7.3v3.5h-7.3v5.8h9.5v3.5h-13.5V65.2H244.9z"/>
		<path class="st0" d="M262.6,65.2h7.1c2.4,0,3.5,0.1,4.4,0.6c2.2,1,3.6,3,3.6,5.9c0,2.6-1.4,5-3.7,5.9l0,0c0,0,0.3,0.3,0.7,1.1
			l4.4,8.2h-4.4l-4.3-8.2h-3.7v8.2h-4L262.6,65.2L262.6,65.2z M270.1,75.4c2.1,0,3.5-1.2,3.5-3.5c0-2.1-0.8-3.3-4-3.3h-3v6.8H270.1z
			"/>
		<path class="st0" d="M283.2,81.4c0,0,2.4,2.4,5.4,2.4c1.7,0,3.2-0.8,3.2-2.6c0-3.9-10.2-3.2-10.2-9.8c0-3.6,3.2-6.4,7.3-6.4
			c4.3,0,6.5,2.4,6.5,2.4l-1.7,3.2c0,0-2.1-1.9-4.8-1.9c-1.8,0-3.3,1.1-3.3,2.6c0,3.9,10.2,2.9,10.2,9.8c0,3.5-2.6,6.4-7.2,6.4
			c-4.8,0-7.5-2.9-7.5-2.9L283.2,81.4z"/>
		<path class="st0" d="M299.7,65.2h4v21.7h-4V65.2z"/>
		<path class="st0" d="M309.1,65.2h7.5c6.6,0,11.1,4,11.1,10.8c0,6.8-4.4,10.9-11.1,10.9h-7.5V65.2z M316.3,83.5
			c4.4,0,7.2-2.6,7.2-7.5c0-4.8-2.9-7.5-7.2-7.5h-3.2v14.9C313.1,83.5,316.3,83.5,316.3,83.5z"/>
		<path class="st0" d="M342.5,81.4h-7.6l-1.8,5.5h-4l7.6-21.7h4.1l7.6,21.7h-4L342.5,81.4z M338.7,68.9c0,0-0.6,2.1-1,3.3l-1.9,5.8
			h5.7l-1.9-5.8C339.2,71.2,338.8,68.9,338.7,68.9L338.7,68.9z"/>
		<path class="st0" d="M351.2,65.2h7.5c6.6,0,11.1,4,11.1,10.8c0,6.8-4.4,10.9-11.1,10.9h-7.5V65.2z M358.4,83.5
			c4.4,0,7.2-2.6,7.2-7.5c0-4.8-2.9-7.5-7.2-7.5h-3.2v14.9C355.2,83.5,358.4,83.5,358.4,83.5z"/>
	</g>
	<g>
		<path class="st0" d="M123.1,62.6c-9.8-9.8-23.2-15.8-38.2-15.8s-28.3,6.1-38.2,15.8c-9.8,9.8-15.8,23.2-15.8,38.2
			s6.1,28.3,15.8,38.2c9.8,9.8,23.2,15.8,38.2,15.8s28.3-6.1,38.2-15.8c9.8-9.8,15.8-23.2,15.8-38.2S132.8,72.3,123.1,62.6 M85,45.4
			c15.2,0,29,6.2,39.1,16.2c10,10,16.2,23.8,16.2,39.1c0,15.2-6.2,29-16.2,39.1c-10,9.8-23.8,16-39.1,16c-15.2,0-29-6.2-39.1-16.2
			c-10-10-16.2-23.8-16.2-39.1c0-15.2,6.2-29,16.2-39.1C56,51.7,69.8,45.4,85,45.4z"/>
	</g>
	<g>
		<path class="st0" d="M147.1,95.8l1.5-0.7l0,0l-1.7-0.3L147.1,95.8z M141.9,98.1l4.8-2.2l-0.1-1.2l-3.6-0.8
			c-0.3-0.1-0.6-0.1-0.8-0.1c-0.1,0-0.3,0.1-0.4,0.1c-0.1,0.1-0.1,0.3-0.1,0.6c0,0.1,0,0.4,0,0.7h-0.3l-0.1-2.5h0.3v0.6l8.3,1.7v0.3
			l-6.4,2.9c-0.3,0.1-0.4,0.1-0.7,0.3c-0.3,0.1-0.4,0.3-0.6,0.4c-0.1,0.1-0.3,0.4-0.1,0.7h-0.3l-0.1-2.4h0.3L141.9,98.1z
			 M140.3,85.3l0.1,0.7l6.4-1.1c0.4,0,0.6-0.1,0.7-0.3c0.3-0.1,0.3-0.6,0.1-1h0.3l0.3,1.4l-5.8,4.8l0,0l5.5-1c0.3,0,0.4-0.1,0.6-0.4
			c0.1-0.3,0.1-0.4,0.1-0.7h0.3l0.4,2.1H149l-0.1-0.7l-8,1.4v-0.3l5.9-4.8l0,0l-5,0.8c-0.4,0.1-0.7,0.3-0.7,0.4s0,0.4,0,0.8h-0.3
			l-0.4-2.2L140.3,85.3z M139.3,83l-1.4-4.3h0.3l0.3,0.8l6.5-2.2c0.3-0.1,0.3-0.1,0.4-0.4c0-0.1,0-0.4-0.1-0.7l0.3-0.1l1.4,4.3
			l0.4-0.1l0.1,0.3l-2.5,0.8l-0.1-0.3l0.4-0.1c0.7-0.1,1-0.6,1-1s0-1-0.4-1.8l-0.1-0.4l-1.8,0.7l0.4,1.2l1.1-0.4l0.1,0.3l-2.8,1
			l-0.1-0.3c0.3-0.1,0.6-0.3,0.8-0.4c0.3-0.1,0.3-0.4,0.3-0.7c0-0.1,0-0.3-0.1-0.7l-5,1.7c0.1,0.6,0.4,1.1,0.7,1.7
			c0.3,0.3,0.6,0.6,0.8,0.6c0.3,0,0.6,0,1-0.1l0.6-0.1l0.1,0.3l-2.8,1l-0.1-0.3L139.3,83z M140.3,67.7l-3.9,1.9h0.3
			c-0.1,1.2,0,2.1,0.4,2.8c0.3,0.6,0.7,1,1.1,1.2s1,0.6,1.5,0.6s1,0,1.5-0.3c0.4-0.3,0.8-0.7,1.1-1.2c0.3-0.6,0.4-1.1,0.4-1.7
			c0-0.7-0.1-1.2-0.4-1.8C141.8,68.7,141.1,68,140.3,67.7z M140.6,65.6l0.8,1.5l-0.7,0.3c1,0.6,1.5,1.2,2.1,2.1
			c0.3,0.6,0.6,1.2,0.6,1.9s-0.1,1.4-0.4,1.9c-0.3,0.6-0.7,1-1.2,1.2s-1.1,0.4-1.8,0.3c-0.7-0.1-1.2-0.4-1.8-0.8s-1-1-1.4-1.7l0,0
			c0,0.1,0,0.6,0.1,1.2c0,0.7,0.1,1.1,0.1,1.5c0.1,0.4,0.3,0.8,0.4,1.1c0.1,0.3,0.3,0.4,0.4,0.6V77c-0.3-0.1-0.6-0.4-0.7-0.8
			c-0.1-0.3-0.3-0.7-0.4-1.1s-0.1-0.7-0.3-1c0-0.3-0.1-0.8-0.3-1.4c-0.1-1.2-0.1-2.2-0.1-3l-1,0.6c-0.1,0.1-0.3,0.1-0.3,0.3
			s0,0.1,0,0.3s0.1,0.3,0.1,0.6c0,0.1,0.1,0.3,0.3,0.4l-0.1,0.1l-1.2-2.5l0.1-0.1l0.4,0.7l6.2-3.2c0.3-0.1,0.4-0.4,0.1-1v-0.1
			L140.6,65.6z M132.1,67.7l-2.6-3.6l0.1-0.1l0.6,0.7l5.7-4c0.1-0.1,0.3-0.3,0.3-0.4s-0.1-0.4-0.3-0.7l0.1-0.1l2.6,3.7l0.4-0.3
			l0.1,0.3l-2.2,1.5l-0.1-0.3l0.4-0.3c0.6-0.4,0.8-0.8,0.7-1.2c0-0.4-0.4-1-0.8-1.7l-0.3-0.3l-1.7,1.1l0.7,1l1-0.7l0.1,0.1l-2.4,1.7
			l-0.1-0.1c0.3-0.1,0.6-0.4,0.7-0.6c0.1-0.1,0.1-0.4,0.1-0.7c0-0.1-0.1-0.3-0.3-0.6l-4.3,3c0.3,0.6,0.7,1,1.1,1.4
			c0.3,0.3,0.7,0.4,1,0.4s0.6-0.1,1-0.4l0.6-0.4l0.1,0.3l-2.4,1.7l-0.1-0.3L132.1,67.7z M133.5,55.7l-2.2,2.1l-0.1-0.1l0.6-0.6
			c0.4-0.4,0.7-0.7,0.8-1.1c0.1-0.3,0-0.7-0.3-1.1c-0.1-0.1-0.4-0.3-0.6-0.4c-0.3-0.1-0.4-0.1-0.6-0.1s-0.4,0.1-0.6,0.3
			c-0.3,0.1-0.3,0.4-0.4,0.7c0,0.3,0,0.6,0.1,0.8c0.1,0.3,0.3,0.7,0.4,1.2c0.1,0.6,0.3,1,0.4,1.4c0.1,0.4,0.1,0.8,0,1.2
			c0,0.4-0.3,0.7-0.6,1c-0.3,0.3-0.7,0.4-1,0.6c-0.4,0.1-0.8,0.1-1.2,0c-0.4-0.1-0.8-0.3-1.2-0.6c-0.4-0.3-0.8-0.6-1.1-1
			c-0.4-0.4-0.8-1-1-1.5c-0.3-0.6-0.3-1.1-0.3-1.5c0.1-0.6,0.3-1,0.7-1.2c0.3-0.3,0.7-0.4,1.1-0.6c0.4-0.1,0.8,0,1.2,0.1
			s0.8,0.4,1.1,0.7c0.1,0.3,0.4,0.4,0.6,0.7c0.1,0.3,0.1,0.6,0.1,0.8c0,0.3-0.1,0.6-0.3,0.7c-0.1,0.1-0.4,0.3-0.7,0.3
			s-0.6-0.1-0.7-0.4c0,0-0.1-0.1-0.1-0.3l0.3-0.1c0.4,0.3,0.7,0.3,1,0c0.1-0.1,0.1-0.3,0.3-0.4c0-0.1,0-0.4,0-0.6
			c0-0.3-0.1-0.4-0.3-0.6c-0.3-0.3-0.6-0.4-0.8-0.6c-0.3-0.1-0.7-0.1-1,0c-0.3,0.1-0.6,0.3-0.8,0.4c-0.3,0.3-0.6,0.7-0.7,1.1
			c-0.1,0.4-0.1,1,0,1.4c0.1,0.6,0.4,1,0.8,1.4c0.4,0.4,0.8,0.7,1.2,0.8c0.4,0.1,1,0.3,1.4,0.3s0.8-0.1,1.1-0.6
			c0.3-0.3,0.4-0.6,0.4-0.8c0-0.3,0-0.7-0.1-1.1c-0.1-0.4-0.3-0.8-0.4-1.4c-0.1-0.4-0.3-0.8-0.4-1.2c-0.1-0.3-0.1-0.7,0-1
			c0-0.3,0.1-0.6,0.4-0.8s0.7-0.4,1.2-0.3s1,0.4,1.4,0.7c0.1,0.1,0.4,0.4,0.6,0.8l0.4-0.3L133.5,55.7z M119.7,47.5l0.4-1.7l0,0
			l-1.2,1.1L119.7,47.5z M118.4,53l1.1-5.1l-1-0.7l-2.8,2.4c-0.3,0.3-0.4,0.4-0.6,0.7c-0.1,0.1-0.1,0.3-0.1,0.4s0.1,0.3,0.3,0.4
			c0.1,0.1,0.3,0.3,0.6,0.4l-0.1,0.1l-2.2-1.4l0.1-0.1l0.6,0.3l6.4-5.7l0.3,0.1l-1.5,6.9c0,0.3-0.1,0.4-0.1,0.7c0,0.3,0,0.6,0,0.7
			c0,0.3,0.1,0.4,0.4,0.6l-0.1,0.1l-1.9-1.2l0.1-0.1L118.4,53z M114,41.4l-0.1,0.1l-0.7-0.4l-3.5,6.8c0.4,0.3,0.8,0.4,1.1,0.6
			c0.3,0.1,0.7,0.1,1,0.1c0.3,0,0.6-0.3,0.7-0.6l0.8-1.8l0.3,0.1l-1.8,3.5l-0.3-0.1l0.3-0.4l-3.7-1.9l0.1-0.1l0.7,0.4l3.2-6.2
			c0.1-0.1,0.1-0.4,0-0.6c-0.1-0.1-0.3-0.3-0.6-0.4l0.1-0.1L114,41.4z M102.3,45.2L98,43.9v-0.3l0.8,0.3l1.9-6.6
			c0-0.3,0-0.4-0.1-0.6c-0.1-0.1-0.3-0.3-0.7-0.3v-0.3l4.3,1.2l0.1-0.6l0.3,0.1l-0.6,2.6h-0.1l0.1-0.4c0.1-0.7,0.1-1.1-0.1-1.4
			s-0.8-0.6-1.7-0.8h-0.6l-0.6,1.9l1.2,0.4l0.3-1.1h0.3l-0.8,2.8h-0.3c0.1-0.3,0.1-0.7,0.1-0.8c0-0.3-0.1-0.4-0.4-0.6
			c-0.1-0.1-0.3-0.1-0.6-0.3l-1.4,5.1c0.6,0.1,1.1,0.3,1.7,0.4c0.4,0,0.7-0.1,1-0.3s0.4-0.4,0.4-0.8l0.1-0.6l0.3,0.1l-0.8,2.8
			L102,46L102.3,45.2z M96,39.2c0-0.7-0.1-1.2-0.4-1.8c-0.3-0.6-0.8-1.1-1.4-1.5c-0.6-0.4-1.2-0.7-2.1-0.7c-0.8-0.1-1.5-0.1-2.1,0
			l-0.8,6.9c0.6,0.3,1.2,0.4,2.1,0.6c0.8,0.1,1.5,0,2.2-0.3s1.2-0.7,1.7-1.2C95.6,40.5,95.9,39.9,96,39.2z M87.5,42l0.8,0.1l0.8-6.9
			c0-0.4-0.1-0.6-0.7-0.7h-0.1v-0.3l4,0.6c0.8,0.1,1.4,0.3,1.9,0.6s1,0.6,1.4,1c0.3,0.3,0.4,0.6,0.7,0.8c0.1,0.3,0.3,0.7,0.4,1
			c0.1,0.4,0.1,0.7,0,1.1c-0.1,1-0.7,1.8-1.5,2.5c-0.4,0.3-0.7,0.4-1.1,0.7c-0.4,0.1-0.8,0.3-1.5,0.4c-0.6,0-1.2,0-2.1,0l-3.2-0.4
			L87.5,42z M80.2,38.4c-0.1-0.7-0.4-1.2-0.8-1.7c-0.4-0.6-1.1-0.8-1.8-1.1s-1.4-0.3-2.2-0.3c-0.8,0.1-1.5,0.3-1.9,0.6l0.8,6.9
			c0.6,0.1,1.2,0.1,2.2,0c0.8-0.1,1.4-0.4,2.1-0.8c0.6-0.4,1.1-1,1.4-1.7C80.2,39.6,80.2,39.1,80.2,38.4z M72.7,43.2l0.8-0.1
			l-0.8-6.9c0-0.4-0.3-0.6-0.8-0.4h-0.1v-0.3l4-0.6c0.8-0.1,1.4-0.1,2.1,0c0.6,0.1,1.1,0.3,1.5,0.6c0.3,0.1,0.6,0.4,0.8,0.7
			c0.3,0.3,0.4,0.6,0.7,0.8c0.1,0.3,0.3,0.7,0.3,1c0.1,1-0.1,1.9-0.8,2.8c-0.3,0.4-0.6,0.7-1,1c-0.3,0.3-0.8,0.6-1.4,0.7
			s-1.2,0.4-1.9,0.4l-3.3,0.7V43.2z M66.6,39.6l-1-1.4l0,0v1.7L66.6,39.6z M69.9,44.1l-3.2-4.3l-1.1,0.3v3.7c0,0.3,0,0.7,0.1,0.8
			c0,0.1,0.1,0.3,0.3,0.3c0.1,0,0.3,0,0.6,0c0.1,0,0.3-0.1,0.7-0.1V45l-2.5,0.7v-0.3l0.6-0.1v-8.4l0.3-0.1l4.1,5.7
			c0.1,0.1,0.3,0.4,0.4,0.6c0.1,0.3,0.3,0.4,0.6,0.6c0.1,0.1,0.4,0.1,0.7,0v0.3l-2.2,0.7v-0.3L69.9,44.1z M60.7,43.1
			c-0.3-0.6-0.8-1-1.4-1.2c-0.6-0.3-1.2-0.4-2.1-0.4c-0.7,0-1.4,0.1-2.1,0.6c-0.8,0.4-1.4,0.8-1.7,1.1l3.2,6.2
			c0.6-0.1,1.2-0.4,2.1-0.8c0.7-0.4,1.2-0.8,1.7-1.4c0.4-0.6,0.7-1.2,0.7-1.9C61.1,44.3,60.9,43.8,60.7,43.1z M55.3,50.3l0.8-0.4
			l-3.2-6.2c-0.1-0.4-0.6-0.4-1-0.1l-0.1,0.1l-0.1-0.1l3.6-1.8c0.7-0.4,1.4-0.6,1.9-0.7c0.6-0.1,1.1-0.1,1.7,0
			c0.4,0.1,0.7,0.1,1,0.4c0.3,0.1,0.6,0.4,0.8,0.6c0.3,0.3,0.4,0.6,0.7,0.8c0.4,1,0.6,1.9,0.1,2.9c-0.1,0.4-0.3,0.8-0.6,1.2
			s-0.6,0.7-1,1.1c-0.4,0.4-1,0.7-1.7,1.1l-2.8,1.4L55.3,50.3z M52,52.8l0.7-0.6l-4.1-5.7c-0.1-0.1-0.3-0.3-0.4-0.3
			c-0.1,0-0.4,0.1-0.7,0.3l0,0l2.1-1.5l0.1,0.1l-0.7,0.6l3.9,5.5c0.1,0.1,0.1,0.3,0.3,0.3c0.1,0.1,0.3,0.1,0.3,0.1
			c0.1,0,0.3-0.1,0.7-0.4l0.1,0.1l-2.1,1.5L52,52.8z M43.8,48.3l2.1,2.4l-0.1,0.1l-0.6-0.6c-0.3-0.4-0.7-0.7-1-0.8
			c-0.3-0.1-0.7,0-1.1,0.3c-0.1,0.1-0.3,0.4-0.4,0.6c-0.1,0.1-0.1,0.4-0.1,0.6s0.1,0.4,0.3,0.6c0.1,0.3,0.4,0.4,0.7,0.4s0.6,0,0.8,0
			c0.3-0.1,0.7-0.1,1.2-0.4c0.6-0.1,1.1-0.3,1.4-0.4c0.4-0.1,0.8-0.1,1.2,0c0.4,0.1,0.7,0.3,1,0.6s0.4,0.7,0.6,1
			c0,0.4,0,0.8-0.1,1.2c-0.1,0.4-0.3,0.8-0.6,1.2c-0.3,0.4-0.6,0.8-1,1.1c-0.6,0.4-1,0.7-1.5,1c-0.6,0.1-1.1,0.3-1.5,0.1
			c-0.6-0.1-1-0.3-1.2-0.7c-0.3-0.3-0.4-0.7-0.6-1.1c0-0.4,0-0.8,0.1-1.2c0.1-0.4,0.4-0.8,0.8-1.1c0.3-0.1,0.4-0.4,0.8-0.4
			c0.3-0.1,0.6-0.1,0.8-0.1c0.3,0,0.6,0.1,0.7,0.3c0.1,0.1,0.3,0.4,0.3,0.7s-0.1,0.6-0.4,0.7c0,0-0.1,0.1-0.3,0.1L46,54
			c0.3-0.3,0.3-0.7,0-1c-0.1-0.1-0.3-0.1-0.4-0.3c-0.1,0-0.4,0-0.6,0c-0.3,0-0.4,0.1-0.6,0.3c-0.3,0.3-0.4,0.6-0.6,0.8
			c-0.1,0.3-0.1,0.7,0,1c0,0.3,0.1,0.6,0.4,0.8c0.3,0.3,0.7,0.6,1.1,0.7c0.4,0.1,1,0.1,1.4,0c0.6-0.1,1-0.4,1.4-0.7
			c0.4-0.4,0.7-0.7,1-1.2c0.3-0.4,0.3-1,0.3-1.4c0-0.4-0.1-0.8-0.4-1.1c-0.3-0.3-0.6-0.4-0.8-0.4c-0.3,0-0.7,0-1.1,0
			c-0.4,0.1-0.8,0.1-1.4,0.3c-0.4,0.1-0.8,0.3-1.2,0.3c-0.3,0-0.7,0-1,0c-0.3-0.1-0.6-0.3-0.8-0.6c-0.3-0.3-0.4-0.7-0.3-1.2
			c0.1-0.6,0.4-1,0.8-1.4c0.1-0.1,0.4-0.3,1-0.6l-0.6,0.3L43.8,48.3z M34.4,60.5l3.3,2.9v-0.3c1.1-0.4,1.9-0.8,2.5-1.4
			c0.4-0.4,0.7-1,0.8-1.5c0.1-0.6,0.1-1.1,0-1.7c-0.1-0.6-0.4-1-0.8-1.2c-0.4-0.4-1-0.6-1.5-0.6c-0.6,0-1.1,0-1.8,0.3
			c-0.6,0.3-1.1,0.6-1.5,1.1C34.7,58.7,34.3,59.5,34.4,60.5z M32.3,61.1l1.1-1.4l0.6,0.6c0.3-1.1,0.6-1.9,1.2-2.6
			c0.4-0.6,1-1,1.7-1.2s1.2-0.4,1.9-0.4c0.7,0,1.1,0.3,1.7,0.6c0.4,0.4,0.8,1,1,1.5c0.1,0.6,0.1,1.2-0.1,1.9c-0.1,0.7-0.6,1.2-1,1.9
			l0,0c0.1-0.1,0.6-0.3,1.1-0.6c0.6-0.3,1-0.6,1.4-0.7c0.4-0.3,0.7-0.6,1-0.8c0.1-0.3,0.3-0.4,0.4-0.6h0.1c0,0.3-0.1,0.7-0.4,1
			s-0.6,0.6-0.8,0.8c-0.3,0.3-0.6,0.4-0.8,0.6C42,61.8,41.6,62,41,62.3c-1.1,0.6-2.1,1-2.8,1.4l0.8,0.7c0.1,0.1,0.3,0.1,0.3,0.1
			c0.1,0,0.1,0,0.3-0.1c0.1-0.1,0.3-0.3,0.4-0.4c0-0.1,0.1-0.1,0.3-0.3l0.1,0.1L38.5,66l-0.1-0.1l0.6-0.6l-5.3-4.6
			c-0.3-0.3-0.6-0.1-1,0.3l-0.1,0.1L32.3,61.1z M37.3,68.1L35.1,72l-0.1-0.1l0.4-0.7l-5.9-3.5c-0.1-0.1-0.4-0.1-0.6,0
			c-0.1,0.1-0.3,0.3-0.4,0.6l-0.1-0.1l2.2-3.9L30.1,64l0.1-0.3l2.4,1.4l-0.1,0.3L32,65.1c-0.6-0.3-1-0.4-1.4-0.1
			c-0.3,0.3-0.7,0.7-1.1,1.5l-0.1,0.3l1.7,1l0.7-1.1l-1.2-0.7l0.1-0.1l2.5,1.5L33,67.4c-0.3-0.1-0.6-0.3-0.8-0.4
			c-0.3,0-0.4,0-0.7,0.1c-0.1,0.1-0.3,0.3-0.4,0.6l4.6,2.6c0.3-0.6,0.6-1,0.8-1.5c0.1-0.4,0.1-0.7,0-1c-0.1-0.3-0.4-0.6-0.7-0.7
			l-0.6-0.3l0.1-0.3l2.5,1.4l-0.1,0.3L37.3,68.1z M32.2,75.6l-4.6-3.9c-0.1-0.1-0.3-0.1-0.3-0.3c-0.3-0.1-0.4-0.1-0.6,0
			c-0.1,0.1-0.3,0.3-0.4,0.6v0.1L26.2,72l1.1-2.4l0.1,0.1l-0.3,0.7l6.5,5.5l-0.1,0.3l-7.3-0.4c-0.4,0-0.7,0-1,0
			c-0.3,0-0.4,0.1-0.4,0.1c-0.1,0.1-0.1,0.3-0.3,0.4l-0.1,0.3l-0.1-0.1l1.2-2.6l0.1,0.1l-0.4,1L32.2,75.6z M30,83.9l0.3-0.8
			l-6.8-1.9c-0.3,0-0.4,0-0.6,0.1c-0.1,0.1-0.3,0.4-0.3,0.7h-0.3l0.7-2.5h0.3l-0.3,0.8l6.5,1.8c0.1,0,0.3,0.1,0.4,0.1s0.3,0,0.3-0.1
			c0.1-0.1,0.1-0.3,0.3-0.7h0.3l-0.7,2.5H30z M28.5,91.3l0.1-0.7l-6.4-1.2c-0.3,0-0.6,0-0.8,0c-0.3,0.1-0.4,0.4-0.6,0.8h-0.3
			l0.3-1.4l7.2-2.5l0,0l-5.5-1c-0.3,0-0.4,0-0.6,0.1c-0.1,0.1-0.3,0.4-0.4,0.7h-0.3l0.4-2.1H22l-0.1,0.7l8,1.4v0.3L22.6,89l0,0
			l5,0.8c0.4,0,0.7,0,0.8-0.1s0.1-0.4,0.3-0.7H29l-0.4,2.2L28.5,91.3z M20.4,94.5h-0.3l0.1-2.1h0.3v0.7l6.4,0.6
			c0.3,0,0.6,0.1,0.8,0.4c0.3,0.3,0.4,0.4,0.6,0.8c0.1,0.3,0.1,0.7,0.1,1s-0.1,0.7-0.3,1.1c-0.1,0.4-0.3,0.7-0.4,0.8
			c-0.4,0.4-0.8,0.6-1.4,0.6L20.8,98c-0.4,0-0.6,0.3-0.7,0.8h-0.3l0.1-2.5h0.3v0.8l6.2,0.4c0.4,0,0.8-0.1,1.1-0.4
			c0.3-0.3,0.4-0.7,0.6-1.2c0-0.4-0.1-0.8-0.3-1.1c-0.3-0.3-0.6-0.6-1-0.6l-5.7-0.4c-0.4,0-0.6,0.1-0.6,0.7H20.4z"/>
	</g>
	<g>
		<path class="st0" d="M82.8,158.9l-0.6,7.1c0,0.3,0,0.4,0.1,0.6c0.1,0.1,0.3,0.1,0.6,0.3c0,0,0.1,0,0.3,0v0.3l-2.6-0.1v-0.3h0.8
			l0.4-5.4l-3-0.3l-0.4,4.7c0,0.3,0,0.6,0.3,0.6c0.1,0,0.3,0.1,0.7,0.1v0.3l-2.6-0.1v-0.3h0.8l0.6-7.1c0-0.4-0.3-0.6-0.7-0.7h-0.1
			v-0.3l2.6,0.1v0.3H79l-0.1,1.9l3,0.3l0.1-1.4c0-0.1,0-0.3-0.1-0.4c-0.1-0.1-0.3-0.1-0.6-0.1h-0.3v-0.3l2.6,0.1v0.3L82.8,158.9z
			 M103.2,164.7l-4.4,1v-0.3l0.8-0.1l-1.5-6.9c0-0.3-0.1-0.4-0.3-0.4c-0.1,0-0.4,0-0.7,0v-0.3l4.4-1l-0.1-0.6h0.3l0.6,2.6H102
			l-0.1-0.4c-0.1-0.7-0.4-1-0.8-1.1c-0.4-0.1-1,0-1.9,0.1l-0.4,0.1l0.4,1.9l1.2-0.3l-0.3-1.2h0.3l0.7,2.9h-0.3
			c-0.1-0.4-0.1-0.7-0.3-0.8c-0.1-0.3-0.3-0.4-0.6-0.4c-0.1,0-0.3,0-0.7,0.1l1.2,5.3c0.6-0.1,1.1-0.3,1.7-0.4
			c0.4-0.3,0.6-0.4,0.7-0.7c0.1-0.3,0.1-0.6,0-1l-0.1-0.6h0.3l0.7,2.9h-0.3L103.2,164.7z M92.9,158.5v0.3l-0.8,0.1l1,7.6
			c0.4,0,0.8-0.1,1.2-0.3c0.4-0.1,0.7-0.3,1-0.4c0.3-0.3,0.3-0.6,0.3-0.8l-0.3-1.9h0.3L96,167h-0.3v-0.6l-4.3,0.6v-0.3l0.8-0.1
			l-0.8-7.1c0-0.3-0.1-0.4-0.3-0.4c-0.1,0-0.4,0-0.7,0v-0.3L92.9,158.5z M86.1,166.8h0.8l-0.1-7.1c0-0.3-0.1-0.4-0.3-0.4
			c-0.1-0.1-0.4-0.1-0.7-0.1v-0.3h2.6v0.3h-0.8l0.1,6.9c0,0.3,0,0.3,0,0.4c0,0.1,0.1,0.3,0.1,0.3c0.1,0,0.4,0,0.7,0v0.3H86
			L86.1,166.8z M75,158.2l0.1-0.7h0.3l-0.7,3h-0.3c0.1-0.6,0.1-1,0.1-1.2s-0.1-0.6-0.3-0.8c-0.1-0.3-0.6-0.6-0.8-0.7
			c-0.4-0.3-0.8-0.4-1.2-0.4c-0.8-0.1-1.7-0.1-2.4,0c-0.7,0.1-1.4,0.6-1.8,1.1c-0.6,0.6-0.8,1.1-1,1.7c-0.1,0.6-0.1,1,0,1.5
			s0.3,1.1,0.7,1.5c0.3,0.4,0.7,0.8,1.2,1.2c0.6,0.4,1.1,0.6,1.7,0.7c0.7,0.1,1.2,0.1,1.8,0.1c0.6-0.1,1.1-0.3,1.5-0.4l0.1,0.3
			c-0.6,0.3-1.1,0.4-1.8,0.4s-1.4,0-1.9-0.1c-1-0.3-1.7-0.6-2.4-1.1c-0.7-0.6-1.2-1.2-1.5-1.9c-0.3-0.7-0.4-1.5-0.3-2.2
			c0.1-0.6,0.4-1.1,0.8-1.5c0.4-0.4,1-0.8,1.5-1.1c0.6-0.3,1.2-0.4,1.9-0.6c0.7,0,1.4,0,2.1,0.1C73.5,157.3,74.3,157.7,75,158.2z"/>
	</g>
	<g>
		<path class="st0" d="M134.1,51.3C121.5,38.7,104.2,30.9,85,30.9s-36.5,7.7-49.1,20.3s-20.5,29.9-20.5,49.1s7.7,36.5,20.3,49.1
			s29.9,20.3,49.1,20.3s36.5-7.7,49.1-20.3s20.3-29.9,20.3-49.1S146.5,63.8,134.1,51.3 M85,29.7c19.5,0,37.2,7.9,50,20.7
			c12.9,12.7,20.7,30.4,20.7,49.9s-7.9,37.2-20.7,49.9c-12.9,12.9-30.4,20.7-50,20.7c-19.5,0-37.2-7.9-50-20.7
			c-12.7-12.7-20.7-30.4-20.7-49.9s7.9-37.2,20.7-49.9C47.8,37.6,65.4,29.7,85,29.7z"/>
	</g>
	<g>
		<polygon class="st0" points="129.5,131.8 140.6,142.8 139.6,143.7 128.7,132.9 		"/>
	</g>
	<g>
		<polygon class="st0" points="41.2,132 29.1,143.6 28.2,142.6 40.2,131.2 		"/>
		<!--animate attributeName="opacity" dur="2s" values="0;1;0" repeatCount="indefinite" begin="0.1"/-->  
	</g>
	<g>
		<path class="st1" d="M71.3,62l13.1-7.9V66l-11.9,7.1H56.4V62.2L71.3,62z M59,64.4v6.5h12.9l10.2-6.1v-6.6l-10.2,6.1L59,64.4z
			 M56.4,77.2h15.5l12.4-7.1V68L71.9,75H56.4V77.2z M56.4,81.8h15.5l12.4-7.1v-2.2l-12.4,7.1H56.4V81.8z M72,83.5H54.2v15.2h2.6
			v31.9l27.9,15.8v-15.9L72,123.4v-16.2l10.1,5.7v6.4l3.3,1.8l3.3-1.8v-10l-16.9-9.5V83.5H72z M56.4,96.5H59v32.9l23.5,13.3v-10.8
			l-12.7-7.1v-21.4l14.5,8.2v6.4l1.1,0.6l1.1-0.6v-7.3l-16.9-9.4v-4.7V85.7H58.9h-2.6v10.8H56.4z M88.9,85.8L85.5,84l-3.3,1.8v10
			l17.6,9.8v17.7l-12.7,7.1v15.9l27.9-15.8V98.7h2.6V83.5h-18v14.8l-10.8-6.1V85.8z M85.4,86.5l-1.1,0.6v7.3l17.1,9.7l0.4,0.6v20
			l-12.7,7.1v10.8l23.5-13.3V96.5h2.6V85.7h-2.6h-10.8v10.8v5.7l-15.2-8.6v-6.4L85.4,86.5z M99.6,62l-13.1-7.9V66l11.9,7.1h16.2
			V62.2L99.6,62z M99.1,64.2l-10.2-6.1v6.6l10.2,6.1h12.9v-6.5L99.1,64.2z M114.6,75H99.1L86.6,68v2.2l12.4,7.1h15.5
			C114.6,77.2,114.6,75,114.6,75z M114.6,79.6H99.1l-12.4-7.1v2.2l12.4,7.1h15.5C114.6,81.8,114.6,79.6,114.6,79.6z"/>
			<!--animate attributeName="opacity" dur="2s" values="0;1;0" repeatCount="indefinite" begin="0.2"/-->  
	</g>
</g>
</svg>
