<?xml version="1.0" encoding="utf-8"?>
<!-- Generator: Adobe Illustrator 27.5.0, SVG Export Plug-In . SVG Version: 6.00 Build 0)  -->
<svg version="1.1" id="Capa_1" xmlns="http://www.w3.org/2000/svg" xmlns:xlink="http://www.w3.org/1999/xlink" x="0px" y="0px"
	 viewBox="0 0 1355 158" style="enable-background:new 0 0 1355 158;" xml:space="preserve">
<style type="text/css">
	.st0{fill:#FFFFFF;}
	.st1{fill-rule:evenodd;clip-rule:evenodd;fill:#FFFFFF;}
	.st2{enable-background:new    ;}
</style>
<g>
	<path class="st0" d="M969.9,121.5c-0.3-0.1-0.6-0.2-1-0.2c-2.6-0.5-4.6-2.8-4.6-5.5c0-0.2,0-0.3,0-0.4c0-24,0-47.9,0-71.8
		c0-0.8,0.1-1.6,0.4-2.3c0.8-2.2,2.9-3.7,5.4-3.7c1.5,0,3.1,0,4.7,0c0.2,0,0.3,0,0.4,0c0.1,0.4,0.2,2.9,0,3.7c-0.2,0-0.4,0-0.6,0
		c-1.4,0-2.8,0-4.3,0c-1.2,0-2.3,0.8-2.3,2.3c0,0.9,0,1.7,0,2.5c0,23,0,45.9,0,68.9c0,0.2,0,0.4,0,0.6c0,1.2,0.9,2,2,2
		c1.5,0,2.9,0,4.4,0c0.2,0,0.4,0,0.6,0c0,0.2,0,0.3,0,0.4c0,1,0,1.9,0,2.9c0,0.2-0.1,0.4-0.1,0.5
		C973.4,121.5,971.6,121.5,969.9,121.5z"/>
	<path class="st0" d="M1350.3,106.9c-0.2,0.6-0.4,1-1,1.3c-1.2,0.6-2.6,0.2-2.9-1.3c-0.5-2.5,1.3-4.1,3-4.2c0.1,0.1,0.2,0.2,0.2,0.4
		c0.1,0.1,0.2,0.3,0.2,0.4c-1.6,0.6-1.8,0.7-2.2,1.6c0.1,0,0.2-0.1,0.4-0.1c0.4,0,0.8-0.1,1.1,0c0.6,0.1,0.9,0.6,1.1,1.1
		C1350.3,106.4,1350.3,106.6,1350.3,106.9z M1347.7,106.4c0,0,0,0.1,0,0.2c0,0.4,0.2,0.7,0.6,0.9c0.3,0.1,0.5,0,0.7-0.2
		c0.3-0.3,0.3-0.7,0.2-1.1v-0.1c-0.2-0.3-0.5-0.4-1-0.3C1347.7,105.9,1347.7,105.9,1347.7,106.4z"/>
	<path class="st0" d="M984.5,81.1c0.4-9.1,0.7-18.1,1.1-27.1c9.2,0,18.4,0,27.6,0c0.1,0.4,0,8.5-0.2,9.4c-5.8,0-11.6,0-17.4,0
		c-0.1,3.2-0.2,6.3-0.4,9.4c0.2,0,0.4,0,0.5,0c2.4-0.1,4.8,0,7.2,0.3c1.9,0.2,3.7,0.8,5.5,1.7c3.1,1.6,5.3,4.1,6.3,7.5
		c1.2,4,1.1,8-0.3,11.9c-1.6,4.3-4.7,7.3-8.9,9.1c-2.4,1-4.9,1.5-7.5,1.6c-3.5,0.2-7-0.1-10.4-1c-1.5-0.4-3.1-0.9-4.5-1.5
		c-0.1,0-0.2-0.1-0.4-0.2c0.4-3.2,0.8-6.3,1.1-9.6c0.2,0.1,0.3,0.2,0.5,0.3c2.5,1.7,5.3,2.7,8.3,3c2.1,0.2,4.1,0.1,6.1-0.6
		c2.9-1.1,4.6-3.3,4.7-6.4c0-0.7,0-1.5-0.2-2.2c-0.3-1.6-1.3-2.8-2.6-3.8c-1.4-1-2.9-1.5-4.6-1.7c-3.1-0.5-6.3-0.4-9.5-0.3
		C985.8,81,985.2,81.1,984.5,81.1z"/>
	<path class="st0" d="M893.2,77.5c4.3-9.7,8.7-19.4,13-29.1c2.4,0,4.9,0,7.3,0c2.9,6.6,5.9,13.1,8.8,19.7c-1.8,1.5-3.5,2.9-5.4,4.3
		c-2.4-5.3-4.7-10.5-7.1-15.9c-0.1,0.2-0.2,0.4-0.3,0.6c-2.9,6.6-5.9,13.1-8.8,19.7c0,0.1-0.1,0.2-0.2,0.4c-0.1,0.2-0.2,0.3-0.4,0.3
		C897.8,77.5,895.5,77.5,893.2,77.5C893.3,77.6,893.3,77.6,893.2,77.5z"/>
	<path class="st0" d="M1051.9,96.6c0-4.1,0-8.1,0-12.2c1.4,0,2.7,0,4.1,0c0,6.2,0,12.5,0,18.8c-0.2,0-0.3,0-0.4,0c-1,0-2,0-3.1,0
		c-0.3,0-0.4-0.1-0.6-0.3c-2.7-3.7-5.5-7.4-8.3-11.1c-0.2-0.3-0.4-0.7-0.6-1.1c0,4.1,0,8.3,0,12.4c-0.4,0.1-3.3,0.2-4.1,0
		c0-6.2,0-12.4,0-18.7c0.2,0,0.3,0,0.4,0c1.1,0,2.2,0,3.3,0c0.3,0,0.5,0.1,0.7,0.4c2.6,3.6,5.2,7.2,7.9,10.8
		C1051.5,95.9,1051.7,96.2,1051.9,96.6z"/>
	<path class="st0" d="M1059,94.1c0-1.8,0.3-3.5,1.1-5.1c1.3-2.6,3.4-4.1,6.3-4.7c1.6-0.3,3.1-0.3,4.7,0.2c2.7,0.8,4.7,2.5,5.6,5.1
		c1,2.8,1,5.7-0.1,8.5c-1.4,3.5-4.1,5.3-7.9,5.6c-1.4,0.1-2.8,0-4.2-0.6c-2.7-1.1-4.4-3.1-5.2-5.9C1059.1,96.1,1059,95,1059,94.1z
		 M1063.7,94.1c0,0.3,0,0.7,0.1,1.1c0.2,1.1,0.5,2.2,1.2,3.1c1.6,2.1,4.6,2.2,6.4,0.3c0.5-0.6,0.9-1.2,1.1-1.9
		c0.6-1.9,0.5-3.9-0.2-5.8c-0.2-0.6-0.5-1.1-1-1.6c-1-1.1-2.3-1.5-3.8-1.3c-1.5,0.3-2.4,1.2-3.1,2.5
		C1063.9,91.5,1063.7,92.7,1063.7,94.1z"/>
	<path class="st0" d="M1025,84.4c1.7,0,3.3,0,5.1,0c2.2,6.2,4.4,12.5,6.6,18.8c-1.7,0-3.3,0-5,0c-0.5-1.5-1-3-1.5-4.6
		c-1.9,0-3.8,0-5.7,0c-0.5,1.5-1,3-1.4,4.6c-1.7,0-3.3,0-4.9,0C1020.6,97,1022.9,90.7,1025,84.4z M1029.4,95.5
		c-0.2-0.5-0.3-1-0.4-1.4c-0.6-1.9-1.2-3.7-1.6-5.6c-0.7,2.3-1.3,4.7-2,7C1026.7,95.5,1028,95.5,1029.4,95.5z"/>
	<path class="st0" d="M1091,84.9c-0.2,1.3-0.4,2.5-0.7,3.9c-0.2-0.1-0.4-0.2-0.5-0.3c-1.2-0.7-2.4-1.1-3.8-0.9
		c-1.3,0.2-2,1.3-1.8,2.5c0.1,0.5,0.4,0.9,0.8,1.1c0.4,0.3,0.9,0.5,1.4,0.7c0.7,0.3,1.3,0.6,2,0.9c0.8,0.4,1.4,0.8,2,1.4
		c0.8,0.8,1.1,1.7,1.2,2.7c0.2,3.2-1.5,5.6-4.7,6.4c-2.5,0.6-4.9,0.3-7.3-0.8c-0.1,0-0.1-0.1-0.2-0.2c0.1-1.3,0.2-2.6,0.4-4
		c0.2,0.2,0.4,0.3,0.6,0.4c1.2,0.8,2.5,1.3,3.9,1.3c0.4,0,0.8,0,1.1-0.2c0.8-0.2,1.2-0.8,1.3-1.5c0.1-0.8-0.1-1.4-0.8-1.8
		c-0.6-0.4-1.1-0.6-1.7-0.9s-1.1-0.5-1.7-0.8c-0.5-0.2-0.9-0.6-1.3-0.9c-1.1-0.9-1.6-2-1.7-3.3c-0.2-3.2,1.7-5.7,4.8-6.4
		c2.2-0.5,4.3-0.2,6.3,0.5C1090.8,84.8,1090.9,84.9,1091,84.9z"/>
	<path class="st0" d="M1122.8,77.4c0-5,0-10,0-15c0.1,0,0.2-0.1,0.3-0.1c2,0,4,0,6,0c1.1,0,2.1,0.2,3.1,0.6c1.8,0.7,3,2,3.5,3.8
		c0.6,1.7,0.6,3.5,0.2,5.2c-0.7,2.5-2.4,4.2-4.9,5.1c-1,0.4-2,0.5-3.1,0.5c-1.6,0-3.1,0-4.7,0C1123.1,77.5,1123,77.4,1122.8,77.4z
		 M1126.5,65.3c0,3.1,0,6.2,0,9.3c0.7,0,1.4,0,2.1,0c1.9-0.2,3.2-1.3,3.7-3.1c0.3-1,0.3-2.1,0-3.1c-0.4-1.8-1.5-2.8-3.3-3.1
		C1128.2,65.1,1127.4,65.3,1126.5,65.3z"/>
	<path class="st0" d="M1073.9,77.4c0-5,0-10,0-15c0.1,0,0.2,0,0.3,0c2,0,4,0,6,0c1.1,0,2.1,0.2,3.1,0.6c1.8,0.7,3,2,3.6,3.8
		s0.6,3.7,0,5.5c-0.8,2.4-2.4,4-4.8,4.8c-1,0.3-2,0.5-3,0.5c-1.6,0-3.2,0-4.8,0C1074.1,77.5,1074,77.4,1073.9,77.4z M1077.5,74.6
		c0.8,0,1.5,0,2.2,0c1.7-0.2,2.8-1,3.4-2.6c0.6-1.4,0.6-2.8,0.1-4.2c-0.4-1.3-1.3-2-2.6-2.4c-1-0.3-2.1-0.2-3.1-0.2
		C1077.5,68.3,1077.5,71.4,1077.5,74.6z"/>
	<path class="st0" d="M1051.7,77.4c-1.2,0-2.4,0-3.7,0c0-5,0-10.1,0-15.1c0.4,0,0.8,0,1.1,0c1.8,0,3.7,0,5.5,0
		c0.5,0,1.1,0.1,1.6,0.2c1.8,0.5,2.8,1.7,2.9,3.6c0.1,2.1-0.8,3.6-2.7,4.6c-0.1,0-0.1,0.1-0.2,0.1c1.3,2.2,2.6,4.4,3.9,6.5
		c-0.4,0.1-3.2,0.2-4.2,0.1c-0.1-0.1-0.2-0.2-0.2-0.4c-0.9-1.6-1.8-3.2-2.6-4.9c-0.2-0.4-0.4-0.5-0.8-0.5c-0.2,0-0.4,0-0.7,0
		c-0.1,1,0,1.9,0,2.8C1051.7,75.5,1051.7,76.4,1051.7,77.4z M1051.7,69c0.6,0,1.2,0,1.8,0c0.4,0,0.8-0.2,1.1-0.4
		c0.8-0.5,1-1.3,0.8-2.1c-0.1-0.8-0.6-1.2-1.5-1.4c-0.8-0.2-1.5,0-2.3-0.1C1051.7,66.3,1051.7,67.6,1051.7,69z"/>
	<path class="st0" d="M1023.4,73.8c-0.4,1.2-0.8,2.4-1.1,3.7c-1.3,0-2.6,0-3.9,0c1.8-5,3.7-10.1,5.5-15.1c1.3,0,2.6,0,4,0
		c1.8,5,3.6,10.1,5.4,15.2c-1.3,0-2.6,0-4,0c-0.4-1.2-0.8-2.4-1.2-3.7C1026.5,73.8,1024.9,73.8,1023.4,73.8z M1027.3,71.2
		c-0.6-1.9-1.1-3.7-1.7-5.5c-0.5,1.8-1.1,3.6-1.6,5.5C1025.1,71.2,1026.1,71.2,1027.3,71.2z"/>
	<path class="st0" d="M1146.2,73.8c-1.5,0-3,0-4.6,0c-0.4,1.2-0.8,2.4-1.2,3.7c-1.3,0-2.6,0-3.9,0c1.8-5.1,3.7-10.1,5.5-15.1
		c1.3,0,2.6,0,4,0c1.8,5,3.6,10.1,5.4,15.1c-1.3,0-2.6,0-4,0C1147,76.2,1146.6,75,1146.2,73.8z M1142.2,71.2c1.1,0,2.2,0,3.3,0
		c-0.6-1.9-1.1-3.7-1.7-5.5C1143.3,67.4,1142.7,69.3,1142.2,71.2z"/>
	<path class="st0" d="M1111.6,62.3c1.3,0,2.7,0,4,0c1.8,5.1,3.6,10.1,5.4,15.1c-1.3,0-2.6,0-4,0c-0.4-1.2-0.8-2.4-1.2-3.7
		c-1.5,0-3,0-4.6,0c-0.4,1.2-0.8,2.4-1.1,3.6c-1.3,0-2.6,0-3.9,0C1107.9,72.4,1109.8,67.3,1111.6,62.3z M1115.1,71.2
		c-0.6-1.9-1.1-3.7-1.7-5.6c-0.1,0.4-0.2,0.8-0.3,1.2c-0.4,1.3-0.8,2.6-1.2,4c0,0.1,0,0.3-0.1,0.4
		C1112.9,71.2,1113.9,71.2,1115.1,71.2z"/>
	<path class="st0" d="M1062.1,77.4c0-5,0-10,0-15c0.4-0.1,7.9-0.2,8.9,0c0,1,0,1.9,0,2.9c-1.7,0-3.4,0-5.2,0c-0.1,0.4-0.1,2.5,0,3.3
		c1.6,0,3.2,0,4.9,0c0.1,0.4,0.1,2-0.1,2.7c-1.6,0-3.2,0-4.8,0c0,1.1,0,2.2,0,3.4c1.9,0,3.7,0,5.7-0.1c0,1-0.1,1.9-0.1,2.9
		C1068.3,77.4,1065.2,77.4,1062.1,77.4z"/>
	<path class="st0" d="M937.5,56.2c-3.7,7-7.3,14.1-11,21.2c-1.4-3.1-2.7-6.1-4.1-9.2C927.4,64.1,932.4,60.1,937.5,56.2
		C937.4,56.1,937.4,56.1,937.5,56.2z"/>
	<path class="st0" d="M1045.4,73.9c0.1,1.1,0.2,2.1,0.4,3.1c-0.8,0.4-1.5,0.6-2.2,0.7c-1.6,0.3-3.1,0.3-4.7-0.2
		c-2.6-0.8-4.3-2.5-4.9-5.2c-0.4-1.8-0.3-3.7,0.4-5.5c1-2.3,2.7-3.7,5-4.4c2.1-0.6,4.3-0.4,6.4,0.2c-0.2,1.1-0.3,2.2-0.5,3.3
		c-0.2-0.1-0.4-0.2-0.5-0.2c-1.2-0.6-2.5-0.8-3.8-0.5c-1.7,0.4-2.8,1.4-3.3,3.1c-0.3,1-0.3,1.9-0.1,2.9c0.6,2.8,2.9,3.7,5,3.5
		c0.9-0.1,1.7-0.4,2.5-0.8C1045.2,73.9,1045.3,73.9,1045.4,73.9z"/>
	<path class="st0" d="M1099.2,65.3c-1.3,0-2.7,0-4,0c0-1,0-2,0-2.9c0.4-0.1,11.1-0.2,11.8,0c0,1,0,2,0,3c-1.4,0-2.7,0-4.2,0
		c0,4.1,0,8,0,12.1c-1.2,0-2.4,0-3.6,0C1099.2,73.4,1099.2,69.4,1099.2,65.3z"/>
	<path class="st0" d="M1093.3,77.4c-1.3,0-2.4,0-3.7,0c0-5,0-10,0-15.1c1.2,0,2.4,0,3.7,0C1093.3,67.3,1093.3,72.3,1093.3,77.4z"/>
	<path class="st0" d="M1165.7,105.1c0-1.1,0-2.1,0-3.2c0-1,0.8-1.7,1.8-1.6c0.8,0.1,1.4,0.7,1.4,1.5c0,2.2,0,4.4,0,6.5
		c0,0.9-0.8,1.5-1.7,1.5c-0.9,0-1.5-0.7-1.5-1.6C1165.7,107.3,1165.7,106.2,1165.7,105.1L1165.7,105.1z"/>
	<path class="st0" d="M919.2,77.6c-2.9,0-5.7,0-8.6,0c2.1-1.7,4.2-3.3,6.3-5C917.7,74.2,918.4,75.8,919.2,77.6z"/>
	<path class="st0" d="M1051.3,79.3c0.6,0.3,1.1,0.6,1.7,0.9c-0.7,1-1.3,1.9-2.3,2.4c-0.9,0.4-1.8,0.4-2.5-0.3
		c-0.3-0.2-0.5-0.5-0.8-0.7c-0.8-0.6-1.3-0.6-2,0.2c-0.2,0.3-0.5,0.6-0.8,1c-0.2-0.2-0.5-0.4-0.8-0.6c-0.2-0.2-0.5-0.4-0.8-0.7
		c0.6-0.8,1.2-1.6,2.1-2c0.8-0.4,2.2-0.5,3.1,0.4c0.2,0.2,0.4,0.4,0.7,0.6c0.5,0.4,1.1,0.4,1.5-0.1C1050.8,80,1051,79.7,1051.3,79.3
		z"/>
	<path class="st0" d="M1248.7,106.3c0-0.7,0-1.3,0-1.8s0-1.1,0-1.7c0.4,0,0.8,0,1.2,0c0,1.8,0,3.7,0,5.5c-0.3,0-0.6,0-0.9,0
		c-0.2,0-0.3-0.2-0.4-0.3c-0.7-0.9-1.4-1.8-2-2.7c-0.1-0.1-0.2-0.3-0.4-0.5c0,1.2,0,2.3,0,3.4c-0.4,0-0.8,0-1.2,0c0-1.8,0-3.6,0-5.4
		c0.4-0.2,0.7-0.1,1.1,0c0.1,0,0.2,0.2,0.4,0.3c0.7,0.9,1.3,1.8,1.9,2.7C1248.4,105.9,1248.5,106,1248.7,106.3z"/>
	<path class="st0" d="M1261.4,108.3c0-1.8,0-3.7,0-5.4l0.1-0.1c0.9,0,1.8,0,2.6,0c1.2,0.1,1.9,0.9,2,2.1c0.2,1.9-0.9,3.3-2.8,3.3
		C1262.7,108.3,1262.1,108.3,1261.4,108.3z M1262.7,107.2c0.8,0.1,1.5,0,1.9-0.7c0.4-0.6,0.4-1.7-0.1-2.2c-0.5-0.6-1.1-0.6-1.8-0.5
		C1262.7,105,1262.7,106.1,1262.7,107.2z"/>
	<path class="st0" d="M897.2,106.7c-0.3,0-0.5,0-0.8,0c-0.1-0.4-0.2-5.6-0.1-6.6c0.1,0,0.2,0,0.4,0c0.4-0.1,0.6,0.1,0.8,0.4
		c0.7,1.1,1.4,2.1,2.1,3.1c0.3,0.4,0.6,0.8,0.8,1.2c0.1,0.1,0.2,0.2,0.3,0.2c0-1.7,0-3.3,0-5c0.3,0,0.6,0,0.8,0c0,2.2,0,4.4,0,6.6
		c-0.1,0-0.2,0-0.2,0c-0.2,0-0.4,0-0.6,0c-1.1-1.7-2.2-3.3-3.4-5h-0.1C897.2,103.3,897.2,105,897.2,106.7z"/>
	<path class="st0" d="M918.5,86.3c0-1.7,0-3.3,0-5c0.3,0,0.5,0,0.8,0c0.1,0.4,0.2,5.8,0,6.6c-0.1,0-0.2,0-0.2,0
		c-0.4,0.1-0.7-0.1-1-0.5c-0.9-1.4-1.8-2.8-2.8-4.2c-0.1-0.2-0.2-0.3-0.4-0.4c0,1.7,0,3.3,0,5c-0.3,0-0.6,0-0.8,0c0-2.2,0-4.4,0-6.5
		c0.6-0.2,0.8-0.2,1.2,0.4c1,1.4,1.8,2.7,2.8,4.2C918.2,86.1,918.3,86.2,918.5,86.3L918.5,86.3z"/>
	<path class="st0" d="M1260.7,108.3c-0.5,0-1,0-1.5,0c-0.2-0.4-0.3-0.9-0.5-1.3c-0.6,0-1.1,0-1.7,0c-0.2,0.4-0.3,0.8-0.4,1.3
		c-0.5,0-0.9,0-1.4,0c0.7-1.8,1.3-3.6,2-5.5c0.5,0,1,0,1.5,0C1259.4,104.6,1260,106.4,1260.7,108.3z M1258,104.2L1258,104.2
		c-0.3,0.6-0.5,1.1-0.6,1.8c0.4,0,0.8,0,1.1,0C1258.4,105.4,1258.2,104.8,1258,104.2z"/>
	<path class="st0" d="M1240.2,108.3c-0.5,0-0.9,0-1.4,0c0.7-1.8,1.3-3.7,2-5.5c0.5,0,1,0,1.5,0c0.6,1.8,1.3,3.6,1.9,5.5
		c-0.5,0-1,0-1.5,0c-0.2-0.4-0.3-0.9-0.5-1.3c-0.6,0-1.1,0-1.7,0C1240.5,107.4,1240.4,107.8,1240.2,108.3z M1242.1,106
		c-0.2-0.6-0.4-1.3-0.6-1.9c-0.2,0.7-0.4,1.3-0.6,1.9C1241.3,106,1241.7,106,1242.1,106z"/>
	<path class="st0" d="M1230.7,102.8c0.5,0,1,0,1.5,0c0.6,1.8,1.3,3.6,1.9,5.5c-0.5,0-1,0-1.5,0c-0.2-0.4-0.3-0.8-0.4-1.3
		c-0.6,0-1.1,0-1.7,0c-0.2,0.4-0.3,0.9-0.5,1.3c-0.5,0-0.9,0-1.4,0C1229.4,106.4,1230.1,104.6,1230.7,102.8z M1230.8,106
		c0.4,0,0.8,0,1.2,0c-0.2-0.6-0.4-1.2-0.6-1.9C1231.2,104.8,1231,105.4,1230.8,106z"/>
	<path class="st0" d="M1268.3,102.8c0.5,0,1,0,1.5,0c0.6,1.8,1.3,3.6,1.9,5.5c-0.5,0-1,0-1.5,0c-0.2-0.4-0.3-0.9-0.4-1.3
		c-0.6,0-1.1,0-1.7,0c-0.2,0.4-0.3,0.9-0.4,1.3c-0.5,0-0.9,0-1.4,0C1267,106.4,1267.7,104.6,1268.3,102.8z M1269.6,106
		c-0.2-0.6-0.4-1.3-0.6-2c-0.2,0.7-0.4,1.3-0.6,2C1268.8,106,1269.1,106,1269.6,106z"/>
	<path class="st0" d="M891.1,87.9c-0.3,0-0.5,0-0.8,0c0-0.2,0-0.3,0-0.4c0-0.8,0-1.6,0-2.3c0-0.2,0-0.3,0-0.5c0-0.6-0.2-0.9-0.7-1
		s-1,0.2-1.2,0.6c-0.1,0.2-0.1,0.5-0.2,0.8c0,0.8,0,1.5,0,2.2c0,0.2,0,0.4,0,0.6c-0.3,0-0.5,0-0.8,0c0-0.2,0-0.4,0-0.6
		c0-0.8,0-1.6,0-2.3c0-0.1,0-0.2,0-0.3c0-0.6-0.2-0.9-0.7-1s-1.1,0.2-1.2,0.7c-0.1,0.3-0.1,0.6-0.1,0.9c0,0.7,0,1.5,0,2.2
		c0,0.1,0,0.2,0,0.4c-0.3,0-0.5,0-0.8,0c0-1.6,0-3.1,0-4.8c0.1,0,0.2,0,0.3,0s0.2,0,0.4,0c0,0.2,0,0.3,0.1,0.5
		c1.3-0.9,2.1-0.8,2.8,0.2c0.1-0.1,0.2-0.2,0.3-0.2c0.5-0.5,1.1-0.6,1.7-0.4c0.4,0.1,0.8,0.4,0.9,0.8c0,0.1,0.1,0.3,0.1,0.4
		C891.1,85.5,891.1,86.7,891.1,87.9z"/>
	<path class="st0" d="M1337.2,105.6c0.1-0.6,0.2-1.1,0.4-1.6c0.4-1.2,1.5-1.5,2.5-1.2c0.5,0.1,0.9,0.5,1,1c0.2,0.5,0.2,1,0.3,1.6
		c0,0.6,0,1.3-0.3,1.8c-0.4,0.8-1,1.3-1.8,1.2c-0.8,0-1.4-0.5-1.7-1.3c-0.1-0.2-0.1-0.4-0.2-0.6
		C1337.3,106.2,1337.3,105.9,1337.2,105.6L1337.2,105.6z M1338.5,105.5L1338.5,105.5c0,0.3,0,0.6,0.1,0.8c0,0.3,0.1,0.5,0.2,0.8
		c0.1,0.2,0.3,0.4,0.5,0.4c0.3,0,0.4-0.2,0.5-0.4c0.1-0.2,0.1-0.3,0.1-0.5c0.1-0.7,0.1-1.4,0-2.1c0-0.2-0.1-0.4-0.2-0.6
		c-0.2-0.4-0.7-0.4-0.9,0c-0.1,0.1-0.2,0.3-0.2,0.4C1338.6,104.8,1338.5,105.1,1338.5,105.5z"/>
	<path class="st0" d="M1297.2,105.6c0-0.6,0.1-1.2,0.3-1.7c0.5-1.1,1.6-1.3,2.5-1.1c0.5,0.2,0.8,0.5,1,1c0.4,1.2,0.4,2.3,0,3.5
		c-0.3,0.8-1,1.2-1.8,1.2s-1.4-0.5-1.7-1.3c-0.1-0.2-0.1-0.4-0.2-0.6C1297.3,106.2,1297.3,105.9,1297.2,105.6z M1298.5,105.5
		L1298.5,105.5c0,0.3,0,0.6,0.1,0.8c0,0.3,0.1,0.6,0.3,0.9c0.2,0.4,0.7,0.4,0.9,0c0.1-0.1,0.2-0.3,0.2-0.4c0.2-0.8,0.2-1.6,0-2.4
		c0-0.1-0.1-0.2-0.1-0.4c-0.1-0.2-0.2-0.4-0.5-0.4s-0.4,0.1-0.5,0.3c-0.1,0.1-0.1,0.3-0.2,0.4
		C1298.6,104.8,1298.6,105.1,1298.5,105.5z"/>
	<path class="st0" d="M1250.5,108.3c1-1.5,1.8-2.9,2.7-4.4c-0.8-0.1-1.6,0-2.4,0c0-0.4,0-0.7,0-1c0.6-0.1,3.9-0.1,4.4,0
		c-0.9,1.4-1.8,2.8-2.7,4.3c0.9,0,1.7,0,2.5,0c0,0.4,0,0.7,0,1.1C1253.5,108.3,1252.1,108.3,1250.5,108.3z"/>
	<path class="st0" d="M904.9,100c0.4,0,0.6,0,1,0c0.9,2.2,1.8,4.4,2.7,6.6c-0.4,0-0.7,0-1,0c-0.2-0.6-0.5-1.3-0.8-2
		c-1,0-1.8,0-2.8,0c-0.2,0.7-0.5,1.3-0.8,2c-0.3,0-0.6,0-0.9,0C903.2,104.4,904,102.2,904.9,100z M905.4,100.9
		c-0.4,1.1-0.8,2-1.1,3.1c0.8,0,1.5,0,2.2,0C906.1,102.9,905.8,101.9,905.4,100.9z"/>
	<path class="st0" d="M897.7,97.3c-0.4,0-0.7,0-1,0c-0.2-0.7-0.5-1.3-0.8-2c-1,0-1.8,0-2.8,0c-0.2,0.6-0.5,1.3-0.8,2
		c-0.3,0-0.6,0-0.9,0c0.9-2.2,1.7-4.5,2.5-6.6c0.3,0,0.6,0,1,0C895.9,92.8,896.8,95,897.7,97.3z M893.4,94.6c0.8,0,1.5,0,2.2,0
		c-0.4-1-0.8-2-1.1-3.1C894.1,92.5,893.8,93.5,893.4,94.6z"/>
	<path class="st0" d="M1237.1,108.3c-0.5,0-1,0-1.4,0c-0.6-1.8-1.2-3.6-1.9-5.5c0.3,0,0.5,0,0.7,0s0.5,0,0.8,0
		c0.4,1.3,0.8,2.7,1.1,4c0,0,0,0,0.1,0c0.4-1.3,0.8-2.7,1.2-4c0.5,0,0.9,0,1.4,0C1238.4,104.7,1237.8,106.5,1237.1,108.3z"/>
	<path class="st0" d="M918,104.6c-0.3,1.2-1.1,2.2-2.6,2.2s-2.5-0.6-2.9-1.9c-0.4-1-0.4-1.9,0-2.9c0.7-2,2.9-2.4,4.2-1.8
		c0.7,0.3,1.1,0.9,1.3,1.7c-0.3,0.1-0.6,0.2-0.8,0.2c-0.1-0.1-0.1-0.2-0.2-0.3c-0.3-0.7-0.9-1.1-1.6-1.1c-0.8,0-1.5,0.2-1.8,1
		c-0.6,1.1-0.6,2.3,0,3.4c0.4,0.7,1.1,1,1.8,1s1.3-0.4,1.7-1.1c0.1-0.2,0.1-0.3,0.2-0.6C917.4,104.4,917.7,104.5,918,104.6z"/>
	<path class="st0" d="M894.4,104.4c0.3,0.1,0.5,0.1,0.8,0.2c0,1-0.9,1.9-1.9,2.2c-0.6,0.2-1.3,0.1-1.9,0c-0.8-0.2-1.3-0.7-1.6-1.4
		c-0.5-1.1-0.6-2.2-0.2-3.3c0.6-2.1,2.9-2.4,4.2-1.8c0.7,0.3,1.1,0.9,1.3,1.7c-0.2,0.1-0.5,0.1-0.8,0.2c-0.1-0.1-0.1-0.2-0.2-0.3
		c-0.3-0.7-0.9-1.1-1.6-1.1c-0.8,0-1.5,0.3-1.9,1c-0.5,1.1-0.5,2.2,0,3.3c0.4,0.8,1.1,1,1.8,1s1.4-0.4,1.7-1.1
		C894.2,104.7,894.3,104.6,894.4,104.4z"/>
	<path class="st0" d="M878.2,83.1c-0.3,0.1-0.5,0.1-0.8,0.2c-0.1-0.1-0.1-0.2-0.2-0.3c-0.3-0.7-0.9-1.1-1.7-1.1s-1.5,0.3-1.8,1
		c-0.6,1.1-0.6,2.3,0,3.4c0.4,0.8,1.1,1,1.9,1c0.8,0,1.3-0.4,1.7-1.1c0.1-0.2,0.1-0.3,0.2-0.6c0.3,0.1,0.6,0.2,0.8,0.2
		c-0.2,1.1-1,2-2.2,2.2c-0.6,0.1-1.1,0-1.6-0.1c-0.7-0.2-1.2-0.7-1.5-1.3c-0.6-1.1-0.7-2.2-0.3-3.4c0.6-1.7,2.6-2.5,4.3-1.7
		C877.6,81.8,878.1,82.3,878.2,83.1z"/>
	<path class="st0" d="M1260,89.6c-0.1,0.2-0.2,0.3-0.2,0.5c-0.5,1.1-1,2.2-1.4,3.3c0,0.1-0.1,0.2-0.2,0.4c-0.1,0.2-0.4,0.2-0.5,0
		c0-0.1-0.1-0.2-0.1-0.3c-0.5-1.2-1-2.3-1.5-3.5c0-0.1-0.1-0.2-0.2-0.2c0,0.7-0.1,1.3-0.1,2s-0.1,1.4-0.1,2.1c-0.2,0-0.4,0-0.6,0
		c0.1-1.8,0.2-3.7,0.3-5.5c0.2,0,0.5,0,0.7,0c0.6,1.5,1.3,2.9,2,4.5c0.5-1,0.9-2,1.3-3c0.2-0.4,0.3-0.7,0.5-1.1
		c0.2-0.5,0.2-0.5,0.9-0.4c0.1,1.8,0.2,3.6,0.2,5.4c-0.2,0-0.4,0-0.7,0C1260.2,92.5,1260.1,91.1,1260,89.6
		C1260.1,89.6,1260,89.6,1260,89.6z"/>
	<path class="st0" d="M882.7,93c0-0.8,0-1.6,0-2.3c0.3,0,0.5,0,0.7,0c0.1,0.4,0.2,6.1,0,6.6c-0.2,0-0.4,0-0.6,0
		c0-0.1-0.1-0.3-0.1-0.4c-0.1,0-0.1,0-0.2,0.1c-0.7,0.7-2,0.6-2.7-0.4c-0.6-0.9-0.7-2.5,0-3.4c0.7-1,2-1,2.6-0.4
		C882.5,92.8,882.6,92.8,882.7,93z M880.1,94.9c0,0.6,0.1,1,0.3,1.3c0.2,0.4,0.6,0.6,1.1,0.6s0.9-0.3,1.1-0.7c0.3-0.8,0.3-1.6,0-2.3
		c-0.2-0.5-0.6-0.7-1.2-0.7c-0.5,0-0.9,0.4-1,0.8C880.2,94.2,880.2,94.5,880.1,94.9z"/>
	<path class="st0" d="M914.3,93c0-0.8,0-1.6,0-2.3c0.3,0,0.5,0,0.7,0c0.1,0.4,0.2,5.7,0,6.6c-0.2,0-0.4,0-0.7,0c0-0.1,0-0.2-0.1-0.4
		c-0.1,0-0.1,0-0.2,0.1c-0.6,0.7-2,0.7-2.7-0.3c-0.7-0.9-0.7-2.5,0-3.4c0.6-0.8,1.7-1,2.5-0.4C914.1,92.8,914.1,92.8,914.3,93z
		 M911.7,95c0.1,0.4,0.2,0.8,0.4,1.1c0.2,0.4,0.6,0.7,1.1,0.6c0.5,0,0.9-0.3,1.1-0.8c0.3-0.8,0.3-1.5-0.1-2.2
		c-0.2-0.5-0.6-0.7-1.1-0.7s-0.9,0.3-1,0.8C911.8,94.2,911.8,94.6,911.7,95z"/>
	<path class="st0" d="M1334.3,107.2c0.8,0,1.4,0,2.1,0c0,0.4,0,0.7-0.1,1.1c-1.2,0-2.4,0-3.6,0c0-0.2,0-0.3-0.1-0.4
		c-0.1-0.2,0-0.4,0.2-0.6c0.5-0.5,1-1,1.5-1.5c0.2-0.2,0.4-0.5,0.6-0.8s0.2-0.6,0-0.9s-0.5-0.4-0.8-0.3c-0.4,0.1-0.7,0.2-1,0.4
		c0-0.3-0.1-0.6-0.2-1c0.8-0.5,1.5-0.6,2.3-0.4c0.9,0.2,1.4,1.1,1,2c-0.2,0.4-0.5,0.8-0.8,1.2
		C1335.2,106.4,1334.8,106.8,1334.3,107.2z"/>
	<path class="st0" d="M1342.3,104.2c0-0.3-0.1-0.6-0.2-1c0.6-0.6,2-0.8,2.7-0.4c0.6,0.4,1,1.2,0.6,1.9c-0.1,0.3-0.4,0.6-0.6,0.9
		c-0.3,0.4-0.6,0.7-1,1c-0.1,0.1-0.2,0.2-0.4,0.4c0.8,0,1.4,0,2,0c0,0.4,0,0.7,0,1.1c-1.2,0-2.4,0-3.6,0c-0.2-0.4-0.2-0.8,0.2-1.1
		c0.5-0.4,1-1,1.4-1.4c0.2-0.2,0.4-0.4,0.5-0.7c0.2-0.3,0.2-0.7,0-1s-0.6-0.3-1-0.2C1342.8,103.9,1342.6,104.1,1342.3,104.2z"/>
	<path class="st0" d="M1303.5,107.2c0.8,0,1.4,0,2.1,0c0,0.4,0,0.7,0,1.1c-1.2,0-2.4,0-3.6,0c-0.2-0.4-0.2-0.8,0.2-1.2
		c0.6-0.5,1.1-1.1,1.5-1.6c0.2-0.2,0.4-0.5,0.5-0.8c0.2-0.5-0.1-0.9-0.6-1c-0.3,0-0.6,0.1-0.8,0.2c-0.2,0-0.3,0.2-0.5,0.3
		c-0.1-0.4-0.1-0.7-0.2-1.1c0.7-0.4,1.5-0.6,2.3-0.4s1.3,1,1.1,1.8c-0.1,0.5-0.4,0.9-0.7,1.2C1304.5,106.2,1304,106.7,1303.5,107.2z
		"/>
	<path class="st0" d="M1293.2,104.2c0-0.3-0.1-0.6-0.2-1c0.8-0.5,1.7-0.7,2.6-0.4c0.8,0.3,1.1,1.2,0.8,2c-0.2,0.4-0.4,0.8-0.7,1.1
		c-0.4,0.4-0.8,0.8-1.2,1.2c0.7,0.2,1.3,0.1,2,0.1c0,0.4,0,0.7,0,1c-1.2,0-2.4,0-3.6,0c-0.2-0.4-0.2-0.8,0.2-1.2
		c0.5-0.5,1-1,1.5-1.5c0.2-0.2,0.4-0.5,0.5-0.8c0.3-0.6-0.1-1.2-0.8-1.1C1293.9,103.8,1293.6,104,1293.2,104.2z"/>
	<path class="st0" d="M924.1,94.3c0.1-0.9-0.2-1.2-0.9-1.2c-0.1,0-0.2,0-0.4,0c-0.6,0-1,0.3-1.1,0.9c-0.3,0-0.5,0-0.8-0.1
		c0.1-0.5,0.3-0.9,0.7-1.1c0.9-0.5,1.7-0.5,2.6-0.1c0.4,0.1,0.6,0.4,0.7,0.8c0,0.2,0,0.5,0.1,0.7c0,0.6,0,1.1,0,1.7
		c0,0.5,0.1,1,0.1,1.5c-0.2,0-0.4,0-0.7,0c-0.1-0.2-0.1-0.3-0.2-0.5c-0.2,0.1-0.3,0.2-0.5,0.3c-0.6,0.4-1.3,0.5-1.9,0.3
		c-0.6-0.2-0.9-0.6-1-1.1c-0.1-0.6,0.2-1,0.6-1.3c0.4-0.2,0.7-0.3,1.1-0.4C923.1,94.4,923.6,94.4,924.1,94.3z M924.1,95
		c-0.6,0.1-1.2,0.2-1.7,0.3c-0.1,0-0.2,0-0.3,0.1c-0.3,0.1-0.4,0.4-0.4,0.6c0,0.3,0.1,0.5,0.4,0.6c0.2,0.1,0.4,0.1,0.6,0.1
		C923.7,96.8,924.3,96.1,924.1,95z"/>
	<path class="st0" d="M946.1,85c0.1-0.8-0.2-1.1-0.9-1.2c-0.8-0.1-1.1,0.1-1.5,0.9c-0.2,0-0.5,0-0.7-0.1c0.1-0.6,0.4-1,0.9-1.3
		c0.7-0.3,1.5-0.3,2.2-0.1c0.6,0.2,0.9,0.6,1,1.2c0,0.7,0,1.3,0,2c0,0.5,0.1,1.1,0.1,1.6c-0.2,0-0.4,0-0.7,0
		c-0.1-0.1-0.1-0.3-0.2-0.5c-0.2,0.1-0.3,0.2-0.4,0.3c-0.6,0.4-1.3,0.5-2,0.3c-0.6-0.2-0.9-0.5-1-1.1s0.1-1.1,0.7-1.3
		c0.4-0.2,0.8-0.2,1.1-0.3C945.1,85.1,945.6,85,946.1,85z M946.1,85.6c-0.6,0.1-1.2,0.2-1.7,0.3c-0.1,0-0.2,0-0.3,0.1
		c-0.2,0.1-0.4,0.3-0.4,0.6c0,0.3,0.1,0.5,0.4,0.6c0.2,0.1,0.3,0.1,0.5,0.1C945.6,87.5,946.2,86.8,946.1,85.6z"/>
	<path class="st0" d="M924.8,87.9c-0.2,0-0.4,0-0.7,0c-0.1-0.2-0.1-0.3-0.2-0.5c-0.2,0.1-0.3,0.2-0.5,0.3c-0.6,0.4-1.3,0.5-2,0.2
		c-0.5-0.2-0.9-0.5-0.9-1.1c-0.1-0.6,0.1-1.1,0.6-1.3c0.4-0.2,0.8-0.3,1.2-0.4c0.5-0.1,1-0.2,1.5-0.2c0.1-0.8-0.2-1.1-0.9-1.2
		c-0.8-0.1-1.1,0.1-1.5,0.9c-0.2,0-0.5,0-0.7-0.1c0.1-0.6,0.4-1.1,1-1.3c0.7-0.3,1.4-0.3,2.1-0.1c0.7,0.2,1,0.6,1,1.2s0,1.3,0,1.9
		C924.8,86.9,924.8,87.4,924.8,87.9z M923.9,85.6c-0.6,0.1-1.2,0.2-1.7,0.3c-0.1,0-0.2,0-0.3,0.1c-0.2,0.1-0.4,0.3-0.4,0.6
		s0.1,0.5,0.4,0.6c0.2,0.1,0.3,0.1,0.5,0.1C923.3,87.5,924,86.8,923.9,85.6z"/>
	<path class="st0" d="M932.5,104.5c-1.3,0-2.4,0-3.6,0c0,0.9,0.4,1.4,1.1,1.6c0.8,0.2,1.2-0.1,1.7-1c0.2,0,0.5,0.1,0.8,0.1
		c-0.2,0.8-0.6,1.2-1.3,1.4c-1.3,0.4-2.9-0.2-3.1-1.9c0-0.4,0-1,0.1-1.4c0.2-1,1.1-1.7,2.2-1.6c1.1,0,1.8,0.6,2.1,1.7
		C932.5,103.7,932.5,104.1,932.5,104.5z M931.6,103.8c-0.1-1-0.6-1.5-1.5-1.3c-0.7,0.1-1.2,0.7-1.1,1.3
		C929.9,103.8,930.7,103.8,931.6,103.8z"/>
	<path class="st0" d="M910.2,95.1c-0.7,0-1.3,0-1.8,0s-1.1,0-1.7,0c-0.1,0.8,0.3,1.3,0.9,1.6c0.7,0.3,1.3,0,1.8-0.9
		c0.1,0,0.2,0,0.4,0c0.1,0,0.2,0,0.4,0c-0.2,0.7-0.6,1.1-1.1,1.4c-1.5,0.6-3.1-0.2-3.2-1.9c0-0.5,0-1,0.1-1.5c0.3-1,1.1-1.5,2.2-1.5
		c1,0,1.8,0.6,2,1.6C910.2,94.3,910.2,94.7,910.2,95.1z M906.7,94.4c0.9,0,1.7,0,2.6,0c0-0.8-0.5-1.3-1.2-1.4
		C907.3,93,906.8,93.5,906.7,94.4z"/>
	<path class="st0" d="M889.1,95.1c-1.3,0-2.4,0-3.6,0c0,0.9,0.4,1.4,1,1.6c0.7,0.2,1.2,0,1.7-1c0.2,0,0.5,0.1,0.8,0.1
		c-0.2,0.7-0.5,1.1-1.1,1.3c-0.7,0.3-1.4,0.3-2.1,0c-0.2-0.1-0.4-0.2-0.5-0.4c-1-1-0.9-3,0.1-3.9c1.2-1.1,3.1-0.5,3.5,1.1
		C889,94.3,889,94.7,889.1,95.1z M888.1,94.4c-0.1-0.9-0.6-1.4-1.4-1.4c-0.6,0-1.3,0.7-1.2,1.4C886.4,94.4,887.2,94.4,888.1,94.4z"
		/>
	<path class="st0" d="M922.9,106.7c-0.2,0-0.5,0-0.8,0c0-0.2,0-0.4,0-0.6c0-0.8,0-1.5,0-2.2c0-0.2,0-0.3,0-0.4c0-0.6-0.3-1-0.8-1
		c-0.6-0.1-1.1,0.2-1.3,0.8c-0.1,0.3-0.1,0.6-0.1,0.8c0,0.8,0,1.6,0,2.4c0,0.1,0,0.1,0,0.2c-0.2,0-0.5,0-0.8,0c0-2.2,0-4.4,0-6.6
		c0.2,0,0.5,0,0.8,0c0.1,0.7,0,1.5,0,2.2c0.1-0.1,0.2-0.1,0.3-0.2c0.3-0.2,0.7-0.3,1.1-0.4c1,0,1.7,0.5,1.7,1.5c0,1.1,0,2.1,0,3.1
		C922.9,106.5,922.9,106.6,922.9,106.7z"/>
	<path class="st0" d="M1222,108.3c-0.2,0-0.4,0-0.6,0c0-1.8,0-3.7,0-5.5c0.4-0.1,0.6,0,0.8,0.3c0.9,1.2,1.8,2.4,2.7,3.5
		c0.1,0.1,0.2,0.3,0.4,0.5c0-1.5,0-2.9,0-4.3c0.2,0,0.4,0,0.6,0c0,1.8,0,3.7,0,5.5c-0.3,0.2-0.5,0-0.7-0.2c-0.9-1.2-1.8-2.4-2.7-3.5
		c-0.1-0.2-0.2-0.3-0.4-0.5c0,0.6,0,1,0,1.4c0,0.5,0,1,0,1.5C1222,107.3,1222,107.8,1222,108.3z"/>
	<path class="st0" d="M1242,93.8c-0.4,0.1-0.5,0-0.7-0.3c-0.9-1.1-1.8-2.3-2.6-3.4c-0.2-0.2-0.3-0.4-0.5-0.6c0,0.6,0,1,0,1.5
		s0,1,0,1.5s0,0.9,0,1.4c-0.2,0-0.4,0-0.6,0c0-1.8,0-3.7,0-5.5c0.3-0.2,0.6,0,0.8,0.2c0.9,1.2,1.8,2.4,2.7,3.5
		c0.1,0.1,0.2,0.3,0.4,0.5c0-1.5,0-2.9,0-4.3c0.2,0,0.4,0,0.6,0C1242,90.1,1242,91.9,1242,93.8z"/>
	<path class="st0" d="M1197.9,71.1c0-1.5,0-2.9,0-4.3c0.2,0,0.4,0,0.6,0c0,1.8,0,3.7,0,5.5c-0.4,0.2-0.5,0-0.7-0.2
		c-0.9-1.2-1.8-2.4-2.7-3.5c-0.1-0.1-0.2-0.3-0.4-0.5c0,1.5,0,2.9,0,4.3c-0.2,0-0.4,0-0.6,0c0-1.8,0-3.6,0-5.5
		c0.3-0.1,0.6,0,0.8,0.2c0.9,1.2,1.8,2.4,2.7,3.5C1197.5,70.8,1197.7,70.9,1197.9,71.1z"/>
	<path class="st0" d="M1314.5,102.8c0.4-0.1,0.6,0,0.8,0.3c0.9,1.2,1.8,2.4,2.7,3.5c0.1,0.1,0.2,0.3,0.4,0.5c0-1.5,0-2.9,0-4.3
		c0.2,0,0.4,0,0.6,0c0,1.8,0,3.7,0,5.5c-0.3,0.1-0.5,0-0.7-0.2c-0.9-1.2-1.8-2.4-2.7-3.5c-0.1-0.1-0.2-0.3-0.4-0.4
		c0,1.4,0,2.7,0,4.1c-0.2,0-0.4,0-0.6,0C1314.5,106.4,1314.5,104.6,1314.5,102.8z"/>
	<path class="st0" d="M1199.4,61.5c-0.3,0-0.4,0-0.6,0c0-1.8,0-3.6,0-5.5c0.3-0.2,0.6,0,0.8,0.2c0.9,1.2,1.8,2.4,2.7,3.5
		c0.1,0.1,0.2,0.3,0.4,0.5c0-1.5,0-2.9,0-4.3c0.2,0,0.4,0,0.6,0c0,1.8,0,3.7,0,5.5c-0.3,0.2-0.5,0-0.7-0.2c-0.9-1.2-1.8-2.4-2.7-3.5
		c-0.1-0.1-0.2-0.3-0.4-0.5C1199.4,58.8,1199.4,60.1,1199.4,61.5z"/>
	<path class="st0" d="M1251.7,56.1c0.2,0,0.4,0,0.6,0c0,1.8,0,3.7,0,5.5c-0.3,0.2-0.5,0-0.7-0.2c-0.9-1.2-1.8-2.4-2.7-3.5
		c-0.1-0.1-0.2-0.3-0.4-0.5c0,1.5,0,2.9,0,4.3c-0.2,0-0.4,0-0.6,0c0-1.8,0-3.7,0-5.5c0.3-0.1,0.6,0,0.8,0.3c0.9,1.2,1.8,2.4,2.7,3.5
		c0.1,0.1,0.2,0.3,0.4,0.5C1251.7,58.9,1251.7,57.5,1251.7,56.1z"/>
	<path class="st0" d="M1278.4,102.8c0.2,0,0.4,0,0.6,0c0,1.8,0,3.7,0,5.5c-0.3,0.2-0.5,0-0.7-0.2c-0.9-1.2-1.8-2.4-2.7-3.5
		c-0.1-0.1-0.2-0.3-0.4-0.4c-0.1,1.4,0,2.7,0,4.2c-0.2,0-0.4,0-0.6,0c0-1.8,0-3.7,0-5.5c0.4-0.1,0.6,0,0.8,0.3
		c0.9,1.1,1.7,2.2,2.6,3.4c0.1,0.2,0.3,0.3,0.4,0.6c0.2-0.5,0.1-1,0.1-1.4c0-0.5,0-1,0-1.5C1278.4,103.7,1278.4,103.2,1278.4,102.8z
		"/>
	<path class="st0" d="M1222.6,92.4c0-1.4,0-2.7,0-4.1c0.2,0,0.4,0,0.6,0c0,1.8,0,3.7,0,5.5c-0.3,0.2-0.5,0-0.7-0.2
		c-0.9-1.2-1.8-2.4-2.7-3.5c-0.1-0.1-0.2-0.3-0.4-0.5c-0.1,0.8,0,1.5,0,2.1c0,0.7,0,1.4,0,2.1c-0.2,0-0.4,0-0.6,0c0-1.8,0-3.7,0-5.5
		c0.4-0.1,0.4-0.1,0.7,0.2c0.9,1.1,1.7,2.2,2.6,3.3C1222.3,92,1222.4,92.2,1222.6,92.4C1222.5,92.5,1222.6,92.4,1222.6,92.4z"/>
	<path class="st0" d="M1167.3,89c1,0,1.8,0.8,1.8,1.8s-0.8,1.8-1.8,1.8s-1.8-0.8-1.8-1.8C1165.5,89.9,1166.3,89,1167.3,89z"/>
	<path class="st0" d="M1165.5,80.3c0-1,0.8-1.8,1.8-1.8s1.8,0.8,1.8,1.8s-0.9,1.8-1.8,1.8C1166.3,82.1,1165.5,81.3,1165.5,80.3z"/>
	<path class="st0" d="M1167.3,71.6c-1,0-1.8-0.8-1.8-1.8s0.8-1.8,1.8-1.8s1.8,0.8,1.8,1.8C1169.2,70.8,1168.3,71.6,1167.3,71.6z"/>
	<path class="st0" d="M1165.5,59.1c0-1,0.8-1.8,1.8-1.8s1.8,0.8,1.8,1.8s-0.8,1.8-1.8,1.8C1166.4,60.9,1165.5,60.1,1165.5,59.1z"/>
	<path class="st0" d="M1179.4,77.5c0.3,0,0.4,0,0.6,0c0,1.8,0,3.7,0,5.5c-0.3,0.2-0.5,0-0.7-0.2c-0.9-1.2-1.8-2.4-2.7-3.5
		c-0.1-0.2-0.2-0.3-0.4-0.5c0,1.5,0,2.9,0,4.3c-0.2,0-0.4,0-0.6,0c0-1.8,0-3.7,0-5.5c0.4-0.2,0.6,0,0.8,0.3c0.9,1.2,1.8,2.4,2.7,3.5
		c0.1,0.2,0.2,0.3,0.4,0.5C1179.4,80.4,1179.4,79,1179.4,77.5z"/>
	<path class="st0" d="M1227.9,81.8c0-1.4,0-2.8,0-4.2c0.2,0,0.4,0,0.6,0c0,1.8,0,3.7,0,5.5c-0.4,0.2-0.5,0-0.7-0.3
		c-0.9-1.2-1.8-2.3-2.7-3.5c-0.1-0.2-0.2-0.3-0.4-0.4c0,1.4,0,2.7,0,4.2c-0.2,0-0.4,0-0.6,0c0-1.8,0-3.7,0-5.5
		c0.3-0.2,0.6,0,0.8,0.3c0.9,1.2,1.8,2.4,2.7,3.5C1227.6,81.5,1227.7,81.6,1227.9,81.8C1227.8,81.8,1227.9,81.8,1227.9,81.8z"/>
	<path class="st0" d="M1231.2,90.9c0-0.2,0-0.4,0.1-0.7c0.3-1.5,1.6-2.4,3.3-2c0.8,0.2,1.3,0.7,1.6,1.4c0.3,0.8,0.3,1.6,0.1,2.4
		c-0.4,1.3-1.4,2-2.7,1.9c-1.3-0.1-2.2-1-2.4-2.4C1231.2,91.4,1231.2,91.2,1231.2,90.9z M1235.8,91.1c-0.1-0.4-0.1-0.7-0.2-1
		c-0.3-0.8-0.9-1.3-1.7-1.3c-0.8,0-1.5,0.4-1.8,1.2c-0.3,0.8-0.3,1.5,0,2.3c0.3,0.7,0.9,1.1,1.7,1.1c0.8,0,1.4-0.4,1.7-1.2
		C1235.7,91.8,1235.7,91.4,1235.8,91.1z"/>
	<path class="st0" d="M937.2,94.9c0,0.2,0,0.4,0,0.5c-0.1,1.2-0.9,2-2.1,2c-1.2,0.1-2.1-0.6-2.3-1.8c-0.1-0.5-0.1-1.1,0-1.6
		c0.2-1.1,1.1-1.7,2.3-1.7c1.1,0,1.9,0.8,2.1,1.9C937.2,94.5,937.2,94.7,937.2,94.9z M936.4,94.9c-0.1-0.4-0.1-0.7-0.2-1.1
		c-0.2-0.6-0.7-0.8-1.3-0.8s-1,0.3-1.2,0.9s-0.2,1.3,0,2c0.2,0.6,0.7,0.9,1.3,0.9s1-0.3,1.2-0.9C936.3,95.6,936.3,95.3,936.4,94.9z"
		/>
	<path class="st0" d="M1246.7,58.7c0,0.4-0.1,0.7-0.2,1.1c-0.3,1.2-1.3,1.9-2.6,1.9c-1.2,0-2.1-0.8-2.4-2c-0.2-0.6-0.2-1.3,0-1.9
		c0.4-1.3,1.5-2,2.9-1.9c1.2,0.1,2.1,1.1,2.2,2.4C1246.6,58.6,1246.6,58.7,1246.7,58.7L1246.7,58.7z M1242.1,58.9c0,0.1,0,0.3,0,0.6
		c0.2,1,0.9,1.6,1.8,1.7c0.9,0,1.6-0.5,1.9-1.4c0.2-0.7,0.2-1.4-0.1-2.1c-0.3-0.7-0.9-1.1-1.6-1.1c-0.8,0-1.3,0.3-1.7,1
		C1242.2,57.9,1242.1,58.3,1242.1,58.9z"/>
	<path class="st0" d="M1197.7,58.9c0,0.2,0,0.5-0.1,0.8c-0.3,1.3-1.3,2-2.7,2c-1.2,0-2.1-0.9-2.4-2.1c-0.1-0.6-0.1-1.2,0.1-1.8
		c0.4-1.2,1.5-1.9,2.8-1.8c1.2,0.1,2,1,2.2,2.2C1197.7,58.4,1197.7,58.6,1197.7,58.9z M1193.1,58.8c0.1,0.4,0.2,0.8,0.3,1.2
		c0.3,0.7,1,1.1,1.7,1.1c0.8,0,1.4-0.4,1.7-1.2s0.3-1.5,0-2.2c-0.3-0.8-1-1.2-1.7-1.2c-0.8,0-1.4,0.4-1.7,1.1
		C1193.2,58,1193.2,58.4,1193.1,58.8z"/>
	<path class="st0" d="M1217.8,102.7c1.5,0,2.5,1,2.5,2.6c0,0.4,0,0.8-0.1,1.2c-0.4,1.3-1.4,2-2.7,1.9c-1.2-0.1-2.2-1-2.3-2.3
		c0-0.5,0-1,0.1-1.4C1215.5,103.4,1216.4,102.7,1217.8,102.7z M1219.7,105.5c-0.1-0.4-0.1-0.8-0.2-1.1c-0.3-0.8-1-1.3-1.7-1.3
		c-0.8,0-1.5,0.4-1.7,1.2c-0.3,0.8-0.3,1.5,0,2.3s1,1.2,1.7,1.1c0.8,0,1.5-0.5,1.7-1.2C1219.6,106.3,1219.6,105.9,1219.7,105.5z"/>
	<path class="st0" d="M1258.7,69.6c0.1-0.5,0.2-1,0.4-1.4c0.4-1.1,1.5-1.6,2.7-1.5c1,0.1,1.8,0.9,2.1,1.9c0.2,0.7,0.1,1.3,0,1.9
		c-0.4,1.3-1.4,2-2.7,1.8c-1.2-0.1-2.1-1-2.3-2.3c0-0.2,0-0.4,0-0.5C1258.8,69.6,1258.7,69.6,1258.7,69.6z M1263.4,69.6
		c-0.1-0.4-0.1-0.8-0.2-1.1c-0.3-0.8-0.9-1.2-1.7-1.2c-0.8,0-1.5,0.4-1.8,1.1c-0.3,0.8-0.3,1.5,0,2.3s1,1.2,1.8,1.2s1.5-0.5,1.7-1.3
		C1263.3,70.2,1263.3,69.9,1263.4,69.6z"/>
	<path class="st0" d="M934.7,83c1.2,0,2,0.7,2.2,1.8c0.1,0.6,0.1,1.1-0.1,1.6c-0.2,1-1.1,1.6-2.2,1.6c-1.1,0-1.9-0.6-2.1-1.7
		c-0.1-0.6-0.1-1.2,0-1.7C932.7,83.7,933.6,83,934.7,83z M936.2,85.5c-0.1-0.3-0.1-0.7-0.3-1c-0.2-0.5-0.7-0.8-1.3-0.8
		s-1,0.3-1.2,0.8c-0.3,0.6-0.3,1.3,0,2c0.2,0.6,0.7,0.9,1.3,0.9s1.1-0.4,1.3-0.9C936.1,86.2,936.1,85.8,936.2,85.5z"/>
	<path class="st0" d="M883.6,85.5c0,0.2,0,0.4,0,0.5c-0.1,1.3-0.9,2-2.1,2.1c-1.2,0-2.1-0.6-2.3-1.8c-0.1-0.5,0-1,0-1.5
		c0.2-1.1,1.1-1.7,2.3-1.6c1.1,0,1.8,0.8,2,1.8C883.6,85.1,883.6,85.3,883.6,85.5z M879.9,85.6c0.1,0.4,0.1,0.7,0.3,1.1
		c0.2,0.5,0.7,0.8,1.2,0.8s1-0.3,1.2-0.8c0.3-0.7,0.3-1.4,0-2.1c-0.2-0.6-0.7-0.8-1.3-0.8s-1,0.3-1.2,0.9
		C880,84.9,880,85.2,879.9,85.6z"/>
	<path class="st0" d="M1220.3,77.4c1.2,0,2.1,0.7,2.4,1.9c0.2,0.7,0.2,1.3,0,2c-0.4,1.2-1.4,1.9-2.6,1.8s-2.2-0.9-2.4-2.1
		c-0.1-0.5-0.1-1.1,0-1.6C1218,78.1,1219,77.4,1220.3,77.4z M1222.2,80.3c-0.1-0.4-0.1-0.7-0.2-1.1c-0.3-0.8-0.9-1.3-1.7-1.3
		c-0.8,0-1.5,0.4-1.8,1.2c-0.3,0.7-0.3,1.5,0,2.2c0.3,0.8,1,1.2,1.7,1.2c0.8,0,1.5-0.5,1.8-1.3C1222.1,81,1222.2,80.6,1222.2,80.3z"
		/>
	<path class="st0" d="M905.3,85.5c0,0.2,0,0.3,0,0.4c-0.1,1.9-2,2.5-3.3,1.9c-0.6-0.3-0.9-0.7-1.1-1.3c-0.2-0.6-0.2-1.2,0-1.8
		c0.3-1.1,1.1-1.7,2.4-1.7c1.1,0.1,1.9,0.8,2,2C905.3,85.2,905.3,85.4,905.3,85.5z M901.6,85.6c0.1,0.3,0.1,0.7,0.2,1
		c0.2,0.6,0.7,0.8,1.3,0.8s1-0.3,1.2-0.8c0.3-0.7,0.3-1.4,0-2.1c-0.2-0.6-0.7-0.8-1.3-0.8s-1.1,0.3-1.3,0.9
		C901.7,84.9,901.7,85.2,901.6,85.6z"/>
	<path class="st0" d="M1178.6,69.6c0-0.4,0.1-0.7,0.2-1c0.4-1.6,2-2.4,3.6-1.8c0.6,0.3,1.1,0.8,1.3,1.4c0.3,0.9,0.3,1.8,0,2.6
		c-0.4,1-1.3,1.5-2.4,1.5s-2-0.6-2.3-1.7C1178.7,70.4,1178.7,70,1178.6,69.6z M1179.3,69.5c0.1,0.4,0.2,0.9,0.3,1.2
		c0.3,0.8,0.9,1.1,1.7,1.1c0.8,0,1.5-0.4,1.7-1.2c0.3-0.8,0.3-1.6-0.1-2.4c-0.3-0.7-0.9-1-1.6-1c-0.8,0-1.3,0.3-1.7,1
		C1179.4,68.6,1179.4,69,1179.3,69.5z"/>
	<path class="st0" d="M1325.3,105.5c0,0.3-0.1,0.6-0.2,1c-0.3,1.3-1.3,2-2.6,2c-1.2,0-2.1-0.9-2.4-2.1c-0.1-0.6-0.1-1.2,0.1-1.8
		c0.4-1.3,1.5-1.9,2.9-1.8c1.1,0.1,2,1,2.1,2.3C1325.2,105.1,1325.2,105.3,1325.3,105.5C1325.2,105.5,1325.2,105.5,1325.3,105.5z
		 M1320.6,105.5c0.1,0.4,0.2,0.9,0.4,1.3c0.3,0.7,0.9,1,1.7,1c0.8,0,1.4-0.4,1.7-1.1c0.4-0.8,0.4-1.6,0-2.4
		c-0.3-0.7-0.9-1.1-1.7-1.1c-0.8,0-1.3,0.3-1.7,1C1320.8,104.6,1320.7,105,1320.6,105.5z"/>
	<path class="st0" d="M1279.1,91c0,0.3,0,0.5-0.1,0.8c-0.3,1.5-1.5,2.3-3.1,2.1c-1.1-0.2-2-1.1-2-2.4c0-0.5,0-1,0.1-1.4
		c0.4-1.3,1.5-2,2.8-1.8c1.2,0.1,2.1,1,2.2,2.4C1279.1,90.7,1279.1,90.8,1279.1,91L1279.1,91z M1274.5,90.8c0,0.4,0,0.6,0.1,0.8
		c0.2,1,0.9,1.6,1.7,1.7c1,0,1.7-0.5,2-1.5c0.2-0.7,0.2-1.3-0.1-1.9c-0.3-0.8-0.9-1.2-1.7-1.2c-0.8,0-1.5,0.4-1.7,1.1
		C1274.6,90.2,1274.6,90.6,1274.5,90.8z"/>
	<path class="st0" d="M1217.6,91c0,0.3-0.1,0.6-0.2,1c-0.3,1.3-1.3,2-2.5,2c-1.3,0-2.2-0.8-2.5-2c-0.2-0.6-0.1-1.2,0-1.8
		c0.4-1.3,1.4-2,2.8-1.9c1.3,0.1,2.1,1,2.3,2.4C1217.5,90.6,1217.5,90.8,1217.6,91L1217.6,91z M1213,90.8c0,0.4,0,0.6,0.1,0.8
		c0.2,1,0.9,1.6,1.7,1.7c1,0,1.7-0.5,2-1.5c0.2-0.7,0.2-1.3-0.1-1.9c-0.3-0.8-0.9-1.2-1.7-1.2c-0.8,0-1.5,0.4-1.8,1.1
		C1213.2,90.2,1213.1,90.6,1213,90.8z"/>
	<path class="st0" d="M1285.3,105.5c0,0.3-0.1,0.7-0.2,1c-0.4,1.3-1.3,2-2.7,1.9c-1.2,0-2.1-0.9-2.4-2.2c-0.1-0.6-0.1-1.3,0.1-1.9
		c0.4-1.2,1.5-1.8,2.9-1.7c1.1,0.1,2,1,2.1,2.2C1285.3,105.1,1285.3,105.3,1285.3,105.5L1285.3,105.5z M1284.6,105.5
		c-0.1-0.4-0.1-0.8-0.3-1.1c-0.3-0.8-0.9-1.1-1.7-1.2c-0.8,0-1.4,0.4-1.7,1.1c-0.4,0.8-0.4,1.5,0,2.3c0.3,0.8,1,1.2,1.7,1.2
		c0.8,0,1.5-0.5,1.7-1.3C1284.5,106.2,1284.6,105.9,1284.6,105.5z"/>
	<path class="st0" d="M1266.4,88.3c1,0,1.9-0.1,2.8,0.1c1,0.3,1.6,0.9,1.7,1.9c0,0.5,0,1,0,1.4c-0.3,1.1-1,1.8-2.1,1.9
		c-0.8,0.1-1.5,0.1-2.3,0.1C1266.4,91.9,1266.4,90.2,1266.4,88.3z M1267,93.2c0.5,0,1,0,1.4,0c0.9-0.1,1.5-0.6,1.7-1.5
		c0.2-0.5,0.1-1,0-1.5c-0.2-0.6-0.6-1-1.2-1.2s-1.3-0.2-1.9-0.1C1267,90.3,1267,91.7,1267,93.2z"/>
	<path class="st0" d="M1209,61.5c0-1.8,0-3.7,0-5.5c0.4-0.2,0.6,0,0.8,0.3c0.9,1.2,1.8,2.4,2.7,3.6c0.1,0.1,0.2,0.2,0.3,0.3
		c0.1-0.7,0-1.4,0.1-2.1c0-0.7,0-1.4,0-2.1c0.2,0,0.4,0,0.6,0c0,1.8,0,3.7,0,5.5c-0.3,0.2-0.5,0-0.7-0.2c-1-1.2-1.8-2.4-2.8-3.6
		c-0.1-0.1-0.2-0.2-0.3-0.4c-0.2,0.4-0.1,0.7-0.1,1.1s0,0.7,0,1.1s0,0.7,0,1s0,0.7,0,1.1C1209.3,61.5,1209.2,61.5,1209,61.5z"/>
	<path class="st0" d="M1185,93.8c-0.4,0.1-0.5,0-0.7-0.3c-0.9-1.2-1.8-2.4-2.7-3.5c-0.1-0.1-0.2-0.3-0.4-0.5c0,0.8,0,1.5,0,2.2
		s0,1.4,0,2.1c-0.2,0-0.4,0-0.6,0c0-1.8,0-3.7,0-5.5c0.3-0.1,0.5,0,0.8,0.2c0.9,1.2,1.8,2.4,2.7,3.5c0.1,0.2,0.2,0.3,0.4,0.4
		c0-1.4,0-2.7,0-4.2c0.2,0,0.4,0,0.6,0C1185,90.1,1185,91.9,1185,93.8z"/>
	<path class="st0" d="M1173.4,66.7c0.9,0,1.8,0,2.7,0.2c1.1,0.2,1.8,1,1.8,2.1c0,0.4,0,0.8,0,1.2c-0.3,1.2-1.2,2-2.6,2.1
		c-0.6,0-1.2,0-1.8,0C1173.4,70.5,1173.4,68.6,1173.4,66.7z M1174.1,71.7c0.6,0,1.2,0,1.8-0.2c0.7-0.2,1.1-0.7,1.3-1.4
		c0.1-0.5,0.1-1,0-1.5c-0.2-0.7-0.6-1.1-1.2-1.3c-0.6-0.2-1.3-0.2-1.9-0.1C1174.1,68.8,1174.1,70.3,1174.1,71.7z"/>
	<path class="st0" d="M1191.8,102.8c1,0,1.8-0.1,2.7,0.1c1,0.2,1.6,0.8,1.7,1.8c0.1,0.5,0.1,1,0,1.5c-0.2,1.1-0.9,1.8-2,2
		c-0.8,0.2-1.7,0.1-2.5,0.1C1191.8,106.4,1191.8,104.6,1191.8,102.8z M1192.5,103.2c0,1.5,0,3,0,4.5c0.6,0,1.2,0,1.8-0.2
		c0.7-0.2,1.1-0.7,1.3-1.4c0.1-0.4,0.1-0.8,0.1-1.1c-0.1-1-0.6-1.5-1.5-1.7C1193.6,103.3,1193.1,103.3,1192.5,103.2z"/>
	<path class="st0" d="M1253.5,66.7c0.9,0,1.8,0,2.7,0.2c1,0.2,1.7,0.8,1.8,1.8c0.1,0.4,0.1,0.8,0,1.2c-0.2,1.4-1.1,2.2-2.6,2.4
		c-0.6,0-1.2,0-1.9,0C1253.5,70.5,1253.5,68.6,1253.5,66.7z M1254.2,71.8c0.6,0,1.1,0,1.5-0.1c0.8-0.2,1.3-0.6,1.5-1.4
		s0.2-1.7-0.4-2.4c-0.1-0.1-0.2-0.2-0.3-0.3c-0.8-0.4-1.6-0.4-2.4-0.3C1254.2,68.8,1254.2,70.3,1254.2,71.8z"/>
	<path class="st0" d="M1214,72.3c0-1.8,0-3.7,0-5.5c1,0,2-0.2,2.9,0.1c0.9,0.2,1.4,0.9,1.6,1.8c0,0.1,0,0.2,0,0.2
		c0.2,2.1-1,3.4-3,3.4C1215,72.3,1214.6,72.3,1214,72.3z M1214.7,71.7c0.6,0.1,1.1,0,1.7-0.1c0.7-0.2,1.1-0.6,1.4-1.3
		c0.2-0.6,0.2-1.1,0-1.7s-0.6-1.1-1.2-1.2c-0.6-0.2-1.3-0.2-1.9-0.1C1214.7,68.8,1214.7,70.3,1214.7,71.7z"/>
	<path class="st0" d="M897.9,84.4c-0.3,0-0.5,0-0.7,0.1c-0.4-0.7-0.8-0.9-1.5-0.8c-0.2,0-0.4,0.1-0.5,0.2c-0.3,0.2-0.3,0.6,0,0.8
		c0.2,0.1,0.4,0.2,0.6,0.2c0.4,0.1,0.9,0.2,1.3,0.4c0.5,0.2,0.8,0.4,0.9,1c0.1,0.6-0.1,1.1-0.6,1.4c-0.8,0.5-1.7,0.5-2.6,0.1
		c-0.5-0.2-0.7-0.7-0.7-1.2c0,0,0,0,0.1,0c0.2,0,0.4-0.1,0.6-0.1l0.1,0.1c0.2,0.9,1.2,1,1.8,0.8c0.3-0.1,0.5-0.4,0.5-0.7
		c0-0.3-0.2-0.5-0.5-0.6c-0.4-0.1-0.8-0.2-1.1-0.3c-0.2-0.1-0.4-0.1-0.7-0.2c-0.4-0.2-0.7-0.6-0.8-1c0-0.5,0.2-1,0.6-1.2
		c0.8-0.4,1.7-0.4,2.5,0C897.7,83.5,897.8,83.9,897.9,84.4z"/>
	<path class="st0" d="M907.1,87.9c-0.3,0-0.5,0-0.8,0c0-1.6,0-3.1,0-4.8c0.2,0,0.4,0,0.7,0c0,0.1,0,0.3,0.1,0.4c0,0,0.1,0,0.2,0
		c0.5-0.5,1.1-0.6,1.8-0.5s1.2,0.6,1.2,1.3c0,1.2,0,2.4,0,3.6c-0.3,0-0.5,0-0.8,0c0-0.2,0-0.4,0-0.5c0-0.7,0-1.4,0-2.1
		c0-0.2,0-0.4,0-0.6c0-0.7-0.3-1-0.9-1.1c-0.6-0.1-1.1,0.3-1.3,0.9c-0.1,0.3-0.1,0.6-0.1,0.8C907.1,86.3,907.1,87.1,907.1,87.9z"/>
	<path class="st0" d="M938.9,92.5c0,0.2,0,0.3,0,0.5c0.1,0,0.1,0,0.2-0.1c0.5-0.5,1.1-0.6,1.8-0.5s1.2,0.6,1.2,1.2
		c0,1.2,0,2.4,0,3.6c-0.2,0-0.5,0-0.8,0c0-0.2,0-0.3,0-0.4c0-0.7,0-1.5,0-2.2c0-0.2,0-0.4,0-0.6c0-0.6-0.3-1-0.9-1
		c-0.6-0.1-1.2,0.3-1.3,0.8c-0.1,0.2-0.1,0.5-0.1,0.8c0,0.7,0,1.4,0,2.1c0,0.2,0,0.4,0,0.6c-0.3,0-0.5,0-0.8,0c0-1.6,0-3.1,0-4.8
		C938.4,92.5,938.6,92.5,938.9,92.5z"/>
	<path class="st0" d="M1204.6,77.8c0,0.2-0.1,0.4-0.1,0.6c-0.4-0.1-0.7-0.3-1-0.3c-1.3-0.3-2.4,0.6-2.6,1.9c0,0.2,0,0.5,0,0.8
		c0.2,1.6,1.7,2.4,3.1,1.6c0-0.5,0-1,0-1.6c-0.4,0-0.8,0-1.2,0c0-0.2,0-0.3,0-0.5c0.6,0,1.2,0,1.8,0c0,0.2,0,0.3,0,0.5
		c0,0.6,0,1.1,0,1.6s0,0.6-0.6,0.8c-0.6,0.2-1.1,0.3-1.7,0.2c-1.1-0.2-1.9-0.9-2.2-2c-0.2-0.6-0.1-1.3,0.1-1.9
		c0.3-1,1.3-1.7,2.3-1.8C1203.5,77.3,1204.1,77.5,1204.6,77.8z"/>
	<path class="st0" d="M1244.6,69.9c0,0.8,0,1.6,0,2.4c-0.2,0-0.4,0-0.7,0c0-1.8,0-3.6,0-5.5c0.3,0,0.5,0,0.8,0c0.4,0,0.7,0,1.1,0
		c0.8,0,1.3,0.4,1.4,1c0.2,0.7-0.1,1.4-0.7,1.8c-0.1,0.1-0.3,0.2-0.5,0.3c0.5,0.8,1,1.6,1.6,2.5c-0.2,0-0.3,0-0.4,0
		c-0.3,0-0.4-0.1-0.6-0.3c-0.4-0.6-0.7-1.2-1.1-1.8c0-0.1-0.1-0.2-0.2-0.3C1245.1,69.9,1244.9,69.9,1244.6,69.9z M1244.6,67.3
		c0,0.4,0,0.7,0,1s0,0.7,0,1c0.4,0,0.7,0,1,0c0.6,0,1-0.5,1-1.1s-0.3-0.9-1-1C1245.3,67.3,1245,67.3,1244.6,67.3z"/>
	<path class="st0" d="M1242.6,67c0,0.2-0.1,0.4-0.2,0.6c-0.4-0.1-0.7-0.2-1.1-0.3c-1.3-0.2-2.3,0.5-2.6,1.8c-0.1,0.5,0,0.9,0.1,1.4
		c0.4,1.3,1.8,1.8,3,1.1c0-0.4,0-0.8,0-1.3c0-0.1,0-0.2,0-0.3c-0.4,0-0.8,0-1.1,0c0-0.2,0-0.4,0-0.5c0.6,0,1.2,0,1.8,0
		c0,0.8,0,1.7,0,2.5c-1,0.5-2,0.6-3,0.2c-0.7-0.3-1.1-0.8-1.3-1.5c-0.2-0.8-0.2-1.5,0-2.2c0.3-0.8,0.8-1.3,1.6-1.6
		C1240.8,66.5,1241.7,66.6,1242.6,67z"/>
	<path class="st0" d="M1177.4,56.3c0,0.2-0.1,0.4-0.2,0.6c-0.4-0.1-0.8-0.3-1.2-0.3c-1.4-0.2-2.4,0.7-2.5,2.1c0,0.2,0,0.4,0,0.6
		c0.2,1.5,1.7,2.3,3.1,1.6c0-0.5,0-1,0-1.6c-0.4,0-0.7,0-1.1,0c0-0.2,0-0.4,0-0.6c0.6,0,1.2,0,1.8,0c0,0.4,0,0.8,0,1.3
		c0,0.4,0,0.8,0,1.2c-1.7,1.3-4.2,0.3-4.4-1.8c0-0.5,0-1,0.1-1.4c0.3-1.2,1.3-2,2.5-2C1176.2,55.9,1176.8,55.9,1177.4,56.3z"/>
	<path class="st0" d="M1231.4,69.9c-0.3,0-0.5,0-0.8,0c0,0.8,0,1.6,0,2.4c-0.2,0-0.4,0-0.6,0c0-1.8,0-3.6,0-5.5c0.7,0,1.5,0,2.2,0
		c0.5,0,0.9,0.4,1.1,0.9c0.2,0.6,0.1,1.2-0.4,1.7c-0.2,0.2-0.4,0.3-0.7,0.5c0.5,0.8,1,1.6,1.5,2.4c-0.3,0-0.5,0-0.8,0
		C1232.4,71.5,1231.9,70.7,1231.4,69.9z M1230.6,69.4c0.4,0,0.7,0,1.1,0c0.5,0,0.9-0.5,0.9-1s-0.2-0.9-0.6-1s-0.9-0.1-1.3,0
		C1230.6,68,1230.6,68.6,1230.6,69.4z"/>
	<path class="st0" d="M938.7,87.9c-0.3,0-0.5,0-0.8,0c0-1.6,0-3.1,0-4.8c0.1,0,0.2,0,0.3,0s0.2,0,0.4,0c0,0.2,0.1,0.3,0.1,0.5h0.1
		c0.5-0.5,1.1-0.6,1.8-0.5s1.1,0.6,1.2,1.2c0,0.3,0,0.5,0,0.8c0,0.8,0,1.5,0,2.3c0,0.2,0,0.4,0,0.6c-0.3,0-0.5,0-0.8,0
		c0-0.1,0-0.3,0-0.4c0-0.8,0-1.5,0-2.3c0-0.2,0-0.3,0-0.4c0-0.7-0.3-1-1-1.1c-0.6,0-1.2,0.4-1.3,1c-0.1,0.4-0.1,0.8-0.1,1.1
		C938.7,86.5,938.7,87.2,938.7,87.9z"/>
	<path class="st0" d="M1183.3,102.7c0.6,0,1.3,0,1.8,0c0.8,0,1.2,0.4,1.4,1c0.2,0.7,0,1.4-0.6,1.8c-0.2,0.1-0.3,0.2-0.5,0.3
		c0.5,0.8,1,1.6,1.5,2.4c-0.8,0.1-0.8,0.1-1.1-0.4c-0.3-0.5-0.6-0.9-0.8-1.4c-0.2-0.5-0.5-0.6-1.1-0.5c-0.1,0.8,0,1.5,0,2.3
		c-0.2,0-0.4,0-0.6,0C1183.3,106.4,1183.3,104.6,1183.3,102.7z M1183.9,105.3c0.4,0,0.8,0,1.1,0c0.6-0.1,0.9-0.6,0.9-1.1
		c0-0.6-0.3-0.9-0.9-0.9c-0.3,0-0.7,0-1,0C1183.9,103.9,1183.9,104.6,1183.9,105.3z"/>
	<path class="st0" d="M1306.8,103.9c0-0.2,0-0.3,0-0.4c0-0.2,0-0.4,0-0.6c0.8-0.1,1.6-0.2,2.4-0.3c0,1.9,0,3.8,0,5.7
		c-0.4,0-0.8,0-1.3,0c0-1.5,0-2.9,0-4.5C1307.5,103.8,1307.2,103.9,1306.8,103.9z"/>
	<path class="st0" d="M929.8,84.5c-0.2,0-0.4,0.1-0.7,0.1c0-0.1-0.1-0.2-0.1-0.2c-0.2-0.5-0.5-0.7-1-0.7s-1,0.2-1.1,0.6
		c-0.4,0.8-0.4,1.6,0,2.4c0.2,0.5,0.6,0.7,1.1,0.6c0.5,0,0.9-0.3,1.1-0.8c0-0.1,0.1-0.3,0.2-0.4c0.2,0,0.5,0,0.7,0.1
		c0,1-0.8,1.7-1.7,1.8c-1.1,0.1-2-0.6-2.3-1.7c-0.2-0.7-0.2-1.5,0.2-2.1c0.5-1.2,2.2-1.6,3.3-0.8C929.6,83.7,929.8,84,929.8,84.5z"
		/>
	<path class="st0" d="M902.2,95.7c0,1-0.8,1.7-1.8,1.8c-1.1,0.1-2-0.6-2.2-1.7c-0.2-0.7-0.2-1.5,0.1-2.1c0.5-1.2,2.2-1.7,3.2-0.9
		c0.4,0.3,0.6,0.6,0.6,1.1c-0.2,0-0.5,0.1-0.7,0.1c0-0.1-0.1-0.2-0.1-0.3c-0.2-0.5-0.5-0.7-1-0.7s-1,0.2-1.1,0.7
		c-0.3,0.8-0.3,1.5,0,2.3c0.2,0.5,0.7,0.8,1.2,0.7c0.6,0,0.9-0.3,1.1-0.8c0-0.1,0.1-0.2,0.1-0.4C901.7,95.6,902,95.6,902.2,95.7z"/>
	<path class="st0" d="M1208.7,81.3c-0.7,0-1.3,0-2,0c-0.2,0.6-0.4,1.1-0.7,1.7c-0.2,0-0.4,0-0.7,0c0.7-1.8,1.4-3.6,2.1-5.5
		c0.2,0,0.4,0,0.6,0c0.7,1.8,1.4,3.6,2.1,5.5c-0.3,0-0.5,0-0.8,0C1209.2,82.5,1208.9,81.9,1208.7,81.3z M1208.5,80.7
		c-0.3-0.8-0.5-1.5-0.9-2.3c-0.3,0.9-0.6,1.6-0.8,2.3C1207.4,80.7,1207.9,80.7,1208.5,80.7z"/>
	<path class="st0" d="M1254.5,59.8c-0.2,0.6-0.4,1.1-0.7,1.7c-0.2,0-0.4,0-0.7,0c0.7-1.8,1.4-3.7,2.1-5.5c0.2,0,0.4,0,0.6,0
		c0.7,1.8,1.4,3.6,2.1,5.5c-0.3,0-0.5,0-0.8,0c-0.2-0.6-0.4-1.1-0.7-1.7C1255.9,59.8,1255.2,59.8,1254.5,59.8z M1255.5,56.9
		c-0.3,0.9-0.6,1.6-0.8,2.4c0.6,0,1.1,0,1.7,0C1256.1,58.5,1255.8,57.7,1255.5,56.9z"/>
	<path class="st0" d="M1191.4,88.3c0.2,0,0.4,0,0.6,0c0,0.3,0,0.6,0,0.9c0,1,0,1.9,0,2.8c0.1,0.9,0.7,1.4,1.6,1.3
		c0.6-0.1,1-0.4,1.1-0.9c0.1-0.3,0.1-0.6,0.1-1c0-0.9,0-1.8,0-2.7c0-0.2,0-0.3,0-0.5c0.2,0,0.4,0,0.6,0c0,0.2,0,0.3,0,0.5
		c0,1,0,1.9,0,2.9l0,0c0,2-1.3,2.4-2.7,2.1c-0.7-0.2-1.1-0.7-1.3-1.3c0-0.2-0.1-0.4-0.1-0.5c0-1.2,0-2.3,0-3.5
		C1191.4,88.4,1191.4,88.3,1191.4,88.3z"/>
	<path class="st0" d="M1202.1,88.3c0.2,0,0.4,0,0.6,0c0.7,1.8,1.4,3.6,2.1,5.5c-0.2,0-0.5,0-0.8,0c-0.2-0.6-0.4-1.1-0.7-1.7
		c-0.7,0-1.3,0-2,0c-0.2,0.6-0.4,1.1-0.7,1.7c-0.2,0-0.4,0-0.7,0C1200.7,91.9,1201.4,90.1,1202.1,88.3z M1201.5,91.4
		c0.6,0,1.1,0,1.7,0c-0.3-0.8-0.6-1.5-0.9-2.4C1202.1,89.9,1201.8,90.7,1201.5,91.4z"/>
	<path class="st0" d="M1229.1,56.1c0.2,0,0.4,0,0.6,0c0,0.1,0,0.2,0,0.4c0,0.9,0,1.8,0,2.7c0,0.3,0,0.6,0.1,1c0.2,0.7,0.6,1,1.4,1
		c0.7,0,1.1-0.4,1.3-1.1c0.1-0.3,0.1-0.6,0.1-1c0-1,0-2,0-3c0.2,0,0.4,0,0.7,0c0,0.2,0,0.4,0,0.6c0,0.9,0,1.7,0,2.6
		c0,0.2,0,0.4,0,0.6c-0.2,1.6-1.2,2-2.4,1.8c-0.9-0.1-1.4-0.6-1.6-1.4c0-0.1-0.1-0.2-0.1-0.4C1229.1,58.6,1229.1,57.4,1229.1,56.1z"
		/>
	<path class="st0" d="M1249.9,66.8c0.2,0,0.4,0,0.6,0c0.7,1.8,1.4,3.6,2.1,5.5c-0.3,0-0.5,0-0.8,0c-0.2-0.6-0.4-1.1-0.7-1.7
		c-0.7,0-1.3,0-2,0c-0.2,0.6-0.4,1.1-0.7,1.7c-0.2,0-0.4,0-0.7,0C1248.5,70.5,1249.2,68.6,1249.9,66.8z M1250.2,67.6
		c-0.3,0.8-0.6,1.6-0.9,2.4c0.6,0,1.1,0,1.7,0C1250.8,69.2,1250.5,68.4,1250.2,67.6z"/>
	<path class="st0" d="M930.1,93.9c-0.3,0-0.5,0.1-0.7,0.1c0-0.1-0.1-0.2-0.2-0.3c-0.2-0.4-0.5-0.6-1-0.7c-0.5,0-1,0.2-1.2,0.6
		c-0.4,0.8-0.4,1.7,0,2.5c0.2,0.5,0.7,0.6,1.2,0.6s0.8-0.3,1-0.8c0-0.1,0.1-0.3,0.2-0.4c0.2,0,0.5,0.1,0.7,0.1
		c0,0.8-0.5,1.4-1.2,1.7c-1.1,0.4-2.5-0.1-2.8-1.7c-0.1-0.7-0.1-1.3,0.2-1.9c0.5-1.2,2.2-1.7,3.2-1C929.8,93,929.9,93.3,930.1,93.9z
		"/>
	<path class="st0" d="M1207.5,108.2c-0.3,0-0.5,0-0.7,0c-0.2-0.6-0.4-1.1-0.7-1.7c-0.7,0-1.3,0-2,0c-0.2,0.6-0.4,1.1-0.7,1.7
		c-0.2,0-0.4,0-0.7,0c0.7-1.8,1.4-3.6,2.1-5.5c0.1,0,0.2,0,0.3,0c0.1,0,0.2,0,0.4,0C1206.2,104.6,1206.8,106.4,1207.5,108.2z
		 M1206,106c-0.3-0.8-0.6-1.5-0.8-2.2h-0.1c-0.3,0.7-0.5,1.5-0.8,2.2C1204.9,106,1205.4,106,1206,106z"/>
	<path class="st0" d="M1208.5,66.8c0.2,0,0.4,0,0.6,0c0.7,1.8,1.4,3.6,2.1,5.5c-0.2,0-0.5,0-0.8,0c-0.2-0.6-0.4-1.1-0.7-1.7
		c-0.7,0-1.3,0-2,0c-0.2,0.6-0.4,1.1-0.7,1.7c-0.2,0-0.4,0-0.7,0C1207.1,70.4,1207.8,68.6,1208.5,66.8z M1209.7,70
		c-0.3-0.8-0.5-1.5-0.9-2.3c-0.3,0.8-0.6,1.6-0.8,2.3C1208.6,70,1209.1,70,1209.7,70z"/>
	<path class="st0" d="M1176.1,106.5c-0.7,0-1.3,0-2,0c-0.2,0.6-0.4,1.1-0.7,1.7c-0.2,0-0.4,0-0.7,0c0.7-1.8,1.4-3.7,2.1-5.5
		c0.2,0,0.4,0,0.6,0c0.7,1.8,1.4,3.6,2.1,5.5c-0.3,0-0.5,0-0.8,0C1176.6,107.6,1176.3,107.1,1176.1,106.5z M1175.9,106
		c-0.3-0.8-0.6-1.5-0.8-2.2h-0.1c-0.2,0.7-0.5,1.5-0.8,2.2C1174.8,106,1175.3,106,1175.9,106z"/>
	<path class="st0" d="M1262.4,88.3c0.9,0,1.8,0,2.7,0c0,0.2,0,0.3,0.1,0.6c-0.8,0-1.5,0-2.2,0c0,0.6,0,1.3,0,1.9c0.7,0,1.3,0,2,0
		c0,0.2,0,0.4,0,0.6c-0.7,0-1.3,0-2,0c0,0.7,0,1.3,0,1.9c0.8,0,1.5,0,2.2,0c0,0.2,0,0.4,0,0.6c-1,0-2,0-2.9,0
		C1262.4,91.9,1262.4,90.1,1262.4,88.3z"/>
	<path class="st0" d="M1246.2,91.3c0,0.7,0,1.3,0,1.9c0.8,0,1.5,0,2.2,0c0,0.2,0,0.4,0,0.6c-1,0-1.9,0-2.9,0c0-1.8,0-3.6,0-5.5
		c0.9,0,1.8,0,2.7,0c0,0.2,0,0.4,0,0.6c-0.7,0-1.4,0-2.1,0c0,0.6,0,1.3,0,1.9c0.7,0,1.3,0,2,0c0,0.2,0,0.3,0,0.6
		C1247.5,91.3,1246.8,91.3,1246.2,91.3z"/>
	<path class="st0" d="M1187.2,82.5c0.8,0,1.5,0,2.2,0c0,0.2,0,0.4,0,0.6c-1,0-1.9,0-2.9,0c0-1.8,0-3.6,0-5.4c0.4-0.1,1.9-0.2,2.8,0
		c0,0.2,0,0.3,0,0.5c-0.8,0-1.4,0-2.1,0c0,0.6,0,1.3,0,1.9c0.6,0,1.3,0,1.9,0c0,0.2,0,0.4,0,0.6c-0.7,0-1.3,0-2,0
		C1187.2,81.2,1187.2,81.8,1187.2,82.5z"/>
	<path class="st0" d="M1225.6,66.8c0.6,0,1.2,0,1.8,0c0.8,0,1.3,0.5,1.5,1.1c0.2,0.9-0.2,1.7-0.9,1.9c-0.3,0.1-0.6,0.2-1,0.2
		c-0.2,0-0.5,0-0.8,0c0,0.4,0,0.8,0,1.1c0,0.4,0,0.7,0,1.1c-0.2,0-0.4,0-0.7,0C1225.6,70.5,1225.6,68.6,1225.6,66.8z M1226.3,69.5
		c0.4,0,0.9,0.1,1.3-0.1c0.5-0.2,0.8-0.6,0.7-1.2c0-0.5-0.4-0.8-0.9-0.9c-0.4,0-0.7,0-1.1,0C1226.3,68,1226.3,68.8,1226.3,69.5z"/>
	<path class="st0" d="M1237.3,66.8c0,0.2,0,0.3,0,0.5c-0.7,0-1.4,0-2.1,0c0,0.7,0,1.3,0,1.9c0.7,0,1.3,0,1.9,0c0,0.2,0,0.4,0,0.6
		c-0.6,0-1.3,0-1.9,0c-0.1,0.7,0,1.3,0,2c0.8,0,1.5,0,2.2,0c0,0.2,0,0.4,0,0.6c-1,0-1.9,0-2.9,0c0-0.9,0-1.8,0-2.7s0-1.8,0-2.7
		C1234.9,66.7,1236.3,66.7,1237.3,66.8z"/>
	<path class="st0" d="M1183.5,83.1c-0.2,0-0.4,0-0.6,0c-0.7-1.8-1.4-3.7-2-5.5c0.1,0,0.2,0,0.3,0c0.2,0,0.3,0,0.5,0
		c0.6,1.5,1.1,3,1.7,4.7c0.6-1.6,1.1-3.1,1.7-4.6c0.2,0,0.4,0,0.7,0C1185,79.4,1184.3,81.2,1183.5,83.1z"/>
	<path class="st0" d="M1328.3,108.3c-0.2,0-0.4,0-0.6,0c-0.7-1.8-1.4-3.6-2-5.5c0.2,0,0.3,0,0.4,0s0.2,0,0.4,0
		c0.6,1.5,1.1,3,1.7,4.7c0.6-1.6,1.1-3.1,1.7-4.7c0.2,0,0.5,0,0.7,0C1329.7,104.6,1329,106.4,1328.3,108.3z"/>
	<path class="st0" d="M1172.7,88.3c0.3,0,0.5,0,0.8,0c0.6,1.5,1.1,3,1.7,4.6c0.6-1.6,1.1-3.1,1.7-4.6c0.2,0,0.4,0,0.7,0
		c-0.7,1.8-1.4,3.7-2.1,5.5c-0.2,0-0.4,0-0.6,0C1174,92,1173.4,90.2,1172.7,88.3z"/>
	<path class="st0" d="M1288.3,108.3c-0.2,0-0.4,0-0.6,0c-0.7-1.8-1.4-3.6-2-5.5c0.3,0,0.5,0,0.8,0c0.5,1.5,1.1,3,1.7,4.6
		c0.6-1.6,1.1-3.1,1.7-4.7c0.2,0,0.5,0,0.7,0C1289.7,104.6,1289,106.4,1288.3,108.3z"/>
	<path class="st0" d="M1178.7,61.5c0-1.8,0-3.6,0-5.4c0.4-0.1,2.1-0.1,2.8,0c0,0.2,0,0.3,0,0.5c-0.4,0-0.7,0-1.1,0c-0.3,0-0.7,0-1,0
		c0,0.7,0,1.3,0,1.9c0.7,0,1.3,0,2,0c0,0.2,0,0.4,0,0.6c-0.7,0-1.3,0-2,0c0,0.7,0,1.3,0,1.9c0.8,0,1.5,0,2.2,0c0,0.2,0,0.4,0,0.6
		C1180.7,61.5,1179.8,61.5,1178.7,61.5z"/>
	<path class="st0" d="M1190.7,69.8c0,0.7,0,1.3,0,2c0.8,0.1,1.5,0,2.2,0c0,0.2,0,0.4,0,0.6c-1,0-1.9,0-2.9,0c0-1.8,0-3.6,0-5.5
		c0.9,0,1.8,0,2.7,0c0,0.2,0,0.4,0,0.6c-0.7,0-1.4,0-2.2,0c0,0.6,0,1.3,0,1.9c0.7,0.1,1.3,0,2,0c0,0.2,0,0.3,0,0.5
		C1192,69.8,1191.4,69.8,1190.7,69.8z"/>
	<path class="st0" d="M1187.8,108.2c0-1.8,0-3.7,0-5.5c0.9,0,1.8,0,2.7,0c0,0.2,0,0.3,0,0.5c-0.7,0-1.4,0-2.1,0c0,0.7,0,1.3,0,1.9
		c0.6,0,1.3,0,1.9,0c0,0.2,0,0.4,0,0.6c-0.7,0-1.3,0-2,0c0,0.7,0,1.3,0,2c0.8,0,1.5,0,2.3,0c0,0.2,0,0.4,0,0.6
		C1189.8,108.2,1188.8,108.2,1187.8,108.2z"/>
	<path class="st0" d="M1222.5,67.3c-0.8,0-1.4,0-2.1,0c0,0.6,0,1.3,0,1.9c0.6,0,1.3,0,1.9,0c0,0.2,0,0.4,0,0.6c-0.7,0-1.3,0-2,0
		c0,0.7,0,1.3,0,2c0.8,0,1.5,0,2.3,0c0,0.2,0,0.4,0,0.6c-1,0-1.9,0-2.9,0c0-1.8,0-3.7,0-5.5c0.9,0,1.8,0,2.7,0
		C1222.5,67,1222.5,67.1,1222.5,67.3z"/>
	<path class="st0" d="M1238.5,56.8c-1.7-0.5-2.5-0.3-3.1,0.6c-0.6,0.8-0.6,2.2,0,2.9c0.9,1.1,1.9,0.9,3.1,0.4c0,0.2,0,0.4,0.1,0.6
		c-1,0.5-2,0.6-3,0c-1-0.5-1.3-1.4-1.3-2.4c0-0.7,0.1-1.3,0.5-1.8c0.7-1.1,1.8-1.3,2.9-1.2c0.3,0,0.6,0.1,0.9,0.2
		C1238.6,56.4,1238.6,56.6,1238.5,56.8z"/>
	<path class="st0" d="M1214.8,77.7c0,0.2,0,0.4-0.1,0.6c-0.2,0-0.3-0.1-0.4-0.1c-0.4-0.1-0.8-0.2-1.1-0.2c-0.9,0-1.6,0.6-1.9,1.4
		c-0.2,0.6-0.2,1.1,0,1.6c0.3,1.2,1.4,1.8,2.7,1.4c0.2-0.1,0.5-0.2,0.8-0.3c0,0.2,0,0.4,0,0.6c-1,0.4-2,0.6-3,0
		c-1-0.5-1.3-1.4-1.3-2.4C1210.4,78.1,1212.7,76.6,1214.8,77.7z"/>
	<path class="st0" d="M1188.9,67c0,0.1,0,0.2,0,0.3s0,0.2-0.1,0.3c-0.2,0-0.3-0.1-0.4-0.1c-0.5-0.2-1-0.2-1.6-0.1l0,0
		c-1.1,0.3-1.7,1.5-1.5,2.7s1.1,1.9,2.2,1.8c0.4,0,0.8-0.2,1.3-0.3c0,0.1,0,0.3,0.1,0.5c-1.1,0.5-2,0.6-3,0c-0.7-0.4-1.1-1-1.2-1.7
		c-0.1-0.5-0.1-1,0-1.5c0.2-1.3,1.3-2.1,2.6-2.2C1187.9,66.6,1188.4,66.7,1188.9,67z"/>
	<path class="st0" d="M1212.1,107.4c0,0.2,0,0.4,0.1,0.6c-1.1,0.4-2.1,0.6-3.1,0s-1.3-1.6-1.1-2.7c0.1-1.4,0.9-2.3,2.2-2.5
		c0.7-0.2,1.5-0.1,2.2,0.2c0,0.2-0.1,0.4-0.1,0.6c-1.6-0.5-2.5-0.3-3.1,0.5s-0.6,2.2,0,2.9C1209.6,107.8,1210.4,108,1212.1,107.4z"
		/>
	<path class="st0" d="M1230.5,88.4c0,0.2-0.1,0.4-0.1,0.6c-1.2-0.4-2.3-0.6-3.1,0.6c-0.6,0.8-0.5,2.2,0.1,2.9
		c0.4,0.5,0.9,0.8,1.5,0.8s1.1-0.2,1.7-0.3c0,0.1,0,0.3,0,0.5c-1,0.4-2,0.6-2.9,0c-1-0.5-1.3-1.4-1.3-2.4c0-1.4,0.8-2.5,2-2.9
		C1229,88,1229.8,88.1,1230.5,88.4z"/>
	<path class="st0" d="M1203.8,71.4c0,0.2,0,0.4,0,0.6c-1.7,1.2-4.1,0.1-4.3-1.9c0-0.5,0-1,0.1-1.4c0.3-1.1,1.3-1.9,2.5-2
		c0.6,0,1.1,0,1.7,0.3c0,0.2,0,0.4,0,0.6c-0.2,0-0.2-0.1-0.4-0.1c-0.4-0.1-0.8-0.2-1.1-0.2c-1.1,0-1.8,0.7-2,1.7c0,0.1,0,0.2,0,0.3
		c-0.2,1.6,0.9,3.1,3,2.4C1203.4,71.6,1203.6,71.5,1203.8,71.4z"/>
	<path class="st0" d="M1182.1,107.4c0,0.2,0,0.4,0.1,0.5c-1.6,1.1-3.9,0.2-4.3-1.7c-0.1-0.6-0.1-1.2,0.1-1.7
		c0.4-1.1,1.3-1.8,2.4-1.8c0.6,0,1.2,0,1.8,0.3c0,0.2-0.1,0.4-0.1,0.6c-1.2-0.5-2.4-0.6-3.1,0.6c-0.6,0.8-0.5,2.2,0.1,2.9
		C1179.7,107.9,1180.6,108,1182.1,107.4z"/>
	<path class="st0" d="M1185.4,56.2c0,0.2-0.1,0.3-0.1,0.5c-0.2-0.1-0.4-0.2-0.6-0.2c-0.3-0.1-0.7-0.2-1,0c-0.4,0.2-0.6,0.4-0.6,0.8
		c0,0.4,0,0.7,0.4,0.9c0.2,0.1,0.4,0.2,0.7,0.4c0.2,0.1,0.5,0.2,0.8,0.4c0.5,0.3,0.7,0.8,0.6,1.4c-0.1,0.6-0.4,1-0.9,1.1
		c-0.8,0.3-1.5,0.2-2.3-0.2c0-0.2,0.1-0.4,0.1-0.6c0.4,0.1,0.6,0.3,1,0.4c0.3,0,0.6,0,0.9,0c0.6-0.2,0.8-1,0.3-1.5
		c-0.2-0.2-0.4-0.3-0.7-0.4c-0.2-0.1-0.4-0.2-0.6-0.3c-0.7-0.4-0.9-0.9-0.8-1.6c0.1-0.7,0.6-1.1,1.3-1.3
		C1184.2,55.8,1184.9,55.9,1185.4,56.2z"/>
	<path class="st0" d="M1190.4,88.4c0,0.2,0,0.4-0.1,0.6c-1.3-0.5-2.4-0.6-3.2,0.7c-0.6,0.9-0.4,2.2,0.2,2.9c0.7,0.8,1.6,0.8,2.9,0.3
		c0,0.2,0.1,0.3,0.1,0.5c-1.6,1.2-4,0.2-4.3-1.7c-0.1-0.6-0.1-1.1,0.1-1.7c0.4-1.1,1.1-1.7,2.3-1.9
		C1189.2,88.1,1189.8,88.1,1190.4,88.4z"/>
	<path class="st0" d="M1209.5,88.4c0,0.2-0.1,0.4-0.1,0.6c-1.2-0.5-2.4-0.6-3.1,0.6c-0.6,0.9-0.5,2.2,0.1,2.9c0.6,0.8,1.5,0.9,3,0.4
		c0,0.1,0.1,0.2,0.1,0.2s0,0.2,0,0.3c-1,0.4-1.9,0.6-2.9,0.1c-0.9-0.4-1.3-1.2-1.3-2.2c0-0.4,0-0.7,0-1.1c0.2-1.3,1.2-2.1,2.5-2.2
		C1208.3,88.1,1208.9,88.1,1209.5,88.4z"/>
	<path class="st0" d="M1190.1,82.8c0-0.2,0-0.4,0-0.6c0.4,0.2,0.7,0.3,1.1,0.4c0.2,0,0.5,0,0.7,0c0.7-0.2,0.9-1.1,0.4-1.5
		c-0.2-0.2-0.4-0.3-0.6-0.4s-0.5-0.2-0.7-0.3c-0.7-0.4-0.9-1-0.8-1.7c0.1-0.6,0.7-1.1,1.4-1.1c0.6-0.1,1,0,1.5,0.3
		c0,0.2,0,0.3-0.1,0.6c-0.2-0.1-0.3-0.1-0.4-0.2c-0.3,0-0.6-0.1-1-0.1s-0.7,0.3-0.8,0.7c-0.1,0.4,0,0.8,0.4,1
		c0.2,0.2,0.4,0.2,0.7,0.4c0.2,0.1,0.5,0.2,0.8,0.4c0.5,0.3,0.7,0.8,0.6,1.3c-0.1,0.6-0.4,1-1,1.2
		C1191.5,83.3,1190.8,83.2,1190.1,82.8z"/>
	<path class="st0" d="M1217.6,56.2c0,0.2-0.1,0.4-0.1,0.5c-0.4-0.1-0.8-0.2-1.2-0.2c-0.6,0-1,0.5-1,1.1c0,0.3,0.2,0.5,0.4,0.7
		c0.2,0.1,0.5,0.2,0.7,0.4c0.2,0.1,0.4,0.2,0.7,0.4c0.6,0.4,0.7,0.9,0.6,1.5s-0.5,1-1,1.1c-0.7,0.2-1.4,0.2-2.1-0.2
		c0-0.2,0-0.4,0-0.6c0.2,0.1,0.3,0.2,0.4,0.2c0.4,0.1,0.7,0.2,1.1,0.2c0.5,0,0.8-0.3,0.9-0.7s0-0.8-0.4-1s-0.8-0.4-1.1-0.6
		c-0.7-0.4-0.9-0.9-0.8-1.6c0.1-0.7,0.6-1.1,1.3-1.3C1216.5,55.9,1217,55.9,1217.6,56.2z"/>
	<path class="st0" d="M919.4,90.8c0,0.6,0,1.1,0,1.7c0.3,0,0.5,0,0.8,0.1c0,0.2,0,0.4,0,0.6c-0.2,0-0.5,0-0.8,0.1c0,0.2,0,0.3,0,0.5
		c0,0.8,0,1.5,0,2.3c0,0.6,0,0.7,0.7,0.7c0,0,0.1,0,0.2,0c0,0.2,0,0.4,0.1,0.7c-0.2,0-0.3,0.1-0.5,0.1c-0.9,0.1-1.3-0.3-1.3-1.1
		c0-0.8,0-1.7,0-2.5c0-0.2,0-0.4,0-0.6c-0.2,0-0.4-0.1-0.6-0.1c0-0.2,0-0.3,0-0.5c0.2,0,0.4-0.1,0.6-0.1c0-0.4,0-0.8,0-1.1
		C918.9,91.2,919.1,91,919.4,90.8z"/>
	<path class="st0" d="M927,106.6c-0.2,0-0.5,0-0.8,0c0-2.2,0-4.4,0-6.6c0.2,0,0.5,0,0.7,0C927.1,100.4,927.1,106,927,106.6z"/>
	<path class="st0" d="M949,81.4c0,2.2,0,4.4,0,6.6c-0.3,0-0.5,0-0.8,0c0-2.2,0-4.4,0-6.6C948.6,81.4,948.8,81.4,949,81.4z"/>
	<path class="st0" d="M1218,56.6c0-0.2,0-0.4,0-0.6c1.3,0,2.7,0,4,0c0,0.2,0,0.3,0,0.6c-0.6,0-1.1,0-1.7,0c0,1.7,0,3.3,0,4.9
		c-0.2,0-0.4,0-0.7,0c0-1.6,0-3.2,0-4.9C1219.1,56.6,1218.6,56.6,1218,56.6z"/>
	<path class="st0" d="M1203,102.8c0,0.2,0,0.3,0,0.5c-0.6,0-1.1,0-1.7,0c-0.1,0.6,0,1.1,0,1.7s0,1.1,0,1.7s0,1.1,0,1.7
		c-0.2,0-0.4,0-0.7,0c0-1.7,0-3.3,0-4.9c-0.6,0-1.1,0-1.6,0c0-0.2,0-0.4,0-0.6C1200.4,102.8,1201.7,102.8,1203,102.8z"/>
	<path class="st0" d="M1188.1,61.5c-0.2,0-0.4,0-0.7,0c0-1.7,0-3.3,0-4.9c-0.6,0-1.1,0-1.6,0c0-0.2,0-0.4,0-0.6c1.3,0,2.6,0,4,0
		c0,0.1,0,0.3,0,0.5c-0.6,0.2-1.1,0-1.7,0.1C1188,58.3,1188.1,59.9,1188.1,61.5z"/>
	<path class="st0" d="M1224.3,56.6c0-0.2,0-0.4,0-0.6c1.3,0,2.6,0,4,0c0,0.2,0,0.3,0,0.6c-0.6,0-1.1,0-1.7,0c0,1.7,0,3.3,0,4.9
		c-0.2,0-0.4,0-0.7,0c0-1.7,0-3.3,0-5C1225.4,56.6,1224.9,56.6,1224.3,56.6z"/>
	<path class="st0" d="M1195.9,83c-0.2,0-0.4,0-0.7,0c0-1.6,0-3.3,0-4.9c-0.6,0-1.1,0-1.7,0c0-0.2,0-0.4,0-0.6c1.3,0,2.7,0,4,0
		c0,0.2,0,0.3,0,0.5c-0.6,0-1.1,0-1.7,0C1195.9,79.7,1195.9,81.4,1195.9,83z"/>
	<path class="st0" d="M1259.4,61c0.8,0,1.5,0,2.2,0c0,0.2,0,0.4,0,0.6c-1,0-1.9,0-2.9,0c0-1.8,0-3.6,0-5.5c0.2,0,0.4,0,0.7,0
		C1259.4,57.7,1259.4,59.3,1259.4,61z"/>
	<path class="st0" d="M903.6,92.5c0,0.2,0,0.3,0,0.4c0.3-0.2,0.6-0.4,0.9-0.5c0.3-0.1,0.7,0,1,0.2c-0.1,0.2-0.2,0.4-0.3,0.7
		c-0.2,0-0.3-0.1-0.5-0.1c-0.5,0-0.8,0.1-0.9,0.6c-0.1,0.4-0.2,0.8-0.2,1.1c0,0.6,0,1.2,0,1.8c0,0.2,0,0.4,0,0.6c-0.3,0-0.5,0-0.7,0
		c-0.1-0.4-0.2-4,0-4.8C903.2,92.5,903.4,92.5,903.6,92.5z"/>
	<path class="st0" d="M1249.4,88.3c0.2,0,0.4,0,0.6,0c0,1.6,0,3.2,0,4.9c0.8,0,1.5,0,2.3,0c0,0.2,0,0.4,0,0.6c-1,0-1.9,0-2.9,0
		C1249.4,91.9,1249.4,90.1,1249.4,88.3z"/>
	<path class="st0" d="M1197.6,93.2c0.8,0,1.5,0,2.2,0c0,0.2,0,0.4,0,0.6c-1,0-1.9,0-2.9,0c0-1.8,0-3.6,0-5.5c0.2,0,0.4,0,0.6,0
		C1197.6,89.9,1197.6,91.5,1197.6,93.2z"/>
	<path class="st0" d="M924.3,101.9c0.3,0,0.5,0,0.8,0c0,1.6,0,3.1,0,4.8c-0.2,0-0.5,0-0.7,0C924.2,106.3,924.1,102.6,924.3,101.9z"
		/>
	<path class="st0" d="M892.4,87.9c0-1.6,0-3.1,0-4.7c0.2,0,0.5,0,0.8,0c0,1.6,0,3.1,0,4.7C892.9,87.9,892.6,87.9,892.4,87.9z"/>
	<path class="st0" d="M899,83.2c0.3,0,0.5,0,0.8,0c0.1,0.4,0.2,3.7,0,4.8c-0.2,0-0.5,0-0.8,0C899,86.3,899,84.8,899,83.2z"/>
	<path class="st0" d="M931.8,97.3c-0.3,0-0.5,0-0.8,0c0-1.6,0-3.2,0-4.8c0.3,0,0.5,0,0.8,0C931.8,94.1,931.7,95.7,931.8,97.3z"/>
	<path class="st0" d="M917.2,97.3c-0.3,0-0.5,0-0.8,0c0-1.6,0-3.1,0-4.8c0.3,0,0.5,0,0.8,0C917.2,94.1,917.2,95.7,917.2,97.3z"/>
	<path class="st0" d="M1223.5,56.1c0,1.8,0,3.6,0,5.4c-0.2,0-0.4,0-0.7,0c0-1.8,0-3.6,0-5.4C1223,56.1,1223.2,56.1,1223.5,56.1z"/>
	<path class="st0" d="M1205.6,66.8c0,1.8,0,3.6,0,5.5c-0.2,0-0.4,0-0.7,0c0-1.8,0-3.6,0-5.5C1205.1,66.8,1205.4,66.8,1205.6,66.8z"
		/>
	<path class="st0" d="M1207.4,61.5c-0.2,0-0.4,0-0.6,0c0-1.8,0-3.6,0-5.5c0.2,0,0.4,0,0.6,0C1207.4,57.9,1207.4,59.7,1207.4,61.5z"
		/>
	<path class="st0" d="M1174,83c-0.2,0-0.4,0-0.6,0c0-1.8,0-3.6,0-5.5c0.2,0,0.4,0,0.6,0C1174,79.3,1174,81.2,1174,83z"/>
	<path class="st0" d="M1178.9,93.7c-0.2,0-0.4,0-0.6,0c0-1.8,0-3.6,0-5.5c0.2,0,0.4,0,0.6,0c0,0.9,0,1.8,0,2.7
		C1178.9,91.9,1178.9,92.8,1178.9,93.7z"/>
	<path class="st0" d="M1239.7,56.1c0.2,0,0.4,0,0.6,0c0,1.8,0,3.6,0,5.5c-0.2,0-0.4,0-0.6,0C1239.7,59.7,1239.7,57.9,1239.7,56.1z"
		/>
	<path class="st0" d="M1191.2,61.5c-0.2,0-0.4,0-0.6,0c0-1.8,0-3.7,0-5.5c0.2,0,0.4,0,0.6,0C1191.2,57.9,1191.2,59.7,1191.2,61.5z"
		/>
	<path class="st0" d="M1215.8,83c0-1.8,0-3.6,0-5.4c0.2,0,0.4,0,0.6,0c0,1.8,0,3.6,0,5.4C1216.2,83,1216,83,1215.8,83z"/>
	<path class="st0" d="M930.6,83.2c0.3,0,0.5,0,0.8,0c0,1.6,0,3.1,0,4.8c-0.2,0-0.5,0-0.8,0C930.6,86.4,930.6,84.8,930.6,83.2z"/>
	<path class="st0" d="M1211.2,93.7c-0.2,0-0.4,0-0.6,0c0-1.8,0-3.6,0-5.5c0.2,0,0.4,0,0.6,0C1211.2,90.1,1211.2,91.9,1211.2,93.7z"
		/>
	<path class="st0" d="M1272.7,93.7c-0.2,0-0.4,0-0.6,0c0-1.8,0-3.6,0-5.5c0.2,0,0.4,0,0.6,0C1272.7,90.1,1272.7,91.9,1272.7,93.7z"
		/>
	<path class="st0" d="M1198.4,77.5c0.2,0,0.4,0,0.6,0c0,1.8,0,3.6,0,5.5c-0.2,0-0.4,0-0.6,0C1198.4,81.2,1198.4,79.4,1198.4,77.5z"
		/>
	<path class="st0" d="M1313.7,102.6c-0.9,2.2-1.8,4.3-2.6,6.4c-0.2,0-0.3,0-0.5,0c0-0.1,0.1-0.2,0.1-0.3c0.8-1.9,1.6-3.9,2.4-5.8
		C1313.2,102.5,1313.2,102.5,1313.7,102.6z"/>
	<path class="st0" d="M1198.2,108.2c-0.2,0-0.4,0-0.6,0c0-1.8,0-3.6,0-5.5c0.1,0,0.2,0,0.3,0c0.1,0,0.2,0,0.3,0
		C1198.2,104.6,1198.2,106.4,1198.2,108.2z"/>
	<path class="st0" d="M1213.9,108.2c-0.2,0-0.4,0-0.6,0c0-1.8,0-3.6,0-5.5c0.2,0,0.4,0,0.6,0
		C1213.9,104.6,1213.9,106.4,1213.9,108.2z"/>
	<path class="st0" d="M911.3,103.9c0,0.3,0,0.5,0,0.8c-0.8,0-1.7,0-2.5,0c0-0.2,0-0.5,0-0.8C909.7,103.9,910.5,103.9,911.3,103.9z"
		/>
	<path class="st0" d="M904.1,81.3c-0.3,0.4-0.6,0.8-0.9,1.1c-0.2,0.3-0.5,0.1-0.8,0.2c0.2-0.5,0.4-0.9,0.6-1.3
		C903.3,81.3,903.6,81.3,904.1,81.3z"/>
	<path class="st0" d="M935.9,90.6c-0.3,0.4-0.5,0.6-0.7,0.9c-0.2,0.4-0.5,0.5-1,0.3c0.2-0.4,0.4-0.8,0.6-1.2
		C935.2,90.6,935.5,90.6,935.9,90.6z"/>
	<path class="st0" d="M924.2,100c0.3,0,0.5,0,0.8,0c0,0.3,0,0.6,0,0.9c-0.2,0-0.5,0-0.8,0C924.2,100.6,924.2,100.3,924.2,100z"/>
	<path class="st0" d="M916.5,90.7c0.3,0,0.5,0,0.8,0c0,0.3,0,0.6,0,0.9c-0.2,0-0.5,0-0.8,0C916.5,91.3,916.5,91,916.5,90.7z"/>
	<path class="st0" d="M931.7,90.7c0,0.3,0,0.6,0,0.9c-0.2,0-0.5,0-0.8,0c0-0.3,0-0.6,0-0.9C931.2,90.7,931.4,90.7,931.7,90.7z"/>
	<path class="st0" d="M899.1,82.2c0-0.3,0-0.6,0-0.9c0.2,0,0.5,0,0.8,0c0,0.3,0,0.6,0,0.9C899.6,82.2,899.3,82.2,899.1,82.2z"/>
	<path class="st0" d="M893.2,81.4c0,0.3,0,0.6,0,0.8c-0.2,0-0.5,0-0.8,0c0-0.3,0-0.5,0-0.8C892.6,81.4,892.9,81.4,893.2,81.4z"/>
	<path class="st0" d="M1218.5,101.2c0.2,0.1,0.3,0.1,0.4,0.2v0.1c-0.5,0.3-0.8,1-1.7,0.8C1217.6,101.8,1218,101.5,1218.5,101.2z"/>
	<path class="st0" d="M1214.4,87.7c0.4-0.4,0.8-0.7,1.1-1c0.2-0.2,0.4,0,0.7,0.1c-0.4,0.3-0.8,0.6-1.2,0.9
		C1214.9,87.8,1214.7,87.7,1214.4,87.7z"/>
	<path class="st0" d="M1221.5,76.2c-0.4,0.3-0.8,0.6-1.1,0.8c-0.1,0.1-0.3,0-0.4,0v-0.1c0.4-0.3,0.7-0.6,1.1-0.9
		c0.1-0.1,0.3,0,0.5,0C1221.4,76.1,1221.4,76.1,1221.5,76.2z"/>
	<path class="st0" d="M931.4,82.2c-0.3,0-0.5,0-0.8,0c0-0.3,0-0.6,0-0.9c0.2,0,0.5,0,0.8,0C931.4,81.6,931.4,81.9,931.4,82.2z"/>
	<path class="st0" d="M1195.8,54.5c0.2,0.1,0.3,0.1,0.5,0.2c-0.4,0.3-0.8,0.6-1.2,0.9c-0.1,0.1-0.3,0-0.5-0.1
		C1195,55.1,1195.4,54.8,1195.8,54.5z"/>
</g>
<g>
	<g>
		<path class="st1" d="M64.7,20.2c18.2,0,32.9,14.7,32.9,32.9S82.8,86,64.7,86S31.8,71.3,31.8,53.1S46.5,20.2,64.7,20.2 M64.7,21.4
			C47.2,21.4,33,35.5,33,53s14.2,31.7,31.7,31.7S96.3,70.5,96.3,53S82.2,21.4,64.7,21.4z"/>
		<path class="st1" d="M55.4,28.9l8.3-5v7.6l-7.5,4.4H46V29L55.4,28.9z M46,38.5h9.8l7.9-4.5v-1.4l-7.9,4.5H46V38.5z M46,41.4h9.8
			l7.9-4.5v-1.4L55.9,40H46V41.4z M82.9,41.4H73l-7.9-4.5v-1.4L73,40h9.8L82.9,41.4L82.9,41.4z M82.9,38.5H73L65.1,34v-1.4l7.9,4.5
			h9.8L82.9,38.5L82.9,38.5z M73.5,28.9l-8.3-5v7.6l7.5,4.4h10.2V29L73.5,28.9z M66.6,47.9l6.8,3.9v-9.4h11.3V52h-1.6v20.2l-17.7,10
			v-10l8-4.5V56.4l-11.1-6.2v-6.3l2.1-1.1l2.1,1.1L66.6,47.9L66.6,47.9z M65.1,44.7v4l9.7,5.4v-3.6v-6.8h6.8h1.6v6.8h-1.6v20.9
			l-14.9,8.4V73l8-4.5V55.7l-0.2-0.3l-10.8-6.1v-4.6l0.7-0.4L65.1,44.7z M81.2,30.4v4.1H73l-6.5-3.9v-4.2l6.5,3.9L81.2,30.4z
			 M47.7,30.4v4.1h8.2l6.5-3.9v-4.2l-6.5,3.9L47.7,30.4z M46,43.8h1.6h6.8v6.8v2.9l10.6,6v4.6l-0.7,0.4l-0.7-0.4v-4L54.5,55v13.5
			l8,4.5v6.8l-14.9-8.4V50.7H46V43.8z M55.9,52.8l10.6,6v6.3l-2.1,1.1l-2.1-1.1v-4l-6.4-3.6v10.2l8,4.5v10.1l-17.7-10V52.1h-1.6
			v-9.7H56L55.9,52.8L55.9,52.8z"/>
		<path class="st1" d="M32.2,78.2c7.8,10,19.7,15.9,32.5,15.9s24.7-5.8,32.5-15.9l-6.5-6.5l0.8-0.8l6.4,6.4c5.2-7.1,8-15.5,8-24.3
			c0-22.7-18.4-41.1-41.1-41.1S23.6,30.4,23.6,53.1c0,8.8,2.8,17.3,8,24.3l6.3-6.4l0.8,0.8L32.2,78.2z M64.7,10.7
			c23.4,0,42.3,19,42.3,42.3c0,23.4-19,42.3-42.3,42.3S22.3,76.4,22.3,53C22.3,29.7,41.3,10.7,64.7,10.7z"/>
		<path class="st0" d="M102.2,50.7l0.9-0.4l0,0l-1-0.2L102.2,50.7z M99.1,52.1l2.9-1.3v-0.7l-2.2-0.5c-0.2,0-0.4,0-0.5,0
			s-0.2,0-0.2,0.1c0,0,0,0.1,0,0.3c0,0.1,0,0.2,0,0.4H99l-0.1-1.5H99v0.4l5,1v0.1l-3.9,1.8c-0.1,0-0.3,0.1-0.4,0.2
			c-0.1,0-0.2,0.1-0.3,0.2c-0.1,0.1-0.1,0.2-0.1,0.4h-0.1L99,51.5h0.1V52.1L99.1,52.1z M98.1,44.4l0.1,0.4l3.8-0.7
			c0.2,0,0.4-0.1,0.4-0.1c0.1-0.1,0.1-0.3,0.1-0.6h0.1l0.1,0.8l-3.5,2.9l0,0l3.3-0.6c0.1,0,0.2-0.1,0.3-0.2c0.1-0.1,0.1-0.3,0-0.4
			h0.1l0.2,1.2H103l-0.1-0.4l-4.8,0.9v-0.1l3.6-2.9l0,0l-3,0.5c-0.2,0-0.4,0.1-0.4,0.3c0,0.1,0,0.2,0,0.5h-0.1L98.1,44.4L98.1,44.4z
			 M97.5,43.1l-0.9-2.6h0.1l0.1,0.5l3.9-1.3c0.1,0,0.2-0.1,0.2-0.2c0-0.1,0-0.2,0-0.4h0.1l0.9,2.6l0.3-0.1v0.1l-1.5,0.5v-0.1
			l0.2-0.1c0.4-0.1,0.6-0.3,0.6-0.6s0-0.6-0.2-1.1l-0.1-0.2l-1.1,0.4l0.2,0.7L101,41v0.1l-1.7,0.6v-0.1c0.2,0,0.4-0.1,0.5-0.2
			c0.1-0.1,0.2-0.2,0.2-0.4c0-0.1,0-0.2-0.1-0.4l-3,1c0.1,0.3,0.2,0.7,0.4,1c0.1,0.2,0.3,0.3,0.5,0.4c0.2,0,0.4,0,0.6,0l0.3-0.1V43
			L97,43.6v-0.1L97.5,43.1z M98,33.8L95.7,35h0.1c0,0.7,0,1.3,0.2,1.7c0.1,0.3,0.4,0.6,0.7,0.8c0.3,0.2,0.6,0.3,0.9,0.4
			c0.3,0,0.6,0,0.9-0.1s0.5-0.4,0.7-0.7c0.1-0.3,0.2-0.7,0.2-1c0-0.4-0.1-0.8-0.2-1.1C99,34.4,98.6,34,98,33.8z M98.2,32.6l0.5,1
			l-0.4,0.2c0.5,0.3,1,0.8,1.2,1.3c0.2,0.4,0.3,0.8,0.3,1.2s0,0.8-0.2,1.2c-0.1,0.3-0.4,0.6-0.7,0.8c-0.3,0.2-0.7,0.2-1.1,0.2
			s-0.7-0.2-1-0.5s-0.6-0.6-0.9-1l0,0c0,0.1,0,0.4,0,0.8c0,0.4,0,0.7,0.1,1c0,0.2,0.1,0.5,0.2,0.7c0.1,0.1,0.1,0.3,0.2,0.3v0.1
			c-0.2-0.1-0.3-0.2-0.5-0.5c-0.1-0.2-0.2-0.4-0.2-0.6c0-0.2-0.1-0.4-0.1-0.6s-0.1-0.5-0.1-0.9c-0.1-0.8-0.1-1.4-0.1-1.9l-0.6,0.3
			c-0.1,0-0.1,0.1-0.2,0.1c0,0,0,0.1,0,0.2c0,0.1,0.1,0.2,0.1,0.3c0,0,0.1,0.1,0.1,0.2h-0.1L93.9,35H94l0.2,0.4l3.8-1.9
			c0.2-0.1,0.2-0.3,0-0.6v-0.1L98.2,32.6z M93.1,33.7l-1.6-2.2l0.1-0.1l0.3,0.4l3.4-2.4c0.1-0.1,0.1-0.2,0.1-0.3
			c0-0.1-0.1-0.2-0.2-0.4l0.1-0.1l1.6,2.2l0.2-0.2l0.1,0.1l-1.3,1l-0.1-0.1l0.2-0.1c0.3-0.2,0.5-0.5,0.4-0.7c0-0.2-0.2-0.6-0.5-1
			l-0.1-0.2l-1,0.7l0.4,0.6l0.6-0.4l0.1,0.1l-1.4,1l-0.1-0.1c0.2-0.1,0.3-0.2,0.4-0.4c0.1-0.1,0.1-0.2,0-0.4c0-0.1-0.1-0.2-0.2-0.3
			L92,32.3c0.2,0.3,0.4,0.6,0.6,0.8c0.2,0.1,0.4,0.2,0.6,0.2s0.4-0.1,0.6-0.2l0.3-0.2l0.1,0.1l-1.4,1l-0.1-0.1L93.1,33.7z M94,26.5
			l-1.3,1.3l-0.1-0.1l0.3-0.3c0.2-0.2,0.4-0.4,0.5-0.6s0-0.4-0.2-0.7c-0.1-0.1-0.2-0.2-0.3-0.2c-0.1,0-0.2,0-0.4,0
			c-0.1,0-0.2,0-0.3,0.1c-0.1,0.1-0.2,0.3-0.2,0.4c0,0.2,0,0.3,0,0.5s0.1,0.4,0.2,0.7c0.1,0.3,0.2,0.6,0.3,0.9c0,0.2,0,0.5,0,0.7
			s-0.1,0.4-0.3,0.6c-0.2,0.1-0.4,0.3-0.6,0.3s-0.5,0-0.7,0s-0.5-0.1-0.8-0.3c-0.2-0.1-0.5-0.3-0.7-0.6c-0.3-0.3-0.5-0.6-0.6-0.9
			s-0.2-0.7-0.1-1c0-0.3,0.2-0.6,0.4-0.8c0.2-0.2,0.4-0.3,0.7-0.3c0.2,0,0.5,0,0.8,0c0.2,0.1,0.5,0.2,0.7,0.4
			c0.1,0.1,0.2,0.3,0.3,0.5c0.1,0.2,0.1,0.3,0.1,0.5c0,0.1,0,0.3-0.2,0.4c-0.1,0.1-0.2,0.1-0.4,0.1c-0.1,0-0.3-0.1-0.4-0.2
			c0,0,0-0.1-0.1-0.2l0.1-0.1c0.2,0.1,0.4,0.1,0.6,0c0,0,0.1-0.1,0.1-0.3c0-0.1,0-0.2,0-0.4c0-0.1-0.1-0.2-0.2-0.3
			c-0.1-0.1-0.3-0.2-0.5-0.3c-0.2,0-0.4,0-0.6,0s-0.3,0.1-0.5,0.2c-0.2,0.2-0.3,0.4-0.4,0.7c0,0.3,0,0.6,0,0.9
			c0.1,0.3,0.2,0.6,0.5,0.9c0.2,0.2,0.5,0.4,0.8,0.5s0.6,0.2,0.8,0.1c0.3,0,0.5-0.1,0.7-0.3c0.1-0.1,0.2-0.3,0.2-0.5s0-0.4,0-0.6
			s-0.1-0.5-0.2-0.8s-0.2-0.5-0.2-0.7s0-0.4,0-0.6s0.1-0.3,0.3-0.5c0.2-0.2,0.4-0.2,0.8-0.2c0.3,0,0.6,0.2,0.8,0.4
			c0.1,0.1,0.2,0.3,0.3,0.5l0.2-0.2L94,26.5z M85.6,21.6l0.2-1l0,0l-0.7,0.7L85.6,21.6z M84.9,24.9l0.7-3.1L85,21.4l-1.7,1.5
			C83.2,23,83,23.1,83,23.2s-0.1,0.2,0,0.2c0,0.1,0.1,0.1,0.2,0.2c0,0,0.1,0.1,0.3,0.2L83.3,24L82,23.1l0.1-0.1l0.3,0.2l3.9-3.4
			l0.1,0.1L85.5,24c0,0.1,0,0.3-0.1,0.4c0,0.1,0,0.3,0,0.4s0.1,0.2,0.2,0.3l-0.1,0.1l-1.2-0.8l0.1-0.1L84.9,24.9z M82.3,17.9V18
			l-0.5-0.2l-2,4c0.2,0.1,0.5,0.2,0.7,0.3c0.2,0.1,0.4,0.1,0.6,0.1s0.3-0.1,0.4-0.3l0.5-1l0.1,0.1l-1,2.1L81,23l0.1-0.2l-2.3-1.1
			v-0.1l0.4,0.2l1.9-3.8c0-0.1,0-0.2,0-0.3c0-0.1-0.2-0.1-0.3-0.2v-0.1L82.3,17.9z M75.2,20.1l-2.6-0.7v-0.1l0.5,0.1l1.1-4
			c0-0.1,0-0.2,0-0.3c-0.1,0-0.2-0.1-0.4-0.2v-0.1l2.6,0.8l0.1-0.3h0.1l-0.4,1.6h-0.1v-0.2c0.1-0.4,0-0.7-0.1-0.8
			c-0.2-0.1-0.5-0.3-1-0.5h-0.2l-0.3,1.1l0.7,0.2l0.2-0.7h0.1L75,17.7h-0.1c0-0.2,0.1-0.4,0.1-0.5s-0.1-0.3-0.2-0.4
			c0,0-0.2-0.1-0.4-0.1l-0.9,3.1c0.3,0.1,0.7,0.2,1,0.2c0.2,0,0.4,0,0.6-0.2c0.1-0.1,0.2-0.3,0.3-0.5l0.1-0.4h0.1l-0.5,1.7H75
			L75.2,20.1z M71.4,16.6c0-0.4,0-0.8-0.2-1.1c-0.2-0.4-0.5-0.7-0.9-0.9s-0.8-0.4-1.2-0.5c-0.5,0-1,0-1.2,0l-0.5,4.1
			c0.3,0.1,0.7,0.2,1.3,0.3c0.5,0,0.9,0,1.3-0.1s0.8-0.4,1-0.7C71.1,17.3,71.3,17,71.4,16.6z M66.2,18.3h0.5l0.5-4.1
			c0-0.2-0.1-0.4-0.4-0.4h-0.1v-0.1l2.4,0.3c0.5,0,0.9,0.1,1.2,0.3c0.3,0.1,0.6,0.3,0.8,0.6c0.1,0.1,0.3,0.3,0.4,0.5
			s0.2,0.4,0.2,0.6s0,0.4,0,0.6c-0.1,0.6-0.4,1.1-0.9,1.5c-0.2,0.1-0.4,0.3-0.7,0.4c-0.2,0.1-0.5,0.2-0.9,0.2c-0.3,0-0.8,0-1.2,0
			L66.2,18.3L66.2,18.3z M61.8,16.1c0-0.4-0.2-0.7-0.5-1s-0.6-0.5-1-0.7c-0.4-0.1-0.9-0.2-1.3-0.1c-0.5,0-1,0.1-1.2,0.3l0.5,4.1
			c0.3,0,0.8,0,1.3,0s0.9-0.2,1.2-0.5c0.4-0.2,0.6-0.6,0.8-1C61.8,16.9,61.8,16.5,61.8,16.1z M57.2,19h0.5l-0.5-4.1
			c0-0.2-0.2-0.3-0.5-0.3h-0.1v-0.1l2.4-0.3c0.5,0,0.9,0,1.2,0s0.7,0.2,1,0.3c0.2,0.1,0.3,0.2,0.5,0.4c0.1,0.1,0.3,0.3,0.4,0.5
			c0.1,0.2,0.1,0.4,0.2,0.6c0,0.6-0.1,1.2-0.5,1.7c-0.1,0.2-0.3,0.4-0.6,0.6c-0.2,0.1-0.5,0.3-0.8,0.4s-0.7,0.2-1.2,0.3l-1.9,0.2
			L57.2,19z M53.6,16.8L53.1,16l0,0v1L53.6,16.8z M55.6,19.5L53.7,17L53,17.2v2.2c0,0.2,0,0.4,0,0.5s0.1,0.2,0.1,0.2s0.2,0,0.3,0
			s0.2,0,0.4-0.1v0.1l-1.5,0.4v-0.1l0.3-0.1v-5.1h0.1l2.5,3.4c0.1,0.1,0.2,0.2,0.3,0.4c0.1,0.1,0.2,0.2,0.3,0.3c0.1,0,0.2,0.1,0.4,0
			v0.1l-1.4,0.4v-0.1L55.6,19.5z M50.1,19c-0.2-0.3-0.5-0.6-0.9-0.8s-0.8-0.3-1.2-0.3s-0.9,0.1-1.3,0.3c-0.5,0.2-0.8,0.5-1,0.7
			l1.9,3.7c0.3,0,0.8-0.2,1.2-0.5c0.4-0.2,0.8-0.5,1-0.9s0.4-0.8,0.4-1.2C50.3,19.7,50.3,19.3,50.1,19z M46.8,23.2l0.5-0.2l-1.9-3.7
			c-0.1-0.2-0.3-0.2-0.6-0.1h-0.1v-0.1l2.1-1.1c0.4-0.2,0.8-0.3,1.1-0.4c0.3,0,0.7,0,1,0c0.2,0,0.4,0.1,0.6,0.2s0.4,0.2,0.5,0.4
			c0.1,0.1,0.3,0.3,0.4,0.5c0.3,0.6,0.3,1.1,0.1,1.8c-0.1,0.2-0.2,0.5-0.3,0.7s-0.3,0.4-0.6,0.7s-0.6,0.4-1,0.7l-1.7,0.9L46.8,23.2z
			 M44.7,24.8l0.4-0.3L42.7,21c-0.1-0.1-0.2-0.1-0.3-0.1S42.2,21,42,21.1V21l1.3-0.9l0.1,0.1L43,20.5l2.4,3.3
			c0.1,0.1,0.1,0.1,0.1,0.2c0,0,0.1,0,0.2,0c0.1,0,0.2-0.1,0.4-0.2l0.1,0.1L44.7,24.8L44.7,24.8z M39.9,22.1l1.2,1.4L41,23.7
			l-0.3-0.3c-0.2-0.2-0.4-0.4-0.6-0.5s-0.4,0-0.7,0.2c-0.1,0.1-0.2,0.2-0.2,0.3c0,0.1-0.1,0.2,0,0.4c0,0.1,0,0.2,0.1,0.3
			c0.1,0.1,0.2,0.2,0.4,0.2s0.3,0,0.5,0s0.4-0.1,0.8-0.2c0.3-0.1,0.6-0.2,0.9-0.2c0.2,0,0.5,0,0.7,0s0.4,0.1,0.6,0.3
			c0.1,0.2,0.2,0.4,0.3,0.6s0,0.5,0,0.7s-0.2,0.5-0.3,0.8c-0.1,0.2-0.3,0.5-0.6,0.7s-0.6,0.4-1,0.6c-0.3,0.1-0.7,0.1-1,0.1
			s-0.6-0.2-0.8-0.4c-0.1-0.2-0.2-0.4-0.3-0.7c0-0.2,0-0.5,0.1-0.8c0.1-0.2,0.2-0.5,0.5-0.7c0.1-0.1,0.3-0.2,0.5-0.3
			c0.2,0,0.3-0.1,0.5-0.1s0.3,0.1,0.4,0.2c0.1,0.1,0.1,0.2,0.1,0.4c0,0.1-0.1,0.3-0.2,0.4c0,0-0.1,0-0.2,0.1v-0.1
			c0.1-0.2,0.2-0.4,0-0.6c0-0.1-0.1-0.1-0.3-0.1c-0.1,0-0.2,0-0.4,0c-0.1,0-0.2,0.1-0.4,0.2c-0.1,0.1-0.3,0.3-0.3,0.5s0,0.4,0,0.6
			s0.1,0.3,0.2,0.5c0.2,0.2,0.4,0.3,0.7,0.4s0.6,0.1,0.9,0c0.3-0.1,0.6-0.2,0.9-0.5c0.2-0.2,0.4-0.5,0.6-0.7
			c0.1-0.3,0.2-0.6,0.2-0.8c0-0.3-0.1-0.5-0.2-0.7c-0.1-0.1-0.3-0.2-0.5-0.3c-0.2,0-0.4,0-0.6,0c-0.2,0-0.5,0.1-0.8,0.2
			s-0.5,0.1-0.8,0.2c-0.2,0-0.4,0-0.6,0c-0.2,0-0.3-0.1-0.5-0.3c-0.2-0.2-0.2-0.5-0.1-0.8c0.1-0.3,0.2-0.6,0.5-0.8
			c0.1-0.1,0.3-0.2,0.5-0.3L39.9,22.1L39.9,22.1z M34.2,29.5l2,1.7v-0.1c0.7-0.2,1.2-0.5,1.5-0.9c0.2-0.3,0.4-0.6,0.5-0.9
			s0.1-0.7,0-1s-0.2-0.6-0.5-0.8c-0.2-0.2-0.6-0.3-0.9-0.4c-0.3,0-0.7,0-1,0.1s-0.7,0.3-1,0.7C34.3,28.4,34.1,28.9,34.2,29.5z
			 M32.9,29.7l0.7-0.8l0.3,0.3c0.1-0.6,0.4-1.2,0.7-1.6c0.3-0.3,0.6-0.6,1-0.8c0.4-0.2,0.8-0.2,1.1-0.2c0.4,0,0.7,0.1,1,0.4
			c0.3,0.2,0.5,0.6,0.6,1s0,0.8,0,1.2c-0.1,0.4-0.3,0.8-0.6,1.1l0,0c0.1,0,0.3-0.2,0.7-0.3c0.3-0.2,0.6-0.3,0.9-0.5s0.4-0.3,0.6-0.5
			c0.1-0.1,0.2-0.2,0.2-0.3H40c0,0.2-0.1,0.4-0.3,0.6c-0.1,0.2-0.3,0.3-0.5,0.5c-0.2,0.1-0.3,0.3-0.5,0.4c-0.1,0.1-0.4,0.2-0.8,0.4
			c-0.7,0.3-1.2,0.6-1.7,0.8l0.5,0.4c0.1,0,0.1,0.1,0.2,0.1H37c0.1,0,0.1-0.1,0.2-0.2c0,0,0.1-0.1,0.1-0.2l0.1,0.1l-1.1,1.3
			l-0.1-0.1l0.3-0.4l-3.2-2.8C33.4,29.5,33.2,29.6,32.9,29.7L32.9,29.7L32.9,29.7z M35.9,34l-1.3,2.3h-0.1l0.2-0.4l-3.6-2.1
			c-0.1,0-0.2-0.1-0.3,0c-0.1,0-0.2,0.1-0.3,0.3L30.4,34l1.4-2.4l-0.3-0.1l0.1-0.1l1.4,0.8l-0.1,0.1l-0.2-0.1
			c-0.3-0.2-0.6-0.2-0.8-0.1c-0.2,0.1-0.4,0.4-0.7,0.9L31,33.1l1,0.6l0.4-0.7l-0.7-0.3v-0.1l1.5,0.9v0.1c-0.2-0.1-0.3-0.2-0.5-0.2
			c-0.1,0-0.3,0-0.4,0.1c0,0-0.1,0.1-0.2,0.3l2.8,1.6c0.2-0.3,0.3-0.6,0.5-0.9c0-0.2,0-0.4,0-0.6c-0.1-0.1-0.2-0.3-0.4-0.4l-0.3-0.2
			l0.1-0.1l1.5,0.9l-0.1,0.1L35.9,34z M32.9,38.5l-2.8-2.3c-0.1-0.1-0.2-0.1-0.2-0.1c-0.1,0-0.2,0-0.3,0c-0.1,0-0.1,0.2-0.2,0.3v0.1
			h-0.1l0.6-1.4H30l-0.2,0.4l3.9,3.3L33.5,39l-4.4-0.3c-0.2,0-0.5,0-0.6,0s-0.2,0-0.3,0.1c0,0-0.1,0.1-0.2,0.2v0.1h-0.1l0.7-1.6h0.1
			l-0.2,0.6L32.9,38.5z M31.5,43.5l0.1-0.5l-4-1.1c-0.1,0-0.2,0-0.3,0c0,0.1-0.1,0.2-0.2,0.4H27l0.4-1.5h0.1l-0.1,0.5l3.9,1.1
			c0.1,0,0.2,0,0.2,0c0.1,0,0.1,0,0.2,0c0,0,0.1-0.2,0.1-0.4h0.1L31.5,43.5L31.5,43.5z M30.6,48.1l0.1-0.4L26.9,47
			c-0.2,0-0.4,0-0.5,0s-0.2,0.2-0.3,0.5H26l0.1-0.8l4.3-1.5l0,0l-3.3-0.6c-0.1,0-0.3,0-0.4,0.1s-0.2,0.2-0.2,0.4h-0.1l0.2-1.2h0.1
			l-0.1,0.4l4.8,0.9v0.1l-4.3,1.5l0,0l3,0.5c0.2,0,0.4,0,0.5-0.1c0-0.1,0.1-0.2,0.1-0.4H31L30.6,48.1L30.6,48.1z M25.8,50h-0.1
			l0.1-1.3h0.1v0.5l3.9,0.3c0.2,0,0.3,0.1,0.5,0.2c0.1,0.1,0.2,0.3,0.3,0.5c0,0.2,0.1,0.4,0.1,0.6s0,0.4-0.1,0.6
			c-0.1,0.2-0.1,0.4-0.3,0.5c-0.2,0.2-0.5,0.3-0.8,0.3L26,51.9c-0.2,0-0.3,0.1-0.4,0.5h-0.1l0.1-1.5h0.1v0.5l3.8,0.3
			c0.3,0,0.5,0,0.7-0.2s0.3-0.4,0.3-0.8c0-0.3,0-0.5-0.2-0.7s-0.4-0.3-0.6-0.3l-3.4-0.2c-0.2,0-0.3,0.1-0.4,0.4L25.8,50z"/>
		<path class="st0" d="M63.4,88.1L63,92.4c0,0.1,0,0.2,0,0.3s0.2,0.1,0.4,0.1h0.1v0.1L62,92.8v-0.1h0.5l0.2-3.2L61,89.3l-0.2,2.9
			c0,0.2,0,0.3,0.1,0.3c0,0,0.2,0,0.4,0v0.1l-1.6-0.1v-0.1h0.5l0.3-4.2c0-0.2-0.1-0.3-0.5-0.4l0,0v-0.1l1.6,0.1V88h-0.5L61,89.1
			l1.9,0.1v-0.9c0-0.1,0-0.2-0.1-0.3c-0.1,0-0.2-0.1-0.3-0.1h-0.1v-0.1l1.6,0.1V88L63.4,88.1z M75.7,91.6L73,92.2v-0.1l0.5-0.1
			l-1-4.1c0-0.1-0.1-0.2-0.2-0.2s-0.2,0-0.4,0v-0.1l2.7-0.6v-0.3h0.1l0.4,1.6H75v-0.2c-0.1-0.4-0.2-0.6-0.5-0.7
			c-0.2,0-0.6,0-1.1,0.1h-0.2l0.3,1.2l0.8-0.2l-0.1-0.7h0.1l0.4,1.8h-0.1c0-0.2-0.1-0.4-0.2-0.5s-0.2-0.2-0.4-0.2
			c-0.1,0-0.2,0-0.4,0l0.7,3.1c0.4-0.1,0.7-0.2,1-0.3c0.2-0.1,0.4-0.3,0.4-0.4c0-0.2,0-0.4,0-0.6l-0.1-0.4h0.1l0.4,1.7H76L75.7,91.6
			z M69.4,87.8V88h-0.5l0.6,4.6c0.3,0,0.5-0.1,0.8-0.1c0.2,0,0.4-0.1,0.5-0.3c0.1-0.1,0.2-0.3,0.2-0.5l-0.1-1.2H71l0.3,2.4h-0.1
			v-0.3l-2.6,0.3v-0.1h0.5l-0.5-4.2c0-0.1-0.1-0.2-0.2-0.2s-0.2,0-0.4,0v-0.1L69.4,87.8z M65.4,92.8h0.5l-0.1-4.3
			c0-0.1,0-0.2-0.1-0.3c-0.1,0-0.2,0-0.4,0v-0.1h1.6v0.1h-0.5l0.1,4.1c0,0.1,0,0.2,0,0.2c0,0.1,0,0.1,0.1,0.1s0.2,0,0.4,0v0.1
			L65.4,92.8L65.4,92.8z M58.7,87.7l0.1-0.4h0.1l-0.4,1.9h-0.1c0.1-0.3,0.1-0.6,0.1-0.8c0-0.2,0-0.3-0.2-0.5
			c-0.1-0.1-0.3-0.3-0.5-0.4s-0.5-0.2-0.8-0.3c-0.5-0.1-1-0.1-1.4,0s-0.8,0.3-1.1,0.6c-0.3,0.3-0.5,0.6-0.6,1c0,0.3-0.1,0.6,0,1
			c0,0.3,0.2,0.6,0.4,0.9s0.4,0.5,0.8,0.8c0.3,0.2,0.6,0.4,1,0.4c0.4,0.1,0.8,0.1,1.1,0c0.3,0,0.7-0.1,1-0.3l0.1,0.2
			c-0.3,0.1-0.7,0.2-1.1,0.3c-0.4,0-0.8,0-1.2-0.1c-0.6-0.1-1-0.4-1.5-0.7c-0.4-0.3-0.7-0.7-0.9-1.2c-0.2-0.4-0.2-0.9-0.1-1.3
			c0.1-0.4,0.2-0.7,0.5-1c0.2-0.3,0.6-0.5,0.9-0.7c0.4-0.1,0.8-0.2,1.2-0.3s0.9,0,1.2,0.1C57.8,87.1,58.3,87.3,58.7,87.7z"/>
		<path class="st1" d="M55.4,28.9l8.3-5v7.6l-7.5,4.4H46V29L55.4,28.9z M46,38.5h9.8l7.9-4.5v-1.4l-7.9,4.5H46V38.5z M46,41.4h9.8
			l7.9-4.5v-1.4L55.9,40H46V41.4z M82.9,41.4H73l-7.9-4.5v-1.4L73,40h9.8L82.9,41.4L82.9,41.4z M82.9,38.5H73L65.1,34v-1.4l7.9,4.5
			h9.8L82.9,38.5L82.9,38.5z M73.5,28.9l-8.3-5v7.6l7.5,4.4h10.2V29L73.5,28.9z M66.6,47.9l6.8,3.9v-9.4h11.3V52h-1.6v20.2l-17.7,10
			v-10l8-4.5V56.4l-11.1-6.2v-6.3l2.1-1.1l2.1,1.1L66.6,47.9L66.6,47.9z M65.1,44.7v4l9.7,5.4v-3.6v-6.8h6.8h1.6v6.8h-1.6v20.9
			l-14.9,8.4V73l8-4.5V55.8l-0.2-0.3l-10.8-6.1v-4.6l0.7-0.4L65.1,44.7z M81.2,30.4v4.1H73l-6.5-3.9v-4.2l6.5,3.9L81.2,30.4z
			 M47.7,30.4v4.1h8.2l6.5-3.9v-4.2l-6.5,3.9L47.7,30.4z M46,43.8h1.6h6.8v6.8v2.9l10.6,6v4.6l-0.7,0.4l-0.7-0.4v-4L54.5,55v13.5
			l8,4.5v6.8l-14.9-8.4V50.7H46V43.8z M55.9,52.8l10.6,6v6.3l-2.1,1.1l-2.1-1.1v-4l-6.4-3.6v10.2l8,4.5v10.1l-17.7-10V52.1h-1.6
			v-9.7H56L55.9,52.8L55.9,52.8z"/>
		<g class="st2">
			<path class="st0" d="M5.2,122.3h4.1c3.9,0,6.4,2.3,6.4,6.4c0,4.1-2.6,6.4-6.4,6.4H5.2C5.2,135.1,5.2,122.3,5.2,122.3z M9.3,133.9
				c3.1,0,5.2-1.9,5.2-5.3c0-3.4-2.1-5.3-5.2-5.3H6.5v10.6H9.3z"/>
			<path class="st0" d="M18.7,122.3H26v1.1h-6v4.7h4.8v1.1H20v4.8h6.3v1.1h-7.5L18.7,122.3L18.7,122.3z"/>
			<path class="st0" d="M34,122.3h1.2V134h5.9v1.1H34V122.3z"/>
			<path class="st0" d="M49.8,131h-5.1l-1.5,4.1h-1.3l4.7-12.8h1.3l4.7,12.8h-1.3L49.8,131z M47.2,123.6c0,0-0.3,1-0.5,1.7L45,130
				h4.4l-1.7-4.7C47.5,124.6,47.2,123.6,47.2,123.6L47.2,123.6z"/>
			<path class="st0" d="M59.4,132.7c0,0,1.3,1.4,3.3,1.4c1.4,0,2.6-0.9,2.6-2.2c0-3.2-6.4-2.4-6.4-6.4c0-1.9,1.6-3.4,4-3.4
				c2.2,0,3.4,1.2,3.4,1.2l-0.6,1c0,0-1.1-1.1-2.8-1.1c-1.6,0-2.7,1.1-2.7,2.2c0,3,6.4,2.2,6.4,6.4c0,1.9-1.5,3.5-3.9,3.5
				c-2.6,0-4-1.6-4-1.6L59.4,132.7z"/>
			<path class="st0" d="M69.4,122.3h7.2v1.1h-5.9v4.7h4.8v1.1h-4.8v4.8H77v1.1h-7.6V122.3z"/>
			<path class="st0" d="M79.8,122.3h3.8c1.3,0,1.9,0.1,2.4,0.3c1.2,0.5,1.9,1.8,1.9,3.3c0,1.7-1,3-2.4,3.5l0,0c0,0,0.1,0.1,0.3,0.5
				l2.8,5.1h-1.4l-2.9-5.4h-3.2v5.4h-1.2L79.8,122.3L79.8,122.3z M84.1,128.5c1.6,0,2.5-1,2.5-2.6c0-1-0.4-1.9-1.2-2.2
				c-0.4-0.2-0.9-0.3-1.8-0.3H81v5.1H84.1L84.1,128.5z"/>
			<path class="st0" d="M91.2,122.3h7.2v1.1h-5.9v4.7h4.8v1.1h-4.8v4.8h6.3v1.1h-7.6V122.3z"/>
			<path class="st0" d="M101.6,122.3h1.2l6.5,9.2c0.4,0.6,1,1.7,1,1.7l0,0c0,0-0.1-1-0.1-1.7v-9.2h1.2v12.8h-1.2l-6.5-9.2
				c-0.4-0.6-1-1.7-1-1.7l0,0c0,0,0.1,1,0.1,1.7v9.2h-1.2V122.3z"/>
			<path class="st0" d="M121.6,131h-5.1l-1.5,4.1h-1.3l4.7-12.8h1.3l4.7,12.8h-1.3L121.6,131z M119.1,123.6c0,0-0.3,1-0.5,1.7
				l-1.7,4.7h4.4l-1.7-4.7C119.3,124.6,119.1,123.6,119.1,123.6L119.1,123.6z"/>
		</g>
		<g class="st2">
			<path class="st0" d="M55.7,140c1.5,0,2.3,0.8,2.3,0.8l-0.3,0.5c0,0-0.8-0.7-1.9-0.7c-1.5,0-2.6,1.1-2.6,2.7c0,1.5,1,2.8,2.6,2.8
				c1.3,0,2-0.9,2-0.9l0.4,0.4c0,0-0.9,1-2.4,1c-1.9,0-3.2-1.5-3.2-3.3C52.5,141.4,53.9,140,55.7,140z"/>
			<path class="st0" d="M59.5,140.1h0.6v2.9h3.7v-2.9h0.6v6.4h-0.6v-2.9h-3.7v2.9h-0.6C59.5,146.5,59.5,140.1,59.5,140.1z"/>
			<path class="st0" d="M66.3,140.1h0.6v6.4h-0.6V140.1z"/>
			<path class="st0" d="M68.8,140.1h0.6v5.8h2.9v0.6h-3.6L68.8,140.1L68.8,140.1z"/>
			<path class="st0" d="M73.5,140.1H77v0.6h-2.9v2.3h2.4v0.6h-2.4v2.4h3.1v0.6h-3.8L73.5,140.1L73.5,140.1z"/>
		</g>
		<g class="st2">
			<path class="st0" d="M4.9,104.3h2.4v8.3c0,1.8,1.1,2.7,2.9,2.7s2.9-1,2.9-2.8v-8.3h2.4v8.3c0,2.9-2.1,4.9-5.2,4.9s-5.3-2-5.3-4.9
				C4.9,112.6,4.9,104.3,4.9,104.3z"/>
			<path class="st0" d="M18.4,104.3h2.4l4.9,7.5c0.5,0.8,1.1,2,1.1,2l0,0c0,0-0.1-1.2-0.1-2v-7.5H29v13h-2.3l-4.9-7.5
				c-0.5-0.8-1.1-2-1.1-2l0,0c0,0,0.1,1.2,0.1,2v7.5h-2.4C18.4,117.3,18.4,104.3,18.4,104.3z"/>
			<path class="st0" d="M32.4,104.3h2.4v13h-2.4V104.3z"/>
			<path class="st0" d="M36.4,104.3H39l2.9,8.5c0.2,0.8,0.5,1.9,0.5,1.9l0,0c0,0,0.2-1.1,0.5-1.9l2.9-8.5h2.5l-4.8,13h-2.3
				L36.4,104.3z"/>
			<path class="st0" d="M49.8,104.3h7.8v2h-5.4v3.4h4.4v2h-4.4v3.5h5.7v2h-8.1C49.8,117.4,49.8,104.3,49.8,104.3z"/>
			<path class="st0" d="M60.4,104.3h4.2c1.4,0,2,0.1,2.6,0.4c1.3,0.6,2.1,1.9,2.1,3.6c0,1.6-0.8,3-2.2,3.6l0,0c0,0,0.2,0.2,0.4,0.6
				l2.7,4.8h-2.6l-2.6-4.8h-2.3v4.8h-2.4v-13H60.4z M64.9,110.4c1.3,0,2-0.8,2-2s-0.5-2-2.4-2h-1.8v4.1L64.9,110.4L64.9,110.4z"/>
			<path class="st0" d="M72.7,113.9c0,0,1.4,1.4,3.2,1.4c1,0,1.9-0.5,1.9-1.6c0-2.3-6.1-1.9-6.1-5.9c0-2.1,1.9-3.8,4.4-3.8
				c2.6,0,3.9,1.4,3.9,1.4l-1,1.9c0,0-1.2-1.1-2.9-1.1c-1.1,0-1.9,0.6-1.9,1.6c0,2.3,6.1,1.8,6.1,5.9c0,2.1-1.6,3.8-4.3,3.8
				c-2.9,0-4.5-1.8-4.5-1.8L72.7,113.9z"/>
			<path class="st0" d="M82.6,104.3H85v13h-2.4V104.3z"/>
			<path class="st0" d="M88.2,104.3h4.4c4,0,6.6,2.4,6.6,6.5s-2.6,6.5-6.6,6.5h-4.4V104.3z M92.6,115.3c2.6,0,4.3-1.6,4.3-4.5
				s-1.7-4.5-4.3-4.5h-1.9v8.9L92.6,115.3L92.6,115.3z"/>
		</g>
		<g class="st2">
			<path class="st0" d="M108.2,113.9h-4.6l-1.1,3.3h-2.4l4.6-13h2.5l4.6,13h-2.4L108.2,113.9z M105.9,106.5c0,0-0.3,1.3-0.6,2
				l-1.1,3.5h3.4l-1.1-3.5C106.2,107.8,105.9,106.5,105.9,106.5L105.9,106.5z"/>
			<path class="st0" d="M113.4,104.3h4.4c4,0,6.6,2.4,6.6,6.5s-2.6,6.5-6.6,6.5h-4.4V104.3z M117.7,115.3c2.6,0,4.3-1.6,4.3-4.5
				s-1.7-4.5-4.3-4.5h-1.9v8.9L117.7,115.3L117.7,115.3z"/>
		</g>
	</g>
</g>
</svg>
